999
dxflib 2.2.0.0
  0
SECTION
  2
HEADER
  9
$ACADVER
  1
AC1015
  9
$HANDSEED
  5
FFFF
  9
$DIMASZ
 40
2.5
  9
$PLIMMIN
 10
0.0
 20
0.0
  9
$DIMEXE
 40
1.25
  9
$DIMGAP
 40
0.625
  9
$PLIMMAX
 10
210.0
 20
297.0
  9
$INSUNITS
 70
4
  9
$DIMEXO
 40
0.625
  9
$DIMTXT
 40
2.5
  9
$CLAYER
  8
l
  0
ENDSEC
  0
SECTION
  2
TABLES
  0
TABLE
  2
VPORT
  5
8
100
AcDbSymbolTable
 70
1
  0
VPORT
  5
30
100
AcDbSymbolTableRecord
100
AcDbViewportTableRecord
  2
*Active
 70
0
 10
0.0
 20
0.0
 11
1.0
 21
1.0
 12
286.3055555555554861
 22
148.5
 13
0.0
 23
0.0
 14
10.0
 24
10.0
 15
10.0
 25
10.0
 16
0.0
 26
0.0
 36
1.0
 17
0.0
 27
0.0
 37
0.0
 40
297.0
 41
1.92798353909465
 42
50.0
 43
0.0
 44
0.0
 50
0.0
 51
0.0
 71
0
 72
100
 73
1
 74
3
 75
1
 76
1
 77
0
 78
0
281
0
 65
1
110
0.0
120
0.0
130
0.0
111
1.0
121
0.0
131
0.0
112
0.0
122
1.0
132
0.0
 79
0
146
0.0
  0
ENDTAB
  0
TABLE
  2
LTYPE
  5
5
100
AcDbSymbolTable
 70
21
  0
LTYPE
  5
14
100
AcDbSymbolTableRecord
100
AcDbLinetypeTableRecord
  2
ByBlock
 70
0
  3

 72
65
 73
0
 40
0.0
  0
LTYPE
  5
15
100
AcDbSymbolTableRecord
100
AcDbLinetypeTableRecord
  2
ByLayer
 70
0
  3

 72
65
 73
0
 40
0.0
  0
LTYPE
  5
16
100
AcDbSymbolTableRecord
100
AcDbLinetypeTableRecord
  2
CONTINUOUS
 70
0
  3
Solid line
 72
65
 73
0
 40
0.0
  0
LTYPE
  5
31
100
AcDbSymbolTableRecord
100
AcDbLinetypeTableRecord
  2
DOT
 70
0
  3
Dot . . . . . . . . . . . . . . . . . . . . . .
 72
65
 73
2
 40
6.3499999999999996
 49
0.0
 74
0
 49
-6.3499999999999996
 74
0
  0
LTYPE
  5
32
100
AcDbSymbolTableRecord
100
AcDbLinetypeTableRecord
  2
DOT2
 70
0
  3
Dot (.5x) .....................................
 72
65
 73
2
 40
3.1749999999999998
 49
0.0
 74
0
 49
-3.1749999999999998
 74
0
  0
LTYPE
  5
33
100
AcDbSymbolTableRecord
100
AcDbLinetypeTableRecord
  2
DOTX2
 70
0
  3
Dot (2x) .  .  .  .  .  .  .  .  .  .  .  .  .
 72
65
 73
2
 40
12.6999999999999993
 49
0.0
 74
0
 49
-12.6999999999999993
 74
0
  0
LTYPE
  5
34
100
AcDbSymbolTableRecord
100
AcDbLinetypeTableRecord
  2
DASHED
 70
0
  3
Dashed __ __ __ __ __ __ __ __ __ __ __ __ __ _
 72
65
 73
2
 40
19.0500000000000007
 49
12.6999999999999993
 74
0
 49
-6.3499999999999996
 74
0
  0
LTYPE
  5
35
100
AcDbSymbolTableRecord
100
AcDbLinetypeTableRecord
  2
DASHED2
 70
0
  3
Dashed (.5x) _ _ _ _ _ _ _ _ _ _ _ _ _ _ _ _ _
 72
65
 73
2
 40
9.5250000000000004
 49
6.3499999999999996
 74
0
 49
-3.1749999999999998
 74
0
  0
LTYPE
  5
36
100
AcDbSymbolTableRecord
100
AcDbLinetypeTableRecord
  2
DASHEDX2
 70
0
  3
Dashed (2x) ____  ____  ____  ____  ____  ___
 72
65
 73
2
 40
38.1000000000000014
 49
25.3999999999999986
 74
0
 49
-12.6999999999999993
 74
0
  0
LTYPE
  5
37
100
AcDbSymbolTableRecord
100
AcDbLinetypeTableRecord
  2
DASHDOT
 70
0
  3
Dash dot __ . __ . __ . __ . __ . __ . __ . __
 72
65
 73
4
 40
25.3999999999999986
 49
12.6999999999999993
 74
0
 49
-6.3499999999999996
 74
0
 49
0.0
 74
0
 49
-6.3499999999999996
 74
0
  0
LTYPE
  5
38
100
AcDbSymbolTableRecord
100
AcDbLinetypeTableRecord
  2
DASHDOT2
 70
0
  3
Dash dot (.5x) _._._._._._._._._._._._._._._.
 72
65
 73
4
 40
12.6999999999999993
 49
6.3499999999999996
 74
0
 49
-3.1749999999999998
 74
0
 49
0.0
 74
0
 49
-3.1749999999999998
 74
0
  0
LTYPE
  5
39
100
AcDbSymbolTableRecord
100
AcDbLinetypeTableRecord
  2
DASHDOTX2
 70
0
  3
Dash dot (2x) ____  .  ____  .  ____  .  ___
 72
65
 73
4
 40
50.7999999999999972
 49
25.3999999999999986
 74
0
 49
-12.6999999999999993
 74
0
 49
0.0
 74
0
 49
-12.6999999999999993
 74
0
  0
LTYPE
  5
3A
100
AcDbSymbolTableRecord
100
AcDbLinetypeTableRecord
  2
DIVIDE
 70
0
  3
Divide ____ . . ____ . . ____ . . ____ . . ____
 72
65
 73
6
 40
31.75
 49
12.6999999999999993
 74
0
 49
-6.3499999999999996
 74
0
 49
0.0
 74
0
 49
-6.3499999999999996
 74
0
 49
0.0
 74
0
 49
-6.3499999999999996
 74
0
  0
LTYPE
  5
3B
100
AcDbSymbolTableRecord
100
AcDbLinetypeTableRecord
  2
DIVIDE2
 70
0
  3
Divide (.5x) __..__..__..__..__..__..__..__.._
 72
65
 73
6
 40
15.875
 49
6.3499999999999996
 74
0
 49
-3.1749999999999998
 74
0
 49
0.0
 74
0
 49
-3.1749999999999998
 74
0
 49
0.0
 74
0
 49
-3.1749999999999998
 74
0
  0
LTYPE
  5
3C
100
AcDbSymbolTableRecord
100
AcDbLinetypeTableRecord
  2
DIVIDEX2
 70
0
  3
Divide (2x) ________  .  .  ________  .  .  _
 72
65
 73
6
 40
63.5
 49
25.3999999999999986
 74
0
 49
-12.6999999999999993
 74
0
 49
0.0
 74
0
 49
-12.6999999999999993
 74
0
 49
0.0
 74
0
 49
-12.6999999999999993
 74
0
  0
LTYPE
  5
3D
100
AcDbSymbolTableRecord
100
AcDbLinetypeTableRecord
  2
CENTER
 70
0
  3
Center ____ _ ____ _ ____ _ ____ _ ____ _ ____
 72
65
 73
4
 40
50.7999999999999972
 49
31.75
 74
0
 49
-6.3499999999999996
 74
0
 49
6.3499999999999996
 74
0
 49
-6.3499999999999996
 74
0
  0
LTYPE
  5
3E
100
AcDbSymbolTableRecord
100
AcDbLinetypeTableRecord
  2
CENTER2
 70
0
  3
Center (.5x) ___ _ ___ _ ___ _ ___ _ ___ _ ___
 72
65
 73
4
 40
28.5749999999999993
 49
19.0500000000000007
 74
0
 49
-3.1749999999999998
 74
0
 49
3.1749999999999998
 74
0
 49
-3.1749999999999998
 74
0
  0
LTYPE
  5
3F
100
AcDbSymbolTableRecord
100
AcDbLinetypeTableRecord
  2
CENTERX2
 70
0
  3
Center (2x) ________  __  ________  __  _____
 72
65
 73
4
 40
101.5999999999999943
 49
63.5
 74
0
 49
-12.6999999999999993
 74
0
 49
12.6999999999999993
 74
0
 49
-12.6999999999999993
 74
0
  0
LTYPE
  5
40
100
AcDbSymbolTableRecord
100
AcDbLinetypeTableRecord
  2
BORDER
 70
0
  3
Border __ __ . __ __ . __ __ . __ __ . __ __ .
 72
65
 73
6
 40
44.4500000000000028
 49
12.6999999999999993
 74
0
 49
-6.3499999999999996
 74
0
 49
12.6999999999999993
 74
0
 49
-6.3499999999999996
 74
0
 49
0.0
 74
0
 49
-6.3499999999999996
 74
0
  0
LTYPE
  5
41
100
AcDbSymbolTableRecord
100
AcDbLinetypeTableRecord
  2
BORDER2
 70
0
  3
Border (.5x) __.__.__.__.__.__.__.__.__.__.__.
 72
65
 73
6
 40
22.2250000000000014
 49
6.3499999999999996
 74
0
 49
-3.1749999999999998
 74
0
 49
6.3499999999999996
 74
0
 49
-3.1749999999999998
 74
0
 49
0.0
 74
0
 49
-3.1749999999999998
 74
0
  0
LTYPE
  5
42
100
AcDbSymbolTableRecord
100
AcDbLinetypeTableRecord
  2
BORDERX2
 70
0
  3
Border (2x) ____  ____  .  ____  ____  .  ___
 72
65
 73
6
 40
88.9000000000000057
 49
25.3999999999999986
 74
0
 49
-12.6999999999999993
 74
0
 49
25.3999999999999986
 74
0
 49
-12.6999999999999993
 74
0
 49
0.0
 74
0
 49
-12.6999999999999993
 74
0
  0
ENDTAB
  0
TABLE
  2
LAYER
  5
2
100
AcDbSymbolTable
 70
6
  0
LAYER
  5
10
100
AcDbSymbolTableRecord
100
AcDbLayerTableRecord
  2
0
 70
1
 62
-7
420
0
  6
CONTINUOUS
370
25
390
F
  0
LAYER
  5
43
100
AcDbSymbolTableRecord
100
AcDbLayerTableRecord
  2
noname
 70
1
 62
-7
420
0
  6
CONTINUOUS
370
0
390
F
  0
LAYER
  5
44
100
AcDbSymbolTableRecord
100
AcDbLayerTableRecord
  2
front
 70
1
 62
-7
420
0
  6
CONTINUOUS
370
0
390
F
  0
LAYER
  5
45
100
AcDbSymbolTableRecord
100
AcDbLayerTableRecord
  2
f
 70
0
 62
7
420
0
  6
CONTINUOUS
370
0
390
F
  0
LAYER
  5
46
100
AcDbSymbolTableRecord
100
AcDbLayerTableRecord
  2
r
 70
1
 62
-7
420
0
  6
CONTINUOUS
370
0
390
F
  0
LAYER
  5
47
100
AcDbSymbolTableRecord
100
AcDbLayerTableRecord
  2
l
 70
0
 62
7
420
0
  6
CONTINUOUS
370
0
390
F
  0
ENDTAB
  0
TABLE
  2
STYLE
  5
3
100
AcDbSymbolTable
 70
1
  0
STYLE
  5
11
100
AcDbSymbolTableRecord
100
AcDbTextStyleTableRecord
  2
Standard
 70
0
 40
0.0
 41
0.75
 50
0.0
 71
0
 42
2.5
  3
txt
  4

  0
ENDTAB
  0
TABLE
  2
VIEW
  5
6
100
AcDbSymbolTable
 70
0
  0
ENDTAB
  0
TABLE
  2
UCS
  5
7
100
AcDbSymbolTable
 70
0
  0
ENDTAB
  0
TABLE
  2
APPID
  5
9
100
AcDbSymbolTable
 70
1
  0
APPID
  5
12
100
AcDbSymbolTableRecord
100
AcDbRegAppTableRecord
  2
ACAD
 70
0
  0
ENDTAB
  0
TABLE
  2
DIMSTYLE
  5
A
100
AcDbSymbolTable
 70
1
100
AcDbDimStyleTable
 71
0
  0
DIMSTYLE
105
27
100
AcDbSymbolTableRecord
100
AcDbDimStyleTableRecord
  2
Standard
 41
2.5
 42
0.625
 43
3.75
 44
1.25
 70
0
 73
0
 74
0
 77
1
 78
8
140
2.5
141
2.5
143
0.03937007874016
147
0.625
171
3
172
1
271
2
272
2
274
3
278
44
283
0
284
8
340
11
  0
ENDTAB
  0
TABLE
  2
BLOCK_RECORD
  5
1
100
AcDbSymbolTable
 70
1
  0
BLOCK_RECORD
  5
1F
100
AcDbSymbolTableRecord
100
AcDbBlockTableRecord
  2
*Model_Space
340
22
  0
BLOCK_RECORD
  5
1B
100
AcDbSymbolTableRecord
100
AcDbBlockTableRecord
  2
*Paper_Space
340
1E
  0
BLOCK_RECORD
  5
23
100
AcDbSymbolTableRecord
100
AcDbBlockTableRecord
  2
*Paper_Space0
340
26
  0
ENDTAB
  0
ENDSEC
  0
SECTION
  2
BLOCKS
  0
BLOCK
  5
20
100
AcDbEntity
  8
0
100
AcDbBlockBegin
  2
*Model_Space
 70
0
 10
0.0
 20
0.0
 30
0.0
  3
*Model_Space
  1

  0
ENDBLK
  5
21
100
AcDbEntity
  8
0
100
AcDbBlockEnd
  0
BLOCK
  5
1C
100
AcDbEntity
 67
1
  8
0
100
AcDbBlockBegin
  2
*Paper_Space
 70
0
 10
0.0
 20
0.0
 30
0.0
  3
*Paper_Space
  1

  0
ENDBLK
  5
1D
100
AcDbEntity
 67
1
  8
0
100
AcDbBlockEnd
  0
BLOCK
  5
24
100
AcDbEntity
  8
0
100
AcDbBlockBegin
  2
*Paper_Space0
 70
0
 10
0.0
 20
0.0
 30
0.0
  3
*Paper_Space0
  1

  0
ENDBLK
  5
25
100
AcDbEntity
  8
0
100
AcDbBlockEnd
  0
ENDSEC
  0
SECTION
  2
ENTITIES
  0
LINE
  5
48
100
AcDbEntity
100
AcDbLine
  8
0
 62
256
370
-1
  6
ByLayer
 10
0.4
 20
0.0
 30
0.0
 11
0.4
 21
2.7000000000000002
 31
0.0
  0
LINE
  5
49
100
AcDbEntity
100
AcDbLine
  8
0
 62
256
370
-1
  6
ByLayer
 10
0.4
 20
2.7000000000000002
 30
0.0
 11
16.1000000000000014
 21
2.7000000000000002
 31
0.0
  0
LINE
  5
4A
100
AcDbEntity
100
AcDbLine
  8
0
 62
256
370
-1
  6
ByLayer
 10
16.1000000000000014
 20
2.7000000000000002
 30
0.0
 11
16.1000000000000014
 21
0.0
 31
0.0
  0
LINE
  5
4B
100
AcDbEntity
100
AcDbLine
  8
0
 62
256
370
-1
  6
ByLayer
 10
16.1000000000000014
 20
0.0
 30
0.0
 11
0.4
 21
0.0
 31
0.0
  0
LINE
  5
4C
100
AcDbEntity
100
AcDbLine
  8
0
 62
256
370
-1
  6
ByLayer
 10
5.3000000000000007
 20
3.2000000000000002
 30
0.0
 11
2.5
 21
3.2000000000000002
 31
0.0
  0
LINE
  5
4D
100
AcDbEntity
100
AcDbLine
  8
0
 62
256
370
-1
  6
ByLayer
 10
2.5
 20
3.2000000000000002
 30
0.0
 11
2.5
 21
12.6000000000000014
 31
0.0
  0
LINE
  5
4E
100
AcDbEntity
100
AcDbLine
  8
0
 62
256
370
-1
  6
ByLayer
 10
2.5
 20
12.6000000000000014
 30
0.0
 11
0.0
 21
12.6000000000000014
 31
0.0
  0
LINE
  5
4F
100
AcDbEntity
100
AcDbLine
  8
0
 62
256
370
-1
  6
ByLayer
 10
0.0
 20
12.6000000000000014
 30
0.0
 11
4.0
 21
18.0
 31
0.0
  0
LINE
  5
50
100
AcDbEntity
100
AcDbLine
  8
0
 62
256
370
-1
  6
ByLayer
 10
4.0
 20
18.0
 30
0.0
 11
7.9000000000000004
 21
12.6000000000000014
 31
0.0
  0
LINE
  5
51
100
AcDbEntity
100
AcDbLine
  8
0
 62
256
370
-1
  6
ByLayer
 10
7.9000000000000004
 20
12.6000000000000014
 30
0.0
 11
5.3000000000000007
 21
12.6000000000000014
 31
0.0
  0
LINE
  5
52
100
AcDbEntity
100
AcDbLine
  8
0
 62
256
370
-1
  6
ByLayer
 10
5.3000000000000007
 20
12.6000000000000014
 30
0.0
 11
5.3000000000000007
 21
3.2000000000000002
 31
0.0
  0
LINE
  5
53
100
AcDbEntity
100
AcDbLine
  8
0
 62
256
370
-1
  6
ByLayer
 10
13.8000000000000007
 20
3.2000000000000002
 30
0.0
 11
11.1000000000000014
 21
3.2000000000000002
 31
0.0
  0
LINE
  5
54
100
AcDbEntity
100
AcDbLine
  8
0
 62
256
370
-1
  6
ByLayer
 10
11.1000000000000014
 20
3.2000000000000002
 30
0.0
 11
11.1000000000000014
 21
12.6000000000000014
 31
0.0
  0
LINE
  5
55
100
AcDbEntity
100
AcDbLine
  8
0
 62
256
370
-1
  6
ByLayer
 10
11.1000000000000014
 20
12.6000000000000014
 30
0.0
 11
8.5
 21
12.6000000000000014
 31
0.0
  0
LINE
  5
56
100
AcDbEntity
100
AcDbLine
  8
0
 62
256
370
-1
  6
ByLayer
 10
8.5
 20
12.6000000000000014
 30
0.0
 11
12.5
 21
18.0
 31
0.0
  0
LINE
  5
57
100
AcDbEntity
100
AcDbLine
  8
0
 62
256
370
-1
  6
ByLayer
 10
12.5
 20
18.0
 30
0.0
 11
16.4000000000000021
 21
12.6000000000000014
 31
0.0
  0
LINE
  5
58
100
AcDbEntity
100
AcDbLine
  8
0
 62
256
370
-1
  6
ByLayer
 10
16.4000000000000021
 20
12.6000000000000014
 30
0.0
 11
13.8000000000000007
 21
12.6000000000000014
 31
0.0
  0
LINE
  5
59
100
AcDbEntity
100
AcDbLine
  8
0
 62
256
370
-1
  6
ByLayer
 10
13.8000000000000007
 20
12.6000000000000014
 30
0.0
 11
13.8000000000000007
 21
3.2000000000000002
 31
0.0
  0
IMAGE
  5
5A
  8
noname
 62
256
370
-1
  6
ByLayer
100
AcDbEntity
100
AcDbRasterImage
 90
0
 10
0.0
 20
0.0
 30
0.0
 11
1.0
 21
0.0
 31
0.0
 12
0.0000000000000001
 22
1.0
 32
0.0
 13
358.0
 23
289.0
340
5B
 70
15
280
0
281
50
282
50
283
0
  0
LINE
  5
5C
100
AcDbEntity
100
AcDbLine
  8
front
 62
256
370
-1
  6
ByLayer
 10
0.0
 20
0.0
 30
0.0
 11
0.0
 21
5.0
 31
0.0
  0
LINE
  5
5D
100
AcDbEntity
100
AcDbLine
  8
front
 62
256
370
-1
  6
ByLayer
 10
0.0
 20
5.0
 30
0.0
 11
4.7000000000000002
 21
5.0
 31
0.0
  0
LINE
  5
5E
100
AcDbEntity
100
AcDbLine
  8
front
 62
256
370
-1
  6
ByLayer
 10
4.7000000000000002
 20
5.0
 30
0.0
 11
4.7000000000000002
 21
4.2000000000000002
 31
0.0
  0
LINE
  5
5F
100
AcDbEntity
100
AcDbLine
  8
front
 62
256
370
-1
  6
ByLayer
 10
4.7000000000000002
 20
4.2000000000000002
 30
0.0
 11
1.1000000000000001
 21
4.2000000000000002
 31
0.0
  0
LINE
  5
60
100
AcDbEntity
100
AcDbLine
  8
front
 62
256
370
-1
  6
ByLayer
 10
1.1000000000000001
 20
4.2000000000000002
 30
0.0
 11
1.1000000000000001
 21
3.0
 31
0.0
  0
LINE
  5
61
100
AcDbEntity
100
AcDbLine
  8
front
 62
256
370
-1
  6
ByLayer
 10
1.1000000000000001
 20
3.0
 30
0.0
 11
3.5
 21
3.0
 31
0.0
  0
LINE
  5
62
100
AcDbEntity
100
AcDbLine
  8
front
 62
256
370
-1
  6
ByLayer
 10
3.5
 20
3.0
 30
0.0
 11
3.5
 21
2.2000000000000002
 31
0.0
  0
LINE
  5
63
100
AcDbEntity
100
AcDbLine
  8
front
 62
256
370
-1
  6
ByLayer
 10
3.5
 20
2.2000000000000002
 30
0.0
 11
1.1000000000000001
 21
2.2000000000000002
 31
0.0
  0
LINE
  5
64
100
AcDbEntity
100
AcDbLine
  8
front
 62
256
370
-1
  6
ByLayer
 10
1.1000000000000001
 20
2.2000000000000002
 30
0.0
 11
1.1000000000000001
 21
0.0
 31
0.0
  0
LINE
  5
65
100
AcDbEntity
100
AcDbLine
  8
front
 62
256
370
-1
  6
ByLayer
 10
1.1000000000000001
 20
0.0
 30
0.0
 11
0.0
 21
0.0
 31
0.0
  0
LINE
  5
66
100
AcDbEntity
100
AcDbLine
  8
front
 62
256
370
-1
  6
ByLayer
 10
6.0
 20
0.0
 30
0.0
 11
6.0
 21
5.0
 31
0.0
  0
LINE
  5
67
100
AcDbEntity
100
AcDbLine
  8
front
 62
256
370
-1
  6
ByLayer
 10
6.0
 20
5.0
 30
0.0
 11
9.6000000000000014
 21
5.0
 31
0.0
  0
LINE
  5
68
100
AcDbEntity
100
AcDbLine
  8
front
 62
256
370
-1
  6
ByLayer
 10
9.6000000000000014
 20
5.0
 30
0.0
 11
10.3000000000000007
 21
4.8000000000000007
 31
0.0
  0
LINE
  5
69
100
AcDbEntity
100
AcDbLine
  8
front
 62
256
370
-1
  6
ByLayer
 10
10.3000000000000007
 20
4.8000000000000007
 30
0.0
 11
10.7000000000000011
 21
4.5
 31
0.0
  0
LINE
  5
6A
100
AcDbEntity
100
AcDbLine
  8
front
 62
256
370
-1
  6
ByLayer
 10
10.7000000000000011
 20
4.5
 30
0.0
 11
10.9000000000000004
 21
4.2000000000000002
 31
0.0
  0
LINE
  5
6B
100
AcDbEntity
100
AcDbLine
  8
front
 62
256
370
-1
  6
ByLayer
 10
10.9000000000000004
 20
4.2000000000000002
 30
0.0
 11
11.0
 21
3.7000000000000002
 31
0.0
  0
LINE
  5
6C
100
AcDbEntity
100
AcDbLine
  8
front
 62
256
370
-1
  6
ByLayer
 10
11.0
 20
3.7000000000000002
 30
0.0
 11
11.0
 21
3.4000000000000004
 31
0.0
  0
LINE
  5
6D
100
AcDbEntity
100
AcDbLine
  8
front
 62
256
370
-1
  6
ByLayer
 10
11.0
 20
3.4000000000000004
 30
0.0
 11
10.9000000000000004
 21
3.0
 31
0.0
  0
LINE
  5
6E
100
AcDbEntity
100
AcDbLine
  8
front
 62
256
370
-1
  6
ByLayer
 10
10.9000000000000004
 20
3.0
 30
0.0
 11
10.7000000000000011
 21
2.7000000000000002
 31
0.0
  0
LINE
  5
6F
100
AcDbEntity
100
AcDbLine
  8
front
 62
256
370
-1
  6
ByLayer
 10
10.7000000000000011
 20
2.7000000000000002
 30
0.0
 11
10.3000000000000007
 21
2.4000000000000004
 31
0.0
  0
LINE
  5
70
100
AcDbEntity
100
AcDbLine
  8
front
 62
256
370
-1
  6
ByLayer
 10
10.3000000000000007
 20
2.4000000000000004
 30
0.0
 11
9.9000000000000004
 21
2.2000000000000002
 31
0.0
  0
LINE
  5
71
100
AcDbEntity
100
AcDbLine
  8
front
 62
256
370
-1
  6
ByLayer
 10
9.9000000000000004
 20
2.2000000000000002
 30
0.0
 11
9.6000000000000014
 21
2.1000000000000001
 31
0.0
  0
LINE
  5
72
100
AcDbEntity
100
AcDbLine
  8
front
 62
256
370
-1
  6
ByLayer
 10
9.6000000000000014
 20
2.1000000000000001
 30
0.0
 11
11.1000000000000014
 21
0.0
 31
0.0
  0
LINE
  5
73
100
AcDbEntity
100
AcDbLine
  8
front
 62
256
370
-1
  6
ByLayer
 10
11.1000000000000014
 20
0.0
 30
0.0
 11
10.0
 21
0.0
 31
0.0
  0
LINE
  5
74
100
AcDbEntity
100
AcDbLine
  8
front
 62
256
370
-1
  6
ByLayer
 10
10.0
 20
0.0
 30
0.0
 11
9.9000000000000004
 21
0.0
 31
0.0
  0
LINE
  5
75
100
AcDbEntity
100
AcDbLine
  8
front
 62
256
370
-1
  6
ByLayer
 10
9.9000000000000004
 20
0.0
 30
0.0
 11
8.4000000000000004
 21
2.1000000000000001
 31
0.0
  0
LINE
  5
76
100
AcDbEntity
100
AcDbLine
  8
front
 62
256
370
-1
  6
ByLayer
 10
8.4000000000000004
 20
2.1000000000000001
 30
0.0
 11
7.0
 21
2.1000000000000001
 31
0.0
  0
LINE
  5
77
100
AcDbEntity
100
AcDbLine
  8
front
 62
256
370
-1
  6
ByLayer
 10
7.0
 20
2.1000000000000001
 30
0.0
 11
7.0
 21
0.0
 31
0.0
  0
LINE
  5
78
100
AcDbEntity
100
AcDbLine
  8
front
 62
256
370
-1
  6
ByLayer
 10
7.0
 20
0.0
 30
0.0
 11
6.0
 21
0.0
 31
0.0
  0
LINE
  5
79
100
AcDbEntity
100
AcDbLine
  8
front
 62
256
370
-1
  6
ByLayer
 10
7.0
 20
2.8000000000000003
 30
0.0
 11
7.0
 21
4.2999999999999998
 31
0.0
  0
LINE
  5
7A
100
AcDbEntity
100
AcDbLine
  8
front
 62
256
370
-1
  6
ByLayer
 10
7.0
 20
4.2999999999999998
 30
0.0
 11
8.8000000000000007
 21
4.2999999999999998
 31
0.0
  0
LINE
  5
7B
100
AcDbEntity
100
AcDbLine
  8
front
 62
256
370
-1
  6
ByLayer
 10
8.8000000000000007
 20
4.2999999999999998
 30
0.0
 11
9.5
 21
4.1000000000000005
 31
0.0
  0
LINE
  5
7C
100
AcDbEntity
100
AcDbLine
  8
front
 62
256
370
-1
  6
ByLayer
 10
9.5
 20
4.1000000000000005
 30
0.0
 11
9.8000000000000007
 21
3.9000000000000004
 31
0.0
  0
LINE
  5
7D
100
AcDbEntity
100
AcDbLine
  8
front
 62
256
370
-1
  6
ByLayer
 10
9.8000000000000007
 20
3.9000000000000004
 30
0.0
 11
9.9000000000000004
 21
3.6000000000000001
 31
0.0
  0
LINE
  5
7E
100
AcDbEntity
100
AcDbLine
  8
front
 62
256
370
-1
  6
ByLayer
 10
9.9000000000000004
 20
3.6000000000000001
 30
0.0
 11
9.9000000000000004
 21
3.4000000000000004
 31
0.0
  0
LINE
  5
7F
100
AcDbEntity
100
AcDbLine
  8
front
 62
256
370
-1
  6
ByLayer
 10
9.9000000000000004
 20
3.4000000000000004
 30
0.0
 11
9.8000000000000007
 21
3.1000000000000001
 31
0.0
  0
LINE
  5
80
100
AcDbEntity
100
AcDbLine
  8
front
 62
256
370
-1
  6
ByLayer
 10
9.8000000000000007
 20
3.1000000000000001
 30
0.0
 11
9.6000000000000014
 21
2.9000000000000004
 31
0.0
  0
LINE
  5
81
100
AcDbEntity
100
AcDbLine
  8
front
 62
256
370
-1
  6
ByLayer
 10
9.6000000000000014
 20
2.9000000000000004
 30
0.0
 11
9.3000000000000007
 21
2.8000000000000003
 31
0.0
  0
LINE
  5
82
100
AcDbEntity
100
AcDbLine
  8
front
 62
256
370
-1
  6
ByLayer
 10
9.3000000000000007
 20
2.8000000000000003
 30
0.0
 11
7.0
 21
2.8000000000000003
 31
0.0
  0
LINE
  5
83
100
AcDbEntity
100
AcDbLine
  8
front
 62
256
370
-1
  6
ByLayer
 10
15.5
 20
5.1000000000000005
 30
0.0
 11
14.6000000000000014
 21
5.0
 31
0.0
  0
LINE
  5
84
100
AcDbEntity
100
AcDbLine
  8
front
 62
256
370
-1
  6
ByLayer
 10
14.6000000000000014
 20
5.0
 30
0.0
 11
13.8000000000000007
 21
4.7000000000000002
 31
0.0
  0
LINE
  5
85
100
AcDbEntity
100
AcDbLine
  8
front
 62
256
370
-1
  6
ByLayer
 10
13.8000000000000007
 20
4.7000000000000002
 30
0.0
 11
13.2000000000000011
 21
4.2999999999999998
 31
0.0
  0
LINE
  5
86
100
AcDbEntity
100
AcDbLine
  8
front
 62
256
370
-1
  6
ByLayer
 10
13.2000000000000011
 20
4.2999999999999998
 30
0.0
 11
12.7000000000000011
 21
3.7000000000000002
 31
0.0
  0
LINE
  5
87
100
AcDbEntity
100
AcDbLine
  8
front
 62
256
370
-1
  6
ByLayer
 10
12.7000000000000011
 20
3.7000000000000002
 30
0.0
 11
12.5
 21
2.9000000000000004
 31
0.0
  0
LINE
  5
88
100
AcDbEntity
100
AcDbLine
  8
front
 62
256
370
-1
  6
ByLayer
 10
12.5
 20
2.9000000000000004
 30
0.0
 11
12.5
 21
2.2000000000000002
 31
0.0
  0
LINE
  5
89
100
AcDbEntity
100
AcDbLine
  8
front
 62
256
370
-1
  6
ByLayer
 10
12.5
 20
2.2000000000000002
 30
0.0
 11
12.7000000000000011
 21
1.4000000000000001
 31
0.0
  0
LINE
  5
8A
100
AcDbEntity
100
AcDbLine
  8
front
 62
256
370
-1
  6
ByLayer
 10
12.7000000000000011
 20
1.4000000000000001
 30
0.0
 11
13.1000000000000014
 21
0.9
 31
0.0
  0
LINE
  5
8B
100
AcDbEntity
100
AcDbLine
  8
front
 62
256
370
-1
  6
ByLayer
 10
13.1000000000000014
 20
0.9
 30
0.0
 11
13.6000000000000014
 21
0.5
 31
0.0
  0
LINE
  5
8C
100
AcDbEntity
100
AcDbLine
  8
front
 62
256
370
-1
  6
ByLayer
 10
13.6000000000000014
 20
0.5
 30
0.0
 11
14.2000000000000011
 21
0.2
 31
0.0
  0
LINE
  5
8D
100
AcDbEntity
100
AcDbLine
  8
front
 62
256
370
-1
  6
ByLayer
 10
14.2000000000000011
 20
0.2
 30
0.0
 11
15.0
 21
0.0
 31
0.0
  0
LINE
  5
8E
100
AcDbEntity
100
AcDbLine
  8
front
 62
256
370
-1
  6
ByLayer
 10
15.0
 20
0.0
 30
0.0
 11
16.0
 21
0.0
 31
0.0
  0
LINE
  5
8F
100
AcDbEntity
100
AcDbLine
  8
front
 62
256
370
-1
  6
ByLayer
 10
16.0
 20
0.0
 30
0.0
 11
16.8000000000000007
 21
0.2
 31
0.0
  0
LINE
  5
90
100
AcDbEntity
100
AcDbLine
  8
front
 62
256
370
-1
  6
ByLayer
 10
16.8000000000000007
 20
0.2
 30
0.0
 11
17.6000000000000014
 21
0.6000000000000001
 31
0.0
  0
LINE
  5
91
100
AcDbEntity
100
AcDbLine
  8
front
 62
256
370
-1
  6
ByLayer
 10
17.6000000000000014
 20
0.6000000000000001
 30
0.0
 11
18.1000000000000014
 21
1.0
 31
0.0
  0
LINE
  5
92
100
AcDbEntity
100
AcDbLine
  8
front
 62
256
370
-1
  6
ByLayer
 10
18.1000000000000014
 20
1.0
 30
0.0
 11
18.4000000000000021
 21
1.5
 31
0.0
  0
LINE
  5
93
100
AcDbEntity
100
AcDbLine
  8
front
 62
256
370
-1
  6
ByLayer
 10
18.4000000000000021
 20
1.5
 30
0.0
 11
18.6000000000000014
 21
2.1000000000000001
 31
0.0
  0
LINE
  5
94
100
AcDbEntity
100
AcDbLine
  8
front
 62
256
370
-1
  6
ByLayer
 10
18.6000000000000014
 20
2.1000000000000001
 30
0.0
 11
18.6000000000000014
 21
3.0
 31
0.0
  0
LINE
  5
95
100
AcDbEntity
100
AcDbLine
  8
front
 62
256
370
-1
  6
ByLayer
 10
18.6000000000000014
 20
3.0
 30
0.0
 11
18.4000000000000021
 21
3.6000000000000001
 31
0.0
  0
LINE
  5
96
100
AcDbEntity
100
AcDbLine
  8
front
 62
256
370
-1
  6
ByLayer
 10
18.4000000000000021
 20
3.6000000000000001
 30
0.0
 11
18.1000000000000014
 21
4.0
 31
0.0
  0
LINE
  5
97
100
AcDbEntity
100
AcDbLine
  8
front
 62
256
370
-1
  6
ByLayer
 10
18.1000000000000014
 20
4.0
 30
0.0
 11
17.6999999999999993
 21
4.4000000000000004
 31
0.0
  0
LINE
  5
98
100
AcDbEntity
100
AcDbLine
  8
front
 62
256
370
-1
  6
ByLayer
 10
17.6999999999999993
 20
4.4000000000000004
 30
0.0
 11
17.4000000000000021
 21
4.6000000000000005
 31
0.0
  0
LINE
  5
99
100
AcDbEntity
100
AcDbLine
  8
front
 62
256
370
-1
  6
ByLayer
 10
17.4000000000000021
 20
4.6000000000000005
 30
0.0
 11
17.1000000000000014
 21
4.8000000000000007
 31
0.0
  0
LINE
  5
9A
100
AcDbEntity
100
AcDbLine
  8
front
 62
256
370
-1
  6
ByLayer
 10
17.1000000000000014
 20
4.8000000000000007
 30
0.0
 11
16.5
 21
5.0
 31
0.0
  0
LINE
  5
9B
100
AcDbEntity
100
AcDbLine
  8
front
 62
256
370
-1
  6
ByLayer
 10
16.5
 20
5.0
 30
0.0
 11
15.9000000000000004
 21
5.1000000000000005
 31
0.0
  0
LINE
  5
9C
100
AcDbEntity
100
AcDbLine
  8
front
 62
256
370
-1
  6
ByLayer
 10
15.9000000000000004
 20
5.1000000000000005
 30
0.0
 11
15.5
 21
5.1000000000000005
 31
0.0
  0
LINE
  5
9D
100
AcDbEntity
100
AcDbLine
  8
front
 62
256
370
-1
  6
ByLayer
 10
15.5
 20
4.2000000000000002
 30
0.0
 11
14.8000000000000007
 21
4.1000000000000005
 31
0.0
  0
LINE
  5
9E
100
AcDbEntity
100
AcDbLine
  8
front
 62
256
370
-1
  6
ByLayer
 10
14.8000000000000007
 20
4.1000000000000005
 30
0.0
 11
14.2000000000000011
 21
3.8000000000000003
 31
0.0
  0
LINE
  5
9F
100
AcDbEntity
100
AcDbLine
  8
front
 62
256
370
-1
  6
ByLayer
 10
14.2000000000000011
 20
3.8000000000000003
 30
0.0
 11
13.9000000000000004
 21
3.5
 31
0.0
  0
LINE
  5
A0
100
AcDbEntity
100
AcDbLine
  8
front
 62
256
370
-1
  6
ByLayer
 10
13.9000000000000004
 20
3.5
 30
0.0
 11
13.7000000000000011
 21
3.2000000000000002
 31
0.0
  0
LINE
  5
A1
100
AcDbEntity
100
AcDbLine
  8
front
 62
256
370
-1
  6
ByLayer
 10
13.7000000000000011
 20
3.2000000000000002
 30
0.0
 11
13.5
 21
2.7000000000000002
 31
0.0
  0
LINE
  5
A2
100
AcDbEntity
100
AcDbLine
  8
front
 62
256
370
-1
  6
ByLayer
 10
13.5
 20
2.7000000000000002
 30
0.0
 11
13.5
 21
2.2000000000000002
 31
0.0
  0
LINE
  5
A3
100
AcDbEntity
100
AcDbLine
  8
front
 62
256
370
-1
  6
ByLayer
 10
13.5
 20
2.2000000000000002
 30
0.0
 11
13.8000000000000007
 21
1.7000000000000002
 31
0.0
  0
LINE
  5
A4
100
AcDbEntity
100
AcDbLine
  8
front
 62
256
370
-1
  6
ByLayer
 10
13.8000000000000007
 20
1.7000000000000002
 30
0.0
 11
14.1000000000000014
 21
1.3
 31
0.0
  0
LINE
  5
A5
100
AcDbEntity
100
AcDbLine
  8
front
 62
256
370
-1
  6
ByLayer
 10
14.1000000000000014
 20
1.3
 30
0.0
 11
14.6000000000000014
 21
1.0
 31
0.0
  0
LINE
  5
A6
100
AcDbEntity
100
AcDbLine
  8
front
 62
256
370
-1
  6
ByLayer
 10
14.6000000000000014
 20
1.0
 30
0.0
 11
15.1000000000000014
 21
0.8
 31
0.0
  0
LINE
  5
A7
100
AcDbEntity
100
AcDbLine
  8
front
 62
256
370
-1
  6
ByLayer
 10
15.1000000000000014
 20
0.8
 30
0.0
 11
15.9000000000000004
 21
0.8
 31
0.0
  0
LINE
  5
A8
100
AcDbEntity
100
AcDbLine
  8
front
 62
256
370
-1
  6
ByLayer
 10
15.9000000000000004
 20
0.8
 30
0.0
 11
16.6000000000000014
 21
1.1000000000000001
 31
0.0
  0
LINE
  5
A9
100
AcDbEntity
100
AcDbLine
  8
front
 62
256
370
-1
  6
ByLayer
 10
16.6000000000000014
 20
1.1000000000000001
 30
0.0
 11
17.0
 21
1.3
 31
0.0
  0
LINE
  5
AA
100
AcDbEntity
100
AcDbLine
  8
front
 62
256
370
-1
  6
ByLayer
 10
17.0
 20
1.3
 30
0.0
 11
17.3000000000000007
 21
1.6000000000000001
 31
0.0
  0
LINE
  5
AB
100
AcDbEntity
100
AcDbLine
  8
front
 62
256
370
-1
  6
ByLayer
 10
17.3000000000000007
 20
1.6000000000000001
 30
0.0
 11
17.5
 21
2.0
 31
0.0
  0
LINE
  5
AC
100
AcDbEntity
100
AcDbLine
  8
front
 62
256
370
-1
  6
ByLayer
 10
17.5
 20
2.0
 30
0.0
 11
17.6000000000000014
 21
2.3000000000000003
 31
0.0
  0
LINE
  5
AD
100
AcDbEntity
100
AcDbLine
  8
front
 62
256
370
-1
  6
ByLayer
 10
17.6000000000000014
 20
2.3000000000000003
 30
0.0
 11
17.6000000000000014
 21
2.6000000000000001
 31
0.0
  0
LINE
  5
AE
100
AcDbEntity
100
AcDbLine
  8
front
 62
256
370
-1
  6
ByLayer
 10
17.6000000000000014
 20
2.6000000000000001
 30
0.0
 11
17.5
 21
3.0
 31
0.0
  0
LINE
  5
AF
100
AcDbEntity
100
AcDbLine
  8
front
 62
256
370
-1
  6
ByLayer
 10
17.5
 20
3.0
 30
0.0
 11
17.3000000000000007
 21
3.4000000000000004
 31
0.0
  0
LINE
  5
B0
100
AcDbEntity
100
AcDbLine
  8
front
 62
256
370
-1
  6
ByLayer
 10
17.3000000000000007
 20
3.4000000000000004
 30
0.0
 11
17.0
 21
3.7000000000000002
 31
0.0
  0
LINE
  5
B1
100
AcDbEntity
100
AcDbLine
  8
front
 62
256
370
-1
  6
ByLayer
 10
17.0
 20
3.7000000000000002
 30
0.0
 11
16.6999999999999993
 21
3.9000000000000004
 31
0.0
  0
LINE
  5
B2
100
AcDbEntity
100
AcDbLine
  8
front
 62
256
370
-1
  6
ByLayer
 10
16.6999999999999993
 20
3.9000000000000004
 30
0.0
 11
16.3000000000000007
 21
4.1000000000000005
 31
0.0
  0
LINE
  5
B3
100
AcDbEntity
100
AcDbLine
  8
front
 62
256
370
-1
  6
ByLayer
 10
16.3000000000000007
 20
4.1000000000000005
 30
0.0
 11
15.9000000000000004
 21
4.2000000000000002
 31
0.0
  0
LINE
  5
B4
100
AcDbEntity
100
AcDbLine
  8
front
 62
256
370
-1
  6
ByLayer
 10
15.9000000000000004
 20
4.2000000000000002
 30
0.0
 11
15.5
 21
4.2000000000000002
 31
0.0
  0
LINE
  5
B5
100
AcDbEntity
100
AcDbLine
  8
front
 62
256
370
-1
  6
ByLayer
 10
20.4000000000000021
 20
0.0
 30
0.0
 11
20.4000000000000021
 21
5.0
 31
0.0
  0
LINE
  5
B6
100
AcDbEntity
100
AcDbLine
  8
front
 62
256
370
-1
  6
ByLayer
 10
20.4000000000000021
 20
5.0
 30
0.0
 11
21.5
 21
5.0
 31
0.0
  0
LINE
  5
B7
100
AcDbEntity
100
AcDbLine
  8
front
 62
256
370
-1
  6
ByLayer
 10
21.5
 20
5.0
 30
0.0
 11
24.7000000000000028
 21
1.6000000000000001
 31
0.0
  0
LINE
  5
B8
100
AcDbEntity
100
AcDbLine
  8
front
 62
256
370
-1
  6
ByLayer
 10
24.7000000000000028
 20
1.6000000000000001
 30
0.0
 11
24.7000000000000028
 21
5.0
 31
0.0
  0
LINE
  5
B9
100
AcDbEntity
100
AcDbLine
  8
front
 62
256
370
-1
  6
ByLayer
 10
24.7000000000000028
 20
5.0
 30
0.0
 11
25.7000000000000028
 21
5.0
 31
0.0
  0
LINE
  5
BA
100
AcDbEntity
100
AcDbLine
  8
front
 62
256
370
-1
  6
ByLayer
 10
25.7000000000000028
 20
5.0
 30
0.0
 11
25.7000000000000028
 21
0.0
 31
0.0
  0
LINE
  5
BB
100
AcDbEntity
100
AcDbLine
  8
front
 62
256
370
-1
  6
ByLayer
 10
25.7000000000000028
 20
0.0
 30
0.0
 11
24.7000000000000028
 21
0.0
 31
0.0
  0
LINE
  5
BC
100
AcDbEntity
100
AcDbLine
  8
front
 62
256
370
-1
  6
ByLayer
 10
24.7000000000000028
 20
0.0
 30
0.0
 11
21.3000000000000007
 21
3.6000000000000001
 31
0.0
  0
LINE
  5
BD
100
AcDbEntity
100
AcDbLine
  8
front
 62
256
370
-1
  6
ByLayer
 10
21.3000000000000007
 20
3.6000000000000001
 30
0.0
 11
21.3000000000000007
 21
0.0
 31
0.0
  0
LINE
  5
BE
100
AcDbEntity
100
AcDbLine
  8
front
 62
256
370
-1
  6
ByLayer
 10
20.3000000000000007
 20
-0.1
 30
0.0
 11
20.4000000000000021
 21
0.0
 31
0.0
  0
LINE
  5
BF
100
AcDbEntity
100
AcDbLine
  8
front
 62
256
370
-1
  6
ByLayer
 10
20.4000000000000021
 20
0.0
 30
0.0
 11
21.3000000000000007
 21
0.0
 31
0.0
  0
LINE
  5
C0
100
AcDbEntity
100
AcDbLine
  8
front
 62
256
370
-1
  6
ByLayer
 10
29.2000000000000028
 20
0.0
 30
0.0
 11
29.2000000000000028
 21
4.2000000000000002
 31
0.0
  0
LINE
  5
C1
100
AcDbEntity
100
AcDbLine
  8
front
 62
256
370
-1
  6
ByLayer
 10
29.2000000000000028
 20
4.2000000000000002
 30
0.0
 11
27.2000000000000028
 21
4.2000000000000002
 31
0.0
  0
LINE
  5
C2
100
AcDbEntity
100
AcDbLine
  8
front
 62
256
370
-1
  6
ByLayer
 10
27.2000000000000028
 20
4.2000000000000002
 30
0.0
 11
27.2000000000000028
 21
5.0
 31
0.0
  0
LINE
  5
C3
100
AcDbEntity
100
AcDbLine
  8
front
 62
256
370
-1
  6
ByLayer
 10
27.2000000000000028
 20
5.0
 30
0.0
 11
32.3000000000000043
 21
5.0
 31
0.0
  0
LINE
  5
C4
100
AcDbEntity
100
AcDbLine
  8
front
 62
256
370
-1
  6
ByLayer
 10
32.3000000000000043
 20
5.0
 30
0.0
 11
32.3000000000000043
 21
4.2000000000000002
 31
0.0
  0
LINE
  5
C5
100
AcDbEntity
100
AcDbLine
  8
front
 62
256
370
-1
  6
ByLayer
 10
32.3000000000000043
 20
4.2000000000000002
 30
0.0
 11
30.2000000000000028
 21
4.2000000000000002
 31
0.0
  0
LINE
  5
C6
100
AcDbEntity
100
AcDbLine
  8
front
 62
256
370
-1
  6
ByLayer
 10
30.2000000000000028
 20
4.2000000000000002
 30
0.0
 11
30.3000000000000007
 21
0.0
 31
0.0
  0
LINE
  5
C7
100
AcDbEntity
100
AcDbLine
  8
front
 62
256
370
-1
  6
ByLayer
 10
30.3000000000000007
 20
0.0
 30
0.0
 11
29.2000000000000028
 21
0.0
 31
0.0
  0
LINE
  5
C8
100
AcDbEntity
100
AcDbLine
  8
f
 62
256
370
-1
  6
ByLayer
 10
0.0
 20
0.0
 30
0.0
 11
0.0
 21
5.0
 31
0.0
  0
LINE
  5
C9
100
AcDbEntity
100
AcDbLine
  8
f
 62
256
370
-1
  6
ByLayer
 10
0.0
 20
5.0
 30
0.0
 11
4.7000000000000002
 21
5.0
 31
0.0
  0
LINE
  5
CA
100
AcDbEntity
100
AcDbLine
  8
f
 62
256
370
-1
  6
ByLayer
 10
4.7000000000000002
 20
5.0
 30
0.0
 11
4.7000000000000002
 21
4.2000000000000002
 31
0.0
  0
LINE
  5
CB
100
AcDbEntity
100
AcDbLine
  8
f
 62
256
370
-1
  6
ByLayer
 10
4.7000000000000002
 20
4.2000000000000002
 30
0.0
 11
1.1000000000000001
 21
4.2000000000000002
 31
0.0
  0
LINE
  5
CC
100
AcDbEntity
100
AcDbLine
  8
f
 62
256
370
-1
  6
ByLayer
 10
1.1000000000000001
 20
4.2000000000000002
 30
0.0
 11
1.1000000000000001
 21
3.0
 31
0.0
  0
LINE
  5
CD
100
AcDbEntity
100
AcDbLine
  8
f
 62
256
370
-1
  6
ByLayer
 10
1.1000000000000001
 20
3.0
 30
0.0
 11
3.5
 21
3.0
 31
0.0
  0
LINE
  5
CE
100
AcDbEntity
100
AcDbLine
  8
f
 62
256
370
-1
  6
ByLayer
 10
3.5
 20
3.0
 30
0.0
 11
3.5
 21
2.2000000000000002
 31
0.0
  0
LINE
  5
CF
100
AcDbEntity
100
AcDbLine
  8
f
 62
256
370
-1
  6
ByLayer
 10
3.5
 20
2.2000000000000002
 30
0.0
 11
1.1000000000000001
 21
2.2000000000000002
 31
0.0
  0
LINE
  5
D0
100
AcDbEntity
100
AcDbLine
  8
f
 62
256
370
-1
  6
ByLayer
 10
1.1000000000000001
 20
2.2000000000000002
 30
0.0
 11
1.1000000000000001
 21
0.0
 31
0.0
  0
LINE
  5
D1
100
AcDbEntity
100
AcDbLine
  8
f
 62
256
370
-1
  6
ByLayer
 10
1.1000000000000001
 20
0.0
 30
0.0
 11
0.0
 21
0.0
 31
0.0
  0
LINE
  5
D2
100
AcDbEntity
100
AcDbLine
  8
r
 62
256
370
-1
  6
ByLayer
 10
0.0
 20
0.0
 30
0.0
 11
0.0
 21
5.0
 31
0.0
  0
LINE
  5
D3
100
AcDbEntity
100
AcDbLine
  8
r
 62
256
370
-1
  6
ByLayer
 10
0.0
 20
5.0
 30
0.0
 11
3.6000000000000014
 21
5.0
 31
0.0
  0
LINE
  5
D4
100
AcDbEntity
100
AcDbLine
  8
r
 62
256
370
-1
  6
ByLayer
 10
3.6000000000000014
 20
5.0
 30
0.0
 11
4.3000000000000007
 21
4.8000000000000007
 31
0.0
  0
LINE
  5
D5
100
AcDbEntity
100
AcDbLine
  8
r
 62
256
370
-1
  6
ByLayer
 10
4.3000000000000007
 20
4.8000000000000007
 30
0.0
 11
4.7000000000000011
 21
4.5
 31
0.0
  0
LINE
  5
D6
100
AcDbEntity
100
AcDbLine
  8
r
 62
256
370
-1
  6
ByLayer
 10
4.7000000000000011
 20
4.5
 30
0.0
 11
4.9000000000000004
 21
4.2000000000000002
 31
0.0
  0
LINE
  5
D7
100
AcDbEntity
100
AcDbLine
  8
r
 62
256
370
-1
  6
ByLayer
 10
4.9000000000000004
 20
4.2000000000000002
 30
0.0
 11
5.0
 21
3.7000000000000002
 31
0.0
  0
LINE
  5
D8
100
AcDbEntity
100
AcDbLine
  8
r
 62
256
370
-1
  6
ByLayer
 10
5.0
 20
3.7000000000000002
 30
0.0
 11
5.0
 21
3.4000000000000004
 31
0.0
  0
LINE
  5
D9
100
AcDbEntity
100
AcDbLine
  8
r
 62
256
370
-1
  6
ByLayer
 10
5.0
 20
3.4000000000000004
 30
0.0
 11
4.9000000000000004
 21
3.0
 31
0.0
  0
LINE
  5
DA
100
AcDbEntity
100
AcDbLine
  8
r
 62
256
370
-1
  6
ByLayer
 10
4.9000000000000004
 20
3.0
 30
0.0
 11
4.7000000000000011
 21
2.7000000000000002
 31
0.0
  0
LINE
  5
DB
100
AcDbEntity
100
AcDbLine
  8
r
 62
256
370
-1
  6
ByLayer
 10
4.7000000000000011
 20
2.7000000000000002
 30
0.0
 11
4.3000000000000007
 21
2.4000000000000004
 31
0.0
  0
LINE
  5
DC
100
AcDbEntity
100
AcDbLine
  8
r
 62
256
370
-1
  6
ByLayer
 10
4.3000000000000007
 20
2.4000000000000004
 30
0.0
 11
3.9000000000000004
 21
2.2000000000000002
 31
0.0
  0
LINE
  5
DD
100
AcDbEntity
100
AcDbLine
  8
r
 62
256
370
-1
  6
ByLayer
 10
3.9000000000000004
 20
2.2000000000000002
 30
0.0
 11
3.6000000000000014
 21
2.1000000000000001
 31
0.0
  0
LINE
  5
DE
100
AcDbEntity
100
AcDbLine
  8
r
 62
256
370
-1
  6
ByLayer
 10
3.6000000000000014
 20
2.1000000000000001
 30
0.0
 11
5.1000000000000014
 21
0.0
 31
0.0
  0
LINE
  5
DF
100
AcDbEntity
100
AcDbLine
  8
r
 62
256
370
-1
  6
ByLayer
 10
5.1000000000000014
 20
0.0
 30
0.0
 11
4.0
 21
0.0
 31
0.0
  0
LINE
  5
E0
100
AcDbEntity
100
AcDbLine
  8
r
 62
256
370
-1
  6
ByLayer
 10
4.0
 20
0.0
 30
0.0
 11
3.9000000000000004
 21
0.0
 31
0.0
  0
LINE
  5
E1
100
AcDbEntity
100
AcDbLine
  8
r
 62
256
370
-1
  6
ByLayer
 10
3.9000000000000004
 20
0.0
 30
0.0
 11
2.4000000000000004
 21
2.1000000000000001
 31
0.0
  0
LINE
  5
E2
100
AcDbEntity
100
AcDbLine
  8
r
 62
256
370
-1
  6
ByLayer
 10
2.4000000000000004
 20
2.1000000000000001
 30
0.0
 11
1.0
 21
2.1000000000000001
 31
0.0
  0
LINE
  5
E3
100
AcDbEntity
100
AcDbLine
  8
r
 62
256
370
-1
  6
ByLayer
 10
1.0
 20
2.1000000000000001
 30
0.0
 11
1.0
 21
0.0
 31
0.0
  0
LINE
  5
E4
100
AcDbEntity
100
AcDbLine
  8
r
 62
256
370
-1
  6
ByLayer
 10
1.0
 20
0.0
 30
0.0
 11
0.0
 21
0.0
 31
0.0
  0
LINE
  5
E5
100
AcDbEntity
100
AcDbLine
  8
r
 62
256
370
-1
  6
ByLayer
 10
1.0
 20
2.8000000000000003
 30
0.0
 11
1.0
 21
4.2999999999999998
 31
0.0
  0
LINE
  5
E6
100
AcDbEntity
100
AcDbLine
  8
r
 62
256
370
-1
  6
ByLayer
 10
1.0
 20
4.2999999999999998
 30
0.0
 11
2.8000000000000007
 21
4.2999999999999998
 31
0.0
  0
LINE
  5
E7
100
AcDbEntity
100
AcDbLine
  8
r
 62
256
370
-1
  6
ByLayer
 10
2.8000000000000007
 20
4.2999999999999998
 30
0.0
 11
3.5
 21
4.1000000000000005
 31
0.0
  0
LINE
  5
E8
100
AcDbEntity
100
AcDbLine
  8
r
 62
256
370
-1
  6
ByLayer
 10
3.5
 20
4.1000000000000005
 30
0.0
 11
3.8000000000000007
 21
3.9000000000000004
 31
0.0
  0
LINE
  5
E9
100
AcDbEntity
100
AcDbLine
  8
r
 62
256
370
-1
  6
ByLayer
 10
3.8000000000000007
 20
3.9000000000000004
 30
0.0
 11
3.9000000000000004
 21
3.6000000000000001
 31
0.0
  0
LINE
  5
EA
100
AcDbEntity
100
AcDbLine
  8
r
 62
256
370
-1
  6
ByLayer
 10
3.9000000000000004
 20
3.6000000000000001
 30
0.0
 11
3.9000000000000004
 21
3.4000000000000004
 31
0.0
  0
LINE
  5
EB
100
AcDbEntity
100
AcDbLine
  8
r
 62
256
370
-1
  6
ByLayer
 10
3.9000000000000004
 20
3.4000000000000004
 30
0.0
 11
3.8000000000000007
 21
3.1000000000000001
 31
0.0
  0
LINE
  5
EC
100
AcDbEntity
100
AcDbLine
  8
r
 62
256
370
-1
  6
ByLayer
 10
3.8000000000000007
 20
3.1000000000000001
 30
0.0
 11
3.6000000000000014
 21
2.9000000000000004
 31
0.0
  0
LINE
  5
ED
100
AcDbEntity
100
AcDbLine
  8
r
 62
256
370
-1
  6
ByLayer
 10
3.6000000000000014
 20
2.9000000000000004
 30
0.0
 11
3.3000000000000007
 21
2.8000000000000003
 31
0.0
  0
LINE
  5
EE
100
AcDbEntity
100
AcDbLine
  8
r
 62
256
370
-1
  6
ByLayer
 10
3.3000000000000007
 20
2.8000000000000003
 30
0.0
 11
1.0
 21
2.8000000000000003
 31
0.0
  0
LINE
  5
EF
100
AcDbEntity
100
AcDbLine
  8
l
 62
256
370
-1
  6
ByLayer
 10
0.0
 20
5.0
 30
0.0
 11
0.0
 21
0.0
 31
0.0
  0
LINE
  5
F0
100
AcDbEntity
100
AcDbLine
  8
l
 62
256
370
-1
  6
ByLayer
 10
0.0
 20
0.0
 30
0.0
 11
4.6999999999999993
 21
0.0
 31
0.0
  0
LINE
  5
F1
100
AcDbEntity
100
AcDbLine
  8
l
 62
256
370
-1
  6
ByLayer
 10
4.6999999999999993
 20
0.0
 30
0.0
 11
4.6999999999999993
 21
0.7999999999999972
 31
0.0
  0
LINE
  5
F2
100
AcDbEntity
100
AcDbLine
  8
l
 62
256
370
-1
  6
ByLayer
 10
4.6999999999999993
 20
0.7999999999999972
 30
0.0
 11
1.0999999999999996
 21
0.7999999999999972
 31
0.0
  0
LINE
  5
F3
100
AcDbEntity
100
AcDbLine
  8
l
 62
256
370
-1
  6
ByLayer
 10
1.0999999999999996
 20
0.7999999999999972
 30
0.0
 11
1.0999999999999996
 21
5.0
 31
0.0
  0
LINE
  5
F4
100
AcDbEntity
100
AcDbLine
  8
l
 62
256
370
-1
  6
ByLayer
 10
1.0999999999999996
 20
5.0
 30
0.0
 11
0.0
 21
5.0
 31
0.0
  0
ENDSEC
  0
SECTION
  2
OBJECTS
  0
DICTIONARY
  5
C
100
AcDbDictionary
280
0
281
1
  3
ACAD_GROUP
350
D
  3
ACAD_LAYOUT
350
1A
  3
ACAD_MLINESTYLE
350
17
  3
ACAD_PLOTSETTINGS
350
19
  3
ACAD_PLOTSTYLENAME
350
E
  3
AcDbVariableDictionary
350
F5
  0
DICTIONARY
  5
D
100
AcDbDictionary
280
0
281
1
  0
ACDBDICTIONARYWDFLT
  5
E
100
AcDbDictionary
281
1
  3
Normal
350
F
100
AcDbDictionaryWithDefault
340
F
  0
ACDBPLACEHOLDER
  5
F
  0
DICTIONARY
  5
17
100
AcDbDictionary
280
0
281
1
  3
Standard
350
18
  0
MLINESTYLE
  5
18
100
AcDbMlineStyle
  2
STANDARD
 70
0
  3

 62
256
 51
90.0
 52
90.0
 71
2
 49
0.5
 62
256
  6
BYLAYER
 49
-0.5
 62
256
  6
BYLAYER
  0
DICTIONARY
  5
19
100
AcDbDictionary
280
0
281
1
  0
DICTIONARY
  5
1A
100
AcDbDictionary
281
1
  3
Layout1
350
1E
  3
Layout2
350
26
  3
Model
350
22
  0
LAYOUT
  5
1E
100
AcDbPlotSettings
  1

  2
C:\Program Files\AutoCAD 2002\plotters\DWF ePlot (optimized for plotting).pc3
  4

  6

 40
0.0
 41
0.0
 42
0.0
 43
0.0
 44
0.0
 45
0.0
 46
0.0
 47
0.0
 48
0.0
 49
0.0
140
0.0
141
0.0
142
1.0
143
1.0
 70
688
 72
0
 73
0
 74
5
  7

 75
16
147
1.0
148
0.0
149
0.0
100
AcDbLayout
  1
Layout1
 70
1
 71
1
 10
0.0
 20
0.0
 11
420.0
 21
297.0
 12
0.0
 22
0.0
 32
0.0
 14
100000000000000000000.0
 24
100000000000000000000.0
 34
100000000000000000000.0
 15
-100000000000000000000.0
 25
-100000000000000000000.0
 35
-100000000000000000000.0
146
0.0
 13
0.0
 23
0.0
 33
0.0
 16
1.0
 26
0.0
 36
0.0
 17
0.0
 27
1.0
 37
0.0
 76
0
330
1B
  0
LAYOUT
  5
22
100
AcDbPlotSettings
  1

  2
C:\Program Files\AutoCAD 2002\plotters\DWF ePlot (optimized for plotting).pc3
  4

  6

 40
0.0
 41
0.0
 42
0.0
 43
0.0
 44
0.0
 45
0.0
 46
0.0
 47
0.0
 48
0.0
 49
0.0
140
0.0
141
0.0
142
1.0
143
1.0
 70
1712
 72
0
 73
0
 74
0
  7

 75
0
147
1.0
148
0.0
149
0.0
100
AcDbLayout
  1
Model
 70
1
 71
0
 10
0.0
 20
0.0
 11
12.0
 21
9.0
 12
0.0
 22
0.0
 32
0.0
 14
0.0
 24
0.0
 34
0.0
 15
0.0
 25
0.0
 35
0.0
146
0.0
 13
0.0
 23
0.0
 33
0.0
 16
1.0
 26
0.0
 36
0.0
 17
0.0
 27
1.0
 37
0.0
 76
0
330
1F
  0
LAYOUT
  5
26
100
AcDbPlotSettings
  1

  2
C:\Program Files\AutoCAD 2002\plotters\DWF ePlot (optimized for plotting).pc3
  4

  6

 40
0.0
 41
0.0
 42
0.0
 43
0.0
 44
0.0
 45
0.0
 46
0.0
 47
0.0
 48
0.0
 49
0.0
140
0.0
141
0.0
142
1.0
143
1.0
 70
688
 72
0
 73
0
 74
5
  7

 75
16
147
1.0
148
0.0
149
0.0
100
AcDbLayout
  1
Layout2
 70
1
 71
2
 10
0.0
 20
0.0
 11
12.0
 21
9.0
 12
0.0
 22
0.0
 32
0.0
 14
0.0
 24
0.0
 34
0.0
 15
0.0
 25
0.0
 35
0.0
146
0.0
 13
0.0
 23
0.0
 33
0.0
 16
1.0
 26
0.0
 36
0.0
 17
0.0
 27
1.0
 37
0.0
 76
0
330
23
  0
DICTIONARY
  5
F5
100
AcDbDictionary
281
1
  3
DIMASSOC
350
F7
  3
HIDETEXT
350
F6
  0
DICTIONARYVAR
  5
F6
100
DictionaryVariables
280
0
  1
2
  0
DICTIONARYVAR
  5
F7
100
DictionaryVariables
280
0
  1
1
  0
IMAGEDEF
  5
5B
100
AcDbRasterImageDef
 90
0
  1
/Users/josefprusa/Dropbox/RepRap/Parts/PrusaMendel/source/info.png
 10
358.0
 20
289.0
 11
1.0
 21
1.0
280
1
281
0
  0
ENDSEC
  0
EOF
