solid OpenSCAD_Model
  facet normal -1 0 0
    outer loop
      vertex -12 -35 0
      vertex -12 -35 12
      vertex -12 -6.25 0
    endloop
  endfacet
  facet normal -1 0 0
    outer loop
      vertex -12 -8.25 4.4
      vertex -12 -35 12
      vertex -12 -8.25 12
    endloop
  endfacet
  facet normal -1 0 0
    outer loop
      vertex -12 -6.25 0
      vertex -12 -35 12
      vertex -12 -8.25 4.4
    endloop
  endfacet
  facet normal -1 0 0
    outer loop
      vertex -12 -6.25 4.4
      vertex -12 -6.25 0
      vertex -12 -8.25 4.4
    endloop
  endfacet
  facet normal 0 -1 0
    outer loop
      vertex -12 -35 12
      vertex -12 -35 0
      vertex 17 -35 0
    endloop
  endfacet
  facet normal 0 -1 0
    outer loop
      vertex 17 -35 12
      vertex -12 -35 12
      vertex 17 -35 0
    endloop
  endfacet
  facet normal 0 0 -1
    outer loop
      vertex 1.76777 -23.2322 0
      vertex -12 -6.25 0
      vertex 17 -35 0
    endloop
  endfacet
  facet normal 0 0 -1
    outer loop
      vertex 17 -35 0
      vertex -12 -6.25 0
      vertex 0 -6.25 0
    endloop
  endfacet
  facet normal 0 0 -1
    outer loop
      vertex 17 -35 0
      vertex 0 -6.25 0
      vertex 1.93136 -5.9441 0
    endloop
  endfacet
  facet normal 0 0 -1
    outer loop
      vertex 1.93136 -5.9441 0
      vertex 3.67366 -5.05636 0
      vertex 17 -35 0
    endloop
  endfacet
  facet normal 0 0 -1
    outer loop
      vertex 3.67366 -5.05636 0
      vertex 5.05636 -3.67366 0
      vertex 17 -35 0
    endloop
  endfacet
  facet normal 0 0 -1
    outer loop
      vertex 5.05636 -3.67366 0
      vertex 5.9441 -1.93136 0
      vertex 17 -35 0
    endloop
  endfacet
  facet normal 0 0 -1
    outer loop
      vertex 5.9441 -1.93136 0
      vertex 6.25 0 0
      vertex 17 -35 0
    endloop
  endfacet
  facet normal 0 0 -1
    outer loop
      vertex 6.25 0 0
      vertex 5.9441 1.93136 0
      vertex 17 -35 0
    endloop
  endfacet
  facet normal 0 0 -1
    outer loop
      vertex 5.9441 1.93136 0
      vertex 17 35 0
      vertex 17 -35 0
    endloop
  endfacet
  facet normal 0 0 -1
    outer loop
      vertex 3.67366 5.05636 0
      vertex -12 35 0
      vertex 5.05636 3.67366 0
    endloop
  endfacet
  facet normal 0 0 -1
    outer loop
      vertex 1.93136 5.9441 0
      vertex -12 35 0
      vertex 3.67366 5.05636 0
    endloop
  endfacet
  facet normal 0 0 -1
    outer loop
      vertex 0 6.25 0
      vertex -12 6.25 0
      vertex -12 35 0
    endloop
  endfacet
  facet normal 0 0 -1
    outer loop
      vertex 0 6.25 0
      vertex -12 35 0
      vertex 1.93136 5.9441 0
    endloop
  endfacet
  facet normal 0 0 -1
    outer loop
      vertex 0 27.5 0
      vertex -12 35 0
      vertex 17 35 0
    endloop
  endfacet
  facet normal 0 0 -1
    outer loop
      vertex 5.05636 3.67366 0
      vertex 17 35 0
      vertex 5.9441 1.93136 0
    endloop
  endfacet
  facet normal 0 0 -1
    outer loop
      vertex -12 -35 0
      vertex -12 -6.25 0
      vertex -2.5 -25 0
    endloop
  endfacet
  facet normal 0 0 -1
    outer loop
      vertex -12 -35 0
      vertex -2.5 -25 0
      vertex -1.76777 -26.7678 0
    endloop
  endfacet
  facet normal 0 0 -1
    outer loop
      vertex -12 -35 0
      vertex -1.76777 -26.7678 0
      vertex 17 -35 0
    endloop
  endfacet
  facet normal 0 0 -1
    outer loop
      vertex -1.76777 -26.7678 0
      vertex 0 -27.5 0
      vertex 17 -35 0
    endloop
  endfacet
  facet normal 0 0 -1
    outer loop
      vertex 2.5 25 0
      vertex 17 35 0
      vertex 1.76777 23.2322 0
    endloop
  endfacet
  facet normal 0 0 -1
    outer loop
      vertex 0 -22.5 0
      vertex -12 -6.25 0
      vertex 1.76777 -23.2322 0
    endloop
  endfacet
  facet normal 0 0 -1
    outer loop
      vertex -1.76777 -23.2322 0
      vertex -12 -6.25 0
      vertex 0 -22.5 0
    endloop
  endfacet
  facet normal 0 0 -1
    outer loop
      vertex 1.76777 -26.7678 0
      vertex 2.5 -25 0
      vertex 17 -35 0
    endloop
  endfacet
  facet normal 0 0 -1
    outer loop
      vertex 2.5 -25 0
      vertex 1.76777 -23.2322 0
      vertex 17 -35 0
    endloop
  endfacet
  facet normal 0 0 -1
    outer loop
      vertex -2.5 -25 0
      vertex -12 -6.25 0
      vertex -1.76777 -23.2322 0
    endloop
  endfacet
  facet normal 0 0 -1
    outer loop
      vertex 5.05636 3.67366 0
      vertex -12 35 0
      vertex -2.5 25 0
    endloop
  endfacet
  facet normal 0 0 -1
    outer loop
      vertex 5.05636 3.67366 0
      vertex -2.5 25 0
      vertex -1.76777 23.2322 0
    endloop
  endfacet
  facet normal 0 0 -1
    outer loop
      vertex 5.05636 3.67366 0
      vertex -1.76777 23.2322 0
      vertex 0 22.5 0
    endloop
  endfacet
  facet normal 0 0 -1
    outer loop
      vertex 5.05636 3.67366 0
      vertex 0 22.5 0
      vertex 1.76777 23.2322 0
    endloop
  endfacet
  facet normal 0 0 -1
    outer loop
      vertex 5.05636 3.67366 0
      vertex 1.76777 23.2322 0
      vertex 17 35 0
    endloop
  endfacet
  facet normal 0 0 -1
    outer loop
      vertex 1.76777 26.7678 0
      vertex 17 35 0
      vertex 2.5 25 0
    endloop
  endfacet
  facet normal 0 0 -1
    outer loop
      vertex 0 27.5 0
      vertex 17 35 0
      vertex 1.76777 26.7678 0
    endloop
  endfacet
  facet normal 0 0 -1
    outer loop
      vertex -1.76777 26.7678 0
      vertex -12 35 0
      vertex 0 27.5 0
    endloop
  endfacet
  facet normal 0 0 -1
    outer loop
      vertex -2.5 25 0
      vertex -12 35 0
      vertex -1.76777 26.7678 0
    endloop
  endfacet
  facet normal 0 0 -1
    outer loop
      vertex 1.76777 -26.7678 0
      vertex 17 -35 0
      vertex 0 -27.5 0
    endloop
  endfacet
  facet normal 0 1 0
    outer loop
      vertex 0 -6.25 4.4
      vertex 0 -6.25 0
      vertex -12 -6.25 4.4
    endloop
  endfacet
  facet normal 0 1 0
    outer loop
      vertex -12 -6.25 4.4
      vertex 0 -6.25 0
      vertex -12 -6.25 0
    endloop
  endfacet
  facet normal 0 0 1
    outer loop
      vertex 2.92549 -7.71388 4.4
      vertex 0 -8.18985 4.4
      vertex 0.994428 -8.18985 4.4
    endloop
  endfacet
  facet normal 0 0 1
    outer loop
      vertex 4.68653 -6.78962 4.4
      vertex 0 -8.18985 4.4
      vertex 2.92549 -7.71388 4.4
    endloop
  endfacet
  facet normal 0 0 1
    outer loop
      vertex 0 6.25 4.4
      vertex 1.93136 5.9441 4.4
      vertex 0.994428 8.18985 4.4
    endloop
  endfacet
  facet normal 0 0 1
    outer loop
      vertex 6.17521 -5.47076 4.4
      vertex 0 -8.18985 4.4
      vertex 4.68653 -6.78962 4.4
    endloop
  endfacet
  facet normal 0 0 1
    outer loop
      vertex 7.30501 -3.83397 4.4
      vertex 0 -8.18985 4.4
      vertex 6.17521 -5.47076 4.4
    endloop
  endfacet
  facet normal 0 0 1
    outer loop
      vertex 8.01027 -1.97435 4.4
      vertex 0 -8.18985 4.4
      vertex 7.30501 -3.83397 4.4
    endloop
  endfacet
  facet normal 0 0 1
    outer loop
      vertex 3.67366 -5.05636 4.4
      vertex 0 -8.18985 4.4
      vertex 8.01027 -1.97435 4.4
    endloop
  endfacet
  facet normal 0 0 1
    outer loop
      vertex 3.67366 -5.05636 4.4
      vertex 1.93136 -5.9441 4.4
      vertex 0 -8.18985 4.4
    endloop
  endfacet
  facet normal 0 0 1
    outer loop
      vertex 5.9441 1.93136 4.4
      vertex 6.25 0 4.4
      vertex 7.30501 3.83397 4.4
    endloop
  endfacet
  facet normal 0 0 1
    outer loop
      vertex 5.05636 3.67366 4.4
      vertex 5.9441 1.93136 4.4
      vertex 6.17521 5.47076 4.4
    endloop
  endfacet
  facet normal 0 0 1
    outer loop
      vertex 3.67366 5.05636 4.4
      vertex 5.05636 3.67366 4.4
      vertex 4.68653 6.78962 4.4
    endloop
  endfacet
  facet normal 0 0 1
    outer loop
      vertex 0 8.18985 4.4
      vertex 0 6.25 4.4
      vertex 0.994428 8.18985 4.4
    endloop
  endfacet
  facet normal 0 0 1
    outer loop
      vertex 6.25 0 4.4
      vertex 5.9441 -1.93136 4.4
      vertex 8.01027 1.97435 4.4
    endloop
  endfacet
  facet normal 0 0 1
    outer loop
      vertex -12 8.25 4.4
      vertex 0 8.18985 4.4
      vertex 0 8.25 4.4
    endloop
  endfacet
  facet normal 0 0 1
    outer loop
      vertex -12 8.25 4.4
      vertex 0 6.25 4.4
      vertex 0 8.18985 4.4
    endloop
  endfacet
  facet normal 0 0 1
    outer loop
      vertex 1.93136 5.9441 4.4
      vertex 3.67366 5.05636 4.4
      vertex 2.92549 7.71388 4.4
    endloop
  endfacet
  facet normal 0 0 1
    outer loop
      vertex 0.994428 8.18985 4.4
      vertex 1.93136 5.9441 4.4
      vertex 2.92549 7.71388 4.4
    endloop
  endfacet
  facet normal 0 0 1
    outer loop
      vertex 0 -8.18985 4.4
      vertex -12 -6.25 4.4
      vertex 0 -8.25 4.4
    endloop
  endfacet
  facet normal 0 0 1
    outer loop
      vertex 2.92549 7.71388 4.4
      vertex 3.67366 5.05636 4.4
      vertex 4.68653 6.78962 4.4
    endloop
  endfacet
  facet normal 0 0 1
    outer loop
      vertex 0 -6.25 4.4
      vertex -12 -6.25 4.4
      vertex 0 -8.18985 4.4
    endloop
  endfacet
  facet normal 0 0 1
    outer loop
      vertex 4.68653 6.78962 4.4
      vertex 5.05636 3.67366 4.4
      vertex 6.17521 5.47076 4.4
    endloop
  endfacet
  facet normal 0 0 1
    outer loop
      vertex 6.17521 5.47076 4.4
      vertex 5.9441 1.93136 4.4
      vertex 7.30501 3.83397 4.4
    endloop
  endfacet
  facet normal 0 0 1
    outer loop
      vertex 7.30501 3.83397 4.4
      vertex 6.25 0 4.4
      vertex 8.01027 1.97435 4.4
    endloop
  endfacet
  facet normal 0 0 1
    outer loop
      vertex 8.01027 1.97435 4.4
      vertex 5.9441 -1.93136 4.4
      vertex 8.25 0 4.4
    endloop
  endfacet
  facet normal 0 0 1
    outer loop
      vertex 8.25 0 4.4
      vertex 5.05636 -3.67366 4.4
      vertex 8.01027 -1.97435 4.4
    endloop
  endfacet
  facet normal 0 0 1
    outer loop
      vertex 5.05636 -3.67366 4.4
      vertex 3.67366 -5.05636 4.4
      vertex 8.01027 -1.97435 4.4
    endloop
  endfacet
  facet normal 0 0 1
    outer loop
      vertex 5.9441 -1.93136 4.4
      vertex 5.05636 -3.67366 4.4
      vertex 8.25 0 4.4
    endloop
  endfacet
  facet normal 0 0 1
    outer loop
      vertex -12 -8.25 4.4
      vertex 0 -8.25 4.4
      vertex -12 -6.25 4.4
    endloop
  endfacet
  facet normal 0 0 1
    outer loop
      vertex -12 6.25 4.4
      vertex 0 6.25 4.4
      vertex -12 8.25 4.4
    endloop
  endfacet
  facet normal 0 0 1
    outer loop
      vertex 1.93136 -5.9441 4.4
      vertex 0 -6.25 4.4
      vertex 0 -8.18985 4.4
    endloop
  endfacet
  facet normal 0 1 0
    outer loop
      vertex 0 -8.25 12
      vertex 0 -8.25 4.4
      vertex -12 -8.25 12
    endloop
  endfacet
  facet normal 0 1 0
    outer loop
      vertex -12 -8.25 12
      vertex 0 -8.25 4.4
      vertex -12 -8.25 4.4
    endloop
  endfacet
  facet normal 0 0 1
    outer loop
      vertex -1.76777 -26.7678 12
      vertex -12 -35 12
      vertex 17 -35 12
    endloop
  endfacet
  facet normal 0 0 1
    outer loop
      vertex 0 8.18985 12
      vertex 0.994428 8.18985 12
      vertex 0 8.25 12
    endloop
  endfacet
  facet normal 0 0 1
    outer loop
      vertex 0 -8.25 12
      vertex -12 -8.25 12
      vertex 17 -35 12
    endloop
  endfacet
  facet normal 0 0 1
    outer loop
      vertex 1.76777 23.2322 12
      vertex -12 8.25 12
      vertex 17 35 12
    endloop
  endfacet
  facet normal 0 0 1
    outer loop
      vertex 0 -8.18985 12
      vertex 0 -8.25 12
      vertex 0.994428 -8.18985 12
    endloop
  endfacet
  facet normal 0 0 1
    outer loop
      vertex 8.01027 1.97435 12
      vertex 8.25 0 12
      vertex 17 -35 12
    endloop
  endfacet
  facet normal 0 0 1
    outer loop
      vertex 17 35 12
      vertex 0 8.25 12
      vertex 0.994428 8.18985 12
    endloop
  endfacet
  facet normal 0 0 1
    outer loop
      vertex 17 35 12
      vertex 0.994428 8.18985 12
      vertex 2.92549 7.71388 12
    endloop
  endfacet
  facet normal 0 0 1
    outer loop
      vertex 7.30501 -3.83397 12
      vertex 6.17521 -5.47076 12
      vertex 17 -35 12
    endloop
  endfacet
  facet normal 0 0 1
    outer loop
      vertex 17 35 12
      vertex 2.92549 7.71388 12
      vertex 4.68653 6.78962 12
    endloop
  endfacet
  facet normal 0 0 1
    outer loop
      vertex 8.01027 -1.97435 12
      vertex 7.30501 -3.83397 12
      vertex 17 -35 12
    endloop
  endfacet
  facet normal 0 0 1
    outer loop
      vertex 17 35 12
      vertex 4.68653 6.78962 12
      vertex 6.17521 5.47076 12
    endloop
  endfacet
  facet normal 0 0 1
    outer loop
      vertex 8.25 0 12
      vertex 8.01027 -1.97435 12
      vertex 17 -35 12
    endloop
  endfacet
  facet normal 0 0 1
    outer loop
      vertex 17 35 12
      vertex 6.17521 5.47076 12
      vertex 7.30501 3.83397 12
    endloop
  endfacet
  facet normal 0 0 1
    outer loop
      vertex 17 35 12
      vertex 8.01027 1.97435 12
      vertex 17 -35 12
    endloop
  endfacet
  facet normal 0 0 1
    outer loop
      vertex 17 35 12
      vertex 7.30501 3.83397 12
      vertex 8.01027 1.97435 12
    endloop
  endfacet
  facet normal 0 0 1
    outer loop
      vertex 4.68653 -6.78962 12
      vertex 2.92549 -7.71388 12
      vertex 17 -35 12
    endloop
  endfacet
  facet normal 0 0 1
    outer loop
      vertex 2.92549 -7.71388 12
      vertex 0.994428 -8.18985 12
      vertex 17 -35 12
    endloop
  endfacet
  facet normal 0 0 1
    outer loop
      vertex 1.76777 -23.2322 12
      vertex 2.5 -25 12
      vertex 17 -35 12
    endloop
  endfacet
  facet normal 0 0 1
    outer loop
      vertex 0.994428 -8.18985 12
      vertex 0 -8.25 12
      vertex 17 -35 12
    endloop
  endfacet
  facet normal 0 0 1
    outer loop
      vertex 0 -27.5 12
      vertex -1.76777 -26.7678 12
      vertex 17 -35 12
    endloop
  endfacet
  facet normal 0 0 1
    outer loop
      vertex -12 -8.25 12
      vertex -12 -35 12
      vertex -1.76777 -26.7678 12
    endloop
  endfacet
  facet normal 0 0 1
    outer loop
      vertex 0 27.5 12
      vertex 1.76777 26.7678 12
      vertex 17 35 12
    endloop
  endfacet
  facet normal 0 0 1
    outer loop
      vertex -12 -8.25 12
      vertex -1.76777 -26.7678 12
      vertex -2.5 -25 12
    endloop
  endfacet
  facet normal 0 0 1
    outer loop
      vertex 1.76777 -26.7678 12
      vertex 0 -27.5 12
      vertex 17 -35 12
    endloop
  endfacet
  facet normal 0 0 1
    outer loop
      vertex -12 -8.25 12
      vertex -2.5 -25 12
      vertex -1.76777 -23.2322 12
    endloop
  endfacet
  facet normal 0 0 1
    outer loop
      vertex 2.5 -25 12
      vertex 1.76777 -26.7678 12
      vertex 17 -35 12
    endloop
  endfacet
  facet normal 0 0 1
    outer loop
      vertex -12 -8.25 12
      vertex -1.76777 -23.2322 12
      vertex 0 -22.5 12
    endloop
  endfacet
  facet normal 0 0 1
    outer loop
      vertex -12 -8.25 12
      vertex 1.76777 -23.2322 12
      vertex 17 -35 12
    endloop
  endfacet
  facet normal 0 0 1
    outer loop
      vertex -12 -8.25 12
      vertex 0 -22.5 12
      vertex 1.76777 -23.2322 12
    endloop
  endfacet
  facet normal 0 0 1
    outer loop
      vertex 1.76777 23.2322 12
      vertex 0 22.5 12
      vertex -12 8.25 12
    endloop
  endfacet
  facet normal 0 0 1
    outer loop
      vertex -12 35 12
      vertex -12 8.25 12
      vertex -1.76777 23.2322 12
    endloop
  endfacet
  facet normal 0 0 1
    outer loop
      vertex 1.76777 26.7678 12
      vertex 2.5 25 12
      vertex 17 35 12
    endloop
  endfacet
  facet normal 0 0 1
    outer loop
      vertex -12 35 12
      vertex -1.76777 23.2322 12
      vertex -2.5 25 12
    endloop
  endfacet
  facet normal 0 0 1
    outer loop
      vertex -12 35 12
      vertex -1.76777 26.7678 12
      vertex 17 35 12
    endloop
  endfacet
  facet normal 0 0 1
    outer loop
      vertex -12 35 12
      vertex -2.5 25 12
      vertex -1.76777 26.7678 12
    endloop
  endfacet
  facet normal 0 0 1
    outer loop
      vertex -1.76777 26.7678 12
      vertex 0 27.5 12
      vertex 17 35 12
    endloop
  endfacet
  facet normal 0 0 1
    outer loop
      vertex 2.5 25 12
      vertex 1.76777 23.2322 12
      vertex 17 35 12
    endloop
  endfacet
  facet normal 0 0 1
    outer loop
      vertex -1.76777 23.2322 12
      vertex -12 8.25 12
      vertex 0 22.5 12
    endloop
  endfacet
  facet normal 0 0 1
    outer loop
      vertex -12 8.25 12
      vertex 0 8.25 12
      vertex 17 35 12
    endloop
  endfacet
  facet normal 0 0 1
    outer loop
      vertex 6.17521 -5.47076 12
      vertex 4.68653 -6.78962 12
      vertex 17 -35 12
    endloop
  endfacet
  facet normal 1 0 0
    outer loop
      vertex 17 -35 12
      vertex 17 -35 0
      vertex 17 35 0
    endloop
  endfacet
  facet normal 1 0 0
    outer loop
      vertex 17 35 12
      vertex 17 -35 12
      vertex 17 35 0
    endloop
  endfacet
  facet normal 0 1 0
    outer loop
      vertex -12 35 0
      vertex -12 35 12
      vertex 17 35 0
    endloop
  endfacet
  facet normal 0 1 0
    outer loop
      vertex 17 35 0
      vertex -12 35 12
      vertex 17 35 12
    endloop
  endfacet
  facet normal -1 0 0
    outer loop
      vertex -12 6.25 0
      vertex -12 6.25 4.4
      vertex -12 35 0
    endloop
  endfacet
  facet normal -1 0 0
    outer loop
      vertex -12 35 0
      vertex -12 6.25 4.4
      vertex -12 8.25 4.4
    endloop
  endfacet
  facet normal -1 0 0
    outer loop
      vertex -12 35 0
      vertex -12 8.25 4.4
      vertex -12 8.25 12
    endloop
  endfacet
  facet normal -1 0 0
    outer loop
      vertex -12 35 0
      vertex -12 8.25 12
      vertex -12 35 12
    endloop
  endfacet
  facet normal 0 -1 0
    outer loop
      vertex 0 6.25 0
      vertex 0 6.25 4.4
      vertex -12 6.25 4.4
    endloop
  endfacet
  facet normal 0 -1 0
    outer loop
      vertex -12 6.25 0
      vertex 0 6.25 0
      vertex -12 6.25 4.4
    endloop
  endfacet
  facet normal -0.156435 -0.987688 0
    outer loop
      vertex 1.93136 5.9441 0
      vertex 1.93136 5.9441 4.4
      vertex 0 6.25 4.4
    endloop
  endfacet
  facet normal -0.156435 -0.987688 0
    outer loop
      vertex 0 6.25 0
      vertex 1.93136 5.9441 0
      vertex 0 6.25 4.4
    endloop
  endfacet
  facet normal -0.45399 -0.891007 0
    outer loop
      vertex 3.67366 5.05636 0
      vertex 3.67366 5.05636 4.4
      vertex 1.93136 5.9441 4.4
    endloop
  endfacet
  facet normal -0.45399 -0.891007 0
    outer loop
      vertex 1.93136 5.9441 0
      vertex 3.67366 5.05636 0
      vertex 1.93136 5.9441 4.4
    endloop
  endfacet
  facet normal -0.707107 -0.707107 0
    outer loop
      vertex 5.05636 3.67366 0
      vertex 5.05636 3.67366 4.4
      vertex 3.67366 5.05636 4.4
    endloop
  endfacet
  facet normal -0.707107 -0.707107 0
    outer loop
      vertex 3.67366 5.05636 0
      vertex 5.05636 3.67366 0
      vertex 3.67366 5.05636 4.4
    endloop
  endfacet
  facet normal -0.891007 -0.45399 0
    outer loop
      vertex 5.9441 1.93136 4.4
      vertex 5.05636 3.67366 4.4
      vertex 5.9441 1.93136 0
    endloop
  endfacet
  facet normal -0.891007 -0.45399 0
    outer loop
      vertex 5.9441 1.93136 0
      vertex 5.05636 3.67366 4.4
      vertex 5.05636 3.67366 0
    endloop
  endfacet
  facet normal -0.987688 -0.156435 0
    outer loop
      vertex 6.25 0 4.4
      vertex 5.9441 1.93136 4.4
      vertex 6.25 0 0
    endloop
  endfacet
  facet normal -0.987688 -0.156435 0
    outer loop
      vertex 6.25 0 0
      vertex 5.9441 1.93136 4.4
      vertex 5.9441 1.93136 0
    endloop
  endfacet
  facet normal -0.987688 0.156435 0
    outer loop
      vertex 6.25 0 4.4
      vertex 6.25 0 0
      vertex 5.9441 -1.93136 4.4
    endloop
  endfacet
  facet normal -0.987688 0.156435 0
    outer loop
      vertex 5.9441 -1.93136 4.4
      vertex 6.25 0 0
      vertex 5.9441 -1.93136 0
    endloop
  endfacet
  facet normal -0.891007 0.45399 0
    outer loop
      vertex 5.9441 -1.93136 4.4
      vertex 5.9441 -1.93136 0
      vertex 5.05636 -3.67366 4.4
    endloop
  endfacet
  facet normal -0.891007 0.45399 0
    outer loop
      vertex 5.05636 -3.67366 4.4
      vertex 5.9441 -1.93136 0
      vertex 5.05636 -3.67366 0
    endloop
  endfacet
  facet normal -0.707107 0.707107 0
    outer loop
      vertex 5.05636 -3.67366 4.4
      vertex 5.05636 -3.67366 0
      vertex 3.67366 -5.05636 4.4
    endloop
  endfacet
  facet normal -0.707107 0.707107 0
    outer loop
      vertex 3.67366 -5.05636 4.4
      vertex 5.05636 -3.67366 0
      vertex 3.67366 -5.05636 0
    endloop
  endfacet
  facet normal -0.45399 0.891007 0
    outer loop
      vertex 3.67366 -5.05636 4.4
      vertex 3.67366 -5.05636 0
      vertex 1.93136 -5.9441 4.4
    endloop
  endfacet
  facet normal -0.45399 0.891007 0
    outer loop
      vertex 1.93136 -5.9441 4.4
      vertex 3.67366 -5.05636 0
      vertex 1.93136 -5.9441 0
    endloop
  endfacet
  facet normal -0.156435 0.987688 0
    outer loop
      vertex 1.93136 -5.9441 4.4
      vertex 1.93136 -5.9441 0
      vertex 0 -6.25 4.4
    endloop
  endfacet
  facet normal -0.156435 0.987688 0
    outer loop
      vertex 0 -6.25 4.4
      vertex 1.93136 -5.9441 0
      vertex 0 -6.25 0
    endloop
  endfacet
  facet normal 0.92388 -0.382683 0
    outer loop
      vertex -1.76777 -23.2322 0
      vertex -1.76777 -23.2322 12
      vertex -2.5 -25 12
    endloop
  endfacet
  facet normal 0.92388 -0.382683 0
    outer loop
      vertex -2.5 -25 0
      vertex -1.76777 -23.2322 0
      vertex -2.5 -25 12
    endloop
  endfacet
  facet normal 0.92388 0.382683 0
    outer loop
      vertex -2.5 -25 12
      vertex -1.76777 -26.7678 12
      vertex -1.76777 -26.7678 0
    endloop
  endfacet
  facet normal 0.92388 0.382683 0
    outer loop
      vertex -2.5 -25 0
      vertex -2.5 -25 12
      vertex -1.76777 -26.7678 0
    endloop
  endfacet
  facet normal 0.382683 -0.92388 0
    outer loop
      vertex 0 -22.5 0
      vertex 0 -22.5 12
      vertex -1.76777 -23.2322 12
    endloop
  endfacet
  facet normal 0.382683 -0.92388 0
    outer loop
      vertex -1.76777 -23.2322 0
      vertex 0 -22.5 0
      vertex -1.76777 -23.2322 12
    endloop
  endfacet
  facet normal -0.382683 -0.92388 0
    outer loop
      vertex 1.76777 -23.2322 0
      vertex 1.76777 -23.2322 12
      vertex 0 -22.5 12
    endloop
  endfacet
  facet normal -0.382683 -0.92388 0
    outer loop
      vertex 0 -22.5 0
      vertex 1.76777 -23.2322 0
      vertex 0 -22.5 12
    endloop
  endfacet
  facet normal -0.92388 -0.382683 0
    outer loop
      vertex 2.5 -25 12
      vertex 1.76777 -23.2322 12
      vertex 2.5 -25 0
    endloop
  endfacet
  facet normal -0.92388 -0.382683 0
    outer loop
      vertex 2.5 -25 0
      vertex 1.76777 -23.2322 12
      vertex 1.76777 -23.2322 0
    endloop
  endfacet
  facet normal -0.92388 0.382683 0
    outer loop
      vertex 2.5 -25 12
      vertex 2.5 -25 0
      vertex 1.76777 -26.7678 12
    endloop
  endfacet
  facet normal -0.92388 0.382683 0
    outer loop
      vertex 1.76777 -26.7678 12
      vertex 2.5 -25 0
      vertex 1.76777 -26.7678 0
    endloop
  endfacet
  facet normal -0.382683 0.92388 0
    outer loop
      vertex 1.76777 -26.7678 12
      vertex 1.76777 -26.7678 0
      vertex 0 -27.5 12
    endloop
  endfacet
  facet normal -0.382683 0.92388 0
    outer loop
      vertex 0 -27.5 12
      vertex 1.76777 -26.7678 0
      vertex 0 -27.5 0
    endloop
  endfacet
  facet normal 0.382683 0.92388 0
    outer loop
      vertex 0 -27.5 12
      vertex 0 -27.5 0
      vertex -1.76777 -26.7678 12
    endloop
  endfacet
  facet normal 0.382683 0.92388 0
    outer loop
      vertex -1.76777 -26.7678 12
      vertex 0 -27.5 0
      vertex -1.76777 -26.7678 0
    endloop
  endfacet
  facet normal 0.92388 0.382683 0
    outer loop
      vertex -2.5 25 12
      vertex -1.76777 23.2322 12
      vertex -1.76777 23.2322 0
    endloop
  endfacet
  facet normal 0.92388 0.382683 0
    outer loop
      vertex -2.5 25 0
      vertex -2.5 25 12
      vertex -1.76777 23.2322 0
    endloop
  endfacet
  facet normal 0.92388 -0.382683 0
    outer loop
      vertex -1.76777 26.7678 0
      vertex -1.76777 26.7678 12
      vertex -2.5 25 12
    endloop
  endfacet
  facet normal 0.92388 -0.382683 0
    outer loop
      vertex -2.5 25 0
      vertex -1.76777 26.7678 0
      vertex -2.5 25 12
    endloop
  endfacet
  facet normal 0.382683 -0.92388 0
    outer loop
      vertex 0 27.5 0
      vertex 0 27.5 12
      vertex -1.76777 26.7678 12
    endloop
  endfacet
  facet normal 0.382683 -0.92388 0
    outer loop
      vertex -1.76777 26.7678 0
      vertex 0 27.5 0
      vertex -1.76777 26.7678 12
    endloop
  endfacet
  facet normal -0.382683 -0.92388 0
    outer loop
      vertex 1.76777 26.7678 0
      vertex 1.76777 26.7678 12
      vertex 0 27.5 12
    endloop
  endfacet
  facet normal -0.382683 -0.92388 0
    outer loop
      vertex 0 27.5 0
      vertex 1.76777 26.7678 0
      vertex 0 27.5 12
    endloop
  endfacet
  facet normal -0.92388 -0.382683 0
    outer loop
      vertex 2.5 25 12
      vertex 1.76777 26.7678 12
      vertex 2.5 25 0
    endloop
  endfacet
  facet normal -0.92388 -0.382683 0
    outer loop
      vertex 2.5 25 0
      vertex 1.76777 26.7678 12
      vertex 1.76777 26.7678 0
    endloop
  endfacet
  facet normal -0.92388 0.382683 0
    outer loop
      vertex 2.5 25 12
      vertex 2.5 25 0
      vertex 1.76777 23.2322 12
    endloop
  endfacet
  facet normal -0.92388 0.382683 0
    outer loop
      vertex 1.76777 23.2322 12
      vertex 2.5 25 0
      vertex 1.76777 23.2322 0
    endloop
  endfacet
  facet normal -0.382683 0.92388 0
    outer loop
      vertex 1.76777 23.2322 12
      vertex 1.76777 23.2322 0
      vertex 0 22.5 12
    endloop
  endfacet
  facet normal -0.382683 0.92388 0
    outer loop
      vertex 0 22.5 12
      vertex 1.76777 23.2322 0
      vertex 0 22.5 0
    endloop
  endfacet
  facet normal 0.382683 0.92388 0
    outer loop
      vertex 0 22.5 12
      vertex 0 22.5 0
      vertex -1.76777 23.2322 12
    endloop
  endfacet
  facet normal 0.382683 0.92388 0
    outer loop
      vertex -1.76777 23.2322 12
      vertex 0 22.5 0
      vertex -1.76777 23.2322 0
    endloop
  endfacet
  facet normal -1 0 0
    outer loop
      vertex 0 -8.18985 12
      vertex 0 -8.18985 4.4
      vertex 0 -8.25 12
    endloop
  endfacet
  facet normal -1 0 0
    outer loop
      vertex 0 -8.25 12
      vertex 0 -8.18985 4.4
      vertex 0 -8.25 4.4
    endloop
  endfacet
  facet normal 0 -1 0
    outer loop
      vertex 0 8.25 4.4
      vertex 0 8.25 12
      vertex -12 8.25 12
    endloop
  endfacet
  facet normal 0 -1 0
    outer loop
      vertex -12 8.25 4.4
      vertex 0 8.25 4.4
      vertex -12 8.25 12
    endloop
  endfacet
  facet normal -1 0 0
    outer loop
      vertex 0 8.25 12
      vertex 0 8.25 4.4
      vertex 0 8.18985 12
    endloop
  endfacet
  facet normal -1 0 0
    outer loop
      vertex 0 8.18985 12
      vertex 0 8.25 4.4
      vertex 0 8.18985 4.4
    endloop
  endfacet
  facet normal 0 -1 0
    outer loop
      vertex 0.994428 8.18985 4.4
      vertex 0.994428 8.18985 12
      vertex 0 8.18985 12
    endloop
  endfacet
  facet normal 0 -1 0
    outer loop
      vertex 0 8.18985 4.4
      vertex 0.994428 8.18985 4.4
      vertex 0 8.18985 12
    endloop
  endfacet
  facet normal -0.239316 -0.970942 0
    outer loop
      vertex 2.92549 7.71388 4.4
      vertex 2.92549 7.71388 12
      vertex 0.994428 8.18985 12
    endloop
  endfacet
  facet normal -0.239316 -0.970942 0
    outer loop
      vertex 0.994428 8.18985 4.4
      vertex 2.92549 7.71388 4.4
      vertex 0.994428 8.18985 12
    endloop
  endfacet
  facet normal -0.464723 -0.885456 0
    outer loop
      vertex 4.68653 6.78962 4.4
      vertex 4.68653 6.78962 12
      vertex 2.92549 7.71388 12
    endloop
  endfacet
  facet normal -0.464723 -0.885456 0
    outer loop
      vertex 2.92549 7.71388 4.4
      vertex 4.68653 6.78962 4.4
      vertex 2.92549 7.71388 12
    endloop
  endfacet
  facet normal -0.663123 -0.748511 0
    outer loop
      vertex 6.17521 5.47076 4.4
      vertex 6.17521 5.47076 12
      vertex 4.68653 6.78962 12
    endloop
  endfacet
  facet normal -0.663123 -0.748511 0
    outer loop
      vertex 4.68653 6.78962 4.4
      vertex 6.17521 5.47076 4.4
      vertex 4.68653 6.78962 12
    endloop
  endfacet
  facet normal -0.822984 -0.568065 0
    outer loop
      vertex 7.30501 3.83397 12
      vertex 6.17521 5.47076 12
      vertex 7.30501 3.83397 4.4
    endloop
  endfacet
  facet normal -0.822984 -0.568065 0
    outer loop
      vertex 7.30501 3.83397 4.4
      vertex 6.17521 5.47076 12
      vertex 6.17521 5.47076 4.4
    endloop
  endfacet
  facet normal -0.935016 -0.354605 0
    outer loop
      vertex 8.01027 1.97435 12
      vertex 7.30501 3.83397 12
      vertex 8.01027 1.97435 4.4
    endloop
  endfacet
  facet normal -0.935016 -0.354605 0
    outer loop
      vertex 8.01027 1.97435 4.4
      vertex 7.30501 3.83397 12
      vertex 7.30501 3.83397 4.4
    endloop
  endfacet
  facet normal -0.992709 -0.120537 0
    outer loop
      vertex 8.25 0 12
      vertex 8.01027 1.97435 12
      vertex 8.25 0 4.4
    endloop
  endfacet
  facet normal -0.992709 -0.120537 0
    outer loop
      vertex 8.25 0 4.4
      vertex 8.01027 1.97435 12
      vertex 8.01027 1.97435 4.4
    endloop
  endfacet
  facet normal -0.992709 0.120537 0
    outer loop
      vertex 8.25 0 12
      vertex 8.25 0 4.4
      vertex 8.01027 -1.97435 12
    endloop
  endfacet
  facet normal -0.992709 0.120537 0
    outer loop
      vertex 8.01027 -1.97435 12
      vertex 8.25 0 4.4
      vertex 8.01027 -1.97435 4.4
    endloop
  endfacet
  facet normal -0.935016 0.354605 0
    outer loop
      vertex 8.01027 -1.97435 12
      vertex 8.01027 -1.97435 4.4
      vertex 7.30501 -3.83397 12
    endloop
  endfacet
  facet normal -0.935016 0.354605 0
    outer loop
      vertex 7.30501 -3.83397 12
      vertex 8.01027 -1.97435 4.4
      vertex 7.30501 -3.83397 4.4
    endloop
  endfacet
  facet normal -0.822984 0.568065 0
    outer loop
      vertex 7.30501 -3.83397 12
      vertex 7.30501 -3.83397 4.4
      vertex 6.17521 -5.47076 12
    endloop
  endfacet
  facet normal -0.822984 0.568065 0
    outer loop
      vertex 6.17521 -5.47076 12
      vertex 7.30501 -3.83397 4.4
      vertex 6.17521 -5.47076 4.4
    endloop
  endfacet
  facet normal -0.663123 0.748511 0
    outer loop
      vertex 6.17521 -5.47076 12
      vertex 6.17521 -5.47076 4.4
      vertex 4.68653 -6.78962 12
    endloop
  endfacet
  facet normal -0.663123 0.748511 0
    outer loop
      vertex 4.68653 -6.78962 12
      vertex 6.17521 -5.47076 4.4
      vertex 4.68653 -6.78962 4.4
    endloop
  endfacet
  facet normal -0.464723 0.885456 0
    outer loop
      vertex 4.68653 -6.78962 12
      vertex 4.68653 -6.78962 4.4
      vertex 2.92549 -7.71388 12
    endloop
  endfacet
  facet normal -0.464723 0.885456 0
    outer loop
      vertex 2.92549 -7.71388 12
      vertex 4.68653 -6.78962 4.4
      vertex 2.92549 -7.71388 4.4
    endloop
  endfacet
  facet normal -0.239316 0.970942 0
    outer loop
      vertex 2.92549 -7.71388 12
      vertex 2.92549 -7.71388 4.4
      vertex 0.994428 -8.18985 12
    endloop
  endfacet
  facet normal -0.239316 0.970942 0
    outer loop
      vertex 0.994428 -8.18985 12
      vertex 2.92549 -7.71388 4.4
      vertex 0.994428 -8.18985 4.4
    endloop
  endfacet
  facet normal 0 1 0
    outer loop
      vertex 0.994428 -8.18985 12
      vertex 0.994428 -8.18985 4.4
      vertex 0 -8.18985 12
    endloop
  endfacet
  facet normal 0 1 0
    outer loop
      vertex 0 -8.18985 12
      vertex 0.994428 -8.18985 4.4
      vertex 0 -8.18985 4.4
    endloop
  endfacet
endsolid OpenSCAD_Model
