solid OpenSCAD_Model
  facet normal -1 0 0
    outer loop
      vertex -6.9 -5 22.5
      vertex -6.9 0 0
      vertex -6.9 -30 22.5
    endloop
  endfacet
  facet normal -1 0 0
    outer loop
      vertex -6.9 -16.4832 62.2839
      vertex -6.9 -35 70
      vertex -6.9 0 70
    endloop
  endfacet
  facet normal -1 0 0
    outer loop
      vertex -6.9 -35 0
      vertex -6.9 -35 70
      vertex -6.9 -30 47.5
    endloop
  endfacet
  facet normal -1 0 0
    outer loop
      vertex -6.9 -35 0
      vertex -6.9 -30 47.5
      vertex -6.9 -30 22.5
    endloop
  endfacet
  facet normal -1 0 0
    outer loop
      vertex -6.9 -16.0305 12.0225
      vertex -6.9 -30 22.5
      vertex -6.9 0 0
    endloop
  endfacet
  facet normal -1 0 0
    outer loop
      vertex -6.9 0 0
      vertex -6.9 -5 22.5
      vertex -6.9 0 70
    endloop
  endfacet
  facet normal -1 0 0
    outer loop
      vertex -6.9 -5 22.5
      vertex -6.9 -5 47.5
      vertex -6.9 0 70
    endloop
  endfacet
  facet normal -1 0 0
    outer loop
      vertex -6.9 -35 0
      vertex -6.9 -30 22.5
      vertex -6.9 -19.9863 10.2613
    endloop
  endfacet
  facet normal -1 0 0
    outer loop
      vertex -6.9 -35 0
      vertex -6.9 -19.9863 10.2613
      vertex -6.9 -19.9863 9.73868
    endloop
  endfacet
  facet normal -1 0 0
    outer loop
      vertex -6.9 -35 0
      vertex -6.9 -19.9863 9.73868
      vertex -6.9 -19.8776 9.22746
    endloop
  endfacet
  facet normal -1 0 0
    outer loop
      vertex -6.9 -35 0
      vertex -6.9 -19.8776 9.22746
      vertex -6.9 -19.6651 8.75
    endloop
  endfacet
  facet normal -1 0 0
    outer loop
      vertex -6.9 -35 0
      vertex -6.9 -19.6651 8.75
      vertex -6.9 -19.3579 8.32717
    endloop
  endfacet
  facet normal -1 0 0
    outer loop
      vertex -6.9 -35 0
      vertex -6.9 -19.3579 8.32717
      vertex -6.9 -18.9695 7.97746
    endloop
  endfacet
  facet normal -1 0 0
    outer loop
      vertex -6.9 -35 0
      vertex -6.9 -18.9695 7.97746
      vertex -6.9 -18.5168 7.71614
    endloop
  endfacet
  facet normal -1 0 0
    outer loop
      vertex -6.9 -35 0
      vertex -6.9 -18.5168 7.71614
      vertex -6.9 0 0
    endloop
  endfacet
  facet normal -1 0 0
    outer loop
      vertex -6.9 -18.5168 7.71614
      vertex -6.9 -18.0198 7.55463
      vertex -6.9 0 0
    endloop
  endfacet
  facet normal -1 0 0
    outer loop
      vertex -6.9 -16.9802 7.55463
      vertex -6.9 0 0
      vertex -6.9 -17.5 7.5
    endloop
  endfacet
  facet normal -1 0 0
    outer loop
      vertex -6.9 -16.4832 7.71614
      vertex -6.9 0 0
      vertex -6.9 -16.9802 7.55463
    endloop
  endfacet
  facet normal -1 0 0
    outer loop
      vertex -6.9 -16.0305 7.97746
      vertex -6.9 0 0
      vertex -6.9 -16.4832 7.71614
    endloop
  endfacet
  facet normal -1 0 0
    outer loop
      vertex -6.9 -15.6421 8.32717
      vertex -6.9 0 0
      vertex -6.9 -16.0305 7.97746
    endloop
  endfacet
  facet normal -1 0 0
    outer loop
      vertex -6.9 -18.5168 57.7161
      vertex -6.9 -5 47.5
      vertex -6.9 -18.9695 57.9775
    endloop
  endfacet
  facet normal -1 0 0
    outer loop
      vertex -6.9 -16.4832 12.2839
      vertex -6.9 -30 22.5
      vertex -6.9 -16.0305 12.0225
    endloop
  endfacet
  facet normal -1 0 0
    outer loop
      vertex -6.9 -19.3579 11.6728
      vertex -6.9 -30 22.5
      vertex -6.9 -18.9695 12.0225
    endloop
  endfacet
  facet normal -1 0 0
    outer loop
      vertex -6.9 -15.6421 8.32717
      vertex -6.9 -15.3349 8.75
      vertex -6.9 0 0
    endloop
  endfacet
  facet normal -1 0 0
    outer loop
      vertex -6.9 -15.3349 8.75
      vertex -6.9 -15.1224 9.22746
      vertex -6.9 0 0
    endloop
  endfacet
  facet normal -1 0 0
    outer loop
      vertex -6.9 -18.9695 12.0225
      vertex -6.9 -30 22.5
      vertex -6.9 -18.5168 12.2839
    endloop
  endfacet
  facet normal -1 0 0
    outer loop
      vertex -6.9 -15.1224 9.22746
      vertex -6.9 -15.0137 9.73868
      vertex -6.9 0 0
    endloop
  endfacet
  facet normal -1 0 0
    outer loop
      vertex -6.9 -18.5168 12.2839
      vertex -6.9 -30 22.5
      vertex -6.9 -18.0198 12.4454
    endloop
  endfacet
  facet normal -1 0 0
    outer loop
      vertex -6.9 -15.0137 9.73868
      vertex -6.9 -15.0137 10.2613
      vertex -6.9 0 0
    endloop
  endfacet
  facet normal -1 0 0
    outer loop
      vertex -6.9 -18.0198 12.4454
      vertex -6.9 -30 22.5
      vertex -6.9 -17.5 12.5
    endloop
  endfacet
  facet normal -1 0 0
    outer loop
      vertex -6.9 -15.0137 10.2613
      vertex -6.9 -15.1224 10.7725
      vertex -6.9 0 0
    endloop
  endfacet
  facet normal -1 0 0
    outer loop
      vertex -6.9 -17.5 12.5
      vertex -6.9 -30 22.5
      vertex -6.9 -16.9802 12.4454
    endloop
  endfacet
  facet normal -1 0 0
    outer loop
      vertex -6.9 -15.1224 10.7725
      vertex -6.9 -15.3349 11.25
      vertex -6.9 0 0
    endloop
  endfacet
  facet normal -1 0 0
    outer loop
      vertex -6.9 -16.9802 12.4454
      vertex -6.9 -30 22.5
      vertex -6.9 -16.4832 12.2839
    endloop
  endfacet
  facet normal -1 0 0
    outer loop
      vertex -6.9 -15.3349 11.25
      vertex -6.9 -15.6421 11.6728
      vertex -6.9 0 0
    endloop
  endfacet
  facet normal -1 0 0
    outer loop
      vertex -6.9 -15.6421 11.6728
      vertex -6.9 -16.0305 12.0225
      vertex -6.9 0 0
    endloop
  endfacet
  facet normal -1 0 0
    outer loop
      vertex -6.9 -19.6651 11.25
      vertex -6.9 -30 22.5
      vertex -6.9 -19.3579 11.6728
    endloop
  endfacet
  facet normal -1 0 0
    outer loop
      vertex -6.9 -19.8776 10.7725
      vertex -6.9 -30 22.5
      vertex -6.9 -19.6651 11.25
    endloop
  endfacet
  facet normal -1 0 0
    outer loop
      vertex -6.9 -19.9863 10.2613
      vertex -6.9 -30 22.5
      vertex -6.9 -19.8776 10.7725
    endloop
  endfacet
  facet normal -1 0 0
    outer loop
      vertex -6.9 -19.9863 59.7387
      vertex -6.9 -35 70
      vertex -6.9 -19.9863 60.2613
    endloop
  endfacet
  facet normal -1 0 0
    outer loop
      vertex -6.9 -19.8776 59.2275
      vertex -6.9 -35 70
      vertex -6.9 -19.9863 59.7387
    endloop
  endfacet
  facet normal -1 0 0
    outer loop
      vertex -6.9 -19.6651 58.75
      vertex -6.9 -35 70
      vertex -6.9 -19.8776 59.2275
    endloop
  endfacet
  facet normal -1 0 0
    outer loop
      vertex -6.9 -19.3579 58.3272
      vertex -6.9 -35 70
      vertex -6.9 -19.6651 58.75
    endloop
  endfacet
  facet normal -1 0 0
    outer loop
      vertex -6.9 -18.9695 57.9775
      vertex -6.9 -35 70
      vertex -6.9 -19.3579 58.3272
    endloop
  endfacet
  facet normal -1 0 0
    outer loop
      vertex -6.9 -5 47.5
      vertex -6.9 -35 70
      vertex -6.9 -18.9695 57.9775
    endloop
  endfacet
  facet normal -1 0 0
    outer loop
      vertex -6.9 -18.0198 57.5546
      vertex -6.9 -5 47.5
      vertex -6.9 -18.5168 57.7161
    endloop
  endfacet
  facet normal -1 0 0
    outer loop
      vertex -6.9 -17.5 57.5
      vertex -6.9 -5 47.5
      vertex -6.9 -18.0198 57.5546
    endloop
  endfacet
  facet normal -1 0 0
    outer loop
      vertex -6.9 -16.9802 57.5546
      vertex -6.9 -5 47.5
      vertex -6.9 -17.5 57.5
    endloop
  endfacet
  facet normal -1 0 0
    outer loop
      vertex -6.9 -16.4832 57.7161
      vertex -6.9 -5 47.5
      vertex -6.9 -16.9802 57.5546
    endloop
  endfacet
  facet normal -1 0 0
    outer loop
      vertex -6.9 -15.3349 58.75
      vertex -6.9 0 70
      vertex -6.9 -15.6421 58.3272
    endloop
  endfacet
  facet normal -1 0 0
    outer loop
      vertex -6.9 -5 47.5
      vertex -6.9 -16.4832 57.7161
      vertex -6.9 -16.0305 57.9775
    endloop
  endfacet
  facet normal -1 0 0
    outer loop
      vertex -6.9 -5 47.5
      vertex -6.9 -16.0305 57.9775
      vertex -6.9 0 70
    endloop
  endfacet
  facet normal -1 0 0
    outer loop
      vertex -6.9 -16.0305 57.9775
      vertex -6.9 -15.6421 58.3272
      vertex -6.9 0 70
    endloop
  endfacet
  facet normal -1 0 0
    outer loop
      vertex -6.9 -16.4832 62.2839
      vertex -6.9 0 70
      vertex -6.9 -16.0305 62.0225
    endloop
  endfacet
  facet normal -1 0 0
    outer loop
      vertex -6.9 -15.3349 58.75
      vertex -6.9 -15.1224 59.2275
      vertex -6.9 0 70
    endloop
  endfacet
  facet normal -1 0 0
    outer loop
      vertex -6.9 -15.1224 59.2275
      vertex -6.9 -15.0137 59.7387
      vertex -6.9 0 70
    endloop
  endfacet
  facet normal -1 0 0
    outer loop
      vertex -6.9 -15.0137 59.7387
      vertex -6.9 -15.0137 60.2613
      vertex -6.9 0 70
    endloop
  endfacet
  facet normal -1 0 0
    outer loop
      vertex -6.9 -15.0137 60.2613
      vertex -6.9 -15.1224 60.7725
      vertex -6.9 0 70
    endloop
  endfacet
  facet normal -1 0 0
    outer loop
      vertex -6.9 -15.1224 60.7725
      vertex -6.9 -15.3349 61.25
      vertex -6.9 0 70
    endloop
  endfacet
  facet normal -1 0 0
    outer loop
      vertex -6.9 -15.3349 61.25
      vertex -6.9 -15.6421 61.6728
      vertex -6.9 0 70
    endloop
  endfacet
  facet normal -1 0 0
    outer loop
      vertex -6.9 -15.6421 61.6728
      vertex -6.9 -16.0305 62.0225
      vertex -6.9 0 70
    endloop
  endfacet
  facet normal -1 0 0
    outer loop
      vertex -6.9 -16.9802 62.4454
      vertex -6.9 -35 70
      vertex -6.9 -16.4832 62.2839
    endloop
  endfacet
  facet normal -1 0 0
    outer loop
      vertex -6.9 -17.5 62.5
      vertex -6.9 -35 70
      vertex -6.9 -16.9802 62.4454
    endloop
  endfacet
  facet normal -1 0 0
    outer loop
      vertex -6.9 -18.0198 62.4454
      vertex -6.9 -35 70
      vertex -6.9 -17.5 62.5
    endloop
  endfacet
  facet normal -1 0 0
    outer loop
      vertex -6.9 -18.5168 62.2839
      vertex -6.9 -35 70
      vertex -6.9 -18.0198 62.4454
    endloop
  endfacet
  facet normal -1 0 0
    outer loop
      vertex -6.9 -18.9695 62.0225
      vertex -6.9 -35 70
      vertex -6.9 -18.5168 62.2839
    endloop
  endfacet
  facet normal -1 0 0
    outer loop
      vertex -6.9 -19.3579 61.6728
      vertex -6.9 -35 70
      vertex -6.9 -18.9695 62.0225
    endloop
  endfacet
  facet normal -1 0 0
    outer loop
      vertex -6.9 -19.6651 61.25
      vertex -6.9 -35 70
      vertex -6.9 -19.3579 61.6728
    endloop
  endfacet
  facet normal -1 0 0
    outer loop
      vertex -6.9 -19.8776 60.7725
      vertex -6.9 -35 70
      vertex -6.9 -19.6651 61.25
    endloop
  endfacet
  facet normal -1 0 0
    outer loop
      vertex -6.9 -19.9863 60.2613
      vertex -6.9 -35 70
      vertex -6.9 -19.8776 60.7725
    endloop
  endfacet
  facet normal -1 0 0
    outer loop
      vertex -6.9 -30 47.5
      vertex -6.9 -35 70
      vertex -6.9 -5 47.5
    endloop
  endfacet
  facet normal -1 0 0
    outer loop
      vertex -6.9 -17.5 7.5
      vertex -6.9 0 0
      vertex -6.9 -18.0198 7.55463
    endloop
  endfacet
  facet normal 0 -1 0
    outer loop
      vertex -6.9 -35 70
      vertex -6.9 -35 0
      vertex -1.9 -35 0
    endloop
  endfacet
  facet normal 0 -1 0
    outer loop
      vertex -1.9 -35 70
      vertex -6.9 -35 70
      vertex -1.9 -35 0
    endloop
  endfacet
  facet normal 0 0 -1
    outer loop
      vertex -6.9 -35 0
      vertex -6.9 0 0
      vertex -1.9 -35 0
    endloop
  endfacet
  facet normal 0 0 -1
    outer loop
      vertex -1.9 -5 0
      vertex -6.9 0 0
      vertex 5.5 0 0
    endloop
  endfacet
  facet normal 0 0 -1
    outer loop
      vertex -4.5 2.4 0
      vertex -6.9 8.88178e-16 0
      vertex -6.9 13.8 0
    endloop
  endfacet
  facet normal 0 0 -1
    outer loop
      vertex -4.5 11.4 0
      vertex -6.9 13.8 0
      vertex 5.5 13.8 0
    endloop
  endfacet
  facet normal 0 0 -1
    outer loop
      vertex 5.5 8.88178e-16 0
      vertex 12.5 13.9 0
      vertex 5.5 0 0
    endloop
  endfacet
  facet normal 0 0 -1
    outer loop
      vertex 5.5 13.8 0
      vertex 5.5 13.9 0
      vertex 12.5 13.9 0
    endloop
  endfacet
  facet normal 0 0 -1
    outer loop
      vertex 5.5 13.8 0
      vertex 12.5 13.9 0
      vertex 5.5 8.88178e-16 0
    endloop
  endfacet
  facet normal 0 0 -1
    outer loop
      vertex 13.5 0 0
      vertex 13.5 1.9 0
      vertex 15 1.9 0
    endloop
  endfacet
  facet normal 0 0 -1
    outer loop
      vertex -1.9 -5 0
      vertex 5.5 0 0
      vertex 12.5 0 0
    endloop
  endfacet
  facet normal 0 0 -1
    outer loop
      vertex 5.5 0 0
      vertex 12.5 13.9 0
      vertex 12.5 0 0
    endloop
  endfacet
  facet normal 0 0 -1
    outer loop
      vertex 15 11.9 0
      vertex 13.5 13.9 0
      vertex 20.5 13.9 0
    endloop
  endfacet
  facet normal 0 0 -1
    outer loop
      vertex 15 11.9 0
      vertex 20.5 13.9 0
      vertex 15 1.9 0
    endloop
  endfacet
  facet normal 0 0 -1
    outer loop
      vertex -1.9 -35 0
      vertex -6.9 0 0
      vertex -1.9 -5 0
    endloop
  endfacet
  facet normal 0 0 -1
    outer loop
      vertex -4.5 2.4 0
      vertex -6.9 13.8 0
      vertex -4.5 11.4 0
    endloop
  endfacet
  facet normal 0 0 -1
    outer loop
      vertex 4.5 11.4 0
      vertex -4.5 11.4 0
      vertex 5.5 13.8 0
    endloop
  endfacet
  facet normal 0 0 -1
    outer loop
      vertex 5.5 8.88178e-16 0
      vertex -6.9 8.88178e-16 0
      vertex -4.5 2.4 0
    endloop
  endfacet
  facet normal 0 0 -1
    outer loop
      vertex 4.5 2.4 0
      vertex 5.5 8.88178e-16 0
      vertex -4.5 2.4 0
    endloop
  endfacet
  facet normal 0 0 -1
    outer loop
      vertex 5.5 8.88178e-16 0
      vertex 4.5 2.4 0
      vertex 5.5 13.8 0
    endloop
  endfacet
  facet normal 0 0 -1
    outer loop
      vertex 4.5 2.4 0
      vertex 4.5 11.4 0
      vertex 5.5 13.8 0
    endloop
  endfacet
  facet normal 0 0 -1
    outer loop
      vertex 13.5 13.9 0
      vertex 15 11.9 0
      vertex 13.5 11.9 0
    endloop
  endfacet
  facet normal 0 0 -1
    outer loop
      vertex -1.9 -5 0
      vertex 12.5 0 0
      vertex 13.5 0 0
    endloop
  endfacet
  facet normal 0 0 -1
    outer loop
      vertex 15 1.9 0
      vertex 20.5 13.9 0
      vertex 20.5 0 0
    endloop
  endfacet
  facet normal 0 0 -1
    outer loop
      vertex 13.5 0 0
      vertex 15 1.9 0
      vertex 20.5 0 0
    endloop
  endfacet
  facet normal 0 0 -1
    outer loop
      vertex -1.9 -5 0
      vertex 13.5 0 0
      vertex 20.5 0 0
    endloop
  endfacet
  facet normal 0 0 -1
    outer loop
      vertex -1.9 -5 0
      vertex 20.5 0 0
      vertex 51.9 0 0
    endloop
  endfacet
  facet normal 0 0 -1
    outer loop
      vertex -1.9 -5 0
      vertex 51.9 0 0
      vertex 51.9 -5 0
    endloop
  endfacet
  facet normal 0 1 0
    outer loop
      vertex -6.9 0 0
      vertex -6.9 0 70
      vertex 5.5 0 0
    endloop
  endfacet
  facet normal 0 1 0
    outer loop
      vertex 5.5 0 35
      vertex -6.9 0 70
      vertex 12.5736 0 70
    endloop
  endfacet
  facet normal 0 1 0
    outer loop
      vertex 20.5 0 35
      vertex 12.5736 0 70
      vertex 51.9 0 30.6736
    endloop
  endfacet
  facet normal 0 1 0
    outer loop
      vertex 20.5 0 0
      vertex 51.9 0 30.6736
      vertex 51.9 0 0
    endloop
  endfacet
  facet normal 0 1 0
    outer loop
      vertex 13.5 0 35
      vertex 12.5736 0 70
      vertex 20.5 0 35
    endloop
  endfacet
  facet normal 0 1 0
    outer loop
      vertex 12.5 0 35
      vertex 12.5736 0 70
      vertex 13.5 0 35
    endloop
  endfacet
  facet normal 0 1 0
    outer loop
      vertex 13.5 0 0
      vertex 12.5 0 0
      vertex 13.5 0 35
    endloop
  endfacet
  facet normal 0 1 0
    outer loop
      vertex 5.5 0 35
      vertex 12.5736 0 70
      vertex 12.5 0 35
    endloop
  endfacet
  facet normal 0 1 0
    outer loop
      vertex 5.5 0 0
      vertex -6.9 0 70
      vertex 5.5 0 35
    endloop
  endfacet
  facet normal 0 1 0
    outer loop
      vertex 20.5 0 35
      vertex 51.9 0 30.6736
      vertex 20.5 0 0
    endloop
  endfacet
  facet normal 0 1 0
    outer loop
      vertex 12.5 0 35
      vertex 13.5 0 35
      vertex 12.5 0 0
    endloop
  endfacet
  facet normal 0 0 1
    outer loop
      vertex -6.9 0 70
      vertex -6.9 -35 70
      vertex -1.9 -35 70
    endloop
  endfacet
  facet normal 0 0 1
    outer loop
      vertex 12.5736 -5 70
      vertex -6.9 0 70
      vertex -1.9 -5 70
    endloop
  endfacet
  facet normal 0 0 1
    outer loop
      vertex -1.9 -5 70
      vertex -6.9 0 70
      vertex -1.9 -35 70
    endloop
  endfacet
  facet normal 0 0 1
    outer loop
      vertex 12.5736 0 70
      vertex -6.9 0 70
      vertex 12.5736 -5 70
    endloop
  endfacet
  facet normal 0 0 -1
    outer loop
      vertex -1.9 -5 47.5
      vertex -1.9 -30 47.5
      vertex -6.9 -5 47.5
    endloop
  endfacet
  facet normal 0 0 -1
    outer loop
      vertex -6.9 -5 47.5
      vertex -1.9 -30 47.5
      vertex -6.9 -30 47.5
    endloop
  endfacet
  facet normal 0 1 0
    outer loop
      vertex -1.9 -30 47.5
      vertex -1.9 -30 22.5
      vertex -6.9 -30 47.5
    endloop
  endfacet
  facet normal 0 1 0
    outer loop
      vertex -6.9 -30 47.5
      vertex -1.9 -30 22.5
      vertex -6.9 -30 22.5
    endloop
  endfacet
  facet normal 0 0 1
    outer loop
      vertex -1.9 -30 22.5
      vertex -1.9 -5 22.5
      vertex -6.9 -5 22.5
    endloop
  endfacet
  facet normal 0 0 1
    outer loop
      vertex -6.9 -30 22.5
      vertex -1.9 -30 22.5
      vertex -6.9 -5 22.5
    endloop
  endfacet
  facet normal 0 1 0
    outer loop
      vertex -1.9 -19.9863 10.2613
      vertex -1.9 -19.9863 9.73868
      vertex -6.9 -19.9863 10.2613
    endloop
  endfacet
  facet normal 0 1 0
    outer loop
      vertex -6.9 -19.9863 10.2613
      vertex -1.9 -19.9863 9.73868
      vertex -6.9 -19.9863 9.73868
    endloop
  endfacet
  facet normal -4.61659e-17 0.978147 -0.207913
    outer loop
      vertex -1.9 -19.8776 10.7725
      vertex -1.9 -19.9863 10.2613
      vertex -6.9 -19.8776 10.7725
    endloop
  endfacet
  facet normal -4.61659e-17 0.978147 -0.207913
    outer loop
      vertex -6.9 -19.8776 10.7725
      vertex -1.9 -19.9863 10.2613
      vertex -6.9 -19.9863 10.2613
    endloop
  endfacet
  facet normal -9.03133e-17 0.913546 -0.406735
    outer loop
      vertex -1.9 -19.6651 11.25
      vertex -1.9 -19.8776 10.7725
      vertex -6.9 -19.6651 11.25
    endloop
  endfacet
  facet normal -9.03133e-17 0.913546 -0.406735
    outer loop
      vertex -6.9 -19.6651 11.25
      vertex -1.9 -19.8776 10.7725
      vertex -6.9 -19.8776 10.7725
    endloop
  endfacet
  facet normal -1.30515e-16 0.809017 -0.587786
    outer loop
      vertex -1.9 -19.3579 11.6728
      vertex -1.9 -19.6651 11.25
      vertex -6.9 -19.3579 11.6728
    endloop
  endfacet
  facet normal -1.30515e-16 0.809017 -0.587786
    outer loop
      vertex -6.9 -19.3579 11.6728
      vertex -1.9 -19.6651 11.25
      vertex -6.9 -19.6651 11.25
    endloop
  endfacet
  facet normal -1.65012e-16 0.66913 -0.743146
    outer loop
      vertex -1.9 -18.9695 12.0225
      vertex -1.9 -19.3579 11.6728
      vertex -6.9 -18.9695 12.0225
    endloop
  endfacet
  facet normal -1.65012e-16 0.66913 -0.743146
    outer loop
      vertex -6.9 -18.9695 12.0225
      vertex -1.9 -19.3579 11.6728
      vertex -6.9 -19.3579 11.6728
    endloop
  endfacet
  facet normal -1.92296e-16 0.500002 -0.866024
    outer loop
      vertex -1.9 -18.5168 12.2839
      vertex -1.9 -18.9695 12.0225
      vertex -6.9 -18.5168 12.2839
    endloop
  endfacet
  facet normal -1.92296e-16 0.500002 -0.866024
    outer loop
      vertex -6.9 -18.5168 12.2839
      vertex -1.9 -18.9695 12.0225
      vertex -6.9 -18.9695 12.0225
    endloop
  endfacet
  facet normal -2.11177e-16 0.309016 -0.951057
    outer loop
      vertex -1.9 -18.0198 12.4454
      vertex -1.9 -18.5168 12.2839
      vertex -6.9 -18.0198 12.4454
    endloop
  endfacet
  facet normal -2.11177e-16 0.309016 -0.951057
    outer loop
      vertex -6.9 -18.0198 12.4454
      vertex -1.9 -18.5168 12.2839
      vertex -6.9 -18.5168 12.2839
    endloop
  endfacet
  facet normal -2.20828e-16 0.104529 -0.994522
    outer loop
      vertex -1.9 -17.5 12.5
      vertex -1.9 -18.0198 12.4454
      vertex -6.9 -17.5 12.5
    endloop
  endfacet
  facet normal -2.20828e-16 0.104529 -0.994522
    outer loop
      vertex -6.9 -17.5 12.5
      vertex -1.9 -18.0198 12.4454
      vertex -6.9 -18.0198 12.4454
    endloop
  endfacet
  facet normal -2.20828e-16 -0.104529 -0.994522
    outer loop
      vertex -1.9 -16.9802 12.4454
      vertex -1.9 -17.5 12.5
      vertex -6.9 -16.9802 12.4454
    endloop
  endfacet
  facet normal -2.20828e-16 -0.104529 -0.994522
    outer loop
      vertex -6.9 -16.9802 12.4454
      vertex -1.9 -17.5 12.5
      vertex -6.9 -17.5 12.5
    endloop
  endfacet
  facet normal -2.11177e-16 -0.309016 -0.951057
    outer loop
      vertex -1.9 -16.4832 12.2839
      vertex -1.9 -16.9802 12.4454
      vertex -6.9 -16.4832 12.2839
    endloop
  endfacet
  facet normal -2.11177e-16 -0.309016 -0.951057
    outer loop
      vertex -6.9 -16.4832 12.2839
      vertex -1.9 -16.9802 12.4454
      vertex -6.9 -16.9802 12.4454
    endloop
  endfacet
  facet normal -1.92296e-16 -0.500002 -0.866024
    outer loop
      vertex -1.9 -16.0305 12.0225
      vertex -1.9 -16.4832 12.2839
      vertex -6.9 -16.0305 12.0225
    endloop
  endfacet
  facet normal -1.92296e-16 -0.500002 -0.866024
    outer loop
      vertex -6.9 -16.0305 12.0225
      vertex -1.9 -16.4832 12.2839
      vertex -6.9 -16.4832 12.2839
    endloop
  endfacet
  facet normal -1.65012e-16 -0.66913 -0.743146
    outer loop
      vertex -1.9 -15.6421 11.6728
      vertex -1.9 -16.0305 12.0225
      vertex -6.9 -15.6421 11.6728
    endloop
  endfacet
  facet normal -1.65012e-16 -0.66913 -0.743146
    outer loop
      vertex -6.9 -15.6421 11.6728
      vertex -1.9 -16.0305 12.0225
      vertex -6.9 -16.0305 12.0225
    endloop
  endfacet
  facet normal -1.30515e-16 -0.809017 -0.587786
    outer loop
      vertex -6.9 -15.3349 11.25
      vertex -1.9 -15.3349 11.25
      vertex -1.9 -15.6421 11.6728
    endloop
  endfacet
  facet normal -1.30515e-16 -0.809017 -0.587786
    outer loop
      vertex -6.9 -15.6421 11.6728
      vertex -6.9 -15.3349 11.25
      vertex -1.9 -15.6421 11.6728
    endloop
  endfacet
  facet normal -9.03133e-17 -0.913546 -0.406735
    outer loop
      vertex -6.9 -15.1224 10.7725
      vertex -1.9 -15.1224 10.7725
      vertex -1.9 -15.3349 11.25
    endloop
  endfacet
  facet normal -9.03133e-17 -0.913546 -0.406735
    outer loop
      vertex -6.9 -15.3349 11.25
      vertex -6.9 -15.1224 10.7725
      vertex -1.9 -15.3349 11.25
    endloop
  endfacet
  facet normal -4.61659e-17 -0.978147 -0.207913
    outer loop
      vertex -6.9 -15.0137 10.2613
      vertex -1.9 -15.0137 10.2613
      vertex -1.9 -15.1224 10.7725
    endloop
  endfacet
  facet normal -4.61659e-17 -0.978147 -0.207913
    outer loop
      vertex -6.9 -15.1224 10.7725
      vertex -6.9 -15.0137 10.2613
      vertex -1.9 -15.1224 10.7725
    endloop
  endfacet
  facet normal 0 -1 0
    outer loop
      vertex -1.9 -15.0137 9.73868
      vertex -1.9 -15.0137 10.2613
      vertex -6.9 -15.0137 10.2613
    endloop
  endfacet
  facet normal 0 -1 0
    outer loop
      vertex -6.9 -15.0137 9.73868
      vertex -1.9 -15.0137 9.73868
      vertex -6.9 -15.0137 10.2613
    endloop
  endfacet
  facet normal 4.61659e-17 -0.978147 0.207913
    outer loop
      vertex -1.9 -15.1224 9.22746
      vertex -1.9 -15.0137 9.73868
      vertex -6.9 -15.0137 9.73868
    endloop
  endfacet
  facet normal 4.61659e-17 -0.978147 0.207913
    outer loop
      vertex -6.9 -15.1224 9.22746
      vertex -1.9 -15.1224 9.22746
      vertex -6.9 -15.0137 9.73868
    endloop
  endfacet
  facet normal 9.03133e-17 -0.913546 0.406735
    outer loop
      vertex -1.9 -15.3349 8.75
      vertex -1.9 -15.1224 9.22746
      vertex -6.9 -15.1224 9.22746
    endloop
  endfacet
  facet normal 9.03133e-17 -0.913546 0.406735
    outer loop
      vertex -6.9 -15.3349 8.75
      vertex -1.9 -15.3349 8.75
      vertex -6.9 -15.1224 9.22746
    endloop
  endfacet
  facet normal 1.30515e-16 -0.809017 0.587786
    outer loop
      vertex -1.9 -15.6421 8.32717
      vertex -1.9 -15.3349 8.75
      vertex -6.9 -15.3349 8.75
    endloop
  endfacet
  facet normal 1.30515e-16 -0.809017 0.587786
    outer loop
      vertex -6.9 -15.6421 8.32717
      vertex -1.9 -15.6421 8.32717
      vertex -6.9 -15.3349 8.75
    endloop
  endfacet
  facet normal 1.65012e-16 -0.66913 0.743146
    outer loop
      vertex -1.9 -16.0305 7.97746
      vertex -1.9 -15.6421 8.32717
      vertex -6.9 -15.6421 8.32717
    endloop
  endfacet
  facet normal 1.65012e-16 -0.66913 0.743146
    outer loop
      vertex -6.9 -16.0305 7.97746
      vertex -1.9 -16.0305 7.97746
      vertex -6.9 -15.6421 8.32717
    endloop
  endfacet
  facet normal 1.92296e-16 -0.500002 0.866024
    outer loop
      vertex -1.9 -16.4832 7.71614
      vertex -1.9 -16.0305 7.97746
      vertex -6.9 -16.0305 7.97746
    endloop
  endfacet
  facet normal 1.92296e-16 -0.500002 0.866024
    outer loop
      vertex -6.9 -16.4832 7.71614
      vertex -1.9 -16.4832 7.71614
      vertex -6.9 -16.0305 7.97746
    endloop
  endfacet
  facet normal 2.11177e-16 -0.309016 0.951057
    outer loop
      vertex -1.9 -16.9802 7.55463
      vertex -1.9 -16.4832 7.71614
      vertex -6.9 -16.4832 7.71614
    endloop
  endfacet
  facet normal 2.11177e-16 -0.309016 0.951057
    outer loop
      vertex -6.9 -16.9802 7.55463
      vertex -1.9 -16.9802 7.55463
      vertex -6.9 -16.4832 7.71614
    endloop
  endfacet
  facet normal 2.20828e-16 -0.104529 0.994522
    outer loop
      vertex -1.9 -17.5 7.5
      vertex -1.9 -16.9802 7.55463
      vertex -6.9 -16.9802 7.55463
    endloop
  endfacet
  facet normal 2.20828e-16 -0.104529 0.994522
    outer loop
      vertex -6.9 -17.5 7.5
      vertex -1.9 -17.5 7.5
      vertex -6.9 -16.9802 7.55463
    endloop
  endfacet
  facet normal 2.20828e-16 0.104529 0.994522
    outer loop
      vertex -1.9 -18.0198 7.55463
      vertex -1.9 -17.5 7.5
      vertex -6.9 -17.5 7.5
    endloop
  endfacet
  facet normal 2.20828e-16 0.104529 0.994522
    outer loop
      vertex -6.9 -18.0198 7.55463
      vertex -1.9 -18.0198 7.55463
      vertex -6.9 -17.5 7.5
    endloop
  endfacet
  facet normal 2.11177e-16 0.309016 0.951057
    outer loop
      vertex -1.9 -18.5168 7.71614
      vertex -1.9 -18.0198 7.55463
      vertex -6.9 -18.0198 7.55463
    endloop
  endfacet
  facet normal 2.11177e-16 0.309016 0.951057
    outer loop
      vertex -6.9 -18.5168 7.71614
      vertex -1.9 -18.5168 7.71614
      vertex -6.9 -18.0198 7.55463
    endloop
  endfacet
  facet normal 1.92296e-16 0.500002 0.866024
    outer loop
      vertex -1.9 -18.9695 7.97746
      vertex -1.9 -18.5168 7.71614
      vertex -6.9 -18.5168 7.71614
    endloop
  endfacet
  facet normal 1.92296e-16 0.500002 0.866024
    outer loop
      vertex -6.9 -18.9695 7.97746
      vertex -1.9 -18.9695 7.97746
      vertex -6.9 -18.5168 7.71614
    endloop
  endfacet
  facet normal 1.65012e-16 0.66913 0.743146
    outer loop
      vertex -1.9 -19.3579 8.32717
      vertex -1.9 -18.9695 7.97746
      vertex -6.9 -18.9695 7.97746
    endloop
  endfacet
  facet normal 1.65012e-16 0.66913 0.743146
    outer loop
      vertex -6.9 -19.3579 8.32717
      vertex -1.9 -19.3579 8.32717
      vertex -6.9 -18.9695 7.97746
    endloop
  endfacet
  facet normal 1.30515e-16 0.809017 0.587786
    outer loop
      vertex -1.9 -19.3579 8.32717
      vertex -6.9 -19.3579 8.32717
      vertex -1.9 -19.6651 8.75
    endloop
  endfacet
  facet normal 1.30515e-16 0.809017 0.587786
    outer loop
      vertex -1.9 -19.6651 8.75
      vertex -6.9 -19.3579 8.32717
      vertex -6.9 -19.6651 8.75
    endloop
  endfacet
  facet normal 9.03133e-17 0.913546 0.406735
    outer loop
      vertex -1.9 -19.6651 8.75
      vertex -6.9 -19.6651 8.75
      vertex -1.9 -19.8776 9.22746
    endloop
  endfacet
  facet normal 9.03133e-17 0.913546 0.406735
    outer loop
      vertex -1.9 -19.8776 9.22746
      vertex -6.9 -19.6651 8.75
      vertex -6.9 -19.8776 9.22746
    endloop
  endfacet
  facet normal 4.61659e-17 0.978147 0.207913
    outer loop
      vertex -1.9 -19.8776 9.22746
      vertex -6.9 -19.8776 9.22746
      vertex -1.9 -19.9863 9.73868
    endloop
  endfacet
  facet normal 4.61659e-17 0.978147 0.207913
    outer loop
      vertex -1.9 -19.9863 9.73868
      vertex -6.9 -19.8776 9.22746
      vertex -6.9 -19.9863 9.73868
    endloop
  endfacet
  facet normal 0 1 0
    outer loop
      vertex -1.9 -19.9863 60.2613
      vertex -1.9 -19.9863 59.7387
      vertex -6.9 -19.9863 60.2613
    endloop
  endfacet
  facet normal 0 1 0
    outer loop
      vertex -6.9 -19.9863 60.2613
      vertex -1.9 -19.9863 59.7387
      vertex -6.9 -19.9863 59.7387
    endloop
  endfacet
  facet normal -4.61659e-17 0.978147 -0.207913
    outer loop
      vertex -1.9 -19.8776 60.7725
      vertex -1.9 -19.9863 60.2613
      vertex -6.9 -19.8776 60.7725
    endloop
  endfacet
  facet normal -4.61659e-17 0.978147 -0.207913
    outer loop
      vertex -6.9 -19.8776 60.7725
      vertex -1.9 -19.9863 60.2613
      vertex -6.9 -19.9863 60.2613
    endloop
  endfacet
  facet normal -9.03133e-17 0.913546 -0.406735
    outer loop
      vertex -1.9 -19.6651 61.25
      vertex -1.9 -19.8776 60.7725
      vertex -6.9 -19.6651 61.25
    endloop
  endfacet
  facet normal -9.03133e-17 0.913546 -0.406735
    outer loop
      vertex -6.9 -19.6651 61.25
      vertex -1.9 -19.8776 60.7725
      vertex -6.9 -19.8776 60.7725
    endloop
  endfacet
  facet normal -1.30515e-16 0.809017 -0.587786
    outer loop
      vertex -1.9 -19.3579 61.6728
      vertex -1.9 -19.6651 61.25
      vertex -6.9 -19.3579 61.6728
    endloop
  endfacet
  facet normal -1.30515e-16 0.809017 -0.587786
    outer loop
      vertex -6.9 -19.3579 61.6728
      vertex -1.9 -19.6651 61.25
      vertex -6.9 -19.6651 61.25
    endloop
  endfacet
  facet normal -1.65012e-16 0.66913 -0.743146
    outer loop
      vertex -1.9 -18.9695 62.0225
      vertex -1.9 -19.3579 61.6728
      vertex -6.9 -18.9695 62.0225
    endloop
  endfacet
  facet normal -1.65012e-16 0.66913 -0.743146
    outer loop
      vertex -6.9 -18.9695 62.0225
      vertex -1.9 -19.3579 61.6728
      vertex -6.9 -19.3579 61.6728
    endloop
  endfacet
  facet normal -1.92296e-16 0.500002 -0.866024
    outer loop
      vertex -1.9 -18.5168 62.2839
      vertex -1.9 -18.9695 62.0225
      vertex -6.9 -18.5168 62.2839
    endloop
  endfacet
  facet normal -1.92296e-16 0.500002 -0.866024
    outer loop
      vertex -6.9 -18.5168 62.2839
      vertex -1.9 -18.9695 62.0225
      vertex -6.9 -18.9695 62.0225
    endloop
  endfacet
  facet normal -2.11177e-16 0.309016 -0.951057
    outer loop
      vertex -1.9 -18.0198 62.4454
      vertex -1.9 -18.5168 62.2839
      vertex -6.9 -18.0198 62.4454
    endloop
  endfacet
  facet normal -2.11177e-16 0.309016 -0.951057
    outer loop
      vertex -6.9 -18.0198 62.4454
      vertex -1.9 -18.5168 62.2839
      vertex -6.9 -18.5168 62.2839
    endloop
  endfacet
  facet normal -2.20828e-16 0.104529 -0.994522
    outer loop
      vertex -1.9 -17.5 62.5
      vertex -1.9 -18.0198 62.4454
      vertex -6.9 -17.5 62.5
    endloop
  endfacet
  facet normal -2.20828e-16 0.104529 -0.994522
    outer loop
      vertex -6.9 -17.5 62.5
      vertex -1.9 -18.0198 62.4454
      vertex -6.9 -18.0198 62.4454
    endloop
  endfacet
  facet normal -2.20828e-16 -0.104529 -0.994522
    outer loop
      vertex -1.9 -16.9802 62.4454
      vertex -1.9 -17.5 62.5
      vertex -6.9 -16.9802 62.4454
    endloop
  endfacet
  facet normal -2.20828e-16 -0.104529 -0.994522
    outer loop
      vertex -6.9 -16.9802 62.4454
      vertex -1.9 -17.5 62.5
      vertex -6.9 -17.5 62.5
    endloop
  endfacet
  facet normal -2.11177e-16 -0.309016 -0.951057
    outer loop
      vertex -1.9 -16.4832 62.2839
      vertex -1.9 -16.9802 62.4454
      vertex -6.9 -16.4832 62.2839
    endloop
  endfacet
  facet normal -2.11177e-16 -0.309016 -0.951057
    outer loop
      vertex -6.9 -16.4832 62.2839
      vertex -1.9 -16.9802 62.4454
      vertex -6.9 -16.9802 62.4454
    endloop
  endfacet
  facet normal -1.92296e-16 -0.500002 -0.866024
    outer loop
      vertex -1.9 -16.0305 62.0225
      vertex -1.9 -16.4832 62.2839
      vertex -6.9 -16.0305 62.0225
    endloop
  endfacet
  facet normal -1.92296e-16 -0.500002 -0.866024
    outer loop
      vertex -6.9 -16.0305 62.0225
      vertex -1.9 -16.4832 62.2839
      vertex -6.9 -16.4832 62.2839
    endloop
  endfacet
  facet normal -1.65012e-16 -0.66913 -0.743146
    outer loop
      vertex -1.9 -15.6421 61.6728
      vertex -1.9 -16.0305 62.0225
      vertex -6.9 -15.6421 61.6728
    endloop
  endfacet
  facet normal -1.65012e-16 -0.66913 -0.743146
    outer loop
      vertex -6.9 -15.6421 61.6728
      vertex -1.9 -16.0305 62.0225
      vertex -6.9 -16.0305 62.0225
    endloop
  endfacet
  facet normal -1.30515e-16 -0.809017 -0.587786
    outer loop
      vertex -6.9 -15.3349 61.25
      vertex -1.9 -15.3349 61.25
      vertex -1.9 -15.6421 61.6728
    endloop
  endfacet
  facet normal -1.30515e-16 -0.809017 -0.587786
    outer loop
      vertex -6.9 -15.6421 61.6728
      vertex -6.9 -15.3349 61.25
      vertex -1.9 -15.6421 61.6728
    endloop
  endfacet
  facet normal -9.03133e-17 -0.913546 -0.406735
    outer loop
      vertex -6.9 -15.1224 60.7725
      vertex -1.9 -15.1224 60.7725
      vertex -1.9 -15.3349 61.25
    endloop
  endfacet
  facet normal -9.03133e-17 -0.913546 -0.406735
    outer loop
      vertex -6.9 -15.3349 61.25
      vertex -6.9 -15.1224 60.7725
      vertex -1.9 -15.3349 61.25
    endloop
  endfacet
  facet normal -4.61659e-17 -0.978147 -0.207913
    outer loop
      vertex -6.9 -15.0137 60.2613
      vertex -1.9 -15.0137 60.2613
      vertex -1.9 -15.1224 60.7725
    endloop
  endfacet
  facet normal -4.61659e-17 -0.978147 -0.207913
    outer loop
      vertex -6.9 -15.1224 60.7725
      vertex -6.9 -15.0137 60.2613
      vertex -1.9 -15.1224 60.7725
    endloop
  endfacet
  facet normal 0 -1 0
    outer loop
      vertex -1.9 -15.0137 59.7387
      vertex -1.9 -15.0137 60.2613
      vertex -6.9 -15.0137 60.2613
    endloop
  endfacet
  facet normal 0 -1 0
    outer loop
      vertex -6.9 -15.0137 59.7387
      vertex -1.9 -15.0137 59.7387
      vertex -6.9 -15.0137 60.2613
    endloop
  endfacet
  facet normal 4.61659e-17 -0.978147 0.207913
    outer loop
      vertex -1.9 -15.1224 59.2275
      vertex -1.9 -15.0137 59.7387
      vertex -6.9 -15.0137 59.7387
    endloop
  endfacet
  facet normal 4.61659e-17 -0.978147 0.207913
    outer loop
      vertex -6.9 -15.1224 59.2275
      vertex -1.9 -15.1224 59.2275
      vertex -6.9 -15.0137 59.7387
    endloop
  endfacet
  facet normal 9.03133e-17 -0.913546 0.406735
    outer loop
      vertex -1.9 -15.3349 58.75
      vertex -1.9 -15.1224 59.2275
      vertex -6.9 -15.1224 59.2275
    endloop
  endfacet
  facet normal 9.03133e-17 -0.913546 0.406735
    outer loop
      vertex -6.9 -15.3349 58.75
      vertex -1.9 -15.3349 58.75
      vertex -6.9 -15.1224 59.2275
    endloop
  endfacet
  facet normal 1.30515e-16 -0.809017 0.587786
    outer loop
      vertex -1.9 -15.6421 58.3272
      vertex -1.9 -15.3349 58.75
      vertex -6.9 -15.3349 58.75
    endloop
  endfacet
  facet normal 1.30515e-16 -0.809017 0.587786
    outer loop
      vertex -6.9 -15.6421 58.3272
      vertex -1.9 -15.6421 58.3272
      vertex -6.9 -15.3349 58.75
    endloop
  endfacet
  facet normal 1.65012e-16 -0.66913 0.743146
    outer loop
      vertex -1.9 -16.0305 57.9775
      vertex -1.9 -15.6421 58.3272
      vertex -6.9 -15.6421 58.3272
    endloop
  endfacet
  facet normal 1.65012e-16 -0.66913 0.743146
    outer loop
      vertex -6.9 -16.0305 57.9775
      vertex -1.9 -16.0305 57.9775
      vertex -6.9 -15.6421 58.3272
    endloop
  endfacet
  facet normal 1.92296e-16 -0.500002 0.866024
    outer loop
      vertex -1.9 -16.4832 57.7161
      vertex -1.9 -16.0305 57.9775
      vertex -6.9 -16.0305 57.9775
    endloop
  endfacet
  facet normal 1.92296e-16 -0.500002 0.866024
    outer loop
      vertex -6.9 -16.4832 57.7161
      vertex -1.9 -16.4832 57.7161
      vertex -6.9 -16.0305 57.9775
    endloop
  endfacet
  facet normal 2.11177e-16 -0.309016 0.951057
    outer loop
      vertex -1.9 -16.9802 57.5546
      vertex -1.9 -16.4832 57.7161
      vertex -6.9 -16.4832 57.7161
    endloop
  endfacet
  facet normal 2.11177e-16 -0.309016 0.951057
    outer loop
      vertex -6.9 -16.9802 57.5546
      vertex -1.9 -16.9802 57.5546
      vertex -6.9 -16.4832 57.7161
    endloop
  endfacet
  facet normal 2.20828e-16 -0.104529 0.994522
    outer loop
      vertex -1.9 -17.5 57.5
      vertex -1.9 -16.9802 57.5546
      vertex -6.9 -16.9802 57.5546
    endloop
  endfacet
  facet normal 2.20828e-16 -0.104529 0.994522
    outer loop
      vertex -6.9 -17.5 57.5
      vertex -1.9 -17.5 57.5
      vertex -6.9 -16.9802 57.5546
    endloop
  endfacet
  facet normal 2.20828e-16 0.104529 0.994522
    outer loop
      vertex -1.9 -18.0198 57.5546
      vertex -1.9 -17.5 57.5
      vertex -6.9 -17.5 57.5
    endloop
  endfacet
  facet normal 2.20828e-16 0.104529 0.994522
    outer loop
      vertex -6.9 -18.0198 57.5546
      vertex -1.9 -18.0198 57.5546
      vertex -6.9 -17.5 57.5
    endloop
  endfacet
  facet normal 2.11177e-16 0.309016 0.951057
    outer loop
      vertex -1.9 -18.5168 57.7161
      vertex -1.9 -18.0198 57.5546
      vertex -6.9 -18.0198 57.5546
    endloop
  endfacet
  facet normal 2.11177e-16 0.309016 0.951057
    outer loop
      vertex -6.9 -18.5168 57.7161
      vertex -1.9 -18.5168 57.7161
      vertex -6.9 -18.0198 57.5546
    endloop
  endfacet
  facet normal 1.92296e-16 0.500002 0.866024
    outer loop
      vertex -1.9 -18.9695 57.9775
      vertex -1.9 -18.5168 57.7161
      vertex -6.9 -18.5168 57.7161
    endloop
  endfacet
  facet normal 1.92296e-16 0.500002 0.866024
    outer loop
      vertex -6.9 -18.9695 57.9775
      vertex -1.9 -18.9695 57.9775
      vertex -6.9 -18.5168 57.7161
    endloop
  endfacet
  facet normal 1.65012e-16 0.66913 0.743146
    outer loop
      vertex -1.9 -19.3579 58.3272
      vertex -1.9 -18.9695 57.9775
      vertex -6.9 -18.9695 57.9775
    endloop
  endfacet
  facet normal 1.65012e-16 0.66913 0.743146
    outer loop
      vertex -6.9 -19.3579 58.3272
      vertex -1.9 -19.3579 58.3272
      vertex -6.9 -18.9695 57.9775
    endloop
  endfacet
  facet normal 1.30515e-16 0.809017 0.587786
    outer loop
      vertex -1.9 -19.3579 58.3272
      vertex -6.9 -19.3579 58.3272
      vertex -1.9 -19.6651 58.75
    endloop
  endfacet
  facet normal 1.30515e-16 0.809017 0.587786
    outer loop
      vertex -1.9 -19.6651 58.75
      vertex -6.9 -19.3579 58.3272
      vertex -6.9 -19.6651 58.75
    endloop
  endfacet
  facet normal 9.03133e-17 0.913546 0.406735
    outer loop
      vertex -1.9 -19.6651 58.75
      vertex -6.9 -19.6651 58.75
      vertex -1.9 -19.8776 59.2275
    endloop
  endfacet
  facet normal 9.03133e-17 0.913546 0.406735
    outer loop
      vertex -1.9 -19.8776 59.2275
      vertex -6.9 -19.6651 58.75
      vertex -6.9 -19.8776 59.2275
    endloop
  endfacet
  facet normal 4.61659e-17 0.978147 0.207913
    outer loop
      vertex -1.9 -19.8776 59.2275
      vertex -6.9 -19.8776 59.2275
      vertex -1.9 -19.9863 59.7387
    endloop
  endfacet
  facet normal 4.61659e-17 0.978147 0.207913
    outer loop
      vertex -1.9 -19.9863 59.7387
      vertex -6.9 -19.8776 59.2275
      vertex -6.9 -19.9863 59.7387
    endloop
  endfacet
  facet normal 1 0 0
    outer loop
      vertex -1.9 -16.9802 7.55463
      vertex -1.9 -35 0
      vertex -1.9 -5 0
    endloop
  endfacet
  facet normal 1 0 0
    outer loop
      vertex -1.9 -15.3349 8.75
      vertex -1.9 -15.6421 8.32717
      vertex -1.9 -5 0
    endloop
  endfacet
  facet normal 1 0 0
    outer loop
      vertex -1.9 -35 70
      vertex -1.9 -35 0
      vertex -1.9 -30 22.5
    endloop
  endfacet
  facet normal 1 0 0
    outer loop
      vertex -1.9 -35 70
      vertex -1.9 -30 22.5
      vertex -1.9 -30 47.5
    endloop
  endfacet
  facet normal 1 0 0
    outer loop
      vertex -1.9 -18.9695 57.9775
      vertex -1.9 -35 70
      vertex -1.9 -5 47.5
    endloop
  endfacet
  facet normal 1 0 0
    outer loop
      vertex -1.9 -30 22.5
      vertex -1.9 -35 0
      vertex -1.9 -19.9863 9.73868
    endloop
  endfacet
  facet normal 1 0 0
    outer loop
      vertex -1.9 -16.4832 7.71614
      vertex -1.9 -16.9802 7.55463
      vertex -1.9 -5 0
    endloop
  endfacet
  facet normal 1 0 0
    outer loop
      vertex -1.9 -30 22.5
      vertex -1.9 -19.9863 9.73868
      vertex -1.9 -19.9863 10.2613
    endloop
  endfacet
  facet normal 1 0 0
    outer loop
      vertex -1.9 -16.0305 7.97746
      vertex -1.9 -16.4832 7.71614
      vertex -1.9 -5 0
    endloop
  endfacet
  facet normal 1 0 0
    outer loop
      vertex -1.9 -30 22.5
      vertex -1.9 -19.9863 10.2613
      vertex -1.9 -19.8776 10.7725
    endloop
  endfacet
  facet normal 1 0 0
    outer loop
      vertex -1.9 -18.5168 62.2839
      vertex -1.9 -18.0198 62.4454
      vertex -1.9 -5 70
    endloop
  endfacet
  facet normal 1 0 0
    outer loop
      vertex -1.9 -30 22.5
      vertex -1.9 -19.8776 10.7725
      vertex -1.9 -19.6651 11.25
    endloop
  endfacet
  facet normal 1 0 0
    outer loop
      vertex -1.9 -30 22.5
      vertex -1.9 -19.6651 11.25
      vertex -1.9 -19.3579 11.6728
    endloop
  endfacet
  facet normal 1 0 0
    outer loop
      vertex -1.9 -15.6421 11.6728
      vertex -1.9 -15.3349 11.25
      vertex -1.9 -5 0
    endloop
  endfacet
  facet normal 1 0 0
    outer loop
      vertex -1.9 -30 22.5
      vertex -1.9 -19.3579 11.6728
      vertex -1.9 -18.9695 12.0225
    endloop
  endfacet
  facet normal 1 0 0
    outer loop
      vertex -1.9 -15.6421 8.32717
      vertex -1.9 -16.0305 7.97746
      vertex -1.9 -5 0
    endloop
  endfacet
  facet normal 1 0 0
    outer loop
      vertex -1.9 -30 47.5
      vertex -1.9 -5 47.5
      vertex -1.9 -35 70
    endloop
  endfacet
  facet normal 1 0 0
    outer loop
      vertex -1.9 -15.0137 9.73868
      vertex -1.9 -15.1224 9.22746
      vertex -1.9 -5 0
    endloop
  endfacet
  facet normal 1 0 0
    outer loop
      vertex -1.9 -15.1224 9.22746
      vertex -1.9 -15.3349 8.75
      vertex -1.9 -5 0
    endloop
  endfacet
  facet normal 1 0 0
    outer loop
      vertex -1.9 -15.0137 10.2613
      vertex -1.9 -15.0137 9.73868
      vertex -1.9 -5 0
    endloop
  endfacet
  facet normal 1 0 0
    outer loop
      vertex -1.9 -15.1224 10.7725
      vertex -1.9 -15.0137 10.2613
      vertex -1.9 -5 0
    endloop
  endfacet
  facet normal 1 0 0
    outer loop
      vertex -1.9 -15.3349 11.25
      vertex -1.9 -15.1224 10.7725
      vertex -1.9 -5 0
    endloop
  endfacet
  facet normal 1 0 0
    outer loop
      vertex -1.9 -17.5 7.5
      vertex -1.9 -35 0
      vertex -1.9 -16.9802 7.55463
    endloop
  endfacet
  facet normal 1 0 0
    outer loop
      vertex -1.9 -18.0198 7.55463
      vertex -1.9 -35 0
      vertex -1.9 -17.5 7.5
    endloop
  endfacet
  facet normal 1 0 0
    outer loop
      vertex -1.9 -18.5168 7.71614
      vertex -1.9 -35 0
      vertex -1.9 -18.0198 7.55463
    endloop
  endfacet
  facet normal 1 0 0
    outer loop
      vertex -1.9 -18.9695 7.97746
      vertex -1.9 -35 0
      vertex -1.9 -18.5168 7.71614
    endloop
  endfacet
  facet normal 1 0 0
    outer loop
      vertex -1.9 -19.3579 8.32717
      vertex -1.9 -35 0
      vertex -1.9 -18.9695 7.97746
    endloop
  endfacet
  facet normal 1 0 0
    outer loop
      vertex -1.9 -19.6651 8.75
      vertex -1.9 -35 0
      vertex -1.9 -19.3579 8.32717
    endloop
  endfacet
  facet normal 1 0 0
    outer loop
      vertex -1.9 -19.8776 9.22746
      vertex -1.9 -35 0
      vertex -1.9 -19.6651 8.75
    endloop
  endfacet
  facet normal 1 0 0
    outer loop
      vertex -1.9 -19.9863 9.73868
      vertex -1.9 -35 0
      vertex -1.9 -19.8776 9.22746
    endloop
  endfacet
  facet normal 1 0 0
    outer loop
      vertex -1.9 -19.3579 58.3272
      vertex -1.9 -19.6651 58.75
      vertex -1.9 -35 70
    endloop
  endfacet
  facet normal 1 0 0
    outer loop
      vertex -1.9 -19.9863 60.2613
      vertex -1.9 -35 70
      vertex -1.9 -19.9863 59.7387
    endloop
  endfacet
  facet normal 1 0 0
    outer loop
      vertex -1.9 -19.8776 60.7725
      vertex -1.9 -35 70
      vertex -1.9 -19.9863 60.2613
    endloop
  endfacet
  facet normal 1 0 0
    outer loop
      vertex -1.9 -19.6651 61.25
      vertex -1.9 -35 70
      vertex -1.9 -19.8776 60.7725
    endloop
  endfacet
  facet normal 1 0 0
    outer loop
      vertex -1.9 -19.3579 61.6728
      vertex -1.9 -35 70
      vertex -1.9 -19.6651 61.25
    endloop
  endfacet
  facet normal 1 0 0
    outer loop
      vertex -1.9 -18.9695 62.0225
      vertex -1.9 -35 70
      vertex -1.9 -19.3579 61.6728
    endloop
  endfacet
  facet normal 1 0 0
    outer loop
      vertex -1.9 -18.0198 62.4454
      vertex -1.9 -17.5 62.5
      vertex -1.9 -5 70
    endloop
  endfacet
  facet normal 1 0 0
    outer loop
      vertex -1.9 -18.5168 62.2839
      vertex -1.9 -35 70
      vertex -1.9 -18.9695 62.0225
    endloop
  endfacet
  facet normal 1 0 0
    outer loop
      vertex -1.9 -19.6651 58.75
      vertex -1.9 -19.8776 59.2275
      vertex -1.9 -35 70
    endloop
  endfacet
  facet normal 1 0 0
    outer loop
      vertex -1.9 -5 70
      vertex -1.9 -35 70
      vertex -1.9 -18.5168 62.2839
    endloop
  endfacet
  facet normal 1 0 0
    outer loop
      vertex -1.9 -17.5 62.5
      vertex -1.9 -16.9802 62.4454
      vertex -1.9 -5 70
    endloop
  endfacet
  facet normal 1 0 0
    outer loop
      vertex -1.9 -16.9802 62.4454
      vertex -1.9 -16.4832 62.2839
      vertex -1.9 -5 70
    endloop
  endfacet
  facet normal 1 0 0
    outer loop
      vertex -1.9 -16.4832 62.2839
      vertex -1.9 -16.0305 62.0225
      vertex -1.9 -5 70
    endloop
  endfacet
  facet normal 1 0 0
    outer loop
      vertex -1.9 -15.3349 61.25
      vertex -1.9 -15.1224 60.7725
      vertex -1.9 -5 47.5
    endloop
  endfacet
  facet normal 1 0 0
    outer loop
      vertex -1.9 -16.9802 57.5546
      vertex -1.9 -17.5 57.5
      vertex -1.9 -5 47.5
    endloop
  endfacet
  facet normal 1 0 0
    outer loop
      vertex -1.9 -5 70
      vertex -1.9 -15.6421 61.6728
      vertex -1.9 -5 47.5
    endloop
  endfacet
  facet normal 1 0 0
    outer loop
      vertex -1.9 -5 70
      vertex -1.9 -16.0305 62.0225
      vertex -1.9 -15.6421 61.6728
    endloop
  endfacet
  facet normal 1 0 0
    outer loop
      vertex -1.9 -15.6421 61.6728
      vertex -1.9 -15.3349 61.25
      vertex -1.9 -5 47.5
    endloop
  endfacet
  facet normal 1 0 0
    outer loop
      vertex -1.9 -15.1224 60.7725
      vertex -1.9 -15.0137 60.2613
      vertex -1.9 -5 47.5
    endloop
  endfacet
  facet normal 1 0 0
    outer loop
      vertex -1.9 -15.0137 60.2613
      vertex -1.9 -15.0137 59.7387
      vertex -1.9 -5 47.5
    endloop
  endfacet
  facet normal 1 0 0
    outer loop
      vertex -1.9 -15.0137 59.7387
      vertex -1.9 -15.1224 59.2275
      vertex -1.9 -5 47.5
    endloop
  endfacet
  facet normal 1 0 0
    outer loop
      vertex -1.9 -15.1224 59.2275
      vertex -1.9 -15.3349 58.75
      vertex -1.9 -5 47.5
    endloop
  endfacet
  facet normal 1 0 0
    outer loop
      vertex -1.9 -15.3349 58.75
      vertex -1.9 -15.6421 58.3272
      vertex -1.9 -5 47.5
    endloop
  endfacet
  facet normal 1 0 0
    outer loop
      vertex -1.9 -15.6421 58.3272
      vertex -1.9 -16.0305 57.9775
      vertex -1.9 -5 47.5
    endloop
  endfacet
  facet normal 1 0 0
    outer loop
      vertex -1.9 -16.0305 57.9775
      vertex -1.9 -16.4832 57.7161
      vertex -1.9 -5 47.5
    endloop
  endfacet
  facet normal 1 0 0
    outer loop
      vertex -1.9 -16.4832 57.7161
      vertex -1.9 -16.9802 57.5546
      vertex -1.9 -5 47.5
    endloop
  endfacet
  facet normal 1 0 0
    outer loop
      vertex -1.9 -17.5 57.5
      vertex -1.9 -18.0198 57.5546
      vertex -1.9 -5 47.5
    endloop
  endfacet
  facet normal 1 0 0
    outer loop
      vertex -1.9 -18.0198 57.5546
      vertex -1.9 -18.5168 57.7161
      vertex -1.9 -5 47.5
    endloop
  endfacet
  facet normal 1 0 0
    outer loop
      vertex -1.9 -18.5168 57.7161
      vertex -1.9 -18.9695 57.9775
      vertex -1.9 -5 47.5
    endloop
  endfacet
  facet normal 1 0 0
    outer loop
      vertex -1.9 -19.3579 58.3272
      vertex -1.9 -35 70
      vertex -1.9 -18.9695 57.9775
    endloop
  endfacet
  facet normal 1 0 0
    outer loop
      vertex -1.9 -19.9863 59.7387
      vertex -1.9 -35 70
      vertex -1.9 -19.8776 59.2275
    endloop
  endfacet
  facet normal 1 0 0
    outer loop
      vertex -1.9 -18.9695 12.0225
      vertex -1.9 -18.5168 12.2839
      vertex -1.9 -30 22.5
    endloop
  endfacet
  facet normal 1 0 0
    outer loop
      vertex -1.9 -5 22.5
      vertex -1.9 -15.6421 11.6728
      vertex -1.9 -5 0
    endloop
  endfacet
  facet normal 1 0 0
    outer loop
      vertex -1.9 -5 22.5
      vertex -1.9 -16.0305 12.0225
      vertex -1.9 -15.6421 11.6728
    endloop
  endfacet
  facet normal 1 0 0
    outer loop
      vertex -1.9 -5 22.5
      vertex -1.9 -16.4832 12.2839
      vertex -1.9 -16.0305 12.0225
    endloop
  endfacet
  facet normal 1 0 0
    outer loop
      vertex -1.9 -5 22.5
      vertex -1.9 -16.9802 12.4454
      vertex -1.9 -16.4832 12.2839
    endloop
  endfacet
  facet normal 1 0 0
    outer loop
      vertex -1.9 -5 22.5
      vertex -1.9 -17.5 12.5
      vertex -1.9 -16.9802 12.4454
    endloop
  endfacet
  facet normal 1 0 0
    outer loop
      vertex -1.9 -5 22.5
      vertex -1.9 -18.0198 12.4454
      vertex -1.9 -17.5 12.5
    endloop
  endfacet
  facet normal 1 0 0
    outer loop
      vertex -1.9 -5 22.5
      vertex -1.9 -18.5168 12.2839
      vertex -1.9 -18.0198 12.4454
    endloop
  endfacet
  facet normal 1 0 0
    outer loop
      vertex -1.9 -5 22.5
      vertex -1.9 -30 22.5
      vertex -1.9 -18.5168 12.2839
    endloop
  endfacet
  facet normal 0 -1 0
    outer loop
      vertex -6.9 -5 47.5
      vertex -6.9 -5 22.5
      vertex -1.9 -5 22.5
    endloop
  endfacet
  facet normal 0 -1 0
    outer loop
      vertex 51.9 -5 0
      vertex -6.9 -5 47.5
      vertex -1.9 -5 22.5
    endloop
  endfacet
  facet normal 0 -1 0
    outer loop
      vertex -1.9 -5 0
      vertex 51.9 -5 0
      vertex -1.9 -5 22.5
    endloop
  endfacet
  facet normal 0 -1 0
    outer loop
      vertex 51.9 -5 0
      vertex 51.9 -5 30.6736
      vertex -6.9 -5 47.5
    endloop
  endfacet
  facet normal 0 -1 0
    outer loop
      vertex 51.9 -5 30.6736
      vertex -1.9 -5 47.5
      vertex -6.9 -5 47.5
    endloop
  endfacet
  facet normal 0 -1 0
    outer loop
      vertex 51.9 -5 30.6736
      vertex 12.5736 -5 70
      vertex -1.9 -5 47.5
    endloop
  endfacet
  facet normal 0 -1 0
    outer loop
      vertex -1.9 -5 70
      vertex -1.9 -5 47.5
      vertex 12.5736 -5 70
    endloop
  endfacet
  facet normal 1 0 0
    outer loop
      vertex 51.9 -5 30.6736
      vertex 51.9 -5 0
      vertex 51.9 0 0
    endloop
  endfacet
  facet normal 1 0 0
    outer loop
      vertex 51.9 0 30.6736
      vertex 51.9 -5 30.6736
      vertex 51.9 0 0
    endloop
  endfacet
  facet normal 1 0 0
    outer loop
      vertex 20.5 1.9 12.5
      vertex 20.5 0 0
      vertex 20.5 13.9 0
    endloop
  endfacet
  facet normal 1 0 0
    outer loop
      vertex 20.5 0 35
      vertex 20.5 0 0
      vertex 20.5 1.9 12.5
    endloop
  endfacet
  facet normal 1 0 0
    outer loop
      vertex 20.5 1.9 22.5
      vertex 20.5 11.9 22.5
      vertex 20.5 0 35
    endloop
  endfacet
  facet normal 1 0 0
    outer loop
      vertex 20.5 0 35
      vertex 20.5 1.9 12.5
      vertex 20.5 1.9 22.5
    endloop
  endfacet
  facet normal 1 0 0
    outer loop
      vertex 20.5 13.9 35
      vertex 20.5 11.9 22.5
      vertex 20.5 13.9 0
    endloop
  endfacet
  facet normal 1 0 0
    outer loop
      vertex 20.5 13.9 35
      vertex 20.5 0 35
      vertex 20.5 11.9 22.5
    endloop
  endfacet
  facet normal 1 0 0
    outer loop
      vertex 20.5 11.9 22.5
      vertex 20.5 11.9 12.5
      vertex 20.5 13.9 0
    endloop
  endfacet
  facet normal 1 0 0
    outer loop
      vertex 20.5 11.9 12.5
      vertex 20.5 1.9 12.5
      vertex 20.5 13.9 0
    endloop
  endfacet
  facet normal 0 1 0
    outer loop
      vertex 13.5 13.9 0
      vertex 13.5 13.9 35
      vertex 20.5 13.9 0
    endloop
  endfacet
  facet normal 0 1 0
    outer loop
      vertex 20.5 13.9 0
      vertex 13.5 13.9 35
      vertex 20.5 13.9 35
    endloop
  endfacet
  facet normal -1 0 0
    outer loop
      vertex 13.5 0 0
      vertex 13.5 0 35
      vertex 13.5 1.9 0
    endloop
  endfacet
  facet normal -1 0 0
    outer loop
      vertex 13.5 1.9 33
      vertex 13.5 0 35
      vertex 13.5 1.9 35
    endloop
  endfacet
  facet normal -1 0 0
    outer loop
      vertex 13.5 1.9 0
      vertex 13.5 0 35
      vertex 13.5 1.9 2
    endloop
  endfacet
  facet normal -1 0 0
    outer loop
      vertex 13.5 1.9 26
      vertex 13.5 11.9 27
      vertex 13.5 11.9 26
    endloop
  endfacet
  facet normal -1 0 0
    outer loop
      vertex 13.5 11.9 33
      vertex 13.5 11.9 35
      vertex 13.5 13.9 35
    endloop
  endfacet
  facet normal -1 0 0
    outer loop
      vertex 13.5 11.9 0
      vertex 13.5 13.9 35
      vertex 13.5 13.9 0
    endloop
  endfacet
  facet normal -1 0 0
    outer loop
      vertex 13.5 11.9 2
      vertex 13.5 13.9 35
      vertex 13.5 11.9 0
    endloop
  endfacet
  facet normal -1 0 0
    outer loop
      vertex 13.5 11.9 3
      vertex 13.5 13.9 35
      vertex 13.5 11.9 2
    endloop
  endfacet
  facet normal -1 0 0
    outer loop
      vertex 13.5 1.9 3
      vertex 13.5 1.9 2
      vertex 13.5 0 35
    endloop
  endfacet
  facet normal -1 0 0
    outer loop
      vertex 13.5 1.9 6
      vertex 13.5 1.9 5
      vertex 13.5 0 35
    endloop
  endfacet
  facet normal -1 0 0
    outer loop
      vertex 13.5 11.9 3
      vertex 13.5 1.9 2
      vertex 13.5 1.9 3
    endloop
  endfacet
  facet normal -1 0 0
    outer loop
      vertex 13.5 1.9 5
      vertex 13.5 1.9 3
      vertex 13.5 0 35
    endloop
  endfacet
  facet normal -1 0 0
    outer loop
      vertex 13.5 11.9 5
      vertex 13.5 13.9 35
      vertex 13.5 11.9 3
    endloop
  endfacet
  facet normal -1 0 0
    outer loop
      vertex 13.5 11.9 6
      vertex 13.5 13.9 35
      vertex 13.5 11.9 5
    endloop
  endfacet
  facet normal -1 0 0
    outer loop
      vertex 13.5 1.9 9
      vertex 13.5 1.9 8
      vertex 13.5 0 35
    endloop
  endfacet
  facet normal -1 0 0
    outer loop
      vertex 13.5 11.9 6
      vertex 13.5 1.9 5
      vertex 13.5 1.9 6
    endloop
  endfacet
  facet normal -1 0 0
    outer loop
      vertex 13.5 1.9 8
      vertex 13.5 1.9 6
      vertex 13.5 0 35
    endloop
  endfacet
  facet normal -1 0 0
    outer loop
      vertex 13.5 11.9 8
      vertex 13.5 13.9 35
      vertex 13.5 11.9 6
    endloop
  endfacet
  facet normal -1 0 0
    outer loop
      vertex 13.5 11.9 9
      vertex 13.5 13.9 35
      vertex 13.5 11.9 8
    endloop
  endfacet
  facet normal -1 0 0
    outer loop
      vertex 13.5 1.9 5
      vertex 13.5 11.9 6
      vertex 13.5 11.9 5
    endloop
  endfacet
  facet normal -1 0 0
    outer loop
      vertex 13.5 1.9 12
      vertex 13.5 1.9 11
      vertex 13.5 0 35
    endloop
  endfacet
  facet normal -1 0 0
    outer loop
      vertex 13.5 11.9 9
      vertex 13.5 1.9 8
      vertex 13.5 1.9 9
    endloop
  endfacet
  facet normal -1 0 0
    outer loop
      vertex 13.5 1.9 11
      vertex 13.5 1.9 9
      vertex 13.5 0 35
    endloop
  endfacet
  facet normal -1 0 0
    outer loop
      vertex 13.5 11.9 11
      vertex 13.5 13.9 35
      vertex 13.5 11.9 9
    endloop
  endfacet
  facet normal -1 0 0
    outer loop
      vertex 13.5 11.9 12
      vertex 13.5 13.9 35
      vertex 13.5 11.9 11
    endloop
  endfacet
  facet normal -1 0 0
    outer loop
      vertex 13.5 1.9 24
      vertex 13.5 1.9 23
      vertex 13.5 0 35
    endloop
  endfacet
  facet normal -1 0 0
    outer loop
      vertex 13.5 11.9 12
      vertex 13.5 1.9 11
      vertex 13.5 1.9 12
    endloop
  endfacet
  facet normal -1 0 0
    outer loop
      vertex 13.5 1.9 23
      vertex 13.5 1.9 12
      vertex 13.5 0 35
    endloop
  endfacet
  facet normal -1 0 0
    outer loop
      vertex 13.5 11.9 23
      vertex 13.5 13.9 35
      vertex 13.5 11.9 12
    endloop
  endfacet
  facet normal -1 0 0
    outer loop
      vertex 13.5 11.9 24
      vertex 13.5 13.9 35
      vertex 13.5 11.9 23
    endloop
  endfacet
  facet normal -1 0 0
    outer loop
      vertex 13.5 1.9 27
      vertex 13.5 1.9 26
      vertex 13.5 0 35
    endloop
  endfacet
  facet normal -1 0 0
    outer loop
      vertex 13.5 11.9 24
      vertex 13.5 1.9 23
      vertex 13.5 1.9 24
    endloop
  endfacet
  facet normal -1 0 0
    outer loop
      vertex 13.5 1.9 26
      vertex 13.5 1.9 24
      vertex 13.5 0 35
    endloop
  endfacet
  facet normal -1 0 0
    outer loop
      vertex 13.5 11.9 26
      vertex 13.5 13.9 35
      vertex 13.5 11.9 24
    endloop
  endfacet
  facet normal -1 0 0
    outer loop
      vertex 13.5 11.9 27
      vertex 13.5 13.9 35
      vertex 13.5 11.9 26
    endloop
  endfacet
  facet normal -1 0 0
    outer loop
      vertex 13.5 1.9 11
      vertex 13.5 11.9 12
      vertex 13.5 11.9 11
    endloop
  endfacet
  facet normal -1 0 0
    outer loop
      vertex 13.5 1.9 30
      vertex 13.5 1.9 29
      vertex 13.5 0 35
    endloop
  endfacet
  facet normal -1 0 0
    outer loop
      vertex 13.5 11.9 27
      vertex 13.5 1.9 26
      vertex 13.5 1.9 27
    endloop
  endfacet
  facet normal -1 0 0
    outer loop
      vertex 13.5 1.9 29
      vertex 13.5 1.9 27
      vertex 13.5 0 35
    endloop
  endfacet
  facet normal -1 0 0
    outer loop
      vertex 13.5 11.9 29
      vertex 13.5 13.9 35
      vertex 13.5 11.9 27
    endloop
  endfacet
  facet normal -1 0 0
    outer loop
      vertex 13.5 1.9 33
      vertex 13.5 11.9 33
      vertex 13.5 1.9 32
    endloop
  endfacet
  facet normal -1 0 0
    outer loop
      vertex 13.5 1.9 33
      vertex 13.5 1.9 32
      vertex 13.5 0 35
    endloop
  endfacet
  facet normal -1 0 0
    outer loop
      vertex 13.5 11.9 30
      vertex 13.5 1.9 29
      vertex 13.5 1.9 30
    endloop
  endfacet
  facet normal -1 0 0
    outer loop
      vertex 13.5 1.9 32
      vertex 13.5 1.9 30
      vertex 13.5 0 35
    endloop
  endfacet
  facet normal -1 0 0
    outer loop
      vertex 13.5 11.9 32
      vertex 13.5 13.9 35
      vertex 13.5 11.9 30
    endloop
  endfacet
  facet normal -1 0 0
    outer loop
      vertex 13.5 11.9 30
      vertex 13.5 13.9 35
      vertex 13.5 11.9 29
    endloop
  endfacet
  facet normal -1 0 0
    outer loop
      vertex 13.5 11.9 33
      vertex 13.5 13.9 35
      vertex 13.5 11.9 32
    endloop
  endfacet
  facet normal -1 0 0
    outer loop
      vertex 13.5 1.9 23
      vertex 13.5 11.9 24
      vertex 13.5 11.9 23
    endloop
  endfacet
  facet normal -1 0 0
    outer loop
      vertex 13.5 1.9 29
      vertex 13.5 11.9 30
      vertex 13.5 11.9 29
    endloop
  endfacet
  facet normal -1 0 0
    outer loop
      vertex 13.5 1.9 8
      vertex 13.5 11.9 9
      vertex 13.5 11.9 8
    endloop
  endfacet
  facet normal -1 0 0
    outer loop
      vertex 13.5 1.9 32
      vertex 13.5 11.9 33
      vertex 13.5 11.9 32
    endloop
  endfacet
  facet normal -1 0 0
    outer loop
      vertex 13.5 1.9 2
      vertex 13.5 11.9 3
      vertex 13.5 11.9 2
    endloop
  endfacet
  facet normal 0 -1 0
    outer loop
      vertex 15 11.9 0
      vertex 15 11.9 2
      vertex 13.5 11.9 2
    endloop
  endfacet
  facet normal 0 -1 0
    outer loop
      vertex 13.5 11.9 0
      vertex 15 11.9 0
      vertex 13.5 11.9 2
    endloop
  endfacet
  facet normal -1 0 0
    outer loop
      vertex 15 11.9 2
      vertex 15 11.9 0
      vertex 15 1.9 2
    endloop
  endfacet
  facet normal -1 0 0
    outer loop
      vertex 15 1.9 2
      vertex 15 11.9 0
      vertex 15 1.9 0
    endloop
  endfacet
  facet normal 0 1 0
    outer loop
      vertex 15 1.9 2
      vertex 15 1.9 0
      vertex 13.5 1.9 2
    endloop
  endfacet
  facet normal 0 1 0
    outer loop
      vertex 13.5 1.9 2
      vertex 15 1.9 0
      vertex 13.5 1.9 0
    endloop
  endfacet
  facet normal 1 0 0
    outer loop
      vertex 12.5 0 35
      vertex 12.5 0 0
      vertex 12.5 13.9 0
    endloop
  endfacet
  facet normal 1 0 0
    outer loop
      vertex 12.5 13.9 35
      vertex 12.5 0 35
      vertex 12.5 13.9 0
    endloop
  endfacet
  facet normal 0 1 0
    outer loop
      vertex 5.5 13.9 0
      vertex 5.5 13.9 35
      vertex 12.5 13.9 0
    endloop
  endfacet
  facet normal 0 1 0
    outer loop
      vertex 12.5 13.9 0
      vertex 5.5 13.9 35
      vertex 12.5 13.9 35
    endloop
  endfacet
  facet normal -1 0 0
    outer loop
      vertex 5.5 13.8 0
      vertex 5.5 13.8 35
      vertex 5.5 13.9 0
    endloop
  endfacet
  facet normal -1 0 0
    outer loop
      vertex 5.5 13.9 0
      vertex 5.5 13.8 35
      vertex 5.5 13.9 35
    endloop
  endfacet
  facet normal 0 1 0
    outer loop
      vertex -6.9 13.8 0
      vertex -6.9 13.8 70
      vertex 5.5 13.8 0
    endloop
  endfacet
  facet normal 0 1 0
    outer loop
      vertex 5.5 13.8 35
      vertex -6.9 13.8 70
      vertex 6.9 13.8 70
    endloop
  endfacet
  facet normal 0 1 0
    outer loop
      vertex 5.5 13.8 0
      vertex -6.9 13.8 70
      vertex 5.5 13.8 35
    endloop
  endfacet
  facet normal 0 1 0
    outer loop
      vertex 5.5 13.8 35
      vertex 6.9 13.8 70
      vertex 6.9 13.8 35
    endloop
  endfacet
  facet normal -1 0 0
    outer loop
      vertex -6.9 8.88178e-16 0
      vertex -6.9 8.88178e-16 70
      vertex -6.9 13.8 0
    endloop
  endfacet
  facet normal -1 0 0
    outer loop
      vertex -6.9 13.8 0
      vertex -6.9 8.88178e-16 70
      vertex -6.9 13.8 70
    endloop
  endfacet
  facet normal 0 -1 0
    outer loop
      vertex -6.9 8.88178e-16 70
      vertex -6.9 8.88178e-16 0
      vertex 5.5 8.88178e-16 0
    endloop
  endfacet
  facet normal 0 -1 0
    outer loop
      vertex 6.9 8.88178e-16 35
      vertex -6.9 8.88178e-16 70
      vertex 5.5 8.88178e-16 35
    endloop
  endfacet
  facet normal 0 -1 0
    outer loop
      vertex 5.5 8.88178e-16 35
      vertex -6.9 8.88178e-16 70
      vertex 5.5 8.88178e-16 0
    endloop
  endfacet
  facet normal 0 -1 0
    outer loop
      vertex 6.9 8.88178e-16 70
      vertex -6.9 8.88178e-16 70
      vertex 6.9 8.88178e-16 35
    endloop
  endfacet
  facet normal -1 0 0
    outer loop
      vertex 5.5 0 0
      vertex 5.5 0 35
      vertex 5.5 8.88178e-16 0
    endloop
  endfacet
  facet normal -1 0 0
    outer loop
      vertex 5.5 8.88178e-16 0
      vertex 5.5 0 35
      vertex 5.5 8.88178e-16 35
    endloop
  endfacet
  facet normal 1 0 0
    outer loop
      vertex -4.5 11.4 0
      vertex -4.5 11.4 70
      vertex -4.5 2.4 70
    endloop
  endfacet
  facet normal 1 0 0
    outer loop
      vertex -4.5 2.4 0
      vertex -4.5 11.4 0
      vertex -4.5 2.4 70
    endloop
  endfacet
  facet normal 0 -1 0
    outer loop
      vertex 4.5 11.4 0
      vertex 4.5 11.4 70
      vertex -4.5 11.4 70
    endloop
  endfacet
  facet normal 0 -1 0
    outer loop
      vertex -4.5 11.4 0
      vertex 4.5 11.4 0
      vertex -4.5 11.4 70
    endloop
  endfacet
  facet normal -1 0 0
    outer loop
      vertex 4.5 11.4 70
      vertex 4.5 11.4 0
      vertex 4.5 2.4 70
    endloop
  endfacet
  facet normal -1 0 0
    outer loop
      vertex 4.5 2.4 70
      vertex 4.5 11.4 0
      vertex 4.5 2.4 0
    endloop
  endfacet
  facet normal 0 1 0
    outer loop
      vertex 4.5 2.4 70
      vertex 4.5 2.4 0
      vertex -4.5 2.4 70
    endloop
  endfacet
  facet normal 0 1 0
    outer loop
      vertex -4.5 2.4 70
      vertex 4.5 2.4 0
      vertex -4.5 2.4 0
    endloop
  endfacet
  facet normal 0 0 1
    outer loop
      vertex 5.5 8.88178e-16 35
      vertex 5.5 0 35
      vertex 12.5 0 35
    endloop
  endfacet
  facet normal 0 0 1
    outer loop
      vertex 6.9 8.88178e-16 35
      vertex 5.5 8.88178e-16 35
      vertex 12.5 0 35
    endloop
  endfacet
  facet normal 0 0 1
    outer loop
      vertex 5.5 13.9 35
      vertex 5.5 13.8 35
      vertex 12.5 13.9 35
    endloop
  endfacet
  facet normal 0 0 1
    outer loop
      vertex 5.5 13.8 35
      vertex 6.9 13.8 35
      vertex 12.5 13.9 35
    endloop
  endfacet
  facet normal 0 0 1
    outer loop
      vertex 12.5 13.9 35
      vertex 6.9 8.88178e-16 35
      vertex 12.5 0 35
    endloop
  endfacet
  facet normal 0 0 1
    outer loop
      vertex 6.9 13.8 35
      vertex 6.9 8.88178e-16 35
      vertex 12.5 13.9 35
    endloop
  endfacet
  facet normal 0 0 1
    outer loop
      vertex 13.5 1.9 35
      vertex 13.5 0 35
      vertex 20.5 0 35
    endloop
  endfacet
  facet normal 0 0 1
    outer loop
      vertex 15 1.9 35
      vertex 13.5 1.9 35
      vertex 20.5 0 35
    endloop
  endfacet
  facet normal 0 0 1
    outer loop
      vertex 13.5 13.9 35
      vertex 13.5 11.9 35
      vertex 20.5 13.9 35
    endloop
  endfacet
  facet normal 0 0 1
    outer loop
      vertex 13.5 11.9 35
      vertex 15 11.9 35
      vertex 20.5 13.9 35
    endloop
  endfacet
  facet normal 0 0 1
    outer loop
      vertex 20.5 13.9 35
      vertex 15 1.9 35
      vertex 20.5 0 35
    endloop
  endfacet
  facet normal 0 0 1
    outer loop
      vertex 15 11.9 35
      vertex 15 1.9 35
      vertex 20.5 13.9 35
    endloop
  endfacet
  facet normal 0.707107 0 0.707107
    outer loop
      vertex 51.9 -5 30.6736
      vertex 51.9 0 30.6736
      vertex 12.5736 0 70
    endloop
  endfacet
  facet normal 0.707107 0 0.707107
    outer loop
      vertex 12.5736 -5 70
      vertex 51.9 -5 30.6736
      vertex 12.5736 0 70
    endloop
  endfacet
  facet normal 0 0 1
    outer loop
      vertex 20.5 1.9 12.5
      vertex 20.5 11.9 12.5
      vertex 15 11.9 12.5
    endloop
  endfacet
  facet normal 0 0 1
    outer loop
      vertex 15 1.9 12.5
      vertex 20.5 1.9 12.5
      vertex 15 11.9 12.5
    endloop
  endfacet
  facet normal 0 1 0
    outer loop
      vertex 15 1.9 23
      vertex 15 1.9 22.5
      vertex 13.5 1.9 23
    endloop
  endfacet
  facet normal 0 1 0
    outer loop
      vertex 20.5 1.9 12.5
      vertex 15 1.9 22.5
      vertex 20.5 1.9 22.5
    endloop
  endfacet
  facet normal 0 1 0
    outer loop
      vertex 13.5 1.9 23
      vertex 15 1.9 22.5
      vertex 20.5 1.9 12.5
    endloop
  endfacet
  facet normal 0 1 0
    outer loop
      vertex 13.5 1.9 23
      vertex 20.5 1.9 12.5
      vertex 15 1.9 12.5
    endloop
  endfacet
  facet normal 0 1 0
    outer loop
      vertex 13.5 1.9 23
      vertex 15 1.9 12.5
      vertex 15 1.9 12
    endloop
  endfacet
  facet normal 0 1 0
    outer loop
      vertex 13.5 1.9 23
      vertex 15 1.9 12
      vertex 13.5 1.9 12
    endloop
  endfacet
  facet normal 0 -1 0
    outer loop
      vertex 20.5 11.9 22.5
      vertex 15 11.9 12.5
      vertex 20.5 11.9 12.5
    endloop
  endfacet
  facet normal 0 -1 0
    outer loop
      vertex 15 11.9 22.5
      vertex 15 11.9 12.5
      vertex 20.5 11.9 22.5
    endloop
  endfacet
  facet normal 0 -1 0
    outer loop
      vertex 15 11.9 12
      vertex 15 11.9 12.5
      vertex 13.5 11.9 23
    endloop
  endfacet
  facet normal 0 -1 0
    outer loop
      vertex 13.5 11.9 23
      vertex 15 11.9 12.5
      vertex 15 11.9 22.5
    endloop
  endfacet
  facet normal 0 -1 0
    outer loop
      vertex 13.5 11.9 23
      vertex 15 11.9 22.5
      vertex 15 11.9 23
    endloop
  endfacet
  facet normal 0 -1 0
    outer loop
      vertex 13.5 11.9 12
      vertex 15 11.9 12
      vertex 13.5 11.9 23
    endloop
  endfacet
  facet normal 0 0 -1
    outer loop
      vertex 20.5 11.9 22.5
      vertex 20.5 1.9 22.5
      vertex 15 11.9 22.5
    endloop
  endfacet
  facet normal 0 0 -1
    outer loop
      vertex 15 11.9 22.5
      vertex 20.5 1.9 22.5
      vertex 15 1.9 22.5
    endloop
  endfacet
  facet normal 0 0 -1
    outer loop
      vertex 15 11.9 2
      vertex 15 1.9 2
      vertex 13.5 11.9 2
    endloop
  endfacet
  facet normal 0 0 -1
    outer loop
      vertex 13.5 11.9 2
      vertex 15 1.9 2
      vertex 13.5 1.9 2
    endloop
  endfacet
  facet normal 0 -1 0
    outer loop
      vertex 15 11.9 33
      vertex 15 11.9 35
      vertex 13.5 11.9 35
    endloop
  endfacet
  facet normal 0 -1 0
    outer loop
      vertex 13.5 11.9 33
      vertex 15 11.9 33
      vertex 13.5 11.9 35
    endloop
  endfacet
  facet normal 0 0 1
    outer loop
      vertex 15 1.9 33
      vertex 15 11.9 33
      vertex 13.5 11.9 33
    endloop
  endfacet
  facet normal 0 0 1
    outer loop
      vertex 13.5 1.9 33
      vertex 15 1.9 33
      vertex 13.5 11.9 33
    endloop
  endfacet
  facet normal 0 1 0
    outer loop
      vertex 15 1.9 35
      vertex 15 1.9 33
      vertex 13.5 1.9 35
    endloop
  endfacet
  facet normal 0 1 0
    outer loop
      vertex 13.5 1.9 35
      vertex 15 1.9 33
      vertex 13.5 1.9 33
    endloop
  endfacet
  facet normal 0 0 -1
    outer loop
      vertex 15 11.9 5
      vertex 15 1.9 5
      vertex 13.5 11.9 5
    endloop
  endfacet
  facet normal 0 0 -1
    outer loop
      vertex 13.5 11.9 5
      vertex 15 1.9 5
      vertex 13.5 1.9 5
    endloop
  endfacet
  facet normal 0 1 0
    outer loop
      vertex 15 1.9 5
      vertex 15 1.9 3
      vertex 13.5 1.9 5
    endloop
  endfacet
  facet normal 0 1 0
    outer loop
      vertex 13.5 1.9 5
      vertex 15 1.9 3
      vertex 13.5 1.9 3
    endloop
  endfacet
  facet normal 0 -1 0
    outer loop
      vertex 15 11.9 3
      vertex 15 11.9 5
      vertex 13.5 11.9 5
    endloop
  endfacet
  facet normal 0 -1 0
    outer loop
      vertex 13.5 11.9 3
      vertex 15 11.9 3
      vertex 13.5 11.9 5
    endloop
  endfacet
  facet normal 0 0 1
    outer loop
      vertex 15 1.9 3
      vertex 15 11.9 3
      vertex 13.5 11.9 3
    endloop
  endfacet
  facet normal 0 0 1
    outer loop
      vertex 13.5 1.9 3
      vertex 15 1.9 3
      vertex 13.5 11.9 3
    endloop
  endfacet
  facet normal 0 0 -1
    outer loop
      vertex 15 11.9 8
      vertex 15 1.9 8
      vertex 13.5 11.9 8
    endloop
  endfacet
  facet normal 0 0 -1
    outer loop
      vertex 13.5 11.9 8
      vertex 15 1.9 8
      vertex 13.5 1.9 8
    endloop
  endfacet
  facet normal 0 1 0
    outer loop
      vertex 15 1.9 8
      vertex 15 1.9 6
      vertex 13.5 1.9 8
    endloop
  endfacet
  facet normal 0 1 0
    outer loop
      vertex 13.5 1.9 8
      vertex 15 1.9 6
      vertex 13.5 1.9 6
    endloop
  endfacet
  facet normal 0 -1 0
    outer loop
      vertex 15 11.9 6
      vertex 15 11.9 8
      vertex 13.5 11.9 8
    endloop
  endfacet
  facet normal 0 -1 0
    outer loop
      vertex 13.5 11.9 6
      vertex 15 11.9 6
      vertex 13.5 11.9 8
    endloop
  endfacet
  facet normal 0 0 1
    outer loop
      vertex 15 1.9 6
      vertex 15 11.9 6
      vertex 13.5 11.9 6
    endloop
  endfacet
  facet normal 0 0 1
    outer loop
      vertex 13.5 1.9 6
      vertex 15 1.9 6
      vertex 13.5 11.9 6
    endloop
  endfacet
  facet normal 0 1 0
    outer loop
      vertex 15 1.9 11
      vertex 15 1.9 9
      vertex 13.5 1.9 11
    endloop
  endfacet
  facet normal 0 1 0
    outer loop
      vertex 13.5 1.9 11
      vertex 15 1.9 9
      vertex 13.5 1.9 9
    endloop
  endfacet
  facet normal 0 0 -1
    outer loop
      vertex 15 11.9 11
      vertex 15 1.9 11
      vertex 13.5 11.9 11
    endloop
  endfacet
  facet normal 0 0 -1
    outer loop
      vertex 13.5 11.9 11
      vertex 15 1.9 11
      vertex 13.5 1.9 11
    endloop
  endfacet
  facet normal 0 -1 0
    outer loop
      vertex 15 11.9 9
      vertex 15 11.9 11
      vertex 13.5 11.9 11
    endloop
  endfacet
  facet normal 0 -1 0
    outer loop
      vertex 13.5 11.9 9
      vertex 15 11.9 9
      vertex 13.5 11.9 11
    endloop
  endfacet
  facet normal 0 0 1
    outer loop
      vertex 15 1.9 9
      vertex 15 11.9 9
      vertex 13.5 11.9 9
    endloop
  endfacet
  facet normal 0 0 1
    outer loop
      vertex 13.5 1.9 9
      vertex 15 1.9 9
      vertex 13.5 11.9 9
    endloop
  endfacet
  facet normal 0 0 -1
    outer loop
      vertex 15 11.9 23
      vertex 15 1.9 23
      vertex 13.5 11.9 23
    endloop
  endfacet
  facet normal 0 0 -1
    outer loop
      vertex 13.5 11.9 23
      vertex 15 1.9 23
      vertex 13.5 1.9 23
    endloop
  endfacet
  facet normal 0 0 1
    outer loop
      vertex 15 1.9 12
      vertex 15 11.9 12
      vertex 13.5 11.9 12
    endloop
  endfacet
  facet normal 0 0 1
    outer loop
      vertex 13.5 1.9 12
      vertex 15 1.9 12
      vertex 13.5 11.9 12
    endloop
  endfacet
  facet normal 0 0 -1
    outer loop
      vertex 15 11.9 26
      vertex 15 1.9 26
      vertex 13.5 11.9 26
    endloop
  endfacet
  facet normal 0 0 -1
    outer loop
      vertex 13.5 11.9 26
      vertex 15 1.9 26
      vertex 13.5 1.9 26
    endloop
  endfacet
  facet normal 0 1 0
    outer loop
      vertex 15 1.9 26
      vertex 15 1.9 24
      vertex 13.5 1.9 26
    endloop
  endfacet
  facet normal 0 1 0
    outer loop
      vertex 13.5 1.9 26
      vertex 15 1.9 24
      vertex 13.5 1.9 24
    endloop
  endfacet
  facet normal 0 -1 0
    outer loop
      vertex 15 11.9 24
      vertex 15 11.9 26
      vertex 13.5 11.9 26
    endloop
  endfacet
  facet normal 0 -1 0
    outer loop
      vertex 13.5 11.9 24
      vertex 15 11.9 24
      vertex 13.5 11.9 26
    endloop
  endfacet
  facet normal 0 0 1
    outer loop
      vertex 15 1.9 24
      vertex 15 11.9 24
      vertex 13.5 11.9 24
    endloop
  endfacet
  facet normal 0 0 1
    outer loop
      vertex 13.5 1.9 24
      vertex 15 1.9 24
      vertex 13.5 11.9 24
    endloop
  endfacet
  facet normal 0 0 -1
    outer loop
      vertex 15 11.9 29
      vertex 15 1.9 29
      vertex 13.5 11.9 29
    endloop
  endfacet
  facet normal 0 0 -1
    outer loop
      vertex 13.5 11.9 29
      vertex 15 1.9 29
      vertex 13.5 1.9 29
    endloop
  endfacet
  facet normal 0 1 0
    outer loop
      vertex 15 1.9 29
      vertex 15 1.9 27
      vertex 13.5 1.9 29
    endloop
  endfacet
  facet normal 0 1 0
    outer loop
      vertex 13.5 1.9 29
      vertex 15 1.9 27
      vertex 13.5 1.9 27
    endloop
  endfacet
  facet normal 0 -1 0
    outer loop
      vertex 15 11.9 27
      vertex 15 11.9 29
      vertex 13.5 11.9 29
    endloop
  endfacet
  facet normal 0 -1 0
    outer loop
      vertex 13.5 11.9 27
      vertex 15 11.9 27
      vertex 13.5 11.9 29
    endloop
  endfacet
  facet normal 0 0 1
    outer loop
      vertex 15 1.9 27
      vertex 15 11.9 27
      vertex 13.5 11.9 27
    endloop
  endfacet
  facet normal 0 0 1
    outer loop
      vertex 13.5 1.9 27
      vertex 15 1.9 27
      vertex 13.5 11.9 27
    endloop
  endfacet
  facet normal 0 0 -1
    outer loop
      vertex 15 11.9 32
      vertex 15 1.9 32
      vertex 13.5 11.9 32
    endloop
  endfacet
  facet normal 0 0 -1
    outer loop
      vertex 13.5 11.9 32
      vertex 15 1.9 32
      vertex 13.5 1.9 32
    endloop
  endfacet
  facet normal 0 1 0
    outer loop
      vertex 15 1.9 32
      vertex 15 1.9 30
      vertex 13.5 1.9 32
    endloop
  endfacet
  facet normal 0 1 0
    outer loop
      vertex 13.5 1.9 32
      vertex 15 1.9 30
      vertex 13.5 1.9 30
    endloop
  endfacet
  facet normal 0 -1 0
    outer loop
      vertex 15 11.9 30
      vertex 15 11.9 32
      vertex 13.5 11.9 32
    endloop
  endfacet
  facet normal 0 -1 0
    outer loop
      vertex 13.5 11.9 30
      vertex 15 11.9 30
      vertex 13.5 11.9 32
    endloop
  endfacet
  facet normal 0 0 1
    outer loop
      vertex 15 1.9 30
      vertex 15 11.9 30
      vertex 13.5 11.9 30
    endloop
  endfacet
  facet normal 0 0 1
    outer loop
      vertex 13.5 1.9 30
      vertex 15 1.9 30
      vertex 13.5 11.9 30
    endloop
  endfacet
  facet normal 1 0 0
    outer loop
      vertex 6.9 8.88178e-16 70
      vertex 6.9 8.88178e-16 35
      vertex 6.9 13.8 35
    endloop
  endfacet
  facet normal 1 0 0
    outer loop
      vertex 6.9 13.8 70
      vertex 6.9 8.88178e-16 70
      vertex 6.9 13.8 35
    endloop
  endfacet
  facet normal 0 0 1
    outer loop
      vertex -4.5 2.4 70
      vertex -6.9 8.88178e-16 70
      vertex 6.9 8.88178e-16 70
    endloop
  endfacet
  facet normal 0 0 1
    outer loop
      vertex -4.5 11.4 70
      vertex -6.9 13.8 70
      vertex -4.5 2.4 70
    endloop
  endfacet
  facet normal 0 0 1
    outer loop
      vertex 4.5 2.4 70
      vertex -4.5 2.4 70
      vertex 6.9 8.88178e-16 70
    endloop
  endfacet
  facet normal 0 0 1
    outer loop
      vertex -6.9 13.8 70
      vertex -6.9 8.88178e-16 70
      vertex -4.5 2.4 70
    endloop
  endfacet
  facet normal 0 0 1
    outer loop
      vertex 6.9 13.8 70
      vertex -6.9 13.8 70
      vertex -4.5 11.4 70
    endloop
  endfacet
  facet normal 0 0 1
    outer loop
      vertex 6.9 13.8 70
      vertex 4.5 11.4 70
      vertex 6.9 8.88178e-16 70
    endloop
  endfacet
  facet normal 0 0 1
    outer loop
      vertex 6.9 13.8 70
      vertex -4.5 11.4 70
      vertex 4.5 11.4 70
    endloop
  endfacet
  facet normal 0 0 1
    outer loop
      vertex 4.5 11.4 70
      vertex 4.5 2.4 70
      vertex 6.9 8.88178e-16 70
    endloop
  endfacet
  facet normal -1 0 0
    outer loop
      vertex 15 11.9 35
      vertex 15 11.9 33
      vertex 15 1.9 35
    endloop
  endfacet
  facet normal -1 0 0
    outer loop
      vertex 15 1.9 35
      vertex 15 11.9 33
      vertex 15 1.9 33
    endloop
  endfacet
  facet normal -1 0 0
    outer loop
      vertex 15 11.9 12.5
      vertex 15 11.9 12
      vertex 15 1.9 12.5
    endloop
  endfacet
  facet normal -1 0 0
    outer loop
      vertex 15 1.9 12.5
      vertex 15 11.9 12
      vertex 15 1.9 12
    endloop
  endfacet
  facet normal -1 0 0
    outer loop
      vertex 15 11.9 23
      vertex 15 11.9 22.5
      vertex 15 1.9 23
    endloop
  endfacet
  facet normal -1 0 0
    outer loop
      vertex 15 1.9 23
      vertex 15 11.9 22.5
      vertex 15 1.9 22.5
    endloop
  endfacet
  facet normal -1 0 0
    outer loop
      vertex 15 11.9 5
      vertex 15 11.9 3
      vertex 15 1.9 5
    endloop
  endfacet
  facet normal -1 0 0
    outer loop
      vertex 15 1.9 5
      vertex 15 11.9 3
      vertex 15 1.9 3
    endloop
  endfacet
  facet normal -1 0 0
    outer loop
      vertex 15 11.9 8
      vertex 15 11.9 6
      vertex 15 1.9 8
    endloop
  endfacet
  facet normal -1 0 0
    outer loop
      vertex 15 1.9 8
      vertex 15 11.9 6
      vertex 15 1.9 6
    endloop
  endfacet
  facet normal -1 0 0
    outer loop
      vertex 15 11.9 11
      vertex 15 11.9 9
      vertex 15 1.9 11
    endloop
  endfacet
  facet normal -1 0 0
    outer loop
      vertex 15 1.9 11
      vertex 15 11.9 9
      vertex 15 1.9 9
    endloop
  endfacet
  facet normal -1 0 0
    outer loop
      vertex 15 11.9 26
      vertex 15 11.9 24
      vertex 15 1.9 26
    endloop
  endfacet
  facet normal -1 0 0
    outer loop
      vertex 15 1.9 26
      vertex 15 11.9 24
      vertex 15 1.9 24
    endloop
  endfacet
  facet normal -1 0 0
    outer loop
      vertex 15 11.9 29
      vertex 15 11.9 27
      vertex 15 1.9 29
    endloop
  endfacet
  facet normal -1 0 0
    outer loop
      vertex 15 1.9 29
      vertex 15 11.9 27
      vertex 15 1.9 27
    endloop
  endfacet
  facet normal -1 0 0
    outer loop
      vertex 15 11.9 32
      vertex 15 11.9 30
      vertex 15 1.9 32
    endloop
  endfacet
  facet normal -1 0 0
    outer loop
      vertex 15 1.9 32
      vertex 15 11.9 30
      vertex 15 1.9 30
    endloop
  endfacet
  facet normal -1 0 0
    outer loop
      vertex 38.1 8.88178e-16 0
      vertex 38.1 8.88178e-16 30
      vertex 38.1 13.8 0
    endloop
  endfacet
  facet normal -1 0 0
    outer loop
      vertex 38.1 13.8 0
      vertex 38.1 8.88178e-16 30
      vertex 38.1 13.8 30
    endloop
  endfacet
  facet normal 0 -1 0
    outer loop
      vertex 38.1 8.88178e-16 30
      vertex 38.1 8.88178e-16 0
      vertex 51.9 8.88178e-16 0
    endloop
  endfacet
  facet normal 0 -1 0
    outer loop
      vertex 51.9 8.88178e-16 30
      vertex 38.1 8.88178e-16 30
      vertex 51.9 8.88178e-16 0
    endloop
  endfacet
  facet normal 0 0 -1
    outer loop
      vertex 40.5 2.4 0
      vertex 49.5 2.4 0
      vertex 51.9 8.88178e-16 0
    endloop
  endfacet
  facet normal 0 0 -1
    outer loop
      vertex 40.5 11.4 0
      vertex 38.1 13.8 0
      vertex 51.9 13.8 0
    endloop
  endfacet
  facet normal 0 0 -1
    outer loop
      vertex 38.1 8.88178e-16 0
      vertex 38.1 13.8 0
      vertex 40.5 11.4 0
    endloop
  endfacet
  facet normal 0 0 -1
    outer loop
      vertex 49.5 11.4 0
      vertex 40.5 11.4 0
      vertex 51.9 13.8 0
    endloop
  endfacet
  facet normal 0 0 -1
    outer loop
      vertex 38.1 8.88178e-16 0
      vertex 40.5 11.4 0
      vertex 40.5 2.4 0
    endloop
  endfacet
  facet normal 0 0 -1
    outer loop
      vertex 38.1 8.88178e-16 0
      vertex 40.5 2.4 0
      vertex 51.9 8.88178e-16 0
    endloop
  endfacet
  facet normal 0 0 -1
    outer loop
      vertex 51.9 8.88178e-16 0
      vertex 49.5 2.4 0
      vertex 51.9 13.8 0
    endloop
  endfacet
  facet normal 0 0 -1
    outer loop
      vertex 49.5 2.4 0
      vertex 49.5 11.4 0
      vertex 51.9 13.8 0
    endloop
  endfacet
  facet normal 0 1 0
    outer loop
      vertex 38.1 13.8 0
      vertex 38.1 13.8 30
      vertex 51.9 13.8 0
    endloop
  endfacet
  facet normal 0 1 0
    outer loop
      vertex 51.9 13.8 0
      vertex 38.1 13.8 30
      vertex 51.9 13.8 30
    endloop
  endfacet
  facet normal 0 0 1
    outer loop
      vertex 40.5 2.4 30
      vertex 38.1 8.88178e-16 30
      vertex 51.9 8.88178e-16 30
    endloop
  endfacet
  facet normal 0 0 1
    outer loop
      vertex 40.5 11.4 30
      vertex 38.1 13.8 30
      vertex 40.5 2.4 30
    endloop
  endfacet
  facet normal 0 0 1
    outer loop
      vertex 49.5 2.4 30
      vertex 40.5 2.4 30
      vertex 51.9 8.88178e-16 30
    endloop
  endfacet
  facet normal 0 0 1
    outer loop
      vertex 38.1 13.8 30
      vertex 38.1 8.88178e-16 30
      vertex 40.5 2.4 30
    endloop
  endfacet
  facet normal 0 0 1
    outer loop
      vertex 51.9 13.8 30
      vertex 38.1 13.8 30
      vertex 40.5 11.4 30
    endloop
  endfacet
  facet normal 0 0 1
    outer loop
      vertex 51.9 13.8 30
      vertex 49.5 11.4 30
      vertex 51.9 8.88178e-16 30
    endloop
  endfacet
  facet normal 0 0 1
    outer loop
      vertex 51.9 13.8 30
      vertex 40.5 11.4 30
      vertex 49.5 11.4 30
    endloop
  endfacet
  facet normal 0 0 1
    outer loop
      vertex 49.5 11.4 30
      vertex 49.5 2.4 30
      vertex 51.9 8.88178e-16 30
    endloop
  endfacet
  facet normal 1 0 0
    outer loop
      vertex 51.9 8.88178e-16 30
      vertex 51.9 8.88178e-16 0
      vertex 51.9 13.8 0
    endloop
  endfacet
  facet normal 1 0 0
    outer loop
      vertex 51.9 13.8 30
      vertex 51.9 8.88178e-16 30
      vertex 51.9 13.8 0
    endloop
  endfacet
  facet normal 1 0 0
    outer loop
      vertex 40.5 11.4 0
      vertex 40.5 11.4 30
      vertex 40.5 2.4 30
    endloop
  endfacet
  facet normal 1 0 0
    outer loop
      vertex 40.5 2.4 0
      vertex 40.5 11.4 0
      vertex 40.5 2.4 30
    endloop
  endfacet
  facet normal 0 -1 0
    outer loop
      vertex 49.5 11.4 0
      vertex 49.5 11.4 30
      vertex 40.5 11.4 30
    endloop
  endfacet
  facet normal 0 -1 0
    outer loop
      vertex 40.5 11.4 0
      vertex 49.5 11.4 0
      vertex 40.5 11.4 30
    endloop
  endfacet
  facet normal -1 0 0
    outer loop
      vertex 49.5 11.4 30
      vertex 49.5 11.4 0
      vertex 49.5 2.4 30
    endloop
  endfacet
  facet normal -1 0 0
    outer loop
      vertex 49.5 2.4 30
      vertex 49.5 11.4 0
      vertex 49.5 2.4 0
    endloop
  endfacet
  facet normal 0 1 0
    outer loop
      vertex 49.5 2.4 30
      vertex 49.5 2.4 0
      vertex 40.5 2.4 30
    endloop
  endfacet
  facet normal 0 1 0
    outer loop
      vertex 40.5 2.4 30
      vertex 49.5 2.4 0
      vertex 40.5 2.4 0
    endloop
  endfacet
endsolid OpenSCAD_Model
