solid OpenSCAD_Model
  facet normal -1 0 0
    outer loop
      vertex 0 -10.2322 6.76777
      vertex 0 -17.5 10
      vertex 0 17.5 0
    endloop
  endfacet
  facet normal -1 0 0
    outer loop
      vertex 0 17.5 0
      vertex 0 -17.5 10
      vertex 0 -7 10
    endloop
  endfacet
  facet normal -1 0 0
    outer loop
      vertex 0 7 10
      vertex 0 -7 10
      vertex 0 -7 45
    endloop
  endfacet
  facet normal -1 0 0
    outer loop
      vertex 0 0 42.5
      vertex 0 -7 45
      vertex 0 7 45
    endloop
  endfacet
  facet normal -1 0 0
    outer loop
      vertex 0 9.5 5
      vertex 0 -7 10
      vertex 0 7 10
    endloop
  endfacet
  facet normal -1 0 0
    outer loop
      vertex 0 17.5 10
      vertex 0 17.5 0
      vertex 0 13.7678 6.76777
    endloop
  endfacet
  facet normal -1 0 0
    outer loop
      vertex 0 -10.2322 3.23223
      vertex 0 17.5 0
      vertex 0 -12 2.5
    endloop
  endfacet
  facet normal -1 0 0
    outer loop
      vertex 0 -17.5 0
      vertex 0 -17.5 10
      vertex 0 -14.5 5
    endloop
  endfacet
  facet normal -1 0 0
    outer loop
      vertex 0 -17.5 0
      vertex 0 -14.5 5
      vertex 0 -13.7678 3.23223
    endloop
  endfacet
  facet normal -1 0 0
    outer loop
      vertex 0 -17.5 0
      vertex 0 -13.7678 3.23223
      vertex 0 -12 2.5
    endloop
  endfacet
  facet normal -1 0 0
    outer loop
      vertex 0 -17.5 0
      vertex 0 -12 2.5
      vertex 0 17.5 0
    endloop
  endfacet
  facet normal -1 0 0
    outer loop
      vertex 0 -9.5 5
      vertex 0 17.5 0
      vertex 0 -10.2322 3.23223
    endloop
  endfacet
  facet normal -1 0 0
    outer loop
      vertex 0 1.76777 41.7678
      vertex 0 7 45
      vertex 0 2.5 40
    endloop
  endfacet
  facet normal -1 0 0
    outer loop
      vertex 0 -13.7678 6.76777
      vertex 0 -17.5 10
      vertex 0 -12 7.5
    endloop
  endfacet
  facet normal -1 0 0
    outer loop
      vertex 0 -12 7.5
      vertex 0 -17.5 10
      vertex 0 -10.2322 6.76777
    endloop
  endfacet
  facet normal -1 0 0
    outer loop
      vertex 0 -9.5 5
      vertex 0 -10.2322 6.76777
      vertex 0 17.5 0
    endloop
  endfacet
  facet normal -1 0 0
    outer loop
      vertex 0 -14.5 5
      vertex 0 -17.5 10
      vertex 0 -13.7678 6.76777
    endloop
  endfacet
  facet normal -1 0 0
    outer loop
      vertex 0 -1.76777 38.2322
      vertex 0 -7 45
      vertex 0 -2.5 40
    endloop
  endfacet
  facet normal -1 0 0
    outer loop
      vertex 0 1.76777 38.2322
      vertex 0 2.5 40
      vertex 0 7 45
    endloop
  endfacet
  facet normal -1 0 0
    outer loop
      vertex 0 0 42.5
      vertex 0 7 45
      vertex 0 1.76777 41.7678
    endloop
  endfacet
  facet normal -1 0 0
    outer loop
      vertex 0 -1.76777 41.7678
      vertex 0 -7 45
      vertex 0 0 42.5
    endloop
  endfacet
  facet normal -1 0 0
    outer loop
      vertex 0 9.5 5
      vertex 0 7 10
      vertex 0 10.2322 6.76777
    endloop
  endfacet
  facet normal -1 0 0
    outer loop
      vertex 0 -2.5 40
      vertex 0 -7 45
      vertex 0 -1.76777 41.7678
    endloop
  endfacet
  facet normal -1 0 0
    outer loop
      vertex 0 10.2322 3.23223
      vertex 0 -7 10
      vertex 0 9.5 5
    endloop
  endfacet
  facet normal -1 0 0
    outer loop
      vertex 0 13.7678 3.23223
      vertex 0 17.5 0
      vertex 0 12 2.5
    endloop
  endfacet
  facet normal -1 0 0
    outer loop
      vertex 0 17.5 0
      vertex 0 -7 10
      vertex 0 10.2322 3.23223
    endloop
  endfacet
  facet normal -1 0 0
    outer loop
      vertex 0 17.5 0
      vertex 0 10.2322 3.23223
      vertex 0 12 2.5
    endloop
  endfacet
  facet normal -1 0 0
    outer loop
      vertex 0 14.5 5
      vertex 0 17.5 0
      vertex 0 13.7678 3.23223
    endloop
  endfacet
  facet normal -1 0 0
    outer loop
      vertex 0 10.2322 6.76777
      vertex 0 7 10
      vertex 0 12 7.5
    endloop
  endfacet
  facet normal -1 0 0
    outer loop
      vertex 0 17.5 10
      vertex 0 12 7.5
      vertex 0 7 10
    endloop
  endfacet
  facet normal -1 0 0
    outer loop
      vertex 0 17.5 0
      vertex 0 14.5 5
      vertex 0 13.7678 6.76777
    endloop
  endfacet
  facet normal -1 0 0
    outer loop
      vertex 0 17.5 10
      vertex 0 13.7678 6.76777
      vertex 0 12 7.5
    endloop
  endfacet
  facet normal -1 0 0
    outer loop
      vertex 0 7 10
      vertex 0 -7 45
      vertex 0 -1.76777 38.2322
    endloop
  endfacet
  facet normal -1 0 0
    outer loop
      vertex 0 7 10
      vertex 0 -1.76777 38.2322
      vertex 0 0 37.5
    endloop
  endfacet
  facet normal -1 0 0
    outer loop
      vertex 0 7 10
      vertex 0 0 37.5
      vertex 0 1.76777 38.2322
    endloop
  endfacet
  facet normal -1 0 0
    outer loop
      vertex 0 7 10
      vertex 0 1.76777 38.2322
      vertex 0 7 45
    endloop
  endfacet
  facet normal 0 -1 0
    outer loop
      vertex 0 -17.5 10
      vertex 0 -17.5 0
      vertex 3 -17.5 0
    endloop
  endfacet
  facet normal 0 -1 0
    outer loop
      vertex 3 -17.5 10
      vertex 0 -17.5 10
      vertex 3 -17.5 0
    endloop
  endfacet
  facet normal 0 0 -1
    outer loop
      vertex 0 -17.5 0
      vertex 0 17.5 0
      vertex 3 -17.5 0
    endloop
  endfacet
  facet normal 0 0 -1
    outer loop
      vertex 3 -7 0
      vertex 16 -4 0
      vertex 18.5 -4 0
    endloop
  endfacet
  facet normal 0 0 -1
    outer loop
      vertex 3 7 0
      vertex 0 17.5 0
      vertex 3 17.5 0
    endloop
  endfacet
  facet normal 0 0 -1
    outer loop
      vertex 3 -17.5 0
      vertex 0 17.5 0
      vertex 3 -7 0
    endloop
  endfacet
  facet normal 0 0 -1
    outer loop
      vertex 3 -7 0
      vertex 18.5 -4 0
      vertex 24 -7 0
    endloop
  endfacet
  facet normal 0 0 -1
    outer loop
      vertex 3 -7 0
      vertex 16 7 0
      vertex 16 -4 0
    endloop
  endfacet
  facet normal 0 0 -1
    outer loop
      vertex 18.5 5 0
      vertex 17 7 0
      vertex 24 7 0
    endloop
  endfacet
  facet normal 0 0 -1
    outer loop
      vertex 18.5 5 0
      vertex 24 7 0
      vertex 18.5 -4 0
    endloop
  endfacet
  facet normal 0 0 -1
    outer loop
      vertex 18.5 -4 0
      vertex 24 7 0
      vertex 24 -7 0
    endloop
  endfacet
  facet normal 0 0 -1
    outer loop
      vertex 3 7 0
      vertex 16 7 0
      vertex 3 -7 0
    endloop
  endfacet
  facet normal 0 0 -1
    outer loop
      vertex 3 7 0
      vertex 3 -7 0
      vertex 0 17.5 0
    endloop
  endfacet
  facet normal 0 0 -1
    outer loop
      vertex 17 7 0
      vertex 18.5 5 0
      vertex 17 5 0
    endloop
  endfacet
  facet normal 0 1 0
    outer loop
      vertex 0 17.5 0
      vertex 0 17.5 10
      vertex 3 17.5 0
    endloop
  endfacet
  facet normal 0 1 0
    outer loop
      vertex 3 17.5 0
      vertex 0 17.5 10
      vertex 3 17.5 10
    endloop
  endfacet
  facet normal 0 0 1
    outer loop
      vertex 0 17.5 10
      vertex 0 7 10
      vertex 3 7 10
    endloop
  endfacet
  facet normal 0 0 1
    outer loop
      vertex 3 17.5 10
      vertex 0 17.5 10
      vertex 3 7 10
    endloop
  endfacet
  facet normal 0 1 0
    outer loop
      vertex 0 7 10
      vertex 0 7 45
      vertex 3 7 10
    endloop
  endfacet
  facet normal 0 1 0
    outer loop
      vertex 3 7 35
      vertex 0 7 45
      vertex 3 7 45
    endloop
  endfacet
  facet normal 0 1 0
    outer loop
      vertex 3 7 10
      vertex 0 7 45
      vertex 3 7 35
    endloop
  endfacet
  facet normal 0 1 0
    outer loop
      vertex 3 7 35
      vertex 16 7 35
      vertex 3 7 10
    endloop
  endfacet
  facet normal 0 1 0
    outer loop
      vertex 3 7 10
      vertex 16 7 35
      vertex 16 7 0
    endloop
  endfacet
  facet normal 0 1 0
    outer loop
      vertex 3 7 10
      vertex 16 7 0
      vertex 3 7 0
    endloop
  endfacet
  facet normal 0 0 1
    outer loop
      vertex 0 7 45
      vertex 0 -7 45
      vertex 3 -7 45
    endloop
  endfacet
  facet normal 0 0 1
    outer loop
      vertex 3 7 45
      vertex 0 7 45
      vertex 3 -7 45
    endloop
  endfacet
  facet normal 0 -1 0
    outer loop
      vertex 0 -7 45
      vertex 0 -7 10
      vertex 3 -7 10
    endloop
  endfacet
  facet normal 0 -1 0
    outer loop
      vertex 3 -7 35
      vertex 0 -7 45
      vertex 3 -7 10
    endloop
  endfacet
  facet normal 0 -1 0
    outer loop
      vertex 3 -7 0
      vertex 24 -7 0
      vertex 3 -7 10
    endloop
  endfacet
  facet normal 0 -1 0
    outer loop
      vertex 3 -7 35
      vertex 3 -7 45
      vertex 0 -7 45
    endloop
  endfacet
  facet normal 0 -1 0
    outer loop
      vertex 24 -7 0
      vertex 3 -7 35
      vertex 3 -7 10
    endloop
  endfacet
  facet normal 0 -1 0
    outer loop
      vertex 24 -7 35
      vertex 3 -7 35
      vertex 24 -7 0
    endloop
  endfacet
  facet normal 0 0 1
    outer loop
      vertex 0 -7 10
      vertex 0 -17.5 10
      vertex 3 -17.5 10
    endloop
  endfacet
  facet normal 0 0 1
    outer loop
      vertex 3 -7 10
      vertex 0 -7 10
      vertex 3 -17.5 10
    endloop
  endfacet
  facet normal 8.49728e-17 0.92388 0.382683
    outer loop
      vertex 3 -13.7678 3.23223
      vertex 0 -13.7678 3.23223
      vertex 3 -14.5 5
    endloop
  endfacet
  facet normal 8.49728e-17 0.92388 0.382683
    outer loop
      vertex 3 -14.5 5
      vertex 0 -13.7678 3.23223
      vertex 0 -14.5 5
    endloop
  endfacet
  facet normal -8.49728e-17 0.92388 -0.382683
    outer loop
      vertex 3 -13.7678 6.76777
      vertex 3 -14.5 5
      vertex 0 -13.7678 6.76777
    endloop
  endfacet
  facet normal -8.49728e-17 0.92388 -0.382683
    outer loop
      vertex 0 -13.7678 6.76777
      vertex 3 -14.5 5
      vertex 0 -14.5 5
    endloop
  endfacet
  facet normal -2.05142e-16 0.382683 -0.92388
    outer loop
      vertex 3 -12 7.5
      vertex 3 -13.7678 6.76777
      vertex 0 -12 7.5
    endloop
  endfacet
  facet normal -2.05142e-16 0.382683 -0.92388
    outer loop
      vertex 0 -12 7.5
      vertex 3 -13.7678 6.76777
      vertex 0 -13.7678 6.76777
    endloop
  endfacet
  facet normal -2.05142e-16 -0.382683 -0.92388
    outer loop
      vertex 3 -10.2322 6.76777
      vertex 3 -12 7.5
      vertex 0 -10.2322 6.76777
    endloop
  endfacet
  facet normal -2.05142e-16 -0.382683 -0.92388
    outer loop
      vertex 0 -10.2322 6.76777
      vertex 3 -12 7.5
      vertex 0 -12 7.5
    endloop
  endfacet
  facet normal -8.49728e-17 -0.92388 -0.382683
    outer loop
      vertex 0 -9.5 5
      vertex 3 -9.5 5
      vertex 3 -10.2322 6.76777
    endloop
  endfacet
  facet normal -8.49728e-17 -0.92388 -0.382683
    outer loop
      vertex 0 -10.2322 6.76777
      vertex 0 -9.5 5
      vertex 3 -10.2322 6.76777
    endloop
  endfacet
  facet normal 8.49728e-17 -0.92388 0.382683
    outer loop
      vertex 3 -10.2322 3.23223
      vertex 3 -9.5 5
      vertex 0 -9.5 5
    endloop
  endfacet
  facet normal 8.49728e-17 -0.92388 0.382683
    outer loop
      vertex 0 -10.2322 3.23223
      vertex 3 -10.2322 3.23223
      vertex 0 -9.5 5
    endloop
  endfacet
  facet normal 2.05142e-16 -0.382683 0.92388
    outer loop
      vertex 3 -12 2.5
      vertex 3 -10.2322 3.23223
      vertex 0 -10.2322 3.23223
    endloop
  endfacet
  facet normal 2.05142e-16 -0.382683 0.92388
    outer loop
      vertex 0 -12 2.5
      vertex 3 -12 2.5
      vertex 0 -10.2322 3.23223
    endloop
  endfacet
  facet normal 2.05142e-16 0.382683 0.92388
    outer loop
      vertex 3 -13.7678 3.23223
      vertex 3 -12 2.5
      vertex 0 -12 2.5
    endloop
  endfacet
  facet normal 2.05142e-16 0.382683 0.92388
    outer loop
      vertex 0 -13.7678 3.23223
      vertex 3 -13.7678 3.23223
      vertex 0 -12 2.5
    endloop
  endfacet
  facet normal -8.49728e-17 0.92388 -0.382683
    outer loop
      vertex 3 -1.76777 41.7678
      vertex 3 -2.5 40
      vertex 0 -1.76777 41.7678
    endloop
  endfacet
  facet normal -8.49728e-17 0.92388 -0.382683
    outer loop
      vertex 0 -1.76777 41.7678
      vertex 3 -2.5 40
      vertex 0 -2.5 40
    endloop
  endfacet
  facet normal 8.49728e-17 0.92388 0.382683
    outer loop
      vertex 3 -1.76777 38.2322
      vertex 0 -1.76777 38.2322
      vertex 3 -2.5 40
    endloop
  endfacet
  facet normal 8.49728e-17 0.92388 0.382683
    outer loop
      vertex 3 -2.5 40
      vertex 0 -1.76777 38.2322
      vertex 0 -2.5 40
    endloop
  endfacet
  facet normal -2.05142e-16 0.382683 -0.92388
    outer loop
      vertex 3 0 42.5
      vertex 3 -1.76777 41.7678
      vertex 0 0 42.5
    endloop
  endfacet
  facet normal -2.05142e-16 0.382683 -0.92388
    outer loop
      vertex 0 0 42.5
      vertex 3 -1.76777 41.7678
      vertex 0 -1.76777 41.7678
    endloop
  endfacet
  facet normal -2.05142e-16 -0.382683 -0.92388
    outer loop
      vertex 3 1.76777 41.7678
      vertex 3 0 42.5
      vertex 0 1.76777 41.7678
    endloop
  endfacet
  facet normal -2.05142e-16 -0.382683 -0.92388
    outer loop
      vertex 0 1.76777 41.7678
      vertex 3 0 42.5
      vertex 0 0 42.5
    endloop
  endfacet
  facet normal -8.49728e-17 -0.92388 -0.382683
    outer loop
      vertex 0 2.5 40
      vertex 3 2.5 40
      vertex 3 1.76777 41.7678
    endloop
  endfacet
  facet normal -8.49728e-17 -0.92388 -0.382683
    outer loop
      vertex 0 1.76777 41.7678
      vertex 0 2.5 40
      vertex 3 1.76777 41.7678
    endloop
  endfacet
  facet normal 8.49728e-17 -0.92388 0.382683
    outer loop
      vertex 3 1.76777 38.2322
      vertex 3 2.5 40
      vertex 0 2.5 40
    endloop
  endfacet
  facet normal 8.49728e-17 -0.92388 0.382683
    outer loop
      vertex 0 1.76777 38.2322
      vertex 3 1.76777 38.2322
      vertex 0 2.5 40
    endloop
  endfacet
  facet normal 2.05142e-16 -0.382683 0.92388
    outer loop
      vertex 3 0 37.5
      vertex 3 1.76777 38.2322
      vertex 0 1.76777 38.2322
    endloop
  endfacet
  facet normal 2.05142e-16 -0.382683 0.92388
    outer loop
      vertex 0 0 37.5
      vertex 3 0 37.5
      vertex 0 1.76777 38.2322
    endloop
  endfacet
  facet normal 2.05142e-16 0.382683 0.92388
    outer loop
      vertex 3 -1.76777 38.2322
      vertex 3 0 37.5
      vertex 0 0 37.5
    endloop
  endfacet
  facet normal 2.05142e-16 0.382683 0.92388
    outer loop
      vertex 0 -1.76777 38.2322
      vertex 3 -1.76777 38.2322
      vertex 0 0 37.5
    endloop
  endfacet
  facet normal 8.49728e-17 0.92388 0.382683
    outer loop
      vertex 3 10.2322 3.23223
      vertex 0 10.2322 3.23223
      vertex 3 9.5 5
    endloop
  endfacet
  facet normal 8.49728e-17 0.92388 0.382683
    outer loop
      vertex 3 9.5 5
      vertex 0 10.2322 3.23223
      vertex 0 9.5 5
    endloop
  endfacet
  facet normal -8.49728e-17 0.92388 -0.382683
    outer loop
      vertex 3 10.2322 6.76777
      vertex 3 9.5 5
      vertex 0 10.2322 6.76777
    endloop
  endfacet
  facet normal -8.49728e-17 0.92388 -0.382683
    outer loop
      vertex 0 10.2322 6.76777
      vertex 3 9.5 5
      vertex 0 9.5 5
    endloop
  endfacet
  facet normal -2.05142e-16 0.382683 -0.92388
    outer loop
      vertex 3 12 7.5
      vertex 3 10.2322 6.76777
      vertex 0 12 7.5
    endloop
  endfacet
  facet normal -2.05142e-16 0.382683 -0.92388
    outer loop
      vertex 0 12 7.5
      vertex 3 10.2322 6.76777
      vertex 0 10.2322 6.76777
    endloop
  endfacet
  facet normal -2.05142e-16 -0.382683 -0.92388
    outer loop
      vertex 3 13.7678 6.76777
      vertex 3 12 7.5
      vertex 0 13.7678 6.76777
    endloop
  endfacet
  facet normal -2.05142e-16 -0.382683 -0.92388
    outer loop
      vertex 0 13.7678 6.76777
      vertex 3 12 7.5
      vertex 0 12 7.5
    endloop
  endfacet
  facet normal -8.49728e-17 -0.92388 -0.382683
    outer loop
      vertex 0 14.5 5
      vertex 3 14.5 5
      vertex 3 13.7678 6.76777
    endloop
  endfacet
  facet normal -8.49728e-17 -0.92388 -0.382683
    outer loop
      vertex 0 13.7678 6.76777
      vertex 0 14.5 5
      vertex 3 13.7678 6.76777
    endloop
  endfacet
  facet normal 8.49728e-17 -0.92388 0.382683
    outer loop
      vertex 3 13.7678 3.23223
      vertex 3 14.5 5
      vertex 0 14.5 5
    endloop
  endfacet
  facet normal 8.49728e-17 -0.92388 0.382683
    outer loop
      vertex 0 13.7678 3.23223
      vertex 3 13.7678 3.23223
      vertex 0 14.5 5
    endloop
  endfacet
  facet normal 2.05142e-16 -0.382683 0.92388
    outer loop
      vertex 3 12 2.5
      vertex 3 13.7678 3.23223
      vertex 0 13.7678 3.23223
    endloop
  endfacet
  facet normal 2.05142e-16 -0.382683 0.92388
    outer loop
      vertex 0 12 2.5
      vertex 3 12 2.5
      vertex 0 13.7678 3.23223
    endloop
  endfacet
  facet normal 2.05142e-16 0.382683 0.92388
    outer loop
      vertex 3 10.2322 3.23223
      vertex 3 12 2.5
      vertex 0 12 2.5
    endloop
  endfacet
  facet normal 2.05142e-16 0.382683 0.92388
    outer loop
      vertex 0 10.2322 3.23223
      vertex 3 10.2322 3.23223
      vertex 0 12 2.5
    endloop
  endfacet
  facet normal 1 0 0
    outer loop
      vertex 3 -13.7678 3.23223
      vertex 3 -17.5 0
      vertex 3 -7 0
    endloop
  endfacet
  facet normal 1 0 0
    outer loop
      vertex 3 -12 2.5
      vertex 3 -13.7678 3.23223
      vertex 3 -7 0
    endloop
  endfacet
  facet normal 1 0 0
    outer loop
      vertex 3 -17.5 10
      vertex 3 -17.5 0
      vertex 3 -13.7678 3.23223
    endloop
  endfacet
  facet normal 1 0 0
    outer loop
      vertex 3 -9.5 5
      vertex 3 -10.2322 3.23223
      vertex 3 -7 0
    endloop
  endfacet
  facet normal 1 0 0
    outer loop
      vertex 3 -17.5 10
      vertex 3 -13.7678 3.23223
      vertex 3 -14.5 5
    endloop
  endfacet
  facet normal 1 0 0
    outer loop
      vertex 3 -7 10
      vertex 3 -17.5 10
      vertex 3 -13.7678 6.76777
    endloop
  endfacet
  facet normal 1 0 0
    outer loop
      vertex 3 -7 10
      vertex 3 -13.7678 6.76777
      vertex 3 -12 7.5
    endloop
  endfacet
  facet normal 1 0 0
    outer loop
      vertex 3 -7 10
      vertex 3 -10.2322 6.76777
      vertex 3 -7 0
    endloop
  endfacet
  facet normal 1 0 0
    outer loop
      vertex 3 -7 10
      vertex 3 -12 7.5
      vertex 3 -10.2322 6.76777
    endloop
  endfacet
  facet normal 1 0 0
    outer loop
      vertex 3 -10.2322 6.76777
      vertex 3 -9.5 5
      vertex 3 -7 0
    endloop
  endfacet
  facet normal 1 0 0
    outer loop
      vertex 3 -14.5 5
      vertex 3 -13.7678 6.76777
      vertex 3 -17.5 10
    endloop
  endfacet
  facet normal 1 0 0
    outer loop
      vertex 3 -10.2322 3.23223
      vertex 3 -12 2.5
      vertex 3 -7 0
    endloop
  endfacet
  facet normal 1 0 0
    outer loop
      vertex 24 -5 12.5
      vertex 24 -7 0
      vertex 24 7 0
    endloop
  endfacet
  facet normal 1 0 0
    outer loop
      vertex 24 -7 35
      vertex 24 -7 0
      vertex 24 -5 12.5
    endloop
  endfacet
  facet normal 1 0 0
    outer loop
      vertex 24 -5 22.5
      vertex 24 5 22.5
      vertex 24 -7 35
    endloop
  endfacet
  facet normal 1 0 0
    outer loop
      vertex 24 -7 35
      vertex 24 -5 12.5
      vertex 24 -5 22.5
    endloop
  endfacet
  facet normal 1 0 0
    outer loop
      vertex 24 7 35
      vertex 24 5 22.5
      vertex 24 7 0
    endloop
  endfacet
  facet normal 1 0 0
    outer loop
      vertex 24 7 35
      vertex 24 -7 35
      vertex 24 5 22.5
    endloop
  endfacet
  facet normal 1 0 0
    outer loop
      vertex 24 5 22.5
      vertex 24 5 12.5
      vertex 24 7 0
    endloop
  endfacet
  facet normal 1 0 0
    outer loop
      vertex 24 5 12.5
      vertex 24 -5 12.5
      vertex 24 7 0
    endloop
  endfacet
  facet normal 0 1 0
    outer loop
      vertex 17 7 0
      vertex 17 7 35
      vertex 24 7 0
    endloop
  endfacet
  facet normal 0 1 0
    outer loop
      vertex 24 7 0
      vertex 17 7 35
      vertex 24 7 35
    endloop
  endfacet
  facet normal -1 0 0
    outer loop
      vertex 17 -4 2
      vertex 17 -4 3
      vertex 17 5 2
    endloop
  endfacet
  facet normal -1 0 0
    outer loop
      vertex 17 5 2
      vertex 17 -4 3
      vertex 17 5 3
    endloop
  endfacet
  facet normal -1 0 0
    outer loop
      vertex 17 5 3
      vertex 17 7 35
      vertex 17 5 2
    endloop
  endfacet
  facet normal -1 0 0
    outer loop
      vertex 17 5 5
      vertex 17 -4 5
      vertex 17 -4 6
    endloop
  endfacet
  facet normal -1 0 0
    outer loop
      vertex 17 5 5
      vertex 17 -4 6
      vertex 17 5 6
    endloop
  endfacet
  facet normal -1 0 0
    outer loop
      vertex 17 5 5
      vertex 17 7 35
      vertex 17 5 3
    endloop
  endfacet
  facet normal -1 0 0
    outer loop
      vertex 17 5 6
      vertex 17 7 35
      vertex 17 5 5
    endloop
  endfacet
  facet normal -1 0 0
    outer loop
      vertex 17 5 8
      vertex 17 -4 8
      vertex 17 -4 9
    endloop
  endfacet
  facet normal -1 0 0
    outer loop
      vertex 17 5 8
      vertex 17 -4 9
      vertex 17 5 9
    endloop
  endfacet
  facet normal -1 0 0
    outer loop
      vertex 17 5 8
      vertex 17 7 35
      vertex 17 5 6
    endloop
  endfacet
  facet normal -1 0 0
    outer loop
      vertex 17 5 9
      vertex 17 7 35
      vertex 17 5 8
    endloop
  endfacet
  facet normal -1 0 0
    outer loop
      vertex 17 5 11
      vertex 17 -4 11
      vertex 17 -4 12
    endloop
  endfacet
  facet normal -1 0 0
    outer loop
      vertex 17 5 11
      vertex 17 -4 12
      vertex 17 5 12
    endloop
  endfacet
  facet normal -1 0 0
    outer loop
      vertex 17 5 11
      vertex 17 7 35
      vertex 17 5 9
    endloop
  endfacet
  facet normal -1 0 0
    outer loop
      vertex 17 5 12
      vertex 17 7 35
      vertex 17 5 11
    endloop
  endfacet
  facet normal -1 0 0
    outer loop
      vertex 17 5 23
      vertex 17 -4 23
      vertex 17 -4 24
    endloop
  endfacet
  facet normal -1 0 0
    outer loop
      vertex 17 5 23
      vertex 17 -4 24
      vertex 17 5 24
    endloop
  endfacet
  facet normal -1 0 0
    outer loop
      vertex 17 5 23
      vertex 17 7 35
      vertex 17 5 12
    endloop
  endfacet
  facet normal -1 0 0
    outer loop
      vertex 17 5 24
      vertex 17 7 35
      vertex 17 5 23
    endloop
  endfacet
  facet normal -1 0 0
    outer loop
      vertex 17 5 26
      vertex 17 -4 26
      vertex 17 -4 27
    endloop
  endfacet
  facet normal -1 0 0
    outer loop
      vertex 17 5 26
      vertex 17 -4 27
      vertex 17 5 27
    endloop
  endfacet
  facet normal -1 0 0
    outer loop
      vertex 17 5 26
      vertex 17 7 35
      vertex 17 5 24
    endloop
  endfacet
  facet normal -1 0 0
    outer loop
      vertex 17 5 27
      vertex 17 7 35
      vertex 17 5 26
    endloop
  endfacet
  facet normal -1 0 0
    outer loop
      vertex 17 5 29
      vertex 17 -4 29
      vertex 17 -4 30
    endloop
  endfacet
  facet normal -1 0 0
    outer loop
      vertex 17 5 29
      vertex 17 -4 30
      vertex 17 5 30
    endloop
  endfacet
  facet normal -1 0 0
    outer loop
      vertex 17 5 29
      vertex 17 7 35
      vertex 17 5 27
    endloop
  endfacet
  facet normal -1 0 0
    outer loop
      vertex 17 5 30
      vertex 17 7 35
      vertex 17 5 29
    endloop
  endfacet
  facet normal -1 0 0
    outer loop
      vertex 17 5 32
      vertex 17 -4 32
      vertex 17 -4 33
    endloop
  endfacet
  facet normal -1 0 0
    outer loop
      vertex 17 5 32
      vertex 17 -4 33
      vertex 17 5 33
    endloop
  endfacet
  facet normal -1 0 0
    outer loop
      vertex 17 5 32
      vertex 17 7 35
      vertex 17 5 30
    endloop
  endfacet
  facet normal -1 0 0
    outer loop
      vertex 17 5 33
      vertex 17 5 35
      vertex 17 7 35
    endloop
  endfacet
  facet normal -1 0 0
    outer loop
      vertex 17 5 33
      vertex 17 7 35
      vertex 17 5 32
    endloop
  endfacet
  facet normal -1 0 0
    outer loop
      vertex 17 5 2
      vertex 17 7 35
      vertex 17 7 0
    endloop
  endfacet
  facet normal -1 0 0
    outer loop
      vertex 17 5 2
      vertex 17 7 0
      vertex 17 5 0
    endloop
  endfacet
  facet normal 0 -1 0
    outer loop
      vertex 18.5 5 0
      vertex 18.5 5 2
      vertex 17 5 2
    endloop
  endfacet
  facet normal 0 -1 0
    outer loop
      vertex 17 5 0
      vertex 18.5 5 0
      vertex 17 5 2
    endloop
  endfacet
  facet normal -1 0 0
    outer loop
      vertex 18.5 5 2
      vertex 18.5 5 0
      vertex 18.5 -4 2
    endloop
  endfacet
  facet normal -1 0 0
    outer loop
      vertex 18.5 -4 2
      vertex 18.5 5 0
      vertex 18.5 -4 0
    endloop
  endfacet
  facet normal 0 1 0
    outer loop
      vertex 18.5 -4 5
      vertex 18.5 -4 3
      vertex 17 -4 5
    endloop
  endfacet
  facet normal 0 1 0
    outer loop
      vertex 18.5 -4 33
      vertex 16 -4 35
      vertex 18.5 -4 35
    endloop
  endfacet
  facet normal 0 1 0
    outer loop
      vertex 17 -4 33
      vertex 16 -4 35
      vertex 18.5 -4 33
    endloop
  endfacet
  facet normal 0 1 0
    outer loop
      vertex 17 -4 32
      vertex 16 -4 35
      vertex 17 -4 33
    endloop
  endfacet
  facet normal 0 1 0
    outer loop
      vertex 17 -4 30
      vertex 16 -4 35
      vertex 17 -4 32
    endloop
  endfacet
  facet normal 0 1 0
    outer loop
      vertex 17 -4 30
      vertex 17 -4 32
      vertex 18.5 -4 30
    endloop
  endfacet
  facet normal 0 1 0
    outer loop
      vertex 17 -4 29
      vertex 16 -4 35
      vertex 17 -4 30
    endloop
  endfacet
  facet normal 0 1 0
    outer loop
      vertex 17 -4 27
      vertex 16 -4 35
      vertex 17 -4 29
    endloop
  endfacet
  facet normal 0 1 0
    outer loop
      vertex 17 -4 24
      vertex 17 -4 26
      vertex 18.5 -4 24
    endloop
  endfacet
  facet normal 0 1 0
    outer loop
      vertex 17 -4 26
      vertex 16 -4 35
      vertex 17 -4 27
    endloop
  endfacet
  facet normal 0 1 0
    outer loop
      vertex 18.5 -4 8
      vertex 18.5 -4 6
      vertex 17 -4 8
    endloop
  endfacet
  facet normal 0 1 0
    outer loop
      vertex 17 -4 24
      vertex 16 -4 35
      vertex 17 -4 26
    endloop
  endfacet
  facet normal 0 1 0
    outer loop
      vertex 17 -4 23
      vertex 16 -4 35
      vertex 17 -4 24
    endloop
  endfacet
  facet normal 0 1 0
    outer loop
      vertex 17 -4 9
      vertex 17 -4 11
      vertex 18.5 -4 9
    endloop
  endfacet
  facet normal 0 1 0
    outer loop
      vertex 18.5 -4 22.5
      vertex 19.5 -4 22.5
      vertex 18.5 -4 12.5
    endloop
  endfacet
  facet normal 0 1 0
    outer loop
      vertex 17 -4 12
      vertex 16 -4 35
      vertex 17 -4 23
    endloop
  endfacet
  facet normal 0 1 0
    outer loop
      vertex 16 -4 0
      vertex 16 -4 35
      vertex 17 -4 12
    endloop
  endfacet
  facet normal 0 1 0
    outer loop
      vertex 16 -4 0
      vertex 17 -4 12
      vertex 17 -4 11
    endloop
  endfacet
  facet normal 0 1 0
    outer loop
      vertex 17 -4 12
      vertex 17 -4 23
      vertex 18.5 -4 12
    endloop
  endfacet
  facet normal 0 1 0
    outer loop
      vertex 16 -4 0
      vertex 17 -4 11
      vertex 17 -4 9
    endloop
  endfacet
  facet normal 0 1 0
    outer loop
      vertex 16 -4 0
      vertex 17 -4 9
      vertex 17 -4 8
    endloop
  endfacet
  facet normal 0 1 0
    outer loop
      vertex 17 -4 6
      vertex 17 -4 8
      vertex 18.5 -4 6
    endloop
  endfacet
  facet normal 0 1 0
    outer loop
      vertex 16 -4 0
      vertex 17 -4 8
      vertex 17 -4 6
    endloop
  endfacet
  facet normal 0 1 0
    outer loop
      vertex 16 -4 0
      vertex 17 -4 6
      vertex 17 -4 5
    endloop
  endfacet
  facet normal 0 1 0
    outer loop
      vertex 18.5 -4 2
      vertex 18.5 -4 0
      vertex 17 -4 2
    endloop
  endfacet
  facet normal 0 1 0
    outer loop
      vertex 18.5 -4 12.5
      vertex 19.5 -4 22.5
      vertex 19.5 -4 12.5
    endloop
  endfacet
  facet normal 0 1 0
    outer loop
      vertex 17 -4 3
      vertex 17 -4 5
      vertex 18.5 -4 3
    endloop
  endfacet
  facet normal 0 1 0
    outer loop
      vertex 16 -4 0
      vertex 17 -4 5
      vertex 17 -4 3
    endloop
  endfacet
  facet normal 0 1 0
    outer loop
      vertex 16 -4 0
      vertex 17 -4 3
      vertex 17 -4 2
    endloop
  endfacet
  facet normal 0 1 0
    outer loop
      vertex 16 -4 0
      vertex 17 -4 2
      vertex 18.5 -4 0
    endloop
  endfacet
  facet normal 0 1 0
    outer loop
      vertex 17 -4 27
      vertex 17 -4 29
      vertex 18.5 -4 27
    endloop
  endfacet
  facet normal 0 1 0
    outer loop
      vertex 18.5 -4 11
      vertex 18.5 -4 9
      vertex 17 -4 11
    endloop
  endfacet
  facet normal 0 1 0
    outer loop
      vertex 18.5 -4 12.5
      vertex 18.5 -4 12
      vertex 17 -4 23
    endloop
  endfacet
  facet normal 0 1 0
    outer loop
      vertex 18.5 -4 22.5
      vertex 18.5 -4 12.5
      vertex 17 -4 23
    endloop
  endfacet
  facet normal 0 1 0
    outer loop
      vertex 18.5 -4 23
      vertex 18.5 -4 22.5
      vertex 17 -4 23
    endloop
  endfacet
  facet normal 0 1 0
    outer loop
      vertex 18.5 -4 26
      vertex 18.5 -4 24
      vertex 17 -4 26
    endloop
  endfacet
  facet normal 0 1 0
    outer loop
      vertex 18.5 -4 29
      vertex 18.5 -4 27
      vertex 17 -4 29
    endloop
  endfacet
  facet normal 0 1 0
    outer loop
      vertex 18.5 -4 32
      vertex 18.5 -4 30
      vertex 17 -4 32
    endloop
  endfacet
  facet normal 1 0 0
    outer loop
      vertex 16 -4 35
      vertex 16 -4 0
      vertex 16 7 0
    endloop
  endfacet
  facet normal 1 0 0
    outer loop
      vertex 16 7 35
      vertex 16 -4 35
      vertex 16 7 0
    endloop
  endfacet
  facet normal 1 0 0
    outer loop
      vertex 3 10.2322 3.23223
      vertex 3 7 0
      vertex 3 17.5 0
    endloop
  endfacet
  facet normal 1 0 0
    outer loop
      vertex 3 12 2.5
      vertex 3 10.2322 3.23223
      vertex 3 17.5 0
    endloop
  endfacet
  facet normal 1 0 0
    outer loop
      vertex 3 7 10
      vertex 3 7 0
      vertex 3 10.2322 3.23223
    endloop
  endfacet
  facet normal 1 0 0
    outer loop
      vertex 3 7 10
      vertex 3 10.2322 3.23223
      vertex 3 9.5 5
    endloop
  endfacet
  facet normal 1 0 0
    outer loop
      vertex 3 7 10
      vertex 3 9.5 5
      vertex 3 10.2322 6.76777
    endloop
  endfacet
  facet normal 1 0 0
    outer loop
      vertex 3 17.5 10
      vertex 3 7 10
      vertex 3 12 7.5
    endloop
  endfacet
  facet normal 1 0 0
    outer loop
      vertex 3 17.5 10
      vertex 3 13.7678 6.76777
      vertex 3 17.5 0
    endloop
  endfacet
  facet normal 1 0 0
    outer loop
      vertex 3 17.5 10
      vertex 3 12 7.5
      vertex 3 13.7678 6.76777
    endloop
  endfacet
  facet normal 1 0 0
    outer loop
      vertex 3 13.7678 6.76777
      vertex 3 14.5 5
      vertex 3 17.5 0
    endloop
  endfacet
  facet normal 1 0 0
    outer loop
      vertex 3 13.7678 3.23223
      vertex 3 12 2.5
      vertex 3 17.5 0
    endloop
  endfacet
  facet normal 1 0 0
    outer loop
      vertex 3 10.2322 6.76777
      vertex 3 12 7.5
      vertex 3 7 10
    endloop
  endfacet
  facet normal 1 0 0
    outer loop
      vertex 3 14.5 5
      vertex 3 13.7678 3.23223
      vertex 3 17.5 0
    endloop
  endfacet
  facet normal 0 0 1
    outer loop
      vertex 18.5 -4 35
      vertex 3 -7 35
      vertex 24 -7 35
    endloop
  endfacet
  facet normal 0 0 1
    outer loop
      vertex 24 7 35
      vertex 18.5 5 35
      vertex 24 -7 35
    endloop
  endfacet
  facet normal 0 0 1
    outer loop
      vertex 24 7 35
      vertex 17 7 35
      vertex 18.5 5 35
    endloop
  endfacet
  facet normal 0 0 1
    outer loop
      vertex 16 -4 35
      vertex 3 -7 35
      vertex 18.5 -4 35
    endloop
  endfacet
  facet normal 0 0 1
    outer loop
      vertex 3 7 35
      vertex 3 -7 35
      vertex 16 -4 35
    endloop
  endfacet
  facet normal 0 0 1
    outer loop
      vertex 16 -4 35
      vertex 16 7 35
      vertex 3 7 35
    endloop
  endfacet
  facet normal 0 0 1
    outer loop
      vertex 17 5 35
      vertex 18.5 5 35
      vertex 17 7 35
    endloop
  endfacet
  facet normal 0 0 1
    outer loop
      vertex 18.5 5 35
      vertex 18.5 -4 35
      vertex 24 -7 35
    endloop
  endfacet
  facet normal 1 0 0
    outer loop
      vertex 3 0 37.5
      vertex 3 -7 35
      vertex 3 7 35
    endloop
  endfacet
  facet normal 1 0 0
    outer loop
      vertex 3 -7 45
      vertex 3 -7 35
      vertex 3 -1.76777 38.2322
    endloop
  endfacet
  facet normal 1 0 0
    outer loop
      vertex 3 -7 45
      vertex 3 -1.76777 38.2322
      vertex 3 -2.5 40
    endloop
  endfacet
  facet normal 1 0 0
    outer loop
      vertex 3 0 42.5
      vertex 3 -7 45
      vertex 3 -1.76777 41.7678
    endloop
  endfacet
  facet normal 1 0 0
    outer loop
      vertex 3 2.5 40
      vertex 3 1.76777 38.2322
      vertex 3 7 35
    endloop
  endfacet
  facet normal 1 0 0
    outer loop
      vertex 3 7 45
      vertex 3 -7 45
      vertex 3 0 42.5
    endloop
  endfacet
  facet normal 1 0 0
    outer loop
      vertex 3 7 45
      vertex 3 1.76777 41.7678
      vertex 3 7 35
    endloop
  endfacet
  facet normal 1 0 0
    outer loop
      vertex 3 1.76777 41.7678
      vertex 3 2.5 40
      vertex 3 7 35
    endloop
  endfacet
  facet normal 1 0 0
    outer loop
      vertex 3 0 42.5
      vertex 3 1.76777 41.7678
      vertex 3 7 45
    endloop
  endfacet
  facet normal 1 0 0
    outer loop
      vertex 3 1.76777 38.2322
      vertex 3 0 37.5
      vertex 3 7 35
    endloop
  endfacet
  facet normal 1 0 0
    outer loop
      vertex 3 -1.76777 38.2322
      vertex 3 -7 35
      vertex 3 0 37.5
    endloop
  endfacet
  facet normal 1 0 0
    outer loop
      vertex 3 -2.5 40
      vertex 3 -1.76777 41.7678
      vertex 3 -7 45
    endloop
  endfacet
  facet normal 0 0 1
    outer loop
      vertex 19.5 -4 12.5
      vertex 19.5 -5 12.5
      vertex 24 -5 12.5
    endloop
  endfacet
  facet normal 0 0 1
    outer loop
      vertex 18.5 5 12.5
      vertex 19.5 -4 12.5
      vertex 24 5 12.5
    endloop
  endfacet
  facet normal 0 0 1
    outer loop
      vertex 24 5 12.5
      vertex 19.5 -4 12.5
      vertex 24 -5 12.5
    endloop
  endfacet
  facet normal 0 0 1
    outer loop
      vertex 18.5 -4 12.5
      vertex 19.5 -4 12.5
      vertex 18.5 5 12.5
    endloop
  endfacet
  facet normal 0 1 0
    outer loop
      vertex 24 -5 22.5
      vertex 24 -5 12.5
      vertex 19.5 -5 22.5
    endloop
  endfacet
  facet normal 0 1 0
    outer loop
      vertex 19.5 -5 22.5
      vertex 24 -5 12.5
      vertex 19.5 -5 12.5
    endloop
  endfacet
  facet normal 0 -1 0
    outer loop
      vertex 24 5 22.5
      vertex 18.5 5 12.5
      vertex 24 5 12.5
    endloop
  endfacet
  facet normal 0 -1 0
    outer loop
      vertex 18.5 5 22.5
      vertex 18.5 5 12.5
      vertex 24 5 22.5
    endloop
  endfacet
  facet normal 0 -1 0
    outer loop
      vertex 18.5 5 12
      vertex 18.5 5 12.5
      vertex 17 5 23
    endloop
  endfacet
  facet normal 0 -1 0
    outer loop
      vertex 17 5 23
      vertex 18.5 5 12.5
      vertex 18.5 5 22.5
    endloop
  endfacet
  facet normal 0 -1 0
    outer loop
      vertex 17 5 23
      vertex 18.5 5 22.5
      vertex 18.5 5 23
    endloop
  endfacet
  facet normal 0 -1 0
    outer loop
      vertex 17 5 12
      vertex 18.5 5 12
      vertex 17 5 23
    endloop
  endfacet
  facet normal 0 0 -1
    outer loop
      vertex 24 5 22.5
      vertex 24 -5 22.5
      vertex 18.5 5 22.5
    endloop
  endfacet
  facet normal 0 0 -1
    outer loop
      vertex 19.5 -4 22.5
      vertex 24 -5 22.5
      vertex 19.5 -5 22.5
    endloop
  endfacet
  facet normal 0 0 -1
    outer loop
      vertex 18.5 5 22.5
      vertex 24 -5 22.5
      vertex 19.5 -4 22.5
    endloop
  endfacet
  facet normal 0 0 -1
    outer loop
      vertex 18.5 -4 22.5
      vertex 18.5 5 22.5
      vertex 19.5 -4 22.5
    endloop
  endfacet
  facet normal 0 0 -1
    outer loop
      vertex 18.5 5 2
      vertex 18.5 -4 2
      vertex 17 5 2
    endloop
  endfacet
  facet normal 0 0 -1
    outer loop
      vertex 17 5 2
      vertex 18.5 -4 2
      vertex 17 -4 2
    endloop
  endfacet
  facet normal 0 -1 0
    outer loop
      vertex 18.5 5 33
      vertex 18.5 5 35
      vertex 17 5 35
    endloop
  endfacet
  facet normal 0 -1 0
    outer loop
      vertex 17 5 33
      vertex 18.5 5 33
      vertex 17 5 35
    endloop
  endfacet
  facet normal 0 0 1
    outer loop
      vertex 18.5 -4 33
      vertex 18.5 5 33
      vertex 17 5 33
    endloop
  endfacet
  facet normal 0 0 1
    outer loop
      vertex 17 -4 33
      vertex 18.5 -4 33
      vertex 17 5 33
    endloop
  endfacet
  facet normal 0 0 -1
    outer loop
      vertex 18.5 5 32
      vertex 18.5 -4 32
      vertex 17 5 32
    endloop
  endfacet
  facet normal 0 0 -1
    outer loop
      vertex 17 5 32
      vertex 18.5 -4 32
      vertex 17 -4 32
    endloop
  endfacet
  facet normal 0 -1 0
    outer loop
      vertex 18.5 5 30
      vertex 18.5 5 32
      vertex 17 5 32
    endloop
  endfacet
  facet normal 0 -1 0
    outer loop
      vertex 17 5 30
      vertex 18.5 5 30
      vertex 17 5 32
    endloop
  endfacet
  facet normal 0 0 1
    outer loop
      vertex 18.5 -4 30
      vertex 18.5 5 30
      vertex 17 5 30
    endloop
  endfacet
  facet normal 0 0 1
    outer loop
      vertex 17 -4 30
      vertex 18.5 -4 30
      vertex 17 5 30
    endloop
  endfacet
  facet normal 0 0 -1
    outer loop
      vertex 18.5 5 29
      vertex 18.5 -4 29
      vertex 17 5 29
    endloop
  endfacet
  facet normal 0 0 -1
    outer loop
      vertex 17 5 29
      vertex 18.5 -4 29
      vertex 17 -4 29
    endloop
  endfacet
  facet normal 0 -1 0
    outer loop
      vertex 18.5 5 27
      vertex 18.5 5 29
      vertex 17 5 29
    endloop
  endfacet
  facet normal 0 -1 0
    outer loop
      vertex 17 5 27
      vertex 18.5 5 27
      vertex 17 5 29
    endloop
  endfacet
  facet normal 0 0 1
    outer loop
      vertex 18.5 -4 27
      vertex 18.5 5 27
      vertex 17 5 27
    endloop
  endfacet
  facet normal 0 0 1
    outer loop
      vertex 17 -4 27
      vertex 18.5 -4 27
      vertex 17 5 27
    endloop
  endfacet
  facet normal 0 0 -1
    outer loop
      vertex 18.5 5 26
      vertex 18.5 -4 26
      vertex 17 5 26
    endloop
  endfacet
  facet normal 0 0 -1
    outer loop
      vertex 17 5 26
      vertex 18.5 -4 26
      vertex 17 -4 26
    endloop
  endfacet
  facet normal 0 -1 0
    outer loop
      vertex 18.5 5 24
      vertex 18.5 5 26
      vertex 17 5 26
    endloop
  endfacet
  facet normal 0 -1 0
    outer loop
      vertex 17 5 24
      vertex 18.5 5 24
      vertex 17 5 26
    endloop
  endfacet
  facet normal 0 0 1
    outer loop
      vertex 18.5 -4 24
      vertex 18.5 5 24
      vertex 17 5 24
    endloop
  endfacet
  facet normal 0 0 1
    outer loop
      vertex 17 -4 24
      vertex 18.5 -4 24
      vertex 17 5 24
    endloop
  endfacet
  facet normal 0 0 -1
    outer loop
      vertex 18.5 5 23
      vertex 18.5 -4 23
      vertex 17 5 23
    endloop
  endfacet
  facet normal 0 0 -1
    outer loop
      vertex 17 5 23
      vertex 18.5 -4 23
      vertex 17 -4 23
    endloop
  endfacet
  facet normal 0 0 1
    outer loop
      vertex 18.5 -4 12
      vertex 18.5 5 12
      vertex 17 5 12
    endloop
  endfacet
  facet normal 0 0 1
    outer loop
      vertex 17 -4 12
      vertex 18.5 -4 12
      vertex 17 5 12
    endloop
  endfacet
  facet normal 0 0 -1
    outer loop
      vertex 18.5 5 11
      vertex 18.5 -4 11
      vertex 17 5 11
    endloop
  endfacet
  facet normal 0 0 -1
    outer loop
      vertex 17 5 11
      vertex 18.5 -4 11
      vertex 17 -4 11
    endloop
  endfacet
  facet normal 0 -1 0
    outer loop
      vertex 18.5 5 9
      vertex 18.5 5 11
      vertex 17 5 11
    endloop
  endfacet
  facet normal 0 -1 0
    outer loop
      vertex 17 5 9
      vertex 18.5 5 9
      vertex 17 5 11
    endloop
  endfacet
  facet normal 0 0 1
    outer loop
      vertex 18.5 -4 9
      vertex 18.5 5 9
      vertex 17 5 9
    endloop
  endfacet
  facet normal 0 0 1
    outer loop
      vertex 17 -4 9
      vertex 18.5 -4 9
      vertex 17 5 9
    endloop
  endfacet
  facet normal 0 0 -1
    outer loop
      vertex 18.5 5 8
      vertex 18.5 -4 8
      vertex 17 5 8
    endloop
  endfacet
  facet normal 0 0 -1
    outer loop
      vertex 17 5 8
      vertex 18.5 -4 8
      vertex 17 -4 8
    endloop
  endfacet
  facet normal 0 -1 0
    outer loop
      vertex 18.5 5 6
      vertex 18.5 5 8
      vertex 17 5 8
    endloop
  endfacet
  facet normal 0 -1 0
    outer loop
      vertex 17 5 6
      vertex 18.5 5 6
      vertex 17 5 8
    endloop
  endfacet
  facet normal 0 0 1
    outer loop
      vertex 18.5 -4 6
      vertex 18.5 5 6
      vertex 17 5 6
    endloop
  endfacet
  facet normal 0 0 1
    outer loop
      vertex 17 -4 6
      vertex 18.5 -4 6
      vertex 17 5 6
    endloop
  endfacet
  facet normal 0 0 -1
    outer loop
      vertex 18.5 5 5
      vertex 18.5 -4 5
      vertex 17 5 5
    endloop
  endfacet
  facet normal 0 0 -1
    outer loop
      vertex 17 5 5
      vertex 18.5 -4 5
      vertex 17 -4 5
    endloop
  endfacet
  facet normal 0 -1 0
    outer loop
      vertex 18.5 5 3
      vertex 18.5 5 5
      vertex 17 5 5
    endloop
  endfacet
  facet normal 0 -1 0
    outer loop
      vertex 17 5 3
      vertex 18.5 5 3
      vertex 17 5 5
    endloop
  endfacet
  facet normal 0 0 1
    outer loop
      vertex 18.5 -4 3
      vertex 18.5 5 3
      vertex 17 5 3
    endloop
  endfacet
  facet normal 0 0 1
    outer loop
      vertex 17 -4 3
      vertex 18.5 -4 3
      vertex 17 5 3
    endloop
  endfacet
  facet normal -1 0 0
    outer loop
      vertex 18.5 5 5
      vertex 18.5 5 3
      vertex 18.5 -4 5
    endloop
  endfacet
  facet normal -1 0 0
    outer loop
      vertex 18.5 -4 5
      vertex 18.5 5 3
      vertex 18.5 -4 3
    endloop
  endfacet
  facet normal -1 0 0
    outer loop
      vertex 18.5 5 8
      vertex 18.5 5 6
      vertex 18.5 -4 8
    endloop
  endfacet
  facet normal -1 0 0
    outer loop
      vertex 18.5 -4 8
      vertex 18.5 5 6
      vertex 18.5 -4 6
    endloop
  endfacet
  facet normal -1 0 0
    outer loop
      vertex 18.5 5 11
      vertex 18.5 5 9
      vertex 18.5 -4 11
    endloop
  endfacet
  facet normal -1 0 0
    outer loop
      vertex 18.5 -4 11
      vertex 18.5 5 9
      vertex 18.5 -4 9
    endloop
  endfacet
  facet normal -1 0 0
    outer loop
      vertex 18.5 5 12.5
      vertex 18.5 5 12
      vertex 18.5 -4 12.5
    endloop
  endfacet
  facet normal -1 0 0
    outer loop
      vertex 18.5 -4 12.5
      vertex 18.5 5 12
      vertex 18.5 -4 12
    endloop
  endfacet
  facet normal 1 0 0
    outer loop
      vertex 19.5 -5 22.5
      vertex 19.5 -5 12.5
      vertex 19.5 -4 12.5
    endloop
  endfacet
  facet normal 1 0 0
    outer loop
      vertex 19.5 -4 22.5
      vertex 19.5 -5 22.5
      vertex 19.5 -4 12.5
    endloop
  endfacet
  facet normal -1 0 0
    outer loop
      vertex 18.5 5 23
      vertex 18.5 5 22.5
      vertex 18.5 -4 23
    endloop
  endfacet
  facet normal -1 0 0
    outer loop
      vertex 18.5 -4 23
      vertex 18.5 5 22.5
      vertex 18.5 -4 22.5
    endloop
  endfacet
  facet normal -1 0 0
    outer loop
      vertex 18.5 5 26
      vertex 18.5 5 24
      vertex 18.5 -4 26
    endloop
  endfacet
  facet normal -1 0 0
    outer loop
      vertex 18.5 -4 26
      vertex 18.5 5 24
      vertex 18.5 -4 24
    endloop
  endfacet
  facet normal -1 0 0
    outer loop
      vertex 18.5 5 29
      vertex 18.5 5 27
      vertex 18.5 -4 29
    endloop
  endfacet
  facet normal -1 0 0
    outer loop
      vertex 18.5 -4 29
      vertex 18.5 5 27
      vertex 18.5 -4 27
    endloop
  endfacet
  facet normal -1 0 0
    outer loop
      vertex 18.5 5 32
      vertex 18.5 5 30
      vertex 18.5 -4 32
    endloop
  endfacet
  facet normal -1 0 0
    outer loop
      vertex 18.5 -4 32
      vertex 18.5 5 30
      vertex 18.5 -4 30
    endloop
  endfacet
  facet normal -1 0 0
    outer loop
      vertex 18.5 5 35
      vertex 18.5 5 33
      vertex 18.5 -4 35
    endloop
  endfacet
  facet normal -1 0 0
    outer loop
      vertex 18.5 -4 35
      vertex 18.5 5 33
      vertex 18.5 -4 33
    endloop
  endfacet
endsolid OpenSCAD_Model
