solid OpenSCAD_Model
  facet normal -1 0 0
    outer loop
      vertex -20 -2.5 0
      vertex -20 -2.5 14
      vertex -20 2.5 0
    endloop
  endfacet
  facet normal -1 0 0
    outer loop
      vertex -20 2.5 0
      vertex -20 -2.5 14
      vertex -20 2.5 14
    endloop
  endfacet
  facet normal 0 -1 0
    outer loop
      vertex -10.75 -2.5 4.83494
      vertex -20 -2.5 0
      vertex 20 -2.5 0
    endloop
  endfacet
  facet normal 0 -1 0
    outer loop
      vertex 11.2275 -2.5 4.62236
      vertex -20 -2.5 14
      vertex 20 -2.5 0
    endloop
  endfacet
  facet normal 0 -1 0
    outer loop
      vertex -11.2275 -2.5 4.62236
      vertex -11.7387 -2.5 4.5137
      vertex -20 -2.5 0
    endloop
  endfacet
  facet normal 0 -1 0
    outer loop
      vertex -20 -2.5 14
      vertex -20 -2.5 0
      vertex -14.4454 -2.5 6.48022
    endloop
  endfacet
  facet normal 0 -1 0
    outer loop
      vertex -9.71614 -2.5 5.98316
      vertex -9.97746 -2.5 5.53054
      vertex 20 -2.5 0
    endloop
  endfacet
  facet normal 0 -1 0
    outer loop
      vertex -20 -2.5 14
      vertex -14.4454 -2.5 6.48022
      vertex -14.5 -2.5 7
    endloop
  endfacet
  facet normal 0 -1 0
    outer loop
      vertex 11.7387 -2.5 9.4863
      vertex 12.2613 -2.5 9.4863
      vertex 20 -2.5 14
    endloop
  endfacet
  facet normal 0 -1 0
    outer loop
      vertex -20 -2.5 14
      vertex -14.5 -2.5 7
      vertex -14.4454 -2.5 7.51978
    endloop
  endfacet
  facet normal 0 -1 0
    outer loop
      vertex -20 -2.5 14
      vertex -14.4454 -2.5 7.51978
      vertex -14.2839 -2.5 8.01684
    endloop
  endfacet
  facet normal 0 -1 0
    outer loop
      vertex -9.5 -2.5 7
      vertex -9.55463 -2.5 6.48022
      vertex 20 -2.5 0
    endloop
  endfacet
  facet normal 0 -1 0
    outer loop
      vertex -20 -2.5 14
      vertex -14.2839 -2.5 8.01684
      vertex -14.0225 -2.5 8.46946
    endloop
  endfacet
  facet normal 0 -1 0
    outer loop
      vertex -9.55463 -2.5 7.51978
      vertex -9.5 -2.5 7
      vertex 20 -2.5 0
    endloop
  endfacet
  facet normal 0 -1 0
    outer loop
      vertex -20 -2.5 14
      vertex -14.0225 -2.5 8.46946
      vertex -13.6728 -2.5 8.85786
    endloop
  endfacet
  facet normal 0 -1 0
    outer loop
      vertex -9.71614 -2.5 8.01684
      vertex -9.55463 -2.5 7.51978
      vertex 20 -2.5 0
    endloop
  endfacet
  facet normal 0 -1 0
    outer loop
      vertex -20 -2.5 14
      vertex -13.6728 -2.5 8.85786
      vertex -13.25 -2.5 9.16506
    endloop
  endfacet
  facet normal 0 -1 0
    outer loop
      vertex -9.97746 -2.5 8.46946
      vertex -9.71614 -2.5 8.01684
      vertex 20 -2.5 0
    endloop
  endfacet
  facet normal 0 -1 0
    outer loop
      vertex -20 -2.5 14
      vertex -13.25 -2.5 9.16506
      vertex -12.7725 -2.5 9.37764
    endloop
  endfacet
  facet normal 0 -1 0
    outer loop
      vertex -10.3272 -2.5 8.85786
      vertex -9.97746 -2.5 8.46946
      vertex 20 -2.5 0
    endloop
  endfacet
  facet normal 0 -1 0
    outer loop
      vertex -20 -2.5 14
      vertex -12.7725 -2.5 9.37764
      vertex -12.2613 -2.5 9.4863
    endloop
  endfacet
  facet normal 0 -1 0
    outer loop
      vertex -10.75 -2.5 9.16506
      vertex -10.3272 -2.5 8.85786
      vertex 20 -2.5 0
    endloop
  endfacet
  facet normal 0 -1 0
    outer loop
      vertex -20 -2.5 14
      vertex -12.2613 -2.5 9.4863
      vertex -11.7387 -2.5 9.4863
    endloop
  endfacet
  facet normal 0 -1 0
    outer loop
      vertex -20 -2.5 14
      vertex -11.2275 -2.5 9.37764
      vertex 20 -2.5 0
    endloop
  endfacet
  facet normal 0 -1 0
    outer loop
      vertex -20 -2.5 14
      vertex -11.7387 -2.5 9.4863
      vertex -11.2275 -2.5 9.37764
    endloop
  endfacet
  facet normal 0 -1 0
    outer loop
      vertex -9.97746 -2.5 5.53054
      vertex -10.3272 -2.5 5.14214
      vertex 20 -2.5 0
    endloop
  endfacet
  facet normal 0 -1 0
    outer loop
      vertex -10.3272 -2.5 5.14214
      vertex -10.75 -2.5 4.83494
      vertex 20 -2.5 0
    endloop
  endfacet
  facet normal 0 -1 0
    outer loop
      vertex -11.2275 -2.5 4.62236
      vertex -20 -2.5 0
      vertex -10.75 -2.5 4.83494
    endloop
  endfacet
  facet normal 0 -1 0
    outer loop
      vertex -11.7387 -2.5 4.5137
      vertex -12.2613 -2.5 4.5137
      vertex -20 -2.5 0
    endloop
  endfacet
  facet normal 0 -1 0
    outer loop
      vertex 11.2275 -2.5 9.37764
      vertex 11.7387 -2.5 9.4863
      vertex 20 -2.5 14
    endloop
  endfacet
  facet normal 0 -1 0
    outer loop
      vertex -12.7725 -2.5 4.62236
      vertex -20 -2.5 0
      vertex -12.2613 -2.5 4.5137
    endloop
  endfacet
  facet normal 0 -1 0
    outer loop
      vertex -13.25 -2.5 4.83494
      vertex -20 -2.5 0
      vertex -12.7725 -2.5 4.62236
    endloop
  endfacet
  facet normal 0 -1 0
    outer loop
      vertex -13.6728 -2.5 5.14214
      vertex -20 -2.5 0
      vertex -13.25 -2.5 4.83494
    endloop
  endfacet
  facet normal 0 -1 0
    outer loop
      vertex -14.0225 -2.5 5.53054
      vertex -20 -2.5 0
      vertex -13.6728 -2.5 5.14214
    endloop
  endfacet
  facet normal 0 -1 0
    outer loop
      vertex -14.2839 -2.5 5.98316
      vertex -20 -2.5 0
      vertex -14.0225 -2.5 5.53054
    endloop
  endfacet
  facet normal 0 -1 0
    outer loop
      vertex -14.4454 -2.5 6.48022
      vertex -20 -2.5 0
      vertex -14.2839 -2.5 5.98316
    endloop
  endfacet
  facet normal 0 -1 0
    outer loop
      vertex 11.2275 -2.5 4.62236
      vertex 10.75 -2.5 4.83494
      vertex -20 -2.5 14
    endloop
  endfacet
  facet normal 0 -1 0
    outer loop
      vertex 9.5 -2.5 7
      vertex -20 -2.5 14
      vertex 9.55463 -2.5 6.48022
    endloop
  endfacet
  facet normal 0 -1 0
    outer loop
      vertex 9.55463 -2.5 7.51978
      vertex -20 -2.5 14
      vertex 9.5 -2.5 7
    endloop
  endfacet
  facet normal 0 -1 0
    outer loop
      vertex 9.71614 -2.5 8.01684
      vertex -20 -2.5 14
      vertex 9.55463 -2.5 7.51978
    endloop
  endfacet
  facet normal 0 -1 0
    outer loop
      vertex 9.97746 -2.5 8.46946
      vertex -20 -2.5 14
      vertex 9.71614 -2.5 8.01684
    endloop
  endfacet
  facet normal 0 -1 0
    outer loop
      vertex 12.2613 -2.5 9.4863
      vertex 12.7725 -2.5 9.37764
      vertex 20 -2.5 14
    endloop
  endfacet
  facet normal 0 -1 0
    outer loop
      vertex 10.3272 -2.5 8.85786
      vertex -20 -2.5 14
      vertex 9.97746 -2.5 8.46946
    endloop
  endfacet
  facet normal 0 -1 0
    outer loop
      vertex 10.75 -2.5 9.16506
      vertex -20 -2.5 14
      vertex 10.3272 -2.5 8.85786
    endloop
  endfacet
  facet normal 0 -1 0
    outer loop
      vertex 20 -2.5 14
      vertex -20 -2.5 14
      vertex 10.75 -2.5 9.16506
    endloop
  endfacet
  facet normal 0 -1 0
    outer loop
      vertex 20 -2.5 14
      vertex 10.75 -2.5 9.16506
      vertex 11.2275 -2.5 9.37764
    endloop
  endfacet
  facet normal 0 -1 0
    outer loop
      vertex 12.7725 -2.5 9.37764
      vertex 13.25 -2.5 9.16506
      vertex 20 -2.5 14
    endloop
  endfacet
  facet normal 0 -1 0
    outer loop
      vertex 13.25 -2.5 9.16506
      vertex 13.6728 -2.5 8.85786
      vertex 20 -2.5 14
    endloop
  endfacet
  facet normal 0 -1 0
    outer loop
      vertex 14.2839 -2.5 8.01684
      vertex 14.4454 -2.5 7.51978
      vertex 20 -2.5 0
    endloop
  endfacet
  facet normal 0 -1 0
    outer loop
      vertex 12.7725 -2.5 4.62236
      vertex 12.2613 -2.5 4.5137
      vertex 20 -2.5 0
    endloop
  endfacet
  facet normal 0 -1 0
    outer loop
      vertex 20 -2.5 14
      vertex 14.0225 -2.5 8.46946
      vertex 20 -2.5 0
    endloop
  endfacet
  facet normal 0 -1 0
    outer loop
      vertex 20 -2.5 14
      vertex 13.6728 -2.5 8.85786
      vertex 14.0225 -2.5 8.46946
    endloop
  endfacet
  facet normal 0 -1 0
    outer loop
      vertex 14.0225 -2.5 8.46946
      vertex 14.2839 -2.5 8.01684
      vertex 20 -2.5 0
    endloop
  endfacet
  facet normal 0 -1 0
    outer loop
      vertex 14.4454 -2.5 7.51978
      vertex 14.5 -2.5 7
      vertex 20 -2.5 0
    endloop
  endfacet
  facet normal 0 -1 0
    outer loop
      vertex 14.5 -2.5 7
      vertex 14.4454 -2.5 6.48022
      vertex 20 -2.5 0
    endloop
  endfacet
  facet normal 0 -1 0
    outer loop
      vertex 14.4454 -2.5 6.48022
      vertex 14.2839 -2.5 5.98316
      vertex 20 -2.5 0
    endloop
  endfacet
  facet normal 0 -1 0
    outer loop
      vertex 14.2839 -2.5 5.98316
      vertex 14.0225 -2.5 5.53054
      vertex 20 -2.5 0
    endloop
  endfacet
  facet normal 0 -1 0
    outer loop
      vertex 14.0225 -2.5 5.53054
      vertex 13.6728 -2.5 5.14214
      vertex 20 -2.5 0
    endloop
  endfacet
  facet normal 0 -1 0
    outer loop
      vertex 13.6728 -2.5 5.14214
      vertex 13.25 -2.5 4.83494
      vertex 20 -2.5 0
    endloop
  endfacet
  facet normal 0 -1 0
    outer loop
      vertex 13.25 -2.5 4.83494
      vertex 12.7725 -2.5 4.62236
      vertex 20 -2.5 0
    endloop
  endfacet
  facet normal 0 -1 0
    outer loop
      vertex 12.2613 -2.5 4.5137
      vertex 11.7387 -2.5 4.5137
      vertex 20 -2.5 0
    endloop
  endfacet
  facet normal 0 -1 0
    outer loop
      vertex 11.7387 -2.5 4.5137
      vertex 11.2275 -2.5 4.62236
      vertex 20 -2.5 0
    endloop
  endfacet
  facet normal 0 -1 0
    outer loop
      vertex 10.75 -2.5 4.83494
      vertex 10.3272 -2.5 5.14214
      vertex -20 -2.5 14
    endloop
  endfacet
  facet normal 0 -1 0
    outer loop
      vertex 9.97746 -2.5 5.53054
      vertex -20 -2.5 14
      vertex 10.3272 -2.5 5.14214
    endloop
  endfacet
  facet normal 0 -1 0
    outer loop
      vertex 9.71614 -2.5 5.98316
      vertex -20 -2.5 14
      vertex 9.97746 -2.5 5.53054
    endloop
  endfacet
  facet normal 0 -1 0
    outer loop
      vertex 9.55463 -2.5 6.48022
      vertex -20 -2.5 14
      vertex 9.71614 -2.5 5.98316
    endloop
  endfacet
  facet normal 0 -1 0
    outer loop
      vertex -11.2275 -2.5 9.37764
      vertex -10.75 -2.5 9.16506
      vertex 20 -2.5 0
    endloop
  endfacet
  facet normal 0 -1 0
    outer loop
      vertex -9.55463 -2.5 6.48022
      vertex -9.71614 -2.5 5.98316
      vertex 20 -2.5 0
    endloop
  endfacet
  facet normal 0 0 -1
    outer loop
      vertex -20 -2.5 0
      vertex -20 2.5 0
      vertex 20 -2.5 0
    endloop
  endfacet
  facet normal 0 0 -1
    outer loop
      vertex 20 -2.5 0
      vertex -20 2.5 0
      vertex -7 2.5 0
    endloop
  endfacet
  facet normal 0 0 -1
    outer loop
      vertex -4.5 13.5 0
      vertex -7 2.5 0
      vertex -7 16 0
    endloop
  endfacet
  facet normal 0 0 -1
    outer loop
      vertex 4.5 13.5 0
      vertex -7 16 0
      vertex 7 16 0
    endloop
  endfacet
  facet normal 0 0 -1
    outer loop
      vertex 20 -2.5 0
      vertex -7 2.5 0
      vertex 7 2.5 0
    endloop
  endfacet
  facet normal 0 0 -1
    outer loop
      vertex 20 2.5 0
      vertex 20 -2.5 0
      vertex 7 2.5 0
    endloop
  endfacet
  facet normal 0 0 -1
    outer loop
      vertex -4.5 13.5 0
      vertex -7 16 0
      vertex 4.5 13.5 0
    endloop
  endfacet
  facet normal 0 0 -1
    outer loop
      vertex -4.5 4.5 0
      vertex -7 2.5 0
      vertex -4.5 13.5 0
    endloop
  endfacet
  facet normal 0 0 -1
    outer loop
      vertex 4.5 13.5 0
      vertex 7 2.5 0
      vertex 4.5 4.5 0
    endloop
  endfacet
  facet normal 0 0 -1
    outer loop
      vertex 7 2.5 0
      vertex -7 2.5 0
      vertex -4.5 4.5 0
    endloop
  endfacet
  facet normal 0 0 -1
    outer loop
      vertex 7 2.5 0
      vertex -4.5 4.5 0
      vertex 4.5 4.5 0
    endloop
  endfacet
  facet normal 0 0 -1
    outer loop
      vertex 7 2.5 0
      vertex 4.5 13.5 0
      vertex 7 16 0
    endloop
  endfacet
  facet normal 0 1 0
    outer loop
      vertex -10.75 2.5 9.16506
      vertex -20 2.5 14
      vertex -7 2.5 14
    endloop
  endfacet
  facet normal 0 1 0
    outer loop
      vertex -20 2.5 0
      vertex -20 2.5 14
      vertex -14.5 2.5 7
    endloop
  endfacet
  facet normal 0 1 0
    outer loop
      vertex -20 2.5 0
      vertex -14.5 2.5 7
      vertex -14.4454 2.5 6.48022
    endloop
  endfacet
  facet normal 0 1 0
    outer loop
      vertex -20 2.5 0
      vertex -14.4454 2.5 6.48022
      vertex -14.2839 2.5 5.98316
    endloop
  endfacet
  facet normal 0 1 0
    outer loop
      vertex -20 2.5 0
      vertex -14.2839 2.5 5.98316
      vertex -14.0225 2.5 5.53054
    endloop
  endfacet
  facet normal 0 1 0
    outer loop
      vertex -20 2.5 0
      vertex -14.0225 2.5 5.53054
      vertex -13.6728 2.5 5.14214
    endloop
  endfacet
  facet normal 0 1 0
    outer loop
      vertex -20 2.5 0
      vertex -13.6728 2.5 5.14214
      vertex -7 2.5 0
    endloop
  endfacet
  facet normal 0 1 0
    outer loop
      vertex -13.6728 2.5 5.14214
      vertex -13.25 2.5 4.83494
      vertex -7 2.5 0
    endloop
  endfacet
  facet normal 0 1 0
    outer loop
      vertex -12.2613 2.5 4.5137
      vertex -7 2.5 0
      vertex -12.7725 2.5 4.62236
    endloop
  endfacet
  facet normal 0 1 0
    outer loop
      vertex -11.7387 2.5 4.5137
      vertex -7 2.5 0
      vertex -12.2613 2.5 4.5137
    endloop
  endfacet
  facet normal 0 1 0
    outer loop
      vertex -11.2275 2.5 4.62236
      vertex -7 2.5 0
      vertex -11.7387 2.5 4.5137
    endloop
  endfacet
  facet normal 0 1 0
    outer loop
      vertex -9.5 2.5 7
      vertex -7 2.5 14
      vertex -9.55463 2.5 6.48022
    endloop
  endfacet
  facet normal 0 1 0
    outer loop
      vertex -7 2.5 0
      vertex -11.2275 2.5 4.62236
      vertex -10.75 2.5 4.83494
    endloop
  endfacet
  facet normal 0 1 0
    outer loop
      vertex -7 2.5 0
      vertex -10.75 2.5 4.83494
      vertex -10.3272 2.5 5.14214
    endloop
  endfacet
  facet normal 0 1 0
    outer loop
      vertex -7 2.5 0
      vertex -10.3272 2.5 5.14214
      vertex -9.97746 2.5 5.53054
    endloop
  endfacet
  facet normal 0 1 0
    outer loop
      vertex -7 2.5 0
      vertex -9.97746 2.5 5.53054
      vertex -9.71614 2.5 5.98316
    endloop
  endfacet
  facet normal 0 1 0
    outer loop
      vertex -7 2.5 0
      vertex -9.71614 2.5 5.98316
      vertex -7 2.5 14
    endloop
  endfacet
  facet normal 0 1 0
    outer loop
      vertex -9.71614 2.5 5.98316
      vertex -9.55463 2.5 6.48022
      vertex -7 2.5 14
    endloop
  endfacet
  facet normal 0 1 0
    outer loop
      vertex -9.55463 2.5 7.51978
      vertex -7 2.5 14
      vertex -9.5 2.5 7
    endloop
  endfacet
  facet normal 0 1 0
    outer loop
      vertex -9.71614 2.5 8.01684
      vertex -7 2.5 14
      vertex -9.55463 2.5 7.51978
    endloop
  endfacet
  facet normal 0 1 0
    outer loop
      vertex -14.4454 2.5 7.51978
      vertex -20 2.5 14
      vertex -14.2839 2.5 8.01684
    endloop
  endfacet
  facet normal 0 1 0
    outer loop
      vertex -11.7387 2.5 9.4863
      vertex -20 2.5 14
      vertex -11.2275 2.5 9.37764
    endloop
  endfacet
  facet normal 0 1 0
    outer loop
      vertex -9.71614 2.5 8.01684
      vertex -9.97746 2.5 8.46946
      vertex -7 2.5 14
    endloop
  endfacet
  facet normal 0 1 0
    outer loop
      vertex -12.2613 2.5 9.4863
      vertex -20 2.5 14
      vertex -11.7387 2.5 9.4863
    endloop
  endfacet
  facet normal 0 1 0
    outer loop
      vertex -9.97746 2.5 8.46946
      vertex -10.3272 2.5 8.85786
      vertex -7 2.5 14
    endloop
  endfacet
  facet normal 0 1 0
    outer loop
      vertex -11.2275 2.5 9.37764
      vertex -20 2.5 14
      vertex -10.75 2.5 9.16506
    endloop
  endfacet
  facet normal 0 1 0
    outer loop
      vertex -10.3272 2.5 8.85786
      vertex -10.75 2.5 9.16506
      vertex -7 2.5 14
    endloop
  endfacet
  facet normal 0 1 0
    outer loop
      vertex -12.7725 2.5 9.37764
      vertex -20 2.5 14
      vertex -12.2613 2.5 9.4863
    endloop
  endfacet
  facet normal 0 1 0
    outer loop
      vertex -13.25 2.5 9.16506
      vertex -20 2.5 14
      vertex -12.7725 2.5 9.37764
    endloop
  endfacet
  facet normal 0 1 0
    outer loop
      vertex -13.6728 2.5 8.85786
      vertex -20 2.5 14
      vertex -13.25 2.5 9.16506
    endloop
  endfacet
  facet normal 0 1 0
    outer loop
      vertex -14.0225 2.5 8.46946
      vertex -20 2.5 14
      vertex -13.6728 2.5 8.85786
    endloop
  endfacet
  facet normal 0 1 0
    outer loop
      vertex -14.2839 2.5 8.01684
      vertex -20 2.5 14
      vertex -14.0225 2.5 8.46946
    endloop
  endfacet
  facet normal 0 1 0
    outer loop
      vertex -14.5 2.5 7
      vertex -20 2.5 14
      vertex -14.4454 2.5 7.51978
    endloop
  endfacet
  facet normal 0 1 0
    outer loop
      vertex -12.7725 2.5 4.62236
      vertex -7 2.5 0
      vertex -13.25 2.5 4.83494
    endloop
  endfacet
  facet normal 0 0 1
    outer loop
      vertex -20 2.5 14
      vertex -20 -2.5 14
      vertex 20 -2.5 14
    endloop
  endfacet
  facet normal 0 0 1
    outer loop
      vertex -7 2.5 14
      vertex -20 2.5 14
      vertex 20 -2.5 14
    endloop
  endfacet
  facet normal 0 0 1
    outer loop
      vertex 7 2.5 14
      vertex -7 2.5 14
      vertex 20 -2.5 14
    endloop
  endfacet
  facet normal 0 0 1
    outer loop
      vertex 20 2.5 14
      vertex 7 2.5 14
      vertex 20 -2.5 14
    endloop
  endfacet
  facet normal 0 0 1
    outer loop
      vertex -4.5 4.5 14
      vertex -4.5 13.5 14
      vertex -7 2.5 14
    endloop
  endfacet
  facet normal 0 0 1
    outer loop
      vertex -4.5 4.5 14
      vertex -7 2.5 14
      vertex 7 2.5 14
    endloop
  endfacet
  facet normal 0 0 1
    outer loop
      vertex -4.5 13.5 14
      vertex 4.5 13.5 14
      vertex 7 16 14
    endloop
  endfacet
  facet normal 0 0 1
    outer loop
      vertex 7 16 14
      vertex 4.5 13.5 14
      vertex 7 2.5 14
    endloop
  endfacet
  facet normal 0 0 1
    outer loop
      vertex 7 16 14
      vertex -7 16 14
      vertex -4.5 13.5 14
    endloop
  endfacet
  facet normal 0 0 1
    outer loop
      vertex 7 2.5 14
      vertex 4.5 4.5 14
      vertex -4.5 4.5 14
    endloop
  endfacet
  facet normal 0 0 1
    outer loop
      vertex 7 2.5 14
      vertex 4.5 13.5 14
      vertex 4.5 4.5 14
    endloop
  endfacet
  facet normal 0 0 1
    outer loop
      vertex -7 16 14
      vertex -7 2.5 14
      vertex -4.5 13.5 14
    endloop
  endfacet
  facet normal 1 0 0
    outer loop
      vertex 20 -2.5 14
      vertex 20 -2.5 0
      vertex 20 2.5 0
    endloop
  endfacet
  facet normal 1 0 0
    outer loop
      vertex 20 2.5 14
      vertex 20 -2.5 14
      vertex 20 2.5 0
    endloop
  endfacet
  facet normal 0.994522 2.321e-17 0.104529
    outer loop
      vertex -14.4454 -2.5 6.48022
      vertex -14.4454 2.5 6.48022
      vertex -14.5 2.5 7
    endloop
  endfacet
  facet normal 0.994522 2.321e-17 0.104529
    outer loop
      vertex -14.5 -2.5 7
      vertex -14.4454 -2.5 6.48022
      vertex -14.5 2.5 7
    endloop
  endfacet
  facet normal 0.951057 6.86153e-17 0.309016
    outer loop
      vertex -14.2839 -2.5 5.98316
      vertex -14.2839 2.5 5.98316
      vertex -14.4454 2.5 6.48022
    endloop
  endfacet
  facet normal 0.951057 6.86153e-17 0.309016
    outer loop
      vertex -14.4454 -2.5 6.48022
      vertex -14.2839 -2.5 5.98316
      vertex -14.4454 2.5 6.48022
    endloop
  endfacet
  facet normal 0.866024 1.11023e-16 0.500002
    outer loop
      vertex -14.0225 -2.5 5.53054
      vertex -14.0225 2.5 5.53054
      vertex -14.2839 2.5 5.98316
    endloop
  endfacet
  facet normal 0.866024 1.11023e-16 0.500002
    outer loop
      vertex -14.2839 -2.5 5.98316
      vertex -14.0225 -2.5 5.53054
      vertex -14.2839 2.5 5.98316
    endloop
  endfacet
  facet normal 0.743146 1.48577e-16 0.66913
    outer loop
      vertex -13.6728 -2.5 5.14214
      vertex -13.6728 2.5 5.14214
      vertex -14.0225 2.5 5.53054
    endloop
  endfacet
  facet normal 0.743146 1.48577e-16 0.66913
    outer loop
      vertex -14.0225 -2.5 5.53054
      vertex -13.6728 -2.5 5.14214
      vertex -14.0225 2.5 5.53054
    endloop
  endfacet
  facet normal 0.587786 1.79638e-16 0.809017
    outer loop
      vertex -13.25 -2.5 4.83494
      vertex -13.25 2.5 4.83494
      vertex -13.6728 2.5 5.14214
    endloop
  endfacet
  facet normal 0.587786 1.79638e-16 0.809017
    outer loop
      vertex -13.6728 -2.5 5.14214
      vertex -13.25 -2.5 4.83494
      vertex -13.6728 2.5 5.14214
    endloop
  endfacet
  facet normal 0.406735 2.02848e-16 0.913546
    outer loop
      vertex -12.7725 -2.5 4.62236
      vertex -12.7725 2.5 4.62236
      vertex -13.25 2.5 4.83494
    endloop
  endfacet
  facet normal 0.406735 2.02848e-16 0.913546
    outer loop
      vertex -13.25 -2.5 4.83494
      vertex -12.7725 -2.5 4.62236
      vertex -13.25 2.5 4.83494
    endloop
  endfacet
  facet normal 0.207913 2.17192e-16 0.978147
    outer loop
      vertex -12.2613 -2.5 4.5137
      vertex -12.2613 2.5 4.5137
      vertex -12.7725 2.5 4.62236
    endloop
  endfacet
  facet normal 0.207913 2.17192e-16 0.978147
    outer loop
      vertex -12.7725 -2.5 4.62236
      vertex -12.2613 -2.5 4.5137
      vertex -12.7725 2.5 4.62236
    endloop
  endfacet
  facet normal 0 2.22045e-16 1
    outer loop
      vertex -11.7387 -2.5 4.5137
      vertex -11.7387 2.5 4.5137
      vertex -12.2613 2.5 4.5137
    endloop
  endfacet
  facet normal 0 2.22045e-16 1
    outer loop
      vertex -12.2613 -2.5 4.5137
      vertex -11.7387 -2.5 4.5137
      vertex -12.2613 2.5 4.5137
    endloop
  endfacet
  facet normal -0.207913 2.17192e-16 0.978147
    outer loop
      vertex -11.2275 -2.5 4.62236
      vertex -11.2275 2.5 4.62236
      vertex -11.7387 2.5 4.5137
    endloop
  endfacet
  facet normal -0.207913 2.17192e-16 0.978147
    outer loop
      vertex -11.7387 -2.5 4.5137
      vertex -11.2275 -2.5 4.62236
      vertex -11.7387 2.5 4.5137
    endloop
  endfacet
  facet normal -0.406735 2.02848e-16 0.913546
    outer loop
      vertex -10.75 -2.5 4.83494
      vertex -10.75 2.5 4.83494
      vertex -11.2275 2.5 4.62236
    endloop
  endfacet
  facet normal -0.406735 2.02848e-16 0.913546
    outer loop
      vertex -11.2275 -2.5 4.62236
      vertex -10.75 -2.5 4.83494
      vertex -11.2275 2.5 4.62236
    endloop
  endfacet
  facet normal -0.587786 1.79638e-16 0.809017
    outer loop
      vertex -10.3272 -2.5 5.14214
      vertex -10.3272 2.5 5.14214
      vertex -10.75 2.5 4.83494
    endloop
  endfacet
  facet normal -0.587786 1.79638e-16 0.809017
    outer loop
      vertex -10.75 -2.5 4.83494
      vertex -10.3272 -2.5 5.14214
      vertex -10.75 2.5 4.83494
    endloop
  endfacet
  facet normal -0.743146 1.48577e-16 0.66913
    outer loop
      vertex -9.97746 2.5 5.53054
      vertex -10.3272 2.5 5.14214
      vertex -9.97746 -2.5 5.53054
    endloop
  endfacet
  facet normal -0.743146 1.48577e-16 0.66913
    outer loop
      vertex -9.97746 -2.5 5.53054
      vertex -10.3272 2.5 5.14214
      vertex -10.3272 -2.5 5.14214
    endloop
  endfacet
  facet normal -0.866024 1.11023e-16 0.500002
    outer loop
      vertex -9.71614 2.5 5.98316
      vertex -9.97746 2.5 5.53054
      vertex -9.71614 -2.5 5.98316
    endloop
  endfacet
  facet normal -0.866024 1.11023e-16 0.500002
    outer loop
      vertex -9.71614 -2.5 5.98316
      vertex -9.97746 2.5 5.53054
      vertex -9.97746 -2.5 5.53054
    endloop
  endfacet
  facet normal -0.951057 6.86153e-17 0.309016
    outer loop
      vertex -9.55463 2.5 6.48022
      vertex -9.71614 2.5 5.98316
      vertex -9.55463 -2.5 6.48022
    endloop
  endfacet
  facet normal -0.951057 6.86153e-17 0.309016
    outer loop
      vertex -9.55463 -2.5 6.48022
      vertex -9.71614 2.5 5.98316
      vertex -9.71614 -2.5 5.98316
    endloop
  endfacet
  facet normal -0.994522 2.321e-17 0.104529
    outer loop
      vertex -9.5 2.5 7
      vertex -9.55463 2.5 6.48022
      vertex -9.5 -2.5 7
    endloop
  endfacet
  facet normal -0.994522 2.321e-17 0.104529
    outer loop
      vertex -9.5 -2.5 7
      vertex -9.55463 2.5 6.48022
      vertex -9.55463 -2.5 6.48022
    endloop
  endfacet
  facet normal -0.994522 -2.321e-17 -0.104529
    outer loop
      vertex -9.5 2.5 7
      vertex -9.5 -2.5 7
      vertex -9.55463 2.5 7.51978
    endloop
  endfacet
  facet normal -0.994522 -2.321e-17 -0.104529
    outer loop
      vertex -9.55463 2.5 7.51978
      vertex -9.5 -2.5 7
      vertex -9.55463 -2.5 7.51978
    endloop
  endfacet
  facet normal -0.951057 -6.86153e-17 -0.309016
    outer loop
      vertex -9.55463 2.5 7.51978
      vertex -9.55463 -2.5 7.51978
      vertex -9.71614 2.5 8.01684
    endloop
  endfacet
  facet normal -0.951057 -6.86153e-17 -0.309016
    outer loop
      vertex -9.71614 2.5 8.01684
      vertex -9.55463 -2.5 7.51978
      vertex -9.71614 -2.5 8.01684
    endloop
  endfacet
  facet normal -0.866024 -1.11023e-16 -0.500002
    outer loop
      vertex -9.71614 2.5 8.01684
      vertex -9.71614 -2.5 8.01684
      vertex -9.97746 2.5 8.46946
    endloop
  endfacet
  facet normal -0.866024 -1.11023e-16 -0.500002
    outer loop
      vertex -9.97746 2.5 8.46946
      vertex -9.71614 -2.5 8.01684
      vertex -9.97746 -2.5 8.46946
    endloop
  endfacet
  facet normal -0.743146 -1.48577e-16 -0.66913
    outer loop
      vertex -9.97746 2.5 8.46946
      vertex -9.97746 -2.5 8.46946
      vertex -10.3272 2.5 8.85786
    endloop
  endfacet
  facet normal -0.743146 -1.48577e-16 -0.66913
    outer loop
      vertex -10.3272 2.5 8.85786
      vertex -9.97746 -2.5 8.46946
      vertex -10.3272 -2.5 8.85786
    endloop
  endfacet
  facet normal -0.587786 -1.79638e-16 -0.809017
    outer loop
      vertex -10.3272 2.5 8.85786
      vertex -10.3272 -2.5 8.85786
      vertex -10.75 2.5 9.16506
    endloop
  endfacet
  facet normal -0.587786 -1.79638e-16 -0.809017
    outer loop
      vertex -10.75 2.5 9.16506
      vertex -10.3272 -2.5 8.85786
      vertex -10.75 -2.5 9.16506
    endloop
  endfacet
  facet normal -0.406735 -2.02848e-16 -0.913546
    outer loop
      vertex -10.75 2.5 9.16506
      vertex -10.75 -2.5 9.16506
      vertex -11.2275 2.5 9.37764
    endloop
  endfacet
  facet normal -0.406735 -2.02848e-16 -0.913546
    outer loop
      vertex -11.2275 2.5 9.37764
      vertex -10.75 -2.5 9.16506
      vertex -11.2275 -2.5 9.37764
    endloop
  endfacet
  facet normal -0.207913 -2.17192e-16 -0.978147
    outer loop
      vertex -11.2275 2.5 9.37764
      vertex -11.2275 -2.5 9.37764
      vertex -11.7387 2.5 9.4863
    endloop
  endfacet
  facet normal -0.207913 -2.17192e-16 -0.978147
    outer loop
      vertex -11.7387 2.5 9.4863
      vertex -11.2275 -2.5 9.37764
      vertex -11.7387 -2.5 9.4863
    endloop
  endfacet
  facet normal 0 -2.22045e-16 -1
    outer loop
      vertex -11.7387 2.5 9.4863
      vertex -11.7387 -2.5 9.4863
      vertex -12.2613 2.5 9.4863
    endloop
  endfacet
  facet normal 0 -2.22045e-16 -1
    outer loop
      vertex -12.2613 2.5 9.4863
      vertex -11.7387 -2.5 9.4863
      vertex -12.2613 -2.5 9.4863
    endloop
  endfacet
  facet normal 0.207913 -2.17192e-16 -0.978147
    outer loop
      vertex -12.2613 2.5 9.4863
      vertex -12.2613 -2.5 9.4863
      vertex -12.7725 2.5 9.37764
    endloop
  endfacet
  facet normal 0.207913 -2.17192e-16 -0.978147
    outer loop
      vertex -12.7725 2.5 9.37764
      vertex -12.2613 -2.5 9.4863
      vertex -12.7725 -2.5 9.37764
    endloop
  endfacet
  facet normal 0.406735 -2.02848e-16 -0.913546
    outer loop
      vertex -12.7725 2.5 9.37764
      vertex -12.7725 -2.5 9.37764
      vertex -13.25 2.5 9.16506
    endloop
  endfacet
  facet normal 0.406735 -2.02848e-16 -0.913546
    outer loop
      vertex -13.25 2.5 9.16506
      vertex -12.7725 -2.5 9.37764
      vertex -13.25 -2.5 9.16506
    endloop
  endfacet
  facet normal 0.587786 -1.79638e-16 -0.809017
    outer loop
      vertex -13.25 2.5 9.16506
      vertex -13.25 -2.5 9.16506
      vertex -13.6728 2.5 8.85786
    endloop
  endfacet
  facet normal 0.587786 -1.79638e-16 -0.809017
    outer loop
      vertex -13.6728 2.5 8.85786
      vertex -13.25 -2.5 9.16506
      vertex -13.6728 -2.5 8.85786
    endloop
  endfacet
  facet normal 0.743146 -1.48577e-16 -0.66913
    outer loop
      vertex -14.0225 2.5 8.46946
      vertex -13.6728 2.5 8.85786
      vertex -13.6728 -2.5 8.85786
    endloop
  endfacet
  facet normal 0.743146 -1.48577e-16 -0.66913
    outer loop
      vertex -14.0225 -2.5 8.46946
      vertex -14.0225 2.5 8.46946
      vertex -13.6728 -2.5 8.85786
    endloop
  endfacet
  facet normal 0.866024 -1.11023e-16 -0.500002
    outer loop
      vertex -14.2839 2.5 8.01684
      vertex -14.0225 2.5 8.46946
      vertex -14.0225 -2.5 8.46946
    endloop
  endfacet
  facet normal 0.866024 -1.11023e-16 -0.500002
    outer loop
      vertex -14.2839 -2.5 8.01684
      vertex -14.2839 2.5 8.01684
      vertex -14.0225 -2.5 8.46946
    endloop
  endfacet
  facet normal 0.951057 -6.86153e-17 -0.309016
    outer loop
      vertex -14.4454 2.5 7.51978
      vertex -14.2839 2.5 8.01684
      vertex -14.2839 -2.5 8.01684
    endloop
  endfacet
  facet normal 0.951057 -6.86153e-17 -0.309016
    outer loop
      vertex -14.4454 -2.5 7.51978
      vertex -14.4454 2.5 7.51978
      vertex -14.2839 -2.5 8.01684
    endloop
  endfacet
  facet normal 0.994522 -2.321e-17 -0.104529
    outer loop
      vertex -14.5 2.5 7
      vertex -14.4454 2.5 7.51978
      vertex -14.4454 -2.5 7.51978
    endloop
  endfacet
  facet normal 0.994522 -2.321e-17 -0.104529
    outer loop
      vertex -14.5 -2.5 7
      vertex -14.5 2.5 7
      vertex -14.4454 -2.5 7.51978
    endloop
  endfacet
  facet normal 0.994522 2.321e-17 0.104529
    outer loop
      vertex 9.55463 -2.5 6.48022
      vertex 9.55463 2.5 6.48022
      vertex 9.5 2.5 7
    endloop
  endfacet
  facet normal 0.994522 2.321e-17 0.104529
    outer loop
      vertex 9.5 -2.5 7
      vertex 9.55463 -2.5 6.48022
      vertex 9.5 2.5 7
    endloop
  endfacet
  facet normal 0.951057 6.86153e-17 0.309016
    outer loop
      vertex 9.71614 -2.5 5.98316
      vertex 9.71614 2.5 5.98316
      vertex 9.55463 2.5 6.48022
    endloop
  endfacet
  facet normal 0.951057 6.86153e-17 0.309016
    outer loop
      vertex 9.55463 -2.5 6.48022
      vertex 9.71614 -2.5 5.98316
      vertex 9.55463 2.5 6.48022
    endloop
  endfacet
  facet normal 0.866024 1.11023e-16 0.500002
    outer loop
      vertex 9.97746 -2.5 5.53054
      vertex 9.97746 2.5 5.53054
      vertex 9.71614 2.5 5.98316
    endloop
  endfacet
  facet normal 0.866024 1.11023e-16 0.500002
    outer loop
      vertex 9.71614 -2.5 5.98316
      vertex 9.97746 -2.5 5.53054
      vertex 9.71614 2.5 5.98316
    endloop
  endfacet
  facet normal 0.743146 1.48577e-16 0.66913
    outer loop
      vertex 10.3272 -2.5 5.14214
      vertex 10.3272 2.5 5.14214
      vertex 9.97746 2.5 5.53054
    endloop
  endfacet
  facet normal 0.743146 1.48577e-16 0.66913
    outer loop
      vertex 9.97746 -2.5 5.53054
      vertex 10.3272 -2.5 5.14214
      vertex 9.97746 2.5 5.53054
    endloop
  endfacet
  facet normal 0.587786 1.79638e-16 0.809017
    outer loop
      vertex 10.75 -2.5 4.83494
      vertex 10.75 2.5 4.83494
      vertex 10.3272 2.5 5.14214
    endloop
  endfacet
  facet normal 0.587786 1.79638e-16 0.809017
    outer loop
      vertex 10.3272 -2.5 5.14214
      vertex 10.75 -2.5 4.83494
      vertex 10.3272 2.5 5.14214
    endloop
  endfacet
  facet normal 0.406735 2.02848e-16 0.913546
    outer loop
      vertex 11.2275 -2.5 4.62236
      vertex 11.2275 2.5 4.62236
      vertex 10.75 2.5 4.83494
    endloop
  endfacet
  facet normal 0.406735 2.02848e-16 0.913546
    outer loop
      vertex 10.75 -2.5 4.83494
      vertex 11.2275 -2.5 4.62236
      vertex 10.75 2.5 4.83494
    endloop
  endfacet
  facet normal 0.207913 2.17192e-16 0.978147
    outer loop
      vertex 11.7387 -2.5 4.5137
      vertex 11.7387 2.5 4.5137
      vertex 11.2275 2.5 4.62236
    endloop
  endfacet
  facet normal 0.207913 2.17192e-16 0.978147
    outer loop
      vertex 11.2275 -2.5 4.62236
      vertex 11.7387 -2.5 4.5137
      vertex 11.2275 2.5 4.62236
    endloop
  endfacet
  facet normal 0 2.22045e-16 1
    outer loop
      vertex 12.2613 -2.5 4.5137
      vertex 12.2613 2.5 4.5137
      vertex 11.7387 2.5 4.5137
    endloop
  endfacet
  facet normal 0 2.22045e-16 1
    outer loop
      vertex 11.7387 -2.5 4.5137
      vertex 12.2613 -2.5 4.5137
      vertex 11.7387 2.5 4.5137
    endloop
  endfacet
  facet normal -0.207913 2.17192e-16 0.978147
    outer loop
      vertex 12.7725 -2.5 4.62236
      vertex 12.7725 2.5 4.62236
      vertex 12.2613 2.5 4.5137
    endloop
  endfacet
  facet normal -0.207913 2.17192e-16 0.978147
    outer loop
      vertex 12.2613 -2.5 4.5137
      vertex 12.7725 -2.5 4.62236
      vertex 12.2613 2.5 4.5137
    endloop
  endfacet
  facet normal -0.406735 2.02848e-16 0.913546
    outer loop
      vertex 13.25 -2.5 4.83494
      vertex 13.25 2.5 4.83494
      vertex 12.7725 2.5 4.62236
    endloop
  endfacet
  facet normal -0.406735 2.02848e-16 0.913546
    outer loop
      vertex 12.7725 -2.5 4.62236
      vertex 13.25 -2.5 4.83494
      vertex 12.7725 2.5 4.62236
    endloop
  endfacet
  facet normal -0.587786 1.79638e-16 0.809017
    outer loop
      vertex 13.6728 -2.5 5.14214
      vertex 13.6728 2.5 5.14214
      vertex 13.25 2.5 4.83494
    endloop
  endfacet
  facet normal -0.587786 1.79638e-16 0.809017
    outer loop
      vertex 13.25 -2.5 4.83494
      vertex 13.6728 -2.5 5.14214
      vertex 13.25 2.5 4.83494
    endloop
  endfacet
  facet normal -0.743146 1.48577e-16 0.66913
    outer loop
      vertex 14.0225 2.5 5.53054
      vertex 13.6728 2.5 5.14214
      vertex 14.0225 -2.5 5.53054
    endloop
  endfacet
  facet normal -0.743146 1.48577e-16 0.66913
    outer loop
      vertex 14.0225 -2.5 5.53054
      vertex 13.6728 2.5 5.14214
      vertex 13.6728 -2.5 5.14214
    endloop
  endfacet
  facet normal -0.866024 1.11023e-16 0.500002
    outer loop
      vertex 14.2839 2.5 5.98316
      vertex 14.0225 2.5 5.53054
      vertex 14.2839 -2.5 5.98316
    endloop
  endfacet
  facet normal -0.866024 1.11023e-16 0.500002
    outer loop
      vertex 14.2839 -2.5 5.98316
      vertex 14.0225 2.5 5.53054
      vertex 14.0225 -2.5 5.53054
    endloop
  endfacet
  facet normal -0.951057 6.86153e-17 0.309016
    outer loop
      vertex 14.4454 2.5 6.48022
      vertex 14.2839 2.5 5.98316
      vertex 14.4454 -2.5 6.48022
    endloop
  endfacet
  facet normal -0.951057 6.86153e-17 0.309016
    outer loop
      vertex 14.4454 -2.5 6.48022
      vertex 14.2839 2.5 5.98316
      vertex 14.2839 -2.5 5.98316
    endloop
  endfacet
  facet normal -0.994522 2.321e-17 0.104529
    outer loop
      vertex 14.5 2.5 7
      vertex 14.4454 2.5 6.48022
      vertex 14.5 -2.5 7
    endloop
  endfacet
  facet normal -0.994522 2.321e-17 0.104529
    outer loop
      vertex 14.5 -2.5 7
      vertex 14.4454 2.5 6.48022
      vertex 14.4454 -2.5 6.48022
    endloop
  endfacet
  facet normal -0.994522 -2.321e-17 -0.104529
    outer loop
      vertex 14.5 2.5 7
      vertex 14.5 -2.5 7
      vertex 14.4454 2.5 7.51978
    endloop
  endfacet
  facet normal -0.994522 -2.321e-17 -0.104529
    outer loop
      vertex 14.4454 2.5 7.51978
      vertex 14.5 -2.5 7
      vertex 14.4454 -2.5 7.51978
    endloop
  endfacet
  facet normal -0.951057 -6.86153e-17 -0.309016
    outer loop
      vertex 14.4454 2.5 7.51978
      vertex 14.4454 -2.5 7.51978
      vertex 14.2839 2.5 8.01684
    endloop
  endfacet
  facet normal -0.951057 -6.86153e-17 -0.309016
    outer loop
      vertex 14.2839 2.5 8.01684
      vertex 14.4454 -2.5 7.51978
      vertex 14.2839 -2.5 8.01684
    endloop
  endfacet
  facet normal -0.866024 -1.11023e-16 -0.500002
    outer loop
      vertex 14.2839 2.5 8.01684
      vertex 14.2839 -2.5 8.01684
      vertex 14.0225 2.5 8.46946
    endloop
  endfacet
  facet normal -0.866024 -1.11023e-16 -0.500002
    outer loop
      vertex 14.0225 2.5 8.46946
      vertex 14.2839 -2.5 8.01684
      vertex 14.0225 -2.5 8.46946
    endloop
  endfacet
  facet normal -0.743146 -1.48577e-16 -0.66913
    outer loop
      vertex 14.0225 2.5 8.46946
      vertex 14.0225 -2.5 8.46946
      vertex 13.6728 2.5 8.85786
    endloop
  endfacet
  facet normal -0.743146 -1.48577e-16 -0.66913
    outer loop
      vertex 13.6728 2.5 8.85786
      vertex 14.0225 -2.5 8.46946
      vertex 13.6728 -2.5 8.85786
    endloop
  endfacet
  facet normal -0.587786 -1.79638e-16 -0.809017
    outer loop
      vertex 13.6728 2.5 8.85786
      vertex 13.6728 -2.5 8.85786
      vertex 13.25 2.5 9.16506
    endloop
  endfacet
  facet normal -0.587786 -1.79638e-16 -0.809017
    outer loop
      vertex 13.25 2.5 9.16506
      vertex 13.6728 -2.5 8.85786
      vertex 13.25 -2.5 9.16506
    endloop
  endfacet
  facet normal -0.406735 -2.02848e-16 -0.913546
    outer loop
      vertex 13.25 2.5 9.16506
      vertex 13.25 -2.5 9.16506
      vertex 12.7725 2.5 9.37764
    endloop
  endfacet
  facet normal -0.406735 -2.02848e-16 -0.913546
    outer loop
      vertex 12.7725 2.5 9.37764
      vertex 13.25 -2.5 9.16506
      vertex 12.7725 -2.5 9.37764
    endloop
  endfacet
  facet normal -0.207913 -2.17192e-16 -0.978147
    outer loop
      vertex 12.7725 2.5 9.37764
      vertex 12.7725 -2.5 9.37764
      vertex 12.2613 2.5 9.4863
    endloop
  endfacet
  facet normal -0.207913 -2.17192e-16 -0.978147
    outer loop
      vertex 12.2613 2.5 9.4863
      vertex 12.7725 -2.5 9.37764
      vertex 12.2613 -2.5 9.4863
    endloop
  endfacet
  facet normal 0 -2.22045e-16 -1
    outer loop
      vertex 12.2613 2.5 9.4863
      vertex 12.2613 -2.5 9.4863
      vertex 11.7387 2.5 9.4863
    endloop
  endfacet
  facet normal 0 -2.22045e-16 -1
    outer loop
      vertex 11.7387 2.5 9.4863
      vertex 12.2613 -2.5 9.4863
      vertex 11.7387 -2.5 9.4863
    endloop
  endfacet
  facet normal 0.207913 -2.17192e-16 -0.978147
    outer loop
      vertex 11.7387 2.5 9.4863
      vertex 11.7387 -2.5 9.4863
      vertex 11.2275 2.5 9.37764
    endloop
  endfacet
  facet normal 0.207913 -2.17192e-16 -0.978147
    outer loop
      vertex 11.2275 2.5 9.37764
      vertex 11.7387 -2.5 9.4863
      vertex 11.2275 -2.5 9.37764
    endloop
  endfacet
  facet normal 0.406735 -2.02848e-16 -0.913546
    outer loop
      vertex 11.2275 2.5 9.37764
      vertex 11.2275 -2.5 9.37764
      vertex 10.75 2.5 9.16506
    endloop
  endfacet
  facet normal 0.406735 -2.02848e-16 -0.913546
    outer loop
      vertex 10.75 2.5 9.16506
      vertex 11.2275 -2.5 9.37764
      vertex 10.75 -2.5 9.16506
    endloop
  endfacet
  facet normal 0.587786 -1.79638e-16 -0.809017
    outer loop
      vertex 10.75 2.5 9.16506
      vertex 10.75 -2.5 9.16506
      vertex 10.3272 2.5 8.85786
    endloop
  endfacet
  facet normal 0.587786 -1.79638e-16 -0.809017
    outer loop
      vertex 10.3272 2.5 8.85786
      vertex 10.75 -2.5 9.16506
      vertex 10.3272 -2.5 8.85786
    endloop
  endfacet
  facet normal 0.743146 -1.48577e-16 -0.66913
    outer loop
      vertex 9.97746 2.5 8.46946
      vertex 10.3272 2.5 8.85786
      vertex 10.3272 -2.5 8.85786
    endloop
  endfacet
  facet normal 0.743146 -1.48577e-16 -0.66913
    outer loop
      vertex 9.97746 -2.5 8.46946
      vertex 9.97746 2.5 8.46946
      vertex 10.3272 -2.5 8.85786
    endloop
  endfacet
  facet normal 0.866024 -1.11023e-16 -0.500002
    outer loop
      vertex 9.71614 2.5 8.01684
      vertex 9.97746 2.5 8.46946
      vertex 9.97746 -2.5 8.46946
    endloop
  endfacet
  facet normal 0.866024 -1.11023e-16 -0.500002
    outer loop
      vertex 9.71614 -2.5 8.01684
      vertex 9.71614 2.5 8.01684
      vertex 9.97746 -2.5 8.46946
    endloop
  endfacet
  facet normal 0.951057 -6.86153e-17 -0.309016
    outer loop
      vertex 9.55463 2.5 7.51978
      vertex 9.71614 2.5 8.01684
      vertex 9.71614 -2.5 8.01684
    endloop
  endfacet
  facet normal 0.951057 -6.86153e-17 -0.309016
    outer loop
      vertex 9.55463 -2.5 7.51978
      vertex 9.55463 2.5 7.51978
      vertex 9.71614 -2.5 8.01684
    endloop
  endfacet
  facet normal 0.994522 -2.321e-17 -0.104529
    outer loop
      vertex 9.5 2.5 7
      vertex 9.55463 2.5 7.51978
      vertex 9.55463 -2.5 7.51978
    endloop
  endfacet
  facet normal 0.994522 -2.321e-17 -0.104529
    outer loop
      vertex 9.5 -2.5 7
      vertex 9.5 2.5 7
      vertex 9.55463 -2.5 7.51978
    endloop
  endfacet
  facet normal 0 1 0
    outer loop
      vertex 13.6728 2.5 8.85786
      vertex 7 2.5 14
      vertex 20 2.5 14
    endloop
  endfacet
  facet normal 0 1 0
    outer loop
      vertex 7 2.5 0
      vertex 7 2.5 14
      vertex 9.5 2.5 7
    endloop
  endfacet
  facet normal 0 1 0
    outer loop
      vertex 10.75 2.5 9.16506
      vertex 7 2.5 14
      vertex 11.2275 2.5 9.37764
    endloop
  endfacet
  facet normal 0 1 0
    outer loop
      vertex 7 2.5 0
      vertex 9.5 2.5 7
      vertex 9.55463 2.5 6.48022
    endloop
  endfacet
  facet normal 0 1 0
    outer loop
      vertex 7 2.5 0
      vertex 9.55463 2.5 6.48022
      vertex 9.71614 2.5 5.98316
    endloop
  endfacet
  facet normal 0 1 0
    outer loop
      vertex 7 2.5 0
      vertex 9.71614 2.5 5.98316
      vertex 9.97746 2.5 5.53054
    endloop
  endfacet
  facet normal 0 1 0
    outer loop
      vertex 7 2.5 0
      vertex 9.97746 2.5 5.53054
      vertex 10.3272 2.5 5.14214
    endloop
  endfacet
  facet normal 0 1 0
    outer loop
      vertex 7 2.5 0
      vertex 10.3272 2.5 5.14214
      vertex 10.75 2.5 4.83494
    endloop
  endfacet
  facet normal 0 1 0
    outer loop
      vertex 7 2.5 0
      vertex 10.75 2.5 4.83494
      vertex 20 2.5 0
    endloop
  endfacet
  facet normal 0 1 0
    outer loop
      vertex 10.75 2.5 4.83494
      vertex 11.2275 2.5 4.62236
      vertex 20 2.5 0
    endloop
  endfacet
  facet normal 0 1 0
    outer loop
      vertex 12.2613 2.5 4.5137
      vertex 20 2.5 0
      vertex 11.7387 2.5 4.5137
    endloop
  endfacet
  facet normal 0 1 0
    outer loop
      vertex 12.7725 2.5 4.62236
      vertex 20 2.5 0
      vertex 12.2613 2.5 4.5137
    endloop
  endfacet
  facet normal 0 1 0
    outer loop
      vertex 13.25 2.5 4.83494
      vertex 20 2.5 0
      vertex 12.7725 2.5 4.62236
    endloop
  endfacet
  facet normal 0 1 0
    outer loop
      vertex 14.4454 2.5 6.48022
      vertex 20 2.5 0
      vertex 14.2839 2.5 5.98316
    endloop
  endfacet
  facet normal 0 1 0
    outer loop
      vertex 13.25 2.5 4.83494
      vertex 13.6728 2.5 5.14214
      vertex 20 2.5 0
    endloop
  endfacet
  facet normal 0 1 0
    outer loop
      vertex 10.3272 2.5 8.85786
      vertex 7 2.5 14
      vertex 10.75 2.5 9.16506
    endloop
  endfacet
  facet normal 0 1 0
    outer loop
      vertex 13.6728 2.5 5.14214
      vertex 14.0225 2.5 5.53054
      vertex 20 2.5 0
    endloop
  endfacet
  facet normal 0 1 0
    outer loop
      vertex 14.0225 2.5 5.53054
      vertex 14.2839 2.5 5.98316
      vertex 20 2.5 0
    endloop
  endfacet
  facet normal 0 1 0
    outer loop
      vertex 12.7725 2.5 9.37764
      vertex 7 2.5 14
      vertex 13.25 2.5 9.16506
    endloop
  endfacet
  facet normal 0 1 0
    outer loop
      vertex 20 2.5 0
      vertex 14.4454 2.5 6.48022
      vertex 20 2.5 14
    endloop
  endfacet
  facet normal 0 1 0
    outer loop
      vertex 11.2275 2.5 9.37764
      vertex 7 2.5 14
      vertex 11.7387 2.5 9.4863
    endloop
  endfacet
  facet normal 0 1 0
    outer loop
      vertex 14.4454 2.5 6.48022
      vertex 14.5 2.5 7
      vertex 20 2.5 14
    endloop
  endfacet
  facet normal 0 1 0
    outer loop
      vertex 14.5 2.5 7
      vertex 14.4454 2.5 7.51978
      vertex 20 2.5 14
    endloop
  endfacet
  facet normal 0 1 0
    outer loop
      vertex 11.7387 2.5 9.4863
      vertex 7 2.5 14
      vertex 12.2613 2.5 9.4863
    endloop
  endfacet
  facet normal 0 1 0
    outer loop
      vertex 14.4454 2.5 7.51978
      vertex 14.2839 2.5 8.01684
      vertex 20 2.5 14
    endloop
  endfacet
  facet normal 0 1 0
    outer loop
      vertex 12.2613 2.5 9.4863
      vertex 7 2.5 14
      vertex 12.7725 2.5 9.37764
    endloop
  endfacet
  facet normal 0 1 0
    outer loop
      vertex 14.2839 2.5 8.01684
      vertex 14.0225 2.5 8.46946
      vertex 20 2.5 14
    endloop
  endfacet
  facet normal 0 1 0
    outer loop
      vertex 13.25 2.5 9.16506
      vertex 7 2.5 14
      vertex 13.6728 2.5 8.85786
    endloop
  endfacet
  facet normal 0 1 0
    outer loop
      vertex 14.0225 2.5 8.46946
      vertex 13.6728 2.5 8.85786
      vertex 20 2.5 14
    endloop
  endfacet
  facet normal 0 1 0
    outer loop
      vertex 9.97746 2.5 8.46946
      vertex 7 2.5 14
      vertex 10.3272 2.5 8.85786
    endloop
  endfacet
  facet normal 0 1 0
    outer loop
      vertex 9.71614 2.5 8.01684
      vertex 7 2.5 14
      vertex 9.97746 2.5 8.46946
    endloop
  endfacet
  facet normal 0 1 0
    outer loop
      vertex 9.55463 2.5 7.51978
      vertex 7 2.5 14
      vertex 9.71614 2.5 8.01684
    endloop
  endfacet
  facet normal 0 1 0
    outer loop
      vertex 9.5 2.5 7
      vertex 7 2.5 14
      vertex 9.55463 2.5 7.51978
    endloop
  endfacet
  facet normal 0 1 0
    outer loop
      vertex 11.7387 2.5 4.5137
      vertex 20 2.5 0
      vertex 11.2275 2.5 4.62236
    endloop
  endfacet
  facet normal 1 0 0
    outer loop
      vertex 7 2.5 14
      vertex 7 2.5 0
      vertex 7 16 0
    endloop
  endfacet
  facet normal 1 0 0
    outer loop
      vertex 7 16 14
      vertex 7 2.5 14
      vertex 7 16 0
    endloop
  endfacet
  facet normal 0 1 0
    outer loop
      vertex -7 16 0
      vertex -7 16 14
      vertex 7 16 0
    endloop
  endfacet
  facet normal 0 1 0
    outer loop
      vertex 7 16 0
      vertex -7 16 14
      vertex 7 16 14
    endloop
  endfacet
  facet normal -1 0 0
    outer loop
      vertex -7 2.5 0
      vertex -7 2.5 14
      vertex -7 16 0
    endloop
  endfacet
  facet normal -1 0 0
    outer loop
      vertex -7 16 0
      vertex -7 2.5 14
      vertex -7 16 14
    endloop
  endfacet
  facet normal 1 0 0
    outer loop
      vertex -4.5 13.5 0
      vertex -4.5 13.5 14
      vertex -4.5 4.5 14
    endloop
  endfacet
  facet normal 1 0 0
    outer loop
      vertex -4.5 4.5 0
      vertex -4.5 13.5 0
      vertex -4.5 4.5 14
    endloop
  endfacet
  facet normal 0 -1 0
    outer loop
      vertex 4.5 13.5 0
      vertex 4.5 13.5 14
      vertex -4.5 13.5 14
    endloop
  endfacet
  facet normal 0 -1 0
    outer loop
      vertex -4.5 13.5 0
      vertex 4.5 13.5 0
      vertex -4.5 13.5 14
    endloop
  endfacet
  facet normal -1 0 0
    outer loop
      vertex 4.5 13.5 14
      vertex 4.5 13.5 0
      vertex 4.5 4.5 14
    endloop
  endfacet
  facet normal -1 0 0
    outer loop
      vertex 4.5 4.5 14
      vertex 4.5 13.5 0
      vertex 4.5 4.5 0
    endloop
  endfacet
  facet normal 0 1 0
    outer loop
      vertex 4.5 4.5 14
      vertex 4.5 4.5 0
      vertex -4.5 4.5 14
    endloop
  endfacet
  facet normal 0 1 0
    outer loop
      vertex -4.5 4.5 14
      vertex 4.5 4.5 0
      vertex -4.5 4.5 0
    endloop
  endfacet
  facet normal -1 0 0
    outer loop
      vertex -20 -24.5 0
      vertex -20 -24.5 14
      vertex -20 -19.5 0
    endloop
  endfacet
  facet normal -1 0 0
    outer loop
      vertex -20 -19.5 0
      vertex -20 -24.5 14
      vertex -20 -19.5 14
    endloop
  endfacet
  facet normal 0 -1 0
    outer loop
      vertex -10.75 -24.5 4.83494
      vertex -20 -24.5 0
      vertex 20 -24.5 0
    endloop
  endfacet
  facet normal 0 -1 0
    outer loop
      vertex 11.2275 -24.5 4.62236
      vertex -20 -24.5 14
      vertex 20 -24.5 0
    endloop
  endfacet
  facet normal 0 -1 0
    outer loop
      vertex -11.2275 -24.5 4.62236
      vertex -11.7387 -24.5 4.5137
      vertex -20 -24.5 0
    endloop
  endfacet
  facet normal 0 -1 0
    outer loop
      vertex -20 -24.5 14
      vertex -20 -24.5 0
      vertex -14.4454 -24.5 6.48022
    endloop
  endfacet
  facet normal 0 -1 0
    outer loop
      vertex -9.71614 -24.5 5.98316
      vertex -9.97746 -24.5 5.53054
      vertex 20 -24.5 0
    endloop
  endfacet
  facet normal 0 -1 0
    outer loop
      vertex -20 -24.5 14
      vertex -14.4454 -24.5 6.48022
      vertex -14.5 -24.5 7
    endloop
  endfacet
  facet normal 0 -1 0
    outer loop
      vertex 11.7387 -24.5 9.4863
      vertex 12.2613 -24.5 9.4863
      vertex 20 -24.5 14
    endloop
  endfacet
  facet normal 0 -1 0
    outer loop
      vertex -20 -24.5 14
      vertex -14.5 -24.5 7
      vertex -14.4454 -24.5 7.51978
    endloop
  endfacet
  facet normal 0 -1 0
    outer loop
      vertex -20 -24.5 14
      vertex -14.4454 -24.5 7.51978
      vertex -14.2839 -24.5 8.01684
    endloop
  endfacet
  facet normal 0 -1 0
    outer loop
      vertex -9.5 -24.5 7
      vertex -9.55463 -24.5 6.48022
      vertex 20 -24.5 0
    endloop
  endfacet
  facet normal 0 -1 0
    outer loop
      vertex -20 -24.5 14
      vertex -14.2839 -24.5 8.01684
      vertex -14.0225 -24.5 8.46946
    endloop
  endfacet
  facet normal 0 -1 0
    outer loop
      vertex -9.55463 -24.5 7.51978
      vertex -9.5 -24.5 7
      vertex 20 -24.5 0
    endloop
  endfacet
  facet normal 0 -1 0
    outer loop
      vertex -20 -24.5 14
      vertex -14.0225 -24.5 8.46946
      vertex -13.6728 -24.5 8.85786
    endloop
  endfacet
  facet normal 0 -1 0
    outer loop
      vertex -9.71614 -24.5 8.01684
      vertex -9.55463 -24.5 7.51978
      vertex 20 -24.5 0
    endloop
  endfacet
  facet normal 0 -1 0
    outer loop
      vertex -20 -24.5 14
      vertex -13.6728 -24.5 8.85786
      vertex -13.25 -24.5 9.16506
    endloop
  endfacet
  facet normal 0 -1 0
    outer loop
      vertex -9.97746 -24.5 8.46946
      vertex -9.71614 -24.5 8.01684
      vertex 20 -24.5 0
    endloop
  endfacet
  facet normal 0 -1 0
    outer loop
      vertex -20 -24.5 14
      vertex -13.25 -24.5 9.16506
      vertex -12.7725 -24.5 9.37764
    endloop
  endfacet
  facet normal 0 -1 0
    outer loop
      vertex -10.3272 -24.5 8.85786
      vertex -9.97746 -24.5 8.46946
      vertex 20 -24.5 0
    endloop
  endfacet
  facet normal 0 -1 0
    outer loop
      vertex -20 -24.5 14
      vertex -12.7725 -24.5 9.37764
      vertex -12.2613 -24.5 9.4863
    endloop
  endfacet
  facet normal 0 -1 0
    outer loop
      vertex -10.75 -24.5 9.16506
      vertex -10.3272 -24.5 8.85786
      vertex 20 -24.5 0
    endloop
  endfacet
  facet normal 0 -1 0
    outer loop
      vertex -20 -24.5 14
      vertex -12.2613 -24.5 9.4863
      vertex -11.7387 -24.5 9.4863
    endloop
  endfacet
  facet normal 0 -1 0
    outer loop
      vertex -20 -24.5 14
      vertex -11.2275 -24.5 9.37764
      vertex 20 -24.5 0
    endloop
  endfacet
  facet normal 0 -1 0
    outer loop
      vertex -20 -24.5 14
      vertex -11.7387 -24.5 9.4863
      vertex -11.2275 -24.5 9.37764
    endloop
  endfacet
  facet normal 0 -1 0
    outer loop
      vertex -9.97746 -24.5 5.53054
      vertex -10.3272 -24.5 5.14214
      vertex 20 -24.5 0
    endloop
  endfacet
  facet normal 0 -1 0
    outer loop
      vertex -10.3272 -24.5 5.14214
      vertex -10.75 -24.5 4.83494
      vertex 20 -24.5 0
    endloop
  endfacet
  facet normal 0 -1 0
    outer loop
      vertex -11.2275 -24.5 4.62236
      vertex -20 -24.5 0
      vertex -10.75 -24.5 4.83494
    endloop
  endfacet
  facet normal 0 -1 0
    outer loop
      vertex -11.7387 -24.5 4.5137
      vertex -12.2613 -24.5 4.5137
      vertex -20 -24.5 0
    endloop
  endfacet
  facet normal 0 -1 0
    outer loop
      vertex 11.2275 -24.5 9.37764
      vertex 11.7387 -24.5 9.4863
      vertex 20 -24.5 14
    endloop
  endfacet
  facet normal 0 -1 0
    outer loop
      vertex -12.7725 -24.5 4.62236
      vertex -20 -24.5 0
      vertex -12.2613 -24.5 4.5137
    endloop
  endfacet
  facet normal 0 -1 0
    outer loop
      vertex -13.25 -24.5 4.83494
      vertex -20 -24.5 0
      vertex -12.7725 -24.5 4.62236
    endloop
  endfacet
  facet normal 0 -1 0
    outer loop
      vertex -13.6728 -24.5 5.14214
      vertex -20 -24.5 0
      vertex -13.25 -24.5 4.83494
    endloop
  endfacet
  facet normal 0 -1 0
    outer loop
      vertex -14.0225 -24.5 5.53054
      vertex -20 -24.5 0
      vertex -13.6728 -24.5 5.14214
    endloop
  endfacet
  facet normal 0 -1 0
    outer loop
      vertex -14.2839 -24.5 5.98316
      vertex -20 -24.5 0
      vertex -14.0225 -24.5 5.53054
    endloop
  endfacet
  facet normal 0 -1 0
    outer loop
      vertex -14.4454 -24.5 6.48022
      vertex -20 -24.5 0
      vertex -14.2839 -24.5 5.98316
    endloop
  endfacet
  facet normal 0 -1 0
    outer loop
      vertex 11.2275 -24.5 4.62236
      vertex 10.75 -24.5 4.83494
      vertex -20 -24.5 14
    endloop
  endfacet
  facet normal 0 -1 0
    outer loop
      vertex 9.5 -24.5 7
      vertex -20 -24.5 14
      vertex 9.55463 -24.5 6.48022
    endloop
  endfacet
  facet normal 0 -1 0
    outer loop
      vertex 9.55463 -24.5 7.51978
      vertex -20 -24.5 14
      vertex 9.5 -24.5 7
    endloop
  endfacet
  facet normal 0 -1 0
    outer loop
      vertex 9.71614 -24.5 8.01684
      vertex -20 -24.5 14
      vertex 9.55463 -24.5 7.51978
    endloop
  endfacet
  facet normal 0 -1 0
    outer loop
      vertex 9.97746 -24.5 8.46946
      vertex -20 -24.5 14
      vertex 9.71614 -24.5 8.01684
    endloop
  endfacet
  facet normal 0 -1 0
    outer loop
      vertex 12.2613 -24.5 9.4863
      vertex 12.7725 -24.5 9.37764
      vertex 20 -24.5 14
    endloop
  endfacet
  facet normal 0 -1 0
    outer loop
      vertex 10.3272 -24.5 8.85786
      vertex -20 -24.5 14
      vertex 9.97746 -24.5 8.46946
    endloop
  endfacet
  facet normal 0 -1 0
    outer loop
      vertex 10.75 -24.5 9.16506
      vertex -20 -24.5 14
      vertex 10.3272 -24.5 8.85786
    endloop
  endfacet
  facet normal 0 -1 0
    outer loop
      vertex 20 -24.5 14
      vertex -20 -24.5 14
      vertex 10.75 -24.5 9.16506
    endloop
  endfacet
  facet normal 0 -1 0
    outer loop
      vertex 20 -24.5 14
      vertex 10.75 -24.5 9.16506
      vertex 11.2275 -24.5 9.37764
    endloop
  endfacet
  facet normal 0 -1 0
    outer loop
      vertex 12.7725 -24.5 9.37764
      vertex 13.25 -24.5 9.16506
      vertex 20 -24.5 14
    endloop
  endfacet
  facet normal 0 -1 0
    outer loop
      vertex 13.25 -24.5 9.16506
      vertex 13.6728 -24.5 8.85786
      vertex 20 -24.5 14
    endloop
  endfacet
  facet normal 0 -1 0
    outer loop
      vertex 14.2839 -24.5 8.01684
      vertex 14.4454 -24.5 7.51978
      vertex 20 -24.5 0
    endloop
  endfacet
  facet normal 0 -1 0
    outer loop
      vertex 12.7725 -24.5 4.62236
      vertex 12.2613 -24.5 4.5137
      vertex 20 -24.5 0
    endloop
  endfacet
  facet normal 0 -1 0
    outer loop
      vertex 20 -24.5 14
      vertex 14.0225 -24.5 8.46946
      vertex 20 -24.5 0
    endloop
  endfacet
  facet normal 0 -1 0
    outer loop
      vertex 20 -24.5 14
      vertex 13.6728 -24.5 8.85786
      vertex 14.0225 -24.5 8.46946
    endloop
  endfacet
  facet normal 0 -1 0
    outer loop
      vertex 14.0225 -24.5 8.46946
      vertex 14.2839 -24.5 8.01684
      vertex 20 -24.5 0
    endloop
  endfacet
  facet normal 0 -1 0
    outer loop
      vertex 14.4454 -24.5 7.51978
      vertex 14.5 -24.5 7
      vertex 20 -24.5 0
    endloop
  endfacet
  facet normal 0 -1 0
    outer loop
      vertex 14.5 -24.5 7
      vertex 14.4454 -24.5 6.48022
      vertex 20 -24.5 0
    endloop
  endfacet
  facet normal 0 -1 0
    outer loop
      vertex 14.4454 -24.5 6.48022
      vertex 14.2839 -24.5 5.98316
      vertex 20 -24.5 0
    endloop
  endfacet
  facet normal 0 -1 0
    outer loop
      vertex 14.2839 -24.5 5.98316
      vertex 14.0225 -24.5 5.53054
      vertex 20 -24.5 0
    endloop
  endfacet
  facet normal 0 -1 0
    outer loop
      vertex 14.0225 -24.5 5.53054
      vertex 13.6728 -24.5 5.14214
      vertex 20 -24.5 0
    endloop
  endfacet
  facet normal 0 -1 0
    outer loop
      vertex 13.6728 -24.5 5.14214
      vertex 13.25 -24.5 4.83494
      vertex 20 -24.5 0
    endloop
  endfacet
  facet normal 0 -1 0
    outer loop
      vertex 13.25 -24.5 4.83494
      vertex 12.7725 -24.5 4.62236
      vertex 20 -24.5 0
    endloop
  endfacet
  facet normal 0 -1 0
    outer loop
      vertex 12.2613 -24.5 4.5137
      vertex 11.7387 -24.5 4.5137
      vertex 20 -24.5 0
    endloop
  endfacet
  facet normal 0 -1 0
    outer loop
      vertex 11.7387 -24.5 4.5137
      vertex 11.2275 -24.5 4.62236
      vertex 20 -24.5 0
    endloop
  endfacet
  facet normal 0 -1 0
    outer loop
      vertex 10.75 -24.5 4.83494
      vertex 10.3272 -24.5 5.14214
      vertex -20 -24.5 14
    endloop
  endfacet
  facet normal 0 -1 0
    outer loop
      vertex 9.97746 -24.5 5.53054
      vertex -20 -24.5 14
      vertex 10.3272 -24.5 5.14214
    endloop
  endfacet
  facet normal 0 -1 0
    outer loop
      vertex 9.71614 -24.5 5.98316
      vertex -20 -24.5 14
      vertex 9.97746 -24.5 5.53054
    endloop
  endfacet
  facet normal 0 -1 0
    outer loop
      vertex 9.55463 -24.5 6.48022
      vertex -20 -24.5 14
      vertex 9.71614 -24.5 5.98316
    endloop
  endfacet
  facet normal 0 -1 0
    outer loop
      vertex -11.2275 -24.5 9.37764
      vertex -10.75 -24.5 9.16506
      vertex 20 -24.5 0
    endloop
  endfacet
  facet normal 0 -1 0
    outer loop
      vertex -9.55463 -24.5 6.48022
      vertex -9.71614 -24.5 5.98316
      vertex 20 -24.5 0
    endloop
  endfacet
  facet normal 0 0 -1
    outer loop
      vertex -20 -24.5 0
      vertex -20 -19.5 0
      vertex 20 -24.5 0
    endloop
  endfacet
  facet normal 0 0 -1
    outer loop
      vertex 20 -24.5 0
      vertex -20 -19.5 0
      vertex -7 -19.5 0
    endloop
  endfacet
  facet normal 0 0 -1
    outer loop
      vertex -4.5 -8.5 0
      vertex -7 -19.5 0
      vertex -7 -6 0
    endloop
  endfacet
  facet normal 0 0 -1
    outer loop
      vertex 4.5 -8.5 0
      vertex -7 -6 0
      vertex 7 -6 0
    endloop
  endfacet
  facet normal 0 0 -1
    outer loop
      vertex 20 -24.5 0
      vertex -7 -19.5 0
      vertex 7 -19.5 0
    endloop
  endfacet
  facet normal 0 0 -1
    outer loop
      vertex 20 -19.5 0
      vertex 20 -24.5 0
      vertex 7 -19.5 0
    endloop
  endfacet
  facet normal 0 0 -1
    outer loop
      vertex -4.5 -8.5 0
      vertex -7 -6 0
      vertex 4.5 -8.5 0
    endloop
  endfacet
  facet normal 0 0 -1
    outer loop
      vertex -4.5 -17.5 0
      vertex -7 -19.5 0
      vertex -4.5 -8.5 0
    endloop
  endfacet
  facet normal 0 0 -1
    outer loop
      vertex 4.5 -8.5 0
      vertex 7 -19.5 0
      vertex 4.5 -17.5 0
    endloop
  endfacet
  facet normal 0 0 -1
    outer loop
      vertex 7 -19.5 0
      vertex -7 -19.5 0
      vertex -4.5 -17.5 0
    endloop
  endfacet
  facet normal 0 0 -1
    outer loop
      vertex 7 -19.5 0
      vertex -4.5 -17.5 0
      vertex 4.5 -17.5 0
    endloop
  endfacet
  facet normal 0 0 -1
    outer loop
      vertex 7 -19.5 0
      vertex 4.5 -8.5 0
      vertex 7 -6 0
    endloop
  endfacet
  facet normal 0 1 0
    outer loop
      vertex -10.75 -19.5 9.16506
      vertex -20 -19.5 14
      vertex -7 -19.5 14
    endloop
  endfacet
  facet normal 0 1 0
    outer loop
      vertex -20 -19.5 0
      vertex -20 -19.5 14
      vertex -14.5 -19.5 7
    endloop
  endfacet
  facet normal 0 1 0
    outer loop
      vertex -20 -19.5 0
      vertex -14.5 -19.5 7
      vertex -14.4454 -19.5 6.48022
    endloop
  endfacet
  facet normal 0 1 0
    outer loop
      vertex -20 -19.5 0
      vertex -14.4454 -19.5 6.48022
      vertex -14.2839 -19.5 5.98316
    endloop
  endfacet
  facet normal 0 1 0
    outer loop
      vertex -20 -19.5 0
      vertex -14.2839 -19.5 5.98316
      vertex -14.0225 -19.5 5.53054
    endloop
  endfacet
  facet normal 0 1 0
    outer loop
      vertex -20 -19.5 0
      vertex -14.0225 -19.5 5.53054
      vertex -13.6728 -19.5 5.14214
    endloop
  endfacet
  facet normal 0 1 0
    outer loop
      vertex -20 -19.5 0
      vertex -13.6728 -19.5 5.14214
      vertex -7 -19.5 0
    endloop
  endfacet
  facet normal 0 1 0
    outer loop
      vertex -13.6728 -19.5 5.14214
      vertex -13.25 -19.5 4.83494
      vertex -7 -19.5 0
    endloop
  endfacet
  facet normal 0 1 0
    outer loop
      vertex -12.2613 -19.5 4.5137
      vertex -7 -19.5 0
      vertex -12.7725 -19.5 4.62236
    endloop
  endfacet
  facet normal 0 1 0
    outer loop
      vertex -11.7387 -19.5 4.5137
      vertex -7 -19.5 0
      vertex -12.2613 -19.5 4.5137
    endloop
  endfacet
  facet normal 0 1 0
    outer loop
      vertex -11.2275 -19.5 4.62236
      vertex -7 -19.5 0
      vertex -11.7387 -19.5 4.5137
    endloop
  endfacet
  facet normal 0 1 0
    outer loop
      vertex -9.5 -19.5 7
      vertex -7 -19.5 14
      vertex -9.55463 -19.5 6.48022
    endloop
  endfacet
  facet normal 0 1 0
    outer loop
      vertex -7 -19.5 0
      vertex -11.2275 -19.5 4.62236
      vertex -10.75 -19.5 4.83494
    endloop
  endfacet
  facet normal 0 1 0
    outer loop
      vertex -7 -19.5 0
      vertex -10.75 -19.5 4.83494
      vertex -10.3272 -19.5 5.14214
    endloop
  endfacet
  facet normal 0 1 0
    outer loop
      vertex -7 -19.5 0
      vertex -10.3272 -19.5 5.14214
      vertex -9.97746 -19.5 5.53054
    endloop
  endfacet
  facet normal 0 1 0
    outer loop
      vertex -7 -19.5 0
      vertex -9.97746 -19.5 5.53054
      vertex -9.71614 -19.5 5.98316
    endloop
  endfacet
  facet normal 0 1 0
    outer loop
      vertex -7 -19.5 0
      vertex -9.71614 -19.5 5.98316
      vertex -7 -19.5 14
    endloop
  endfacet
  facet normal 0 1 0
    outer loop
      vertex -9.71614 -19.5 5.98316
      vertex -9.55463 -19.5 6.48022
      vertex -7 -19.5 14
    endloop
  endfacet
  facet normal 0 1 0
    outer loop
      vertex -9.55463 -19.5 7.51978
      vertex -7 -19.5 14
      vertex -9.5 -19.5 7
    endloop
  endfacet
  facet normal 0 1 0
    outer loop
      vertex -9.71614 -19.5 8.01684
      vertex -7 -19.5 14
      vertex -9.55463 -19.5 7.51978
    endloop
  endfacet
  facet normal 0 1 0
    outer loop
      vertex -14.4454 -19.5 7.51978
      vertex -20 -19.5 14
      vertex -14.2839 -19.5 8.01684
    endloop
  endfacet
  facet normal 0 1 0
    outer loop
      vertex -11.7387 -19.5 9.4863
      vertex -20 -19.5 14
      vertex -11.2275 -19.5 9.37764
    endloop
  endfacet
  facet normal 0 1 0
    outer loop
      vertex -9.71614 -19.5 8.01684
      vertex -9.97746 -19.5 8.46946
      vertex -7 -19.5 14
    endloop
  endfacet
  facet normal 0 1 0
    outer loop
      vertex -12.2613 -19.5 9.4863
      vertex -20 -19.5 14
      vertex -11.7387 -19.5 9.4863
    endloop
  endfacet
  facet normal 0 1 0
    outer loop
      vertex -9.97746 -19.5 8.46946
      vertex -10.3272 -19.5 8.85786
      vertex -7 -19.5 14
    endloop
  endfacet
  facet normal 0 1 0
    outer loop
      vertex -11.2275 -19.5 9.37764
      vertex -20 -19.5 14
      vertex -10.75 -19.5 9.16506
    endloop
  endfacet
  facet normal 0 1 0
    outer loop
      vertex -10.3272 -19.5 8.85786
      vertex -10.75 -19.5 9.16506
      vertex -7 -19.5 14
    endloop
  endfacet
  facet normal 0 1 0
    outer loop
      vertex -12.7725 -19.5 9.37764
      vertex -20 -19.5 14
      vertex -12.2613 -19.5 9.4863
    endloop
  endfacet
  facet normal 0 1 0
    outer loop
      vertex -13.25 -19.5 9.16506
      vertex -20 -19.5 14
      vertex -12.7725 -19.5 9.37764
    endloop
  endfacet
  facet normal 0 1 0
    outer loop
      vertex -13.6728 -19.5 8.85786
      vertex -20 -19.5 14
      vertex -13.25 -19.5 9.16506
    endloop
  endfacet
  facet normal 0 1 0
    outer loop
      vertex -14.0225 -19.5 8.46946
      vertex -20 -19.5 14
      vertex -13.6728 -19.5 8.85786
    endloop
  endfacet
  facet normal 0 1 0
    outer loop
      vertex -14.2839 -19.5 8.01684
      vertex -20 -19.5 14
      vertex -14.0225 -19.5 8.46946
    endloop
  endfacet
  facet normal 0 1 0
    outer loop
      vertex -14.5 -19.5 7
      vertex -20 -19.5 14
      vertex -14.4454 -19.5 7.51978
    endloop
  endfacet
  facet normal 0 1 0
    outer loop
      vertex -12.7725 -19.5 4.62236
      vertex -7 -19.5 0
      vertex -13.25 -19.5 4.83494
    endloop
  endfacet
  facet normal 0 0 1
    outer loop
      vertex -20 -19.5 14
      vertex -20 -24.5 14
      vertex 20 -24.5 14
    endloop
  endfacet
  facet normal 0 0 1
    outer loop
      vertex -7 -19.5 14
      vertex -20 -19.5 14
      vertex 20 -24.5 14
    endloop
  endfacet
  facet normal 0 0 1
    outer loop
      vertex 7 -19.5 14
      vertex -7 -19.5 14
      vertex 20 -24.5 14
    endloop
  endfacet
  facet normal 0 0 1
    outer loop
      vertex 20 -19.5 14
      vertex 7 -19.5 14
      vertex 20 -24.5 14
    endloop
  endfacet
  facet normal 0 0 1
    outer loop
      vertex -4.5 -17.5 14
      vertex -4.5 -8.5 14
      vertex -7 -19.5 14
    endloop
  endfacet
  facet normal 0 0 1
    outer loop
      vertex -4.5 -17.5 14
      vertex -7 -19.5 14
      vertex 7 -19.5 14
    endloop
  endfacet
  facet normal 0 0 1
    outer loop
      vertex -4.5 -8.5 14
      vertex 4.5 -8.5 14
      vertex 7 -6 14
    endloop
  endfacet
  facet normal 0 0 1
    outer loop
      vertex 7 -6 14
      vertex 4.5 -8.5 14
      vertex 7 -19.5 14
    endloop
  endfacet
  facet normal 0 0 1
    outer loop
      vertex 7 -6 14
      vertex -7 -6 14
      vertex -4.5 -8.5 14
    endloop
  endfacet
  facet normal 0 0 1
    outer loop
      vertex 7 -19.5 14
      vertex 4.5 -17.5 14
      vertex -4.5 -17.5 14
    endloop
  endfacet
  facet normal 0 0 1
    outer loop
      vertex 7 -19.5 14
      vertex 4.5 -8.5 14
      vertex 4.5 -17.5 14
    endloop
  endfacet
  facet normal 0 0 1
    outer loop
      vertex -7 -6 14
      vertex -7 -19.5 14
      vertex -4.5 -8.5 14
    endloop
  endfacet
  facet normal 1 0 0
    outer loop
      vertex 20 -24.5 14
      vertex 20 -24.5 0
      vertex 20 -19.5 0
    endloop
  endfacet
  facet normal 1 0 0
    outer loop
      vertex 20 -19.5 14
      vertex 20 -24.5 14
      vertex 20 -19.5 0
    endloop
  endfacet
  facet normal 0.994522 2.321e-17 0.104529
    outer loop
      vertex -14.4454 -24.5 6.48022
      vertex -14.4454 -19.5 6.48022
      vertex -14.5 -19.5 7
    endloop
  endfacet
  facet normal 0.994522 2.321e-17 0.104529
    outer loop
      vertex -14.5 -24.5 7
      vertex -14.4454 -24.5 6.48022
      vertex -14.5 -19.5 7
    endloop
  endfacet
  facet normal 0.951057 6.86153e-17 0.309016
    outer loop
      vertex -14.2839 -24.5 5.98316
      vertex -14.2839 -19.5 5.98316
      vertex -14.4454 -19.5 6.48022
    endloop
  endfacet
  facet normal 0.951057 6.86153e-17 0.309016
    outer loop
      vertex -14.4454 -24.5 6.48022
      vertex -14.2839 -24.5 5.98316
      vertex -14.4454 -19.5 6.48022
    endloop
  endfacet
  facet normal 0.866024 1.11023e-16 0.500002
    outer loop
      vertex -14.0225 -24.5 5.53054
      vertex -14.0225 -19.5 5.53054
      vertex -14.2839 -19.5 5.98316
    endloop
  endfacet
  facet normal 0.866024 1.11023e-16 0.500002
    outer loop
      vertex -14.2839 -24.5 5.98316
      vertex -14.0225 -24.5 5.53054
      vertex -14.2839 -19.5 5.98316
    endloop
  endfacet
  facet normal 0.743146 1.48577e-16 0.66913
    outer loop
      vertex -13.6728 -24.5 5.14214
      vertex -13.6728 -19.5 5.14214
      vertex -14.0225 -19.5 5.53054
    endloop
  endfacet
  facet normal 0.743146 1.48577e-16 0.66913
    outer loop
      vertex -14.0225 -24.5 5.53054
      vertex -13.6728 -24.5 5.14214
      vertex -14.0225 -19.5 5.53054
    endloop
  endfacet
  facet normal 0.587786 1.79638e-16 0.809017
    outer loop
      vertex -13.25 -24.5 4.83494
      vertex -13.25 -19.5 4.83494
      vertex -13.6728 -19.5 5.14214
    endloop
  endfacet
  facet normal 0.587786 1.79638e-16 0.809017
    outer loop
      vertex -13.6728 -24.5 5.14214
      vertex -13.25 -24.5 4.83494
      vertex -13.6728 -19.5 5.14214
    endloop
  endfacet
  facet normal 0.406735 2.02848e-16 0.913546
    outer loop
      vertex -12.7725 -24.5 4.62236
      vertex -12.7725 -19.5 4.62236
      vertex -13.25 -19.5 4.83494
    endloop
  endfacet
  facet normal 0.406735 2.02848e-16 0.913546
    outer loop
      vertex -13.25 -24.5 4.83494
      vertex -12.7725 -24.5 4.62236
      vertex -13.25 -19.5 4.83494
    endloop
  endfacet
  facet normal 0.207913 2.17192e-16 0.978147
    outer loop
      vertex -12.2613 -24.5 4.5137
      vertex -12.2613 -19.5 4.5137
      vertex -12.7725 -19.5 4.62236
    endloop
  endfacet
  facet normal 0.207913 2.17192e-16 0.978147
    outer loop
      vertex -12.7725 -24.5 4.62236
      vertex -12.2613 -24.5 4.5137
      vertex -12.7725 -19.5 4.62236
    endloop
  endfacet
  facet normal 0 2.22045e-16 1
    outer loop
      vertex -11.7387 -24.5 4.5137
      vertex -11.7387 -19.5 4.5137
      vertex -12.2613 -19.5 4.5137
    endloop
  endfacet
  facet normal 0 2.22045e-16 1
    outer loop
      vertex -12.2613 -24.5 4.5137
      vertex -11.7387 -24.5 4.5137
      vertex -12.2613 -19.5 4.5137
    endloop
  endfacet
  facet normal -0.207913 2.17192e-16 0.978147
    outer loop
      vertex -11.2275 -24.5 4.62236
      vertex -11.2275 -19.5 4.62236
      vertex -11.7387 -19.5 4.5137
    endloop
  endfacet
  facet normal -0.207913 2.17192e-16 0.978147
    outer loop
      vertex -11.7387 -24.5 4.5137
      vertex -11.2275 -24.5 4.62236
      vertex -11.7387 -19.5 4.5137
    endloop
  endfacet
  facet normal -0.406735 2.02848e-16 0.913546
    outer loop
      vertex -10.75 -24.5 4.83494
      vertex -10.75 -19.5 4.83494
      vertex -11.2275 -19.5 4.62236
    endloop
  endfacet
  facet normal -0.406735 2.02848e-16 0.913546
    outer loop
      vertex -11.2275 -24.5 4.62236
      vertex -10.75 -24.5 4.83494
      vertex -11.2275 -19.5 4.62236
    endloop
  endfacet
  facet normal -0.587786 1.79638e-16 0.809017
    outer loop
      vertex -10.3272 -24.5 5.14214
      vertex -10.3272 -19.5 5.14214
      vertex -10.75 -19.5 4.83494
    endloop
  endfacet
  facet normal -0.587786 1.79638e-16 0.809017
    outer loop
      vertex -10.75 -24.5 4.83494
      vertex -10.3272 -24.5 5.14214
      vertex -10.75 -19.5 4.83494
    endloop
  endfacet
  facet normal -0.743146 1.48577e-16 0.66913
    outer loop
      vertex -9.97746 -19.5 5.53054
      vertex -10.3272 -19.5 5.14214
      vertex -9.97746 -24.5 5.53054
    endloop
  endfacet
  facet normal -0.743146 1.48577e-16 0.66913
    outer loop
      vertex -9.97746 -24.5 5.53054
      vertex -10.3272 -19.5 5.14214
      vertex -10.3272 -24.5 5.14214
    endloop
  endfacet
  facet normal -0.866024 1.11023e-16 0.500002
    outer loop
      vertex -9.71614 -19.5 5.98316
      vertex -9.97746 -19.5 5.53054
      vertex -9.71614 -24.5 5.98316
    endloop
  endfacet
  facet normal -0.866024 1.11023e-16 0.500002
    outer loop
      vertex -9.71614 -24.5 5.98316
      vertex -9.97746 -19.5 5.53054
      vertex -9.97746 -24.5 5.53054
    endloop
  endfacet
  facet normal -0.951057 6.86153e-17 0.309016
    outer loop
      vertex -9.55463 -19.5 6.48022
      vertex -9.71614 -19.5 5.98316
      vertex -9.55463 -24.5 6.48022
    endloop
  endfacet
  facet normal -0.951057 6.86153e-17 0.309016
    outer loop
      vertex -9.55463 -24.5 6.48022
      vertex -9.71614 -19.5 5.98316
      vertex -9.71614 -24.5 5.98316
    endloop
  endfacet
  facet normal -0.994522 2.321e-17 0.104529
    outer loop
      vertex -9.5 -19.5 7
      vertex -9.55463 -19.5 6.48022
      vertex -9.5 -24.5 7
    endloop
  endfacet
  facet normal -0.994522 2.321e-17 0.104529
    outer loop
      vertex -9.5 -24.5 7
      vertex -9.55463 -19.5 6.48022
      vertex -9.55463 -24.5 6.48022
    endloop
  endfacet
  facet normal -0.994522 -2.321e-17 -0.104529
    outer loop
      vertex -9.5 -19.5 7
      vertex -9.5 -24.5 7
      vertex -9.55463 -19.5 7.51978
    endloop
  endfacet
  facet normal -0.994522 -2.321e-17 -0.104529
    outer loop
      vertex -9.55463 -19.5 7.51978
      vertex -9.5 -24.5 7
      vertex -9.55463 -24.5 7.51978
    endloop
  endfacet
  facet normal -0.951057 -6.86153e-17 -0.309016
    outer loop
      vertex -9.55463 -19.5 7.51978
      vertex -9.55463 -24.5 7.51978
      vertex -9.71614 -19.5 8.01684
    endloop
  endfacet
  facet normal -0.951057 -6.86153e-17 -0.309016
    outer loop
      vertex -9.71614 -19.5 8.01684
      vertex -9.55463 -24.5 7.51978
      vertex -9.71614 -24.5 8.01684
    endloop
  endfacet
  facet normal -0.866024 -1.11023e-16 -0.500002
    outer loop
      vertex -9.71614 -19.5 8.01684
      vertex -9.71614 -24.5 8.01684
      vertex -9.97746 -19.5 8.46946
    endloop
  endfacet
  facet normal -0.866024 -1.11023e-16 -0.500002
    outer loop
      vertex -9.97746 -19.5 8.46946
      vertex -9.71614 -24.5 8.01684
      vertex -9.97746 -24.5 8.46946
    endloop
  endfacet
  facet normal -0.743146 -1.48577e-16 -0.66913
    outer loop
      vertex -9.97746 -19.5 8.46946
      vertex -9.97746 -24.5 8.46946
      vertex -10.3272 -19.5 8.85786
    endloop
  endfacet
  facet normal -0.743146 -1.48577e-16 -0.66913
    outer loop
      vertex -10.3272 -19.5 8.85786
      vertex -9.97746 -24.5 8.46946
      vertex -10.3272 -24.5 8.85786
    endloop
  endfacet
  facet normal -0.587786 -1.79638e-16 -0.809017
    outer loop
      vertex -10.3272 -19.5 8.85786
      vertex -10.3272 -24.5 8.85786
      vertex -10.75 -19.5 9.16506
    endloop
  endfacet
  facet normal -0.587786 -1.79638e-16 -0.809017
    outer loop
      vertex -10.75 -19.5 9.16506
      vertex -10.3272 -24.5 8.85786
      vertex -10.75 -24.5 9.16506
    endloop
  endfacet
  facet normal -0.406735 -2.02848e-16 -0.913546
    outer loop
      vertex -10.75 -19.5 9.16506
      vertex -10.75 -24.5 9.16506
      vertex -11.2275 -19.5 9.37764
    endloop
  endfacet
  facet normal -0.406735 -2.02848e-16 -0.913546
    outer loop
      vertex -11.2275 -19.5 9.37764
      vertex -10.75 -24.5 9.16506
      vertex -11.2275 -24.5 9.37764
    endloop
  endfacet
  facet normal -0.207913 -2.17192e-16 -0.978147
    outer loop
      vertex -11.2275 -19.5 9.37764
      vertex -11.2275 -24.5 9.37764
      vertex -11.7387 -19.5 9.4863
    endloop
  endfacet
  facet normal -0.207913 -2.17192e-16 -0.978147
    outer loop
      vertex -11.7387 -19.5 9.4863
      vertex -11.2275 -24.5 9.37764
      vertex -11.7387 -24.5 9.4863
    endloop
  endfacet
  facet normal 0 -2.22045e-16 -1
    outer loop
      vertex -11.7387 -19.5 9.4863
      vertex -11.7387 -24.5 9.4863
      vertex -12.2613 -19.5 9.4863
    endloop
  endfacet
  facet normal 0 -2.22045e-16 -1
    outer loop
      vertex -12.2613 -19.5 9.4863
      vertex -11.7387 -24.5 9.4863
      vertex -12.2613 -24.5 9.4863
    endloop
  endfacet
  facet normal 0.207913 -2.17192e-16 -0.978147
    outer loop
      vertex -12.2613 -19.5 9.4863
      vertex -12.2613 -24.5 9.4863
      vertex -12.7725 -19.5 9.37764
    endloop
  endfacet
  facet normal 0.207913 -2.17192e-16 -0.978147
    outer loop
      vertex -12.7725 -19.5 9.37764
      vertex -12.2613 -24.5 9.4863
      vertex -12.7725 -24.5 9.37764
    endloop
  endfacet
  facet normal 0.406735 -2.02848e-16 -0.913546
    outer loop
      vertex -12.7725 -19.5 9.37764
      vertex -12.7725 -24.5 9.37764
      vertex -13.25 -19.5 9.16506
    endloop
  endfacet
  facet normal 0.406735 -2.02848e-16 -0.913546
    outer loop
      vertex -13.25 -19.5 9.16506
      vertex -12.7725 -24.5 9.37764
      vertex -13.25 -24.5 9.16506
    endloop
  endfacet
  facet normal 0.587786 -1.79638e-16 -0.809017
    outer loop
      vertex -13.25 -19.5 9.16506
      vertex -13.25 -24.5 9.16506
      vertex -13.6728 -19.5 8.85786
    endloop
  endfacet
  facet normal 0.587786 -1.79638e-16 -0.809017
    outer loop
      vertex -13.6728 -19.5 8.85786
      vertex -13.25 -24.5 9.16506
      vertex -13.6728 -24.5 8.85786
    endloop
  endfacet
  facet normal 0.743146 -1.48577e-16 -0.66913
    outer loop
      vertex -14.0225 -19.5 8.46946
      vertex -13.6728 -19.5 8.85786
      vertex -13.6728 -24.5 8.85786
    endloop
  endfacet
  facet normal 0.743146 -1.48577e-16 -0.66913
    outer loop
      vertex -14.0225 -24.5 8.46946
      vertex -14.0225 -19.5 8.46946
      vertex -13.6728 -24.5 8.85786
    endloop
  endfacet
  facet normal 0.866024 -1.11023e-16 -0.500002
    outer loop
      vertex -14.2839 -19.5 8.01684
      vertex -14.0225 -19.5 8.46946
      vertex -14.0225 -24.5 8.46946
    endloop
  endfacet
  facet normal 0.866024 -1.11023e-16 -0.500002
    outer loop
      vertex -14.2839 -24.5 8.01684
      vertex -14.2839 -19.5 8.01684
      vertex -14.0225 -24.5 8.46946
    endloop
  endfacet
  facet normal 0.951057 -6.86153e-17 -0.309016
    outer loop
      vertex -14.4454 -19.5 7.51978
      vertex -14.2839 -19.5 8.01684
      vertex -14.2839 -24.5 8.01684
    endloop
  endfacet
  facet normal 0.951057 -6.86153e-17 -0.309016
    outer loop
      vertex -14.4454 -24.5 7.51978
      vertex -14.4454 -19.5 7.51978
      vertex -14.2839 -24.5 8.01684
    endloop
  endfacet
  facet normal 0.994522 -2.321e-17 -0.104529
    outer loop
      vertex -14.5 -19.5 7
      vertex -14.4454 -19.5 7.51978
      vertex -14.4454 -24.5 7.51978
    endloop
  endfacet
  facet normal 0.994522 -2.321e-17 -0.104529
    outer loop
      vertex -14.5 -24.5 7
      vertex -14.5 -19.5 7
      vertex -14.4454 -24.5 7.51978
    endloop
  endfacet
  facet normal 0.994522 2.321e-17 0.104529
    outer loop
      vertex 9.55463 -24.5 6.48022
      vertex 9.55463 -19.5 6.48022
      vertex 9.5 -19.5 7
    endloop
  endfacet
  facet normal 0.994522 2.321e-17 0.104529
    outer loop
      vertex 9.5 -24.5 7
      vertex 9.55463 -24.5 6.48022
      vertex 9.5 -19.5 7
    endloop
  endfacet
  facet normal 0.951057 6.86153e-17 0.309016
    outer loop
      vertex 9.71614 -24.5 5.98316
      vertex 9.71614 -19.5 5.98316
      vertex 9.55463 -19.5 6.48022
    endloop
  endfacet
  facet normal 0.951057 6.86153e-17 0.309016
    outer loop
      vertex 9.55463 -24.5 6.48022
      vertex 9.71614 -24.5 5.98316
      vertex 9.55463 -19.5 6.48022
    endloop
  endfacet
  facet normal 0.866024 1.11023e-16 0.500002
    outer loop
      vertex 9.97746 -24.5 5.53054
      vertex 9.97746 -19.5 5.53054
      vertex 9.71614 -19.5 5.98316
    endloop
  endfacet
  facet normal 0.866024 1.11023e-16 0.500002
    outer loop
      vertex 9.71614 -24.5 5.98316
      vertex 9.97746 -24.5 5.53054
      vertex 9.71614 -19.5 5.98316
    endloop
  endfacet
  facet normal 0.743146 1.48577e-16 0.66913
    outer loop
      vertex 10.3272 -24.5 5.14214
      vertex 10.3272 -19.5 5.14214
      vertex 9.97746 -19.5 5.53054
    endloop
  endfacet
  facet normal 0.743146 1.48577e-16 0.66913
    outer loop
      vertex 9.97746 -24.5 5.53054
      vertex 10.3272 -24.5 5.14214
      vertex 9.97746 -19.5 5.53054
    endloop
  endfacet
  facet normal 0.587786 1.79638e-16 0.809017
    outer loop
      vertex 10.75 -24.5 4.83494
      vertex 10.75 -19.5 4.83494
      vertex 10.3272 -19.5 5.14214
    endloop
  endfacet
  facet normal 0.587786 1.79638e-16 0.809017
    outer loop
      vertex 10.3272 -24.5 5.14214
      vertex 10.75 -24.5 4.83494
      vertex 10.3272 -19.5 5.14214
    endloop
  endfacet
  facet normal 0.406735 2.02848e-16 0.913546
    outer loop
      vertex 11.2275 -24.5 4.62236
      vertex 11.2275 -19.5 4.62236
      vertex 10.75 -19.5 4.83494
    endloop
  endfacet
  facet normal 0.406735 2.02848e-16 0.913546
    outer loop
      vertex 10.75 -24.5 4.83494
      vertex 11.2275 -24.5 4.62236
      vertex 10.75 -19.5 4.83494
    endloop
  endfacet
  facet normal 0.207913 2.17192e-16 0.978147
    outer loop
      vertex 11.7387 -24.5 4.5137
      vertex 11.7387 -19.5 4.5137
      vertex 11.2275 -19.5 4.62236
    endloop
  endfacet
  facet normal 0.207913 2.17192e-16 0.978147
    outer loop
      vertex 11.2275 -24.5 4.62236
      vertex 11.7387 -24.5 4.5137
      vertex 11.2275 -19.5 4.62236
    endloop
  endfacet
  facet normal 0 2.22045e-16 1
    outer loop
      vertex 12.2613 -24.5 4.5137
      vertex 12.2613 -19.5 4.5137
      vertex 11.7387 -19.5 4.5137
    endloop
  endfacet
  facet normal 0 2.22045e-16 1
    outer loop
      vertex 11.7387 -24.5 4.5137
      vertex 12.2613 -24.5 4.5137
      vertex 11.7387 -19.5 4.5137
    endloop
  endfacet
  facet normal -0.207913 2.17192e-16 0.978147
    outer loop
      vertex 12.7725 -24.5 4.62236
      vertex 12.7725 -19.5 4.62236
      vertex 12.2613 -19.5 4.5137
    endloop
  endfacet
  facet normal -0.207913 2.17192e-16 0.978147
    outer loop
      vertex 12.2613 -24.5 4.5137
      vertex 12.7725 -24.5 4.62236
      vertex 12.2613 -19.5 4.5137
    endloop
  endfacet
  facet normal -0.406735 2.02848e-16 0.913546
    outer loop
      vertex 13.25 -24.5 4.83494
      vertex 13.25 -19.5 4.83494
      vertex 12.7725 -19.5 4.62236
    endloop
  endfacet
  facet normal -0.406735 2.02848e-16 0.913546
    outer loop
      vertex 12.7725 -24.5 4.62236
      vertex 13.25 -24.5 4.83494
      vertex 12.7725 -19.5 4.62236
    endloop
  endfacet
  facet normal -0.587786 1.79638e-16 0.809017
    outer loop
      vertex 13.6728 -24.5 5.14214
      vertex 13.6728 -19.5 5.14214
      vertex 13.25 -19.5 4.83494
    endloop
  endfacet
  facet normal -0.587786 1.79638e-16 0.809017
    outer loop
      vertex 13.25 -24.5 4.83494
      vertex 13.6728 -24.5 5.14214
      vertex 13.25 -19.5 4.83494
    endloop
  endfacet
  facet normal -0.743146 1.48577e-16 0.66913
    outer loop
      vertex 14.0225 -19.5 5.53054
      vertex 13.6728 -19.5 5.14214
      vertex 14.0225 -24.5 5.53054
    endloop
  endfacet
  facet normal -0.743146 1.48577e-16 0.66913
    outer loop
      vertex 14.0225 -24.5 5.53054
      vertex 13.6728 -19.5 5.14214
      vertex 13.6728 -24.5 5.14214
    endloop
  endfacet
  facet normal -0.866024 1.11023e-16 0.500002
    outer loop
      vertex 14.2839 -19.5 5.98316
      vertex 14.0225 -19.5 5.53054
      vertex 14.2839 -24.5 5.98316
    endloop
  endfacet
  facet normal -0.866024 1.11023e-16 0.500002
    outer loop
      vertex 14.2839 -24.5 5.98316
      vertex 14.0225 -19.5 5.53054
      vertex 14.0225 -24.5 5.53054
    endloop
  endfacet
  facet normal -0.951057 6.86153e-17 0.309016
    outer loop
      vertex 14.4454 -19.5 6.48022
      vertex 14.2839 -19.5 5.98316
      vertex 14.4454 -24.5 6.48022
    endloop
  endfacet
  facet normal -0.951057 6.86153e-17 0.309016
    outer loop
      vertex 14.4454 -24.5 6.48022
      vertex 14.2839 -19.5 5.98316
      vertex 14.2839 -24.5 5.98316
    endloop
  endfacet
  facet normal -0.994522 2.321e-17 0.104529
    outer loop
      vertex 14.5 -19.5 7
      vertex 14.4454 -19.5 6.48022
      vertex 14.5 -24.5 7
    endloop
  endfacet
  facet normal -0.994522 2.321e-17 0.104529
    outer loop
      vertex 14.5 -24.5 7
      vertex 14.4454 -19.5 6.48022
      vertex 14.4454 -24.5 6.48022
    endloop
  endfacet
  facet normal -0.994522 -2.321e-17 -0.104529
    outer loop
      vertex 14.5 -19.5 7
      vertex 14.5 -24.5 7
      vertex 14.4454 -19.5 7.51978
    endloop
  endfacet
  facet normal -0.994522 -2.321e-17 -0.104529
    outer loop
      vertex 14.4454 -19.5 7.51978
      vertex 14.5 -24.5 7
      vertex 14.4454 -24.5 7.51978
    endloop
  endfacet
  facet normal -0.951057 -6.86153e-17 -0.309016
    outer loop
      vertex 14.4454 -19.5 7.51978
      vertex 14.4454 -24.5 7.51978
      vertex 14.2839 -19.5 8.01684
    endloop
  endfacet
  facet normal -0.951057 -6.86153e-17 -0.309016
    outer loop
      vertex 14.2839 -19.5 8.01684
      vertex 14.4454 -24.5 7.51978
      vertex 14.2839 -24.5 8.01684
    endloop
  endfacet
  facet normal -0.866024 -1.11023e-16 -0.500002
    outer loop
      vertex 14.2839 -19.5 8.01684
      vertex 14.2839 -24.5 8.01684
      vertex 14.0225 -19.5 8.46946
    endloop
  endfacet
  facet normal -0.866024 -1.11023e-16 -0.500002
    outer loop
      vertex 14.0225 -19.5 8.46946
      vertex 14.2839 -24.5 8.01684
      vertex 14.0225 -24.5 8.46946
    endloop
  endfacet
  facet normal -0.743146 -1.48577e-16 -0.66913
    outer loop
      vertex 14.0225 -19.5 8.46946
      vertex 14.0225 -24.5 8.46946
      vertex 13.6728 -19.5 8.85786
    endloop
  endfacet
  facet normal -0.743146 -1.48577e-16 -0.66913
    outer loop
      vertex 13.6728 -19.5 8.85786
      vertex 14.0225 -24.5 8.46946
      vertex 13.6728 -24.5 8.85786
    endloop
  endfacet
  facet normal -0.587786 -1.79638e-16 -0.809017
    outer loop
      vertex 13.6728 -19.5 8.85786
      vertex 13.6728 -24.5 8.85786
      vertex 13.25 -19.5 9.16506
    endloop
  endfacet
  facet normal -0.587786 -1.79638e-16 -0.809017
    outer loop
      vertex 13.25 -19.5 9.16506
      vertex 13.6728 -24.5 8.85786
      vertex 13.25 -24.5 9.16506
    endloop
  endfacet
  facet normal -0.406735 -2.02848e-16 -0.913546
    outer loop
      vertex 13.25 -19.5 9.16506
      vertex 13.25 -24.5 9.16506
      vertex 12.7725 -19.5 9.37764
    endloop
  endfacet
  facet normal -0.406735 -2.02848e-16 -0.913546
    outer loop
      vertex 12.7725 -19.5 9.37764
      vertex 13.25 -24.5 9.16506
      vertex 12.7725 -24.5 9.37764
    endloop
  endfacet
  facet normal -0.207913 -2.17192e-16 -0.978147
    outer loop
      vertex 12.7725 -19.5 9.37764
      vertex 12.7725 -24.5 9.37764
      vertex 12.2613 -19.5 9.4863
    endloop
  endfacet
  facet normal -0.207913 -2.17192e-16 -0.978147
    outer loop
      vertex 12.2613 -19.5 9.4863
      vertex 12.7725 -24.5 9.37764
      vertex 12.2613 -24.5 9.4863
    endloop
  endfacet
  facet normal 0 -2.22045e-16 -1
    outer loop
      vertex 12.2613 -19.5 9.4863
      vertex 12.2613 -24.5 9.4863
      vertex 11.7387 -19.5 9.4863
    endloop
  endfacet
  facet normal 0 -2.22045e-16 -1
    outer loop
      vertex 11.7387 -19.5 9.4863
      vertex 12.2613 -24.5 9.4863
      vertex 11.7387 -24.5 9.4863
    endloop
  endfacet
  facet normal 0.207913 -2.17192e-16 -0.978147
    outer loop
      vertex 11.7387 -19.5 9.4863
      vertex 11.7387 -24.5 9.4863
      vertex 11.2275 -19.5 9.37764
    endloop
  endfacet
  facet normal 0.207913 -2.17192e-16 -0.978147
    outer loop
      vertex 11.2275 -19.5 9.37764
      vertex 11.7387 -24.5 9.4863
      vertex 11.2275 -24.5 9.37764
    endloop
  endfacet
  facet normal 0.406735 -2.02848e-16 -0.913546
    outer loop
      vertex 11.2275 -19.5 9.37764
      vertex 11.2275 -24.5 9.37764
      vertex 10.75 -19.5 9.16506
    endloop
  endfacet
  facet normal 0.406735 -2.02848e-16 -0.913546
    outer loop
      vertex 10.75 -19.5 9.16506
      vertex 11.2275 -24.5 9.37764
      vertex 10.75 -24.5 9.16506
    endloop
  endfacet
  facet normal 0.587786 -1.79638e-16 -0.809017
    outer loop
      vertex 10.75 -19.5 9.16506
      vertex 10.75 -24.5 9.16506
      vertex 10.3272 -19.5 8.85786
    endloop
  endfacet
  facet normal 0.587786 -1.79638e-16 -0.809017
    outer loop
      vertex 10.3272 -19.5 8.85786
      vertex 10.75 -24.5 9.16506
      vertex 10.3272 -24.5 8.85786
    endloop
  endfacet
  facet normal 0.743146 -1.48577e-16 -0.66913
    outer loop
      vertex 9.97746 -19.5 8.46946
      vertex 10.3272 -19.5 8.85786
      vertex 10.3272 -24.5 8.85786
    endloop
  endfacet
  facet normal 0.743146 -1.48577e-16 -0.66913
    outer loop
      vertex 9.97746 -24.5 8.46946
      vertex 9.97746 -19.5 8.46946
      vertex 10.3272 -24.5 8.85786
    endloop
  endfacet
  facet normal 0.866024 -1.11023e-16 -0.500002
    outer loop
      vertex 9.71614 -19.5 8.01684
      vertex 9.97746 -19.5 8.46946
      vertex 9.97746 -24.5 8.46946
    endloop
  endfacet
  facet normal 0.866024 -1.11023e-16 -0.500002
    outer loop
      vertex 9.71614 -24.5 8.01684
      vertex 9.71614 -19.5 8.01684
      vertex 9.97746 -24.5 8.46946
    endloop
  endfacet
  facet normal 0.951057 -6.86153e-17 -0.309016
    outer loop
      vertex 9.55463 -19.5 7.51978
      vertex 9.71614 -19.5 8.01684
      vertex 9.71614 -24.5 8.01684
    endloop
  endfacet
  facet normal 0.951057 -6.86153e-17 -0.309016
    outer loop
      vertex 9.55463 -24.5 7.51978
      vertex 9.55463 -19.5 7.51978
      vertex 9.71614 -24.5 8.01684
    endloop
  endfacet
  facet normal 0.994522 -2.321e-17 -0.104529
    outer loop
      vertex 9.5 -19.5 7
      vertex 9.55463 -19.5 7.51978
      vertex 9.55463 -24.5 7.51978
    endloop
  endfacet
  facet normal 0.994522 -2.321e-17 -0.104529
    outer loop
      vertex 9.5 -24.5 7
      vertex 9.5 -19.5 7
      vertex 9.55463 -24.5 7.51978
    endloop
  endfacet
  facet normal 0 1 0
    outer loop
      vertex 13.6728 -19.5 8.85786
      vertex 7 -19.5 14
      vertex 20 -19.5 14
    endloop
  endfacet
  facet normal 0 1 0
    outer loop
      vertex 7 -19.5 0
      vertex 7 -19.5 14
      vertex 9.5 -19.5 7
    endloop
  endfacet
  facet normal 0 1 0
    outer loop
      vertex 10.75 -19.5 9.16506
      vertex 7 -19.5 14
      vertex 11.2275 -19.5 9.37764
    endloop
  endfacet
  facet normal 0 1 0
    outer loop
      vertex 7 -19.5 0
      vertex 9.5 -19.5 7
      vertex 9.55463 -19.5 6.48022
    endloop
  endfacet
  facet normal 0 1 0
    outer loop
      vertex 7 -19.5 0
      vertex 9.55463 -19.5 6.48022
      vertex 9.71614 -19.5 5.98316
    endloop
  endfacet
  facet normal 0 1 0
    outer loop
      vertex 7 -19.5 0
      vertex 9.71614 -19.5 5.98316
      vertex 9.97746 -19.5 5.53054
    endloop
  endfacet
  facet normal 0 1 0
    outer loop
      vertex 7 -19.5 0
      vertex 9.97746 -19.5 5.53054
      vertex 10.3272 -19.5 5.14214
    endloop
  endfacet
  facet normal 0 1 0
    outer loop
      vertex 7 -19.5 0
      vertex 10.3272 -19.5 5.14214
      vertex 10.75 -19.5 4.83494
    endloop
  endfacet
  facet normal 0 1 0
    outer loop
      vertex 7 -19.5 0
      vertex 10.75 -19.5 4.83494
      vertex 20 -19.5 0
    endloop
  endfacet
  facet normal 0 1 0
    outer loop
      vertex 10.75 -19.5 4.83494
      vertex 11.2275 -19.5 4.62236
      vertex 20 -19.5 0
    endloop
  endfacet
  facet normal 0 1 0
    outer loop
      vertex 12.2613 -19.5 4.5137
      vertex 20 -19.5 0
      vertex 11.7387 -19.5 4.5137
    endloop
  endfacet
  facet normal 0 1 0
    outer loop
      vertex 12.7725 -19.5 4.62236
      vertex 20 -19.5 0
      vertex 12.2613 -19.5 4.5137
    endloop
  endfacet
  facet normal 0 1 0
    outer loop
      vertex 13.25 -19.5 4.83494
      vertex 20 -19.5 0
      vertex 12.7725 -19.5 4.62236
    endloop
  endfacet
  facet normal 0 1 0
    outer loop
      vertex 14.4454 -19.5 6.48022
      vertex 20 -19.5 0
      vertex 14.2839 -19.5 5.98316
    endloop
  endfacet
  facet normal 0 1 0
    outer loop
      vertex 13.25 -19.5 4.83494
      vertex 13.6728 -19.5 5.14214
      vertex 20 -19.5 0
    endloop
  endfacet
  facet normal 0 1 0
    outer loop
      vertex 10.3272 -19.5 8.85786
      vertex 7 -19.5 14
      vertex 10.75 -19.5 9.16506
    endloop
  endfacet
  facet normal 0 1 0
    outer loop
      vertex 13.6728 -19.5 5.14214
      vertex 14.0225 -19.5 5.53054
      vertex 20 -19.5 0
    endloop
  endfacet
  facet normal 0 1 0
    outer loop
      vertex 14.0225 -19.5 5.53054
      vertex 14.2839 -19.5 5.98316
      vertex 20 -19.5 0
    endloop
  endfacet
  facet normal 0 1 0
    outer loop
      vertex 12.7725 -19.5 9.37764
      vertex 7 -19.5 14
      vertex 13.25 -19.5 9.16506
    endloop
  endfacet
  facet normal 0 1 0
    outer loop
      vertex 20 -19.5 0
      vertex 14.4454 -19.5 6.48022
      vertex 20 -19.5 14
    endloop
  endfacet
  facet normal 0 1 0
    outer loop
      vertex 11.2275 -19.5 9.37764
      vertex 7 -19.5 14
      vertex 11.7387 -19.5 9.4863
    endloop
  endfacet
  facet normal 0 1 0
    outer loop
      vertex 14.4454 -19.5 6.48022
      vertex 14.5 -19.5 7
      vertex 20 -19.5 14
    endloop
  endfacet
  facet normal 0 1 0
    outer loop
      vertex 14.5 -19.5 7
      vertex 14.4454 -19.5 7.51978
      vertex 20 -19.5 14
    endloop
  endfacet
  facet normal 0 1 0
    outer loop
      vertex 11.7387 -19.5 9.4863
      vertex 7 -19.5 14
      vertex 12.2613 -19.5 9.4863
    endloop
  endfacet
  facet normal 0 1 0
    outer loop
      vertex 14.4454 -19.5 7.51978
      vertex 14.2839 -19.5 8.01684
      vertex 20 -19.5 14
    endloop
  endfacet
  facet normal 0 1 0
    outer loop
      vertex 12.2613 -19.5 9.4863
      vertex 7 -19.5 14
      vertex 12.7725 -19.5 9.37764
    endloop
  endfacet
  facet normal 0 1 0
    outer loop
      vertex 14.2839 -19.5 8.01684
      vertex 14.0225 -19.5 8.46946
      vertex 20 -19.5 14
    endloop
  endfacet
  facet normal 0 1 0
    outer loop
      vertex 13.25 -19.5 9.16506
      vertex 7 -19.5 14
      vertex 13.6728 -19.5 8.85786
    endloop
  endfacet
  facet normal 0 1 0
    outer loop
      vertex 14.0225 -19.5 8.46946
      vertex 13.6728 -19.5 8.85786
      vertex 20 -19.5 14
    endloop
  endfacet
  facet normal 0 1 0
    outer loop
      vertex 9.97746 -19.5 8.46946
      vertex 7 -19.5 14
      vertex 10.3272 -19.5 8.85786
    endloop
  endfacet
  facet normal 0 1 0
    outer loop
      vertex 9.71614 -19.5 8.01684
      vertex 7 -19.5 14
      vertex 9.97746 -19.5 8.46946
    endloop
  endfacet
  facet normal 0 1 0
    outer loop
      vertex 9.55463 -19.5 7.51978
      vertex 7 -19.5 14
      vertex 9.71614 -19.5 8.01684
    endloop
  endfacet
  facet normal 0 1 0
    outer loop
      vertex 9.5 -19.5 7
      vertex 7 -19.5 14
      vertex 9.55463 -19.5 7.51978
    endloop
  endfacet
  facet normal 0 1 0
    outer loop
      vertex 11.7387 -19.5 4.5137
      vertex 20 -19.5 0
      vertex 11.2275 -19.5 4.62236
    endloop
  endfacet
  facet normal 1 0 0
    outer loop
      vertex 7 -19.5 14
      vertex 7 -19.5 0
      vertex 7 -6 0
    endloop
  endfacet
  facet normal 1 0 0
    outer loop
      vertex 7 -6 14
      vertex 7 -19.5 14
      vertex 7 -6 0
    endloop
  endfacet
  facet normal 0 1 0
    outer loop
      vertex -7 -6 0
      vertex -7 -6 14
      vertex 7 -6 0
    endloop
  endfacet
  facet normal 0 1 0
    outer loop
      vertex 7 -6 0
      vertex -7 -6 14
      vertex 7 -6 14
    endloop
  endfacet
  facet normal -1 0 0
    outer loop
      vertex -7 -19.5 0
      vertex -7 -19.5 14
      vertex -7 -6 0
    endloop
  endfacet
  facet normal -1 0 0
    outer loop
      vertex -7 -6 0
      vertex -7 -19.5 14
      vertex -7 -6 14
    endloop
  endfacet
  facet normal 1 0 0
    outer loop
      vertex -4.5 -8.5 0
      vertex -4.5 -8.5 14
      vertex -4.5 -17.5 14
    endloop
  endfacet
  facet normal 1 0 0
    outer loop
      vertex -4.5 -17.5 0
      vertex -4.5 -8.5 0
      vertex -4.5 -17.5 14
    endloop
  endfacet
  facet normal 0 -1 0
    outer loop
      vertex 4.5 -8.5 0
      vertex 4.5 -8.5 14
      vertex -4.5 -8.5 14
    endloop
  endfacet
  facet normal 0 -1 0
    outer loop
      vertex -4.5 -8.5 0
      vertex 4.5 -8.5 0
      vertex -4.5 -8.5 14
    endloop
  endfacet
  facet normal -1 0 0
    outer loop
      vertex 4.5 -8.5 14
      vertex 4.5 -8.5 0
      vertex 4.5 -17.5 14
    endloop
  endfacet
  facet normal -1 0 0
    outer loop
      vertex 4.5 -17.5 14
      vertex 4.5 -8.5 0
      vertex 4.5 -17.5 0
    endloop
  endfacet
  facet normal 0 1 0
    outer loop
      vertex 4.5 -17.5 14
      vertex 4.5 -17.5 0
      vertex -4.5 -17.5 14
    endloop
  endfacet
  facet normal 0 1 0
    outer loop
      vertex -4.5 -17.5 14
      vertex 4.5 -17.5 0
      vertex -4.5 -17.5 0
    endloop
  endfacet
endsolid OpenSCAD_Model
