solid OpenSCAD_Model
  facet normal -1 0 0
    outer loop
      vertex -8 -8 0
      vertex -8 -8 4
      vertex -8 28 0
    endloop
  endfacet
  facet normal -1 0 0
    outer loop
      vertex -8 28 0
      vertex -8 -8 4
      vertex -8 8.93922 4
    endloop
  endfacet
  facet normal -1 0 0
    outer loop
      vertex -8 28 0
      vertex -8 8.93922 4
      vertex -8 8.93922 15
    endloop
  endfacet
  facet normal -1 0 0
    outer loop
      vertex -8 8.93922 15
      vertex -8 -8 15
      vertex -8 -8 19
    endloop
  endfacet
  facet normal -1 0 0
    outer loop
      vertex -8 8.93922 15
      vertex -8 -8 19
      vertex -8 28 19
    endloop
  endfacet
  facet normal -1 0 0
    outer loop
      vertex -8 8.93922 15
      vertex -8 28 19
      vertex -8 28 0
    endloop
  endfacet
  facet normal 0 -1 0
    outer loop
      vertex -8 -8 4
      vertex -8 -8 0
      vertex 0 -8 0
    endloop
  endfacet
  facet normal 0 -1 0
    outer loop
      vertex 0 -8 4
      vertex -8 -8 4
      vertex 0 -8 0
    endloop
  endfacet
  facet normal 0 0 -1
    outer loop
      vertex 0 -2.5 0
      vertex 0 -7.94167 0
      vertex -1.76777 -1.76777 0
    endloop
  endfacet
  facet normal 0 0 -1
    outer loop
      vertex 0 27.9417 0
      vertex -8 28 0
      vertex 0 28 0
    endloop
  endfacet
  facet normal 0 0 -1
    outer loop
      vertex -1.76777 1.76777 0
      vertex -4.40166 19.0644 0
      vertex -3.64058 17.355 0
    endloop
  endfacet
  facet normal 0 0 -1
    outer loop
      vertex 1.39058 24.2798 0
      vertex 0.964293 27.9417 0
      vertex 2.83684 27.4801 0
    endloop
  endfacet
  facet normal 0 0 -1
    outer loop
      vertex 3.01109 23.3442 0
      vertex 2.83684 27.4801 0
      vertex 4.54452 26.5839 0
    endloop
  endfacet
  facet normal 0 0 -1
    outer loop
      vertex 4.5 20 0
      vertex 4.54452 26.5839 0
      vertex 5.98809 25.305 0
    endloop
  endfacet
  facet normal 0 0 -1
    outer loop
      vertex 1.76777 1.76777 0
      vertex 5.98809 25.305 0
      vertex 7.08365 23.7178 0
    endloop
  endfacet
  facet normal 0 0 -1
    outer loop
      vertex 0 2.5 0
      vertex 3.01109 16.6558 0
      vertex 4.11095 18.1697 0
    endloop
  endfacet
  facet normal 0 0 -1
    outer loop
      vertex 2.5 0 0
      vertex 8 20 0
      vertex 8 0 0
    endloop
  endfacet
  facet normal 0 0 -1
    outer loop
      vertex -0.470378 24.4753 0
      vertex 0.964293 27.9417 0
      vertex 1.39058 24.2798 0
    endloop
  endfacet
  facet normal 0 0 -1
    outer loop
      vertex -1.76777 1.76777 0
      vertex -3.64058 17.355 0
      vertex -2.25 16.1029 0
    endloop
  endfacet
  facet normal 0 0 -1
    outer loop
      vertex -3.64058 22.645 0
      vertex -4.40166 20.9356 0
      vertex -8 28 0
    endloop
  endfacet
  facet normal 0 0 -1
    outer loop
      vertex -1.76777 1.76777 0
      vertex -0.470378 15.5247 0
      vertex 0 2.5 0
    endloop
  endfacet
  facet normal 0 0 -1
    outer loop
      vertex -4.40166 20.9356 0
      vertex -4.40166 19.0644 0
      vertex -8 28 0
    endloop
  endfacet
  facet normal 0 0 -1
    outer loop
      vertex 1.76777 -1.76777 0
      vertex 0 -7.94167 0
      vertex 0 -2.5 0
    endloop
  endfacet
  facet normal 0 0 -1
    outer loop
      vertex 1.39058 15.7202 0
      vertex 0 2.5 0
      vertex -0.470378 15.5247 0
    endloop
  endfacet
  facet normal 0 0 -1
    outer loop
      vertex 3.01109 23.3442 0
      vertex 4.54452 26.5839 0
      vertex 4.11095 21.8303 0
    endloop
  endfacet
  facet normal 0 0 -1
    outer loop
      vertex 4.11095 18.1697 0
      vertex 4.5 20 0
      vertex 5.98809 25.305 0
    endloop
  endfacet
  facet normal 0 0 -1
    outer loop
      vertex 1.39058 24.2798 0
      vertex 2.83684 27.4801 0
      vertex 3.01109 23.3442 0
    endloop
  endfacet
  facet normal 0 0 -1
    outer loop
      vertex -0.470378 24.4753 0
      vertex 0 27.9417 0
      vertex 0.964293 27.9417 0
    endloop
  endfacet
  facet normal 0 0 -1
    outer loop
      vertex -2.25 23.8971 0
      vertex 0 27.9417 0
      vertex -0.470378 24.4753 0
    endloop
  endfacet
  facet normal 0 0 -1
    outer loop
      vertex 0 2.5 0
      vertex 1.39058 15.7202 0
      vertex 3.01109 16.6558 0
    endloop
  endfacet
  facet normal 0 0 -1
    outer loop
      vertex -3.64058 22.645 0
      vertex 0 27.9417 0
      vertex -2.25 23.8971 0
    endloop
  endfacet
  facet normal 0 0 -1
    outer loop
      vertex 1.76777 1.76777 0
      vertex 7.08365 23.7178 0
      vertex 7.76753 21.9145 0
    endloop
  endfacet
  facet normal 0 0 -1
    outer loop
      vertex -2.5 0 0
      vertex -8 28 0
      vertex -1.76777 1.76777 0
    endloop
  endfacet
  facet normal 0 0 -1
    outer loop
      vertex 0 27.9417 0
      vertex -3.64058 22.645 0
      vertex -8 28 0
    endloop
  endfacet
  facet normal 0 0 -1
    outer loop
      vertex -8 -8 0
      vertex -8 28 0
      vertex -2.5 0 0
    endloop
  endfacet
  facet normal 0 0 -1
    outer loop
      vertex -8 -8 0
      vertex -2.5 0 0
      vertex 0 -8 0
    endloop
  endfacet
  facet normal 0 0 -1
    outer loop
      vertex 0 -7.94167 0
      vertex 0 -8 0
      vertex -1.76777 -1.76777 0
    endloop
  endfacet
  facet normal 0 0 -1
    outer loop
      vertex -2.5 0 0
      vertex -1.76777 -1.76777 0
      vertex 0 -8 0
    endloop
  endfacet
  facet normal 0 0 -1
    outer loop
      vertex -1.76777 1.76777 0
      vertex -2.25 16.1029 0
      vertex -0.470378 15.5247 0
    endloop
  endfacet
  facet normal 0 0 -1
    outer loop
      vertex -4.40166 19.0644 0
      vertex -1.76777 1.76777 0
      vertex -8 28 0
    endloop
  endfacet
  facet normal 0 0 -1
    outer loop
      vertex 4.11095 21.8303 0
      vertex 4.54452 26.5839 0
      vertex 4.5 20 0
    endloop
  endfacet
  facet normal 0 0 -1
    outer loop
      vertex 0 2.5 0
      vertex 5.98809 25.305 0
      vertex 1.76777 1.76777 0
    endloop
  endfacet
  facet normal 0 0 -1
    outer loop
      vertex 1.76777 1.76777 0
      vertex 8 20 0
      vertex 2.5 0 0
    endloop
  endfacet
  facet normal 0 0 -1
    outer loop
      vertex 1.76777 1.76777 0
      vertex 7.76753 21.9145 0
      vertex 8 20 0
    endloop
  endfacet
  facet normal 0 0 -1
    outer loop
      vertex 0 2.5 0
      vertex 4.11095 18.1697 0
      vertex 5.98809 25.305 0
    endloop
  endfacet
  facet normal 0 0 -1
    outer loop
      vertex 0 -7.94167 0
      vertex 1.76777 -1.76777 0
      vertex 2.5 0 0
    endloop
  endfacet
  facet normal 0 0 -1
    outer loop
      vertex 0 -7.94167 0
      vertex 2.5 0 0
      vertex 8 0 0
    endloop
  endfacet
  facet normal 0 0 -1
    outer loop
      vertex 0 -7.94167 0
      vertex 8 0 0
      vertex 7.76753 -1.91452 0
    endloop
  endfacet
  facet normal 0 0 -1
    outer loop
      vertex 0 -7.94167 0
      vertex 7.76753 -1.91452 0
      vertex 7.08365 -3.71778 0
    endloop
  endfacet
  facet normal 0 0 -1
    outer loop
      vertex 0 -7.94167 0
      vertex 7.08365 -3.71778 0
      vertex 5.98809 -5.30498 0
    endloop
  endfacet
  facet normal 0 0 -1
    outer loop
      vertex 0 -7.94167 0
      vertex 5.98809 -5.30498 0
      vertex 4.54452 -6.58387 0
    endloop
  endfacet
  facet normal 0 0 -1
    outer loop
      vertex 0 -7.94167 0
      vertex 4.54452 -6.58387 0
      vertex 2.83684 -7.48013 0
    endloop
  endfacet
  facet normal 0 0 -1
    outer loop
      vertex 0 -7.94167 0
      vertex 2.83684 -7.48013 0
      vertex 0.964293 -7.94167 0
    endloop
  endfacet
  facet normal 0 1 0
    outer loop
      vertex -8 28 0
      vertex -8 28 19
      vertex 0 28 0
    endloop
  endfacet
  facet normal 0 1 0
    outer loop
      vertex 0 28 0
      vertex -8 28 19
      vertex 0 28 19
    endloop
  endfacet
  facet normal 0 0 1
    outer loop
      vertex -1.76777 -1.76777 19
      vertex -8 -8 19
      vertex 0 -8 19
    endloop
  endfacet
  facet normal 0 0 1
    outer loop
      vertex -1.76777 1.76777 19
      vertex 0 2.5 19
      vertex -8 28 19
    endloop
  endfacet
  facet normal 0 0 1
    outer loop
      vertex -2.5 0 19
      vertex -1.76777 1.76777 19
      vertex -8 28 19
    endloop
  endfacet
  facet normal 0 0 1
    outer loop
      vertex 1.76777 -1.76777 19
      vertex 0 -2.5 19
      vertex 2.83684 -7.48013 19
    endloop
  endfacet
  facet normal 0 0 1
    outer loop
      vertex -2.25 23.8971 19
      vertex -0.470378 24.4753 19
      vertex -8 28 19
    endloop
  endfacet
  facet normal 0 0 1
    outer loop
      vertex 7.08365 23.7178 19
      vertex -8 28 19
      vertex 7.76753 21.9145 19
    endloop
  endfacet
  facet normal 0 0 1
    outer loop
      vertex 5.98809 25.305 19
      vertex -8 28 19
      vertex 7.08365 23.7178 19
    endloop
  endfacet
  facet normal 0 0 1
    outer loop
      vertex 4.54452 26.5839 19
      vertex -8 28 19
      vertex 5.98809 25.305 19
    endloop
  endfacet
  facet normal 0 0 1
    outer loop
      vertex 2.83684 27.4801 19
      vertex -8 28 19
      vertex 4.54452 26.5839 19
    endloop
  endfacet
  facet normal 0 0 1
    outer loop
      vertex 0 27.9417 19
      vertex -8 28 19
      vertex 2.83684 27.4801 19
    endloop
  endfacet
  facet normal 0 0 1
    outer loop
      vertex -2.25 16.1029 19
      vertex 5.98809 -5.30498 19
      vertex 7.08365 -3.71778 19
    endloop
  endfacet
  facet normal 0 0 1
    outer loop
      vertex 0.964293 27.9417 19
      vertex 0 27.9417 19
      vertex 2.83684 27.4801 19
    endloop
  endfacet
  facet normal 0 0 1
    outer loop
      vertex 0 2.5 19
      vertex 1.76777 1.76777 19
      vertex -4.40166 19.0644 19
    endloop
  endfacet
  facet normal 0 0 1
    outer loop
      vertex 0 -7.94167 19
      vertex -1.76777 -1.76777 19
      vertex 0 -8 19
    endloop
  endfacet
  facet normal 0 0 1
    outer loop
      vertex -2.25 16.1029 19
      vertex -3.64058 17.355 19
      vertex 5.98809 -5.30498 19
    endloop
  endfacet
  facet normal 0 0 1
    outer loop
      vertex 0 -2.5 19
      vertex 0 -7.94167 19
      vertex 0.964293 -7.94167 19
    endloop
  endfacet
  facet normal 0 0 1
    outer loop
      vertex -0.470378 15.5247 19
      vertex 7.08365 -3.71778 19
      vertex 7.76753 -1.91452 19
    endloop
  endfacet
  facet normal 0 0 1
    outer loop
      vertex -2.25 23.8971 19
      vertex -8 28 19
      vertex -3.64058 22.645 19
    endloop
  endfacet
  facet normal 0 0 1
    outer loop
      vertex 1.39058 15.7202 19
      vertex -0.470378 15.5247 19
      vertex 8 0 19
    endloop
  endfacet
  facet normal 0 0 1
    outer loop
      vertex 4.11095 21.8303 19
      vertex 4.5 20 19
      vertex 8 20 19
    endloop
  endfacet
  facet normal 0 0 1
    outer loop
      vertex 1.39058 24.2798 19
      vertex -8 28 19
      vertex -0.470378 24.4753 19
    endloop
  endfacet
  facet normal 0 0 1
    outer loop
      vertex 3.01109 23.3442 19
      vertex 4.11095 21.8303 19
      vertex 8 20 19
    endloop
  endfacet
  facet normal 0 0 1
    outer loop
      vertex 7.76753 21.9145 19
      vertex -8 28 19
      vertex 1.39058 24.2798 19
    endloop
  endfacet
  facet normal 0 0 1
    outer loop
      vertex 7.76753 21.9145 19
      vertex 3.01109 23.3442 19
      vertex 8 20 19
    endloop
  endfacet
  facet normal 0 0 1
    outer loop
      vertex -0.470378 15.5247 19
      vertex -2.25 16.1029 19
      vertex 7.08365 -3.71778 19
    endloop
  endfacet
  facet normal 0 0 1
    outer loop
      vertex 1.39058 24.2798 19
      vertex 3.01109 23.3442 19
      vertex 7.76753 21.9145 19
    endloop
  endfacet
  facet normal 0 0 1
    outer loop
      vertex 8 20 19
      vertex 4.5 20 19
      vertex 8 0 19
    endloop
  endfacet
  facet normal 0 0 1
    outer loop
      vertex 4.5 20 19
      vertex 4.11095 18.1697 19
      vertex 8 0 19
    endloop
  endfacet
  facet normal 0 0 1
    outer loop
      vertex 4.11095 18.1697 19
      vertex 3.01109 16.6558 19
      vertex 8 0 19
    endloop
  endfacet
  facet normal 0 0 1
    outer loop
      vertex 3.01109 16.6558 19
      vertex 1.39058 15.7202 19
      vertex 8 0 19
    endloop
  endfacet
  facet normal 0 0 1
    outer loop
      vertex -0.470378 15.5247 19
      vertex 7.76753 -1.91452 19
      vertex 8 0 19
    endloop
  endfacet
  facet normal 0 0 1
    outer loop
      vertex 5.98809 -5.30498 19
      vertex -3.64058 17.355 19
      vertex -4.40166 19.0644 19
    endloop
  endfacet
  facet normal 0 0 1
    outer loop
      vertex -4.40166 20.9356 19
      vertex -3.64058 22.645 19
      vertex -8 28 19
    endloop
  endfacet
  facet normal 0 0 1
    outer loop
      vertex -2.5 0 19
      vertex -8 -8 19
      vertex -1.76777 -1.76777 19
    endloop
  endfacet
  facet normal 0 0 1
    outer loop
      vertex -8 28 19
      vertex -8 -8 19
      vertex -2.5 0 19
    endloop
  endfacet
  facet normal 0 0 1
    outer loop
      vertex 2.5 0 19
      vertex 1.76777 -1.76777 19
      vertex 4.54452 -6.58387 19
    endloop
  endfacet
  facet normal 0 0 1
    outer loop
      vertex 5.98809 -5.30498 19
      vertex -4.40166 19.0644 19
      vertex 1.76777 1.76777 19
    endloop
  endfacet
  facet normal 0 0 1
    outer loop
      vertex 5.98809 -5.30498 19
      vertex 2.5 0 19
      vertex 4.54452 -6.58387 19
    endloop
  endfacet
  facet normal 0 0 1
    outer loop
      vertex 5.98809 -5.30498 19
      vertex 1.76777 1.76777 19
      vertex 2.5 0 19
    endloop
  endfacet
  facet normal 0 0 1
    outer loop
      vertex 4.54452 -6.58387 19
      vertex 1.76777 -1.76777 19
      vertex 2.83684 -7.48013 19
    endloop
  endfacet
  facet normal 0 0 1
    outer loop
      vertex 2.83684 -7.48013 19
      vertex 0 -2.5 19
      vertex 0.964293 -7.94167 19
    endloop
  endfacet
  facet normal 0 0 1
    outer loop
      vertex 0 2.5 19
      vertex -4.40166 19.0644 19
      vertex -8 28 19
    endloop
  endfacet
  facet normal 0 0 1
    outer loop
      vertex 0 27.9417 19
      vertex 0 28 19
      vertex -8 28 19
    endloop
  endfacet
  facet normal 0 0 1
    outer loop
      vertex -4.40166 19.0644 19
      vertex -4.40166 20.9356 19
      vertex -8 28 19
    endloop
  endfacet
  facet normal 0 0 1
    outer loop
      vertex 0 -2.5 19
      vertex -1.76777 -1.76777 19
      vertex 0 -7.94167 19
    endloop
  endfacet
  facet normal 0 -1 0
    outer loop
      vertex -8 -8 19
      vertex -8 -8 15
      vertex 0 -8 15
    endloop
  endfacet
  facet normal 0 -1 0
    outer loop
      vertex 0 -8 19
      vertex -8 -8 19
      vertex 0 -8 15
    endloop
  endfacet
  facet normal 0 0 -1
    outer loop
      vertex -6 10.3923 15
      vertex -3.7082 11.4127 15
      vertex -8 8.93922 15
    endloop
  endfacet
  facet normal 0 0 -1
    outer loop
      vertex -8 8.93922 15
      vertex -3.7082 11.4127 15
      vertex -1.25434 11.9343 15
    endloop
  endfacet
  facet normal 0 0 -1
    outer loop
      vertex -8 8.93922 15
      vertex -1.25434 11.9343 15
      vertex 1.25434 11.9343 15
    endloop
  endfacet
  facet normal 0 0 -1
    outer loop
      vertex -8 8.93922 15
      vertex 1.25434 11.9343 15
      vertex 3.7082 11.4127 15
    endloop
  endfacet
  facet normal 0 0 -1
    outer loop
      vertex -8 8.93922 15
      vertex 3.7082 11.4127 15
      vertex 6 10.3923 15
    endloop
  endfacet
  facet normal 0 0 -1
    outer loop
      vertex -8 8.93922 15
      vertex 6 10.3923 15
      vertex 8 8.93922 15
    endloop
  endfacet
  facet normal 0 0 -1
    outer loop
      vertex -8 8.93922 15
      vertex 8 8.93922 15
      vertex 8 0 15
    endloop
  endfacet
  facet normal 0 0 -1
    outer loop
      vertex -8 8.93922 15
      vertex 8 0 15
      vertex 7.76753 -1.91452 15
    endloop
  endfacet
  facet normal 0 0 -1
    outer loop
      vertex 1.76777 1.76777 15
      vertex 7.76753 -1.91452 15
      vertex 7.08365 -3.71778 15
    endloop
  endfacet
  facet normal 0 0 -1
    outer loop
      vertex 2.5 0 15
      vertex 7.08365 -3.71778 15
      vertex 5.98809 -5.30498 15
    endloop
  endfacet
  facet normal 0 0 -1
    outer loop
      vertex 1.76777 -1.76777 15
      vertex 5.98809 -5.30498 15
      vertex 4.54452 -6.58387 15
    endloop
  endfacet
  facet normal 0 0 -1
    outer loop
      vertex 0 -2.5 15
      vertex 4.54452 -6.58387 15
      vertex 2.83684 -7.48013 15
    endloop
  endfacet
  facet normal 0 0 -1
    outer loop
      vertex -1.76777 -1.76777 15
      vertex 2.83684 -7.48013 15
      vertex 0.964293 -7.94167 15
    endloop
  endfacet
  facet normal 0 0 -1
    outer loop
      vertex -8 8.93922 15
      vertex 0.964293 -7.94167 15
      vertex 0 -7.94167 15
    endloop
  endfacet
  facet normal 0 0 -1
    outer loop
      vertex -8 8.93922 15
      vertex 0 -7.94167 15
      vertex 0 -8 15
    endloop
  endfacet
  facet normal 0 0 -1
    outer loop
      vertex -8 8.93922 15
      vertex 0 -8 15
      vertex -8 -8 15
    endloop
  endfacet
  facet normal 0 0 -1
    outer loop
      vertex -8 8.93922 15
      vertex -1.76777 -1.76777 15
      vertex 0.964293 -7.94167 15
    endloop
  endfacet
  facet normal 0 0 -1
    outer loop
      vertex 1.76777 -1.76777 15
      vertex 4.54452 -6.58387 15
      vertex 0 -2.5 15
    endloop
  endfacet
  facet normal 0 0 -1
    outer loop
      vertex 2.5 0 15
      vertex 5.98809 -5.30498 15
      vertex 1.76777 -1.76777 15
    endloop
  endfacet
  facet normal 0 0 -1
    outer loop
      vertex 1.76777 1.76777 15
      vertex 7.08365 -3.71778 15
      vertex 2.5 0 15
    endloop
  endfacet
  facet normal 0 0 -1
    outer loop
      vertex -8 8.93922 15
      vertex 7.76753 -1.91452 15
      vertex 1.76777 1.76777 15
    endloop
  endfacet
  facet normal 0 0 -1
    outer loop
      vertex -1.76777 1.76777 15
      vertex -8 8.93922 15
      vertex 0 2.5 15
    endloop
  endfacet
  facet normal 0 0 -1
    outer loop
      vertex -8 8.93922 15
      vertex 1.76777 1.76777 15
      vertex 0 2.5 15
    endloop
  endfacet
  facet normal 0 0 -1
    outer loop
      vertex -2.5 0 15
      vertex -8 8.93922 15
      vertex -1.76777 1.76777 15
    endloop
  endfacet
  facet normal 0 0 -1
    outer loop
      vertex -8 8.93922 15
      vertex -2.5 0 15
      vertex -1.76777 -1.76777 15
    endloop
  endfacet
  facet normal 0 0 -1
    outer loop
      vertex 0 -2.5 15
      vertex 2.83684 -7.48013 15
      vertex -1.76777 -1.76777 15
    endloop
  endfacet
  facet normal 0.587785 -0.809017 0
    outer loop
      vertex -6 10.3923 4
      vertex -6 10.3923 15
      vertex -8 8.93922 15
    endloop
  endfacet
  facet normal 0.587785 -0.809017 0
    outer loop
      vertex -8 8.93922 4
      vertex -6 10.3923 4
      vertex -8 8.93922 15
    endloop
  endfacet
  facet normal 0 0 1
    outer loop
      vertex 2.83684 -7.48013 4
      vertex 0 -7.94167 4
      vertex 0.964293 -7.94167 4
    endloop
  endfacet
  facet normal 0 0 1
    outer loop
      vertex 4.54452 -6.58387 4
      vertex 0 -7.94167 4
      vertex 2.83684 -7.48013 4
    endloop
  endfacet
  facet normal 0 0 1
    outer loop
      vertex 0 2.5 4
      vertex 1.76777 1.76777 4
      vertex 1.25434 11.9343 4
    endloop
  endfacet
  facet normal 0 0 1
    outer loop
      vertex 5.98809 -5.30498 4
      vertex 0 -7.94167 4
      vertex 4.54452 -6.58387 4
    endloop
  endfacet
  facet normal 0 0 1
    outer loop
      vertex 7.08365 -3.71778 4
      vertex 0 -7.94167 4
      vertex 5.98809 -5.30498 4
    endloop
  endfacet
  facet normal 0 0 1
    outer loop
      vertex 7.76753 -1.91452 4
      vertex 0 -7.94167 4
      vertex 7.08365 -3.71778 4
    endloop
  endfacet
  facet normal 0 0 1
    outer loop
      vertex 8 0 4
      vertex 0 -7.94167 4
      vertex 7.76753 -1.91452 4
    endloop
  endfacet
  facet normal 0 0 1
    outer loop
      vertex 8 8.93922 4
      vertex 0 -7.94167 4
      vertex 8 0 4
    endloop
  endfacet
  facet normal 0 0 1
    outer loop
      vertex 6 10.3923 4
      vertex 0 -7.94167 4
      vertex 8 8.93922 4
    endloop
  endfacet
  facet normal 0 0 1
    outer loop
      vertex 2.5 0 4
      vertex 0 -7.94167 4
      vertex 6 10.3923 4
    endloop
  endfacet
  facet normal 0 0 1
    outer loop
      vertex 0 -2.5 4
      vertex -1.76777 -1.76777 4
      vertex 0 -7.94167 4
    endloop
  endfacet
  facet normal 0 0 1
    outer loop
      vertex 1.76777 1.76777 4
      vertex 2.5 0 4
      vertex 3.7082 11.4127 4
    endloop
  endfacet
  facet normal 0 0 1
    outer loop
      vertex -8 8.93922 4
      vertex 0 -8 4
      vertex -6 10.3923 4
    endloop
  endfacet
  facet normal 0 0 1
    outer loop
      vertex -8 -8 4
      vertex 0 -8 4
      vertex -8 8.93922 4
    endloop
  endfacet
  facet normal 0 0 1
    outer loop
      vertex -6 10.3923 4
      vertex -2.5 0 4
      vertex -3.7082 11.4127 4
    endloop
  endfacet
  facet normal 0 0 1
    outer loop
      vertex -6 10.3923 4
      vertex 0 -8 4
      vertex -2.5 0 4
    endloop
  endfacet
  facet normal 0 0 1
    outer loop
      vertex -3.7082 11.4127 4
      vertex -1.76777 1.76777 4
      vertex -1.25434 11.9343 4
    endloop
  endfacet
  facet normal 0 0 1
    outer loop
      vertex -1.25434 11.9343 4
      vertex 0 2.5 4
      vertex 1.25434 11.9343 4
    endloop
  endfacet
  facet normal 0 0 1
    outer loop
      vertex 1.25434 11.9343 4
      vertex 1.76777 1.76777 4
      vertex 3.7082 11.4127 4
    endloop
  endfacet
  facet normal 0 0 1
    outer loop
      vertex 0 -7.94167 4
      vertex -1.76777 -1.76777 4
      vertex 0 -8 4
    endloop
  endfacet
  facet normal 0 0 1
    outer loop
      vertex 3.7082 11.4127 4
      vertex 2.5 0 4
      vertex 6 10.3923 4
    endloop
  endfacet
  facet normal 0 0 1
    outer loop
      vertex 1.76777 -1.76777 4
      vertex 0 -7.94167 4
      vertex 2.5 0 4
    endloop
  endfacet
  facet normal 0 0 1
    outer loop
      vertex 1.76777 -1.76777 4
      vertex 0 -2.5 4
      vertex 0 -7.94167 4
    endloop
  endfacet
  facet normal 0 0 1
    outer loop
      vertex -2.5 0 4
      vertex 0 -8 4
      vertex -1.76777 -1.76777 4
    endloop
  endfacet
  facet normal 0 0 1
    outer loop
      vertex -2.5 0 4
      vertex -1.76777 1.76777 4
      vertex -3.7082 11.4127 4
    endloop
  endfacet
  facet normal 0 0 1
    outer loop
      vertex -1.76777 1.76777 4
      vertex 0 2.5 4
      vertex -1.25434 11.9343 4
    endloop
  endfacet
  facet normal 1 0 0
    outer loop
      vertex 0 -8 4
      vertex 0 -8 0
      vertex 0 -7.94167 0
    endloop
  endfacet
  facet normal 1 0 0
    outer loop
      vertex 0 -7.94167 4
      vertex 0 -8 4
      vertex 0 -7.94167 0
    endloop
  endfacet
  facet normal 0 -1 0
    outer loop
      vertex 0 -7.94167 4
      vertex 0 -7.94167 0
      vertex 0.964293 -7.94167 0
    endloop
  endfacet
  facet normal 0 -1 0
    outer loop
      vertex 0.964293 -7.94167 4
      vertex 0 -7.94167 4
      vertex 0.964293 -7.94167 0
    endloop
  endfacet
  facet normal 0.239316 -0.970942 0
    outer loop
      vertex 0.964293 -7.94167 4
      vertex 0.964293 -7.94167 0
      vertex 2.83684 -7.48013 0
    endloop
  endfacet
  facet normal 0.239316 -0.970942 0
    outer loop
      vertex 2.83684 -7.48013 4
      vertex 0.964293 -7.94167 4
      vertex 2.83684 -7.48013 0
    endloop
  endfacet
  facet normal 0.464723 -0.885456 0
    outer loop
      vertex 2.83684 -7.48013 4
      vertex 2.83684 -7.48013 0
      vertex 4.54452 -6.58387 0
    endloop
  endfacet
  facet normal 0.464723 -0.885456 0
    outer loop
      vertex 4.54452 -6.58387 4
      vertex 2.83684 -7.48013 4
      vertex 4.54452 -6.58387 0
    endloop
  endfacet
  facet normal 0.663123 -0.748511 0
    outer loop
      vertex 4.54452 -6.58387 4
      vertex 4.54452 -6.58387 0
      vertex 5.98809 -5.30498 0
    endloop
  endfacet
  facet normal 0.663123 -0.748511 0
    outer loop
      vertex 5.98809 -5.30498 4
      vertex 4.54452 -6.58387 4
      vertex 5.98809 -5.30498 0
    endloop
  endfacet
  facet normal 0.822984 -0.568065 0
    outer loop
      vertex 5.98809 -5.30498 4
      vertex 5.98809 -5.30498 0
      vertex 7.08365 -3.71778 0
    endloop
  endfacet
  facet normal 0.822984 -0.568065 0
    outer loop
      vertex 7.08365 -3.71778 4
      vertex 5.98809 -5.30498 4
      vertex 7.08365 -3.71778 0
    endloop
  endfacet
  facet normal 0.935016 -0.354605 0
    outer loop
      vertex 7.08365 -3.71778 4
      vertex 7.08365 -3.71778 0
      vertex 7.76753 -1.91452 0
    endloop
  endfacet
  facet normal 0.935016 -0.354605 0
    outer loop
      vertex 7.76753 -1.91452 4
      vertex 7.08365 -3.71778 4
      vertex 7.76753 -1.91452 0
    endloop
  endfacet
  facet normal 0.992709 -0.120536 0
    outer loop
      vertex 7.76753 -1.91452 4
      vertex 7.76753 -1.91452 0
      vertex 8 0 0
    endloop
  endfacet
  facet normal 0.992709 -0.120536 0
    outer loop
      vertex 8 0 4
      vertex 7.76753 -1.91452 4
      vertex 8 0 0
    endloop
  endfacet
  facet normal 1 0 0
    outer loop
      vertex 8 0 4
      vertex 8 0 0
      vertex 8 20 0
    endloop
  endfacet
  facet normal 1 0 0
    outer loop
      vertex 8 8.93922 4
      vertex 8 0 4
      vertex 8 20 0
    endloop
  endfacet
  facet normal 1 0 0
    outer loop
      vertex 8 0 19
      vertex 8 0 15
      vertex 8 20 19
    endloop
  endfacet
  facet normal 1 0 0
    outer loop
      vertex 8 0 15
      vertex 8 8.93922 15
      vertex 8 20 19
    endloop
  endfacet
  facet normal 1 0 0
    outer loop
      vertex 8 20 19
      vertex 8 8.93922 4
      vertex 8 20 0
    endloop
  endfacet
  facet normal 1 0 0
    outer loop
      vertex 8 8.93922 15
      vertex 8 8.93922 4
      vertex 8 20 19
    endloop
  endfacet
  facet normal 0.992709 0.120536 0
    outer loop
      vertex 8 20 0
      vertex 7.76753 21.9145 0
      vertex 7.76753 21.9145 19
    endloop
  endfacet
  facet normal 0.992709 0.120536 0
    outer loop
      vertex 8 20 19
      vertex 8 20 0
      vertex 7.76753 21.9145 19
    endloop
  endfacet
  facet normal 0.935016 0.354605 0
    outer loop
      vertex 7.76753 21.9145 0
      vertex 7.08365 23.7178 0
      vertex 7.08365 23.7178 19
    endloop
  endfacet
  facet normal 0.935016 0.354605 0
    outer loop
      vertex 7.76753 21.9145 19
      vertex 7.76753 21.9145 0
      vertex 7.08365 23.7178 19
    endloop
  endfacet
  facet normal 0.822984 0.568065 0
    outer loop
      vertex 7.08365 23.7178 0
      vertex 5.98809 25.305 0
      vertex 5.98809 25.305 19
    endloop
  endfacet
  facet normal 0.822984 0.568065 0
    outer loop
      vertex 7.08365 23.7178 19
      vertex 7.08365 23.7178 0
      vertex 5.98809 25.305 19
    endloop
  endfacet
  facet normal 0.663123 0.748511 0
    outer loop
      vertex 4.54452 26.5839 0
      vertex 4.54452 26.5839 19
      vertex 5.98809 25.305 0
    endloop
  endfacet
  facet normal 0.663123 0.748511 0
    outer loop
      vertex 5.98809 25.305 0
      vertex 4.54452 26.5839 19
      vertex 5.98809 25.305 19
    endloop
  endfacet
  facet normal 0.464723 0.885456 0
    outer loop
      vertex 2.83684 27.4801 0
      vertex 2.83684 27.4801 19
      vertex 4.54452 26.5839 0
    endloop
  endfacet
  facet normal 0.464723 0.885456 0
    outer loop
      vertex 4.54452 26.5839 0
      vertex 2.83684 27.4801 19
      vertex 4.54452 26.5839 19
    endloop
  endfacet
  facet normal 0.239316 0.970942 0
    outer loop
      vertex 0.964293 27.9417 0
      vertex 0.964293 27.9417 19
      vertex 2.83684 27.4801 0
    endloop
  endfacet
  facet normal 0.239316 0.970942 0
    outer loop
      vertex 2.83684 27.4801 0
      vertex 0.964293 27.9417 19
      vertex 2.83684 27.4801 19
    endloop
  endfacet
  facet normal 0 1 0
    outer loop
      vertex 0 27.9417 0
      vertex 0 27.9417 19
      vertex 0.964293 27.9417 0
    endloop
  endfacet
  facet normal 0 1 0
    outer loop
      vertex 0.964293 27.9417 0
      vertex 0 27.9417 19
      vertex 0.964293 27.9417 19
    endloop
  endfacet
  facet normal 1 0 0
    outer loop
      vertex 0 27.9417 19
      vertex 0 27.9417 0
      vertex 0 28 0
    endloop
  endfacet
  facet normal 1 0 0
    outer loop
      vertex 0 28 19
      vertex 0 27.9417 19
      vertex 0 28 0
    endloop
  endfacet
  facet normal 1 0 0
    outer loop
      vertex -4.40166 20.9356 0
      vertex -4.40166 20.9356 19
      vertex -4.40166 19.0644 19
    endloop
  endfacet
  facet normal 1 0 0
    outer loop
      vertex -4.40166 19.0644 0
      vertex -4.40166 20.9356 0
      vertex -4.40166 19.0644 19
    endloop
  endfacet
  facet normal 0.913545 -0.406737 0
    outer loop
      vertex -3.64058 22.645 0
      vertex -3.64058 22.645 19
      vertex -4.40166 20.9356 19
    endloop
  endfacet
  facet normal 0.913545 -0.406737 0
    outer loop
      vertex -4.40166 20.9356 0
      vertex -3.64058 22.645 0
      vertex -4.40166 20.9356 19
    endloop
  endfacet
  facet normal 0.669131 -0.743145 0
    outer loop
      vertex -2.25 23.8971 0
      vertex -2.25 23.8971 19
      vertex -3.64058 22.645 19
    endloop
  endfacet
  facet normal 0.669131 -0.743145 0
    outer loop
      vertex -3.64058 22.645 0
      vertex -2.25 23.8971 0
      vertex -3.64058 22.645 19
    endloop
  endfacet
  facet normal 0.309017 -0.951056 0
    outer loop
      vertex -0.470378 24.4753 0
      vertex -0.470378 24.4753 19
      vertex -2.25 23.8971 19
    endloop
  endfacet
  facet normal 0.309017 -0.951056 0
    outer loop
      vertex -2.25 23.8971 0
      vertex -0.470378 24.4753 0
      vertex -2.25 23.8971 19
    endloop
  endfacet
  facet normal -0.104529 -0.994522 0
    outer loop
      vertex 1.39058 24.2798 0
      vertex 1.39058 24.2798 19
      vertex -0.470378 24.4753 19
    endloop
  endfacet
  facet normal -0.104529 -0.994522 0
    outer loop
      vertex -0.470378 24.4753 0
      vertex 1.39058 24.2798 0
      vertex -0.470378 24.4753 19
    endloop
  endfacet
  facet normal -0.5 -0.866026 0
    outer loop
      vertex 3.01109 23.3442 0
      vertex 3.01109 23.3442 19
      vertex 1.39058 24.2798 19
    endloop
  endfacet
  facet normal -0.5 -0.866026 0
    outer loop
      vertex 1.39058 24.2798 0
      vertex 3.01109 23.3442 0
      vertex 1.39058 24.2798 19
    endloop
  endfacet
  facet normal -0.809017 -0.587785 0
    outer loop
      vertex 4.11095 21.8303 19
      vertex 3.01109 23.3442 19
      vertex 4.11095 21.8303 0
    endloop
  endfacet
  facet normal -0.809017 -0.587785 0
    outer loop
      vertex 4.11095 21.8303 0
      vertex 3.01109 23.3442 19
      vertex 3.01109 23.3442 0
    endloop
  endfacet
  facet normal -0.978148 -0.207911 0
    outer loop
      vertex 4.5 20 19
      vertex 4.11095 21.8303 19
      vertex 4.5 20 0
    endloop
  endfacet
  facet normal -0.978148 -0.207911 0
    outer loop
      vertex 4.5 20 0
      vertex 4.11095 21.8303 19
      vertex 4.11095 21.8303 0
    endloop
  endfacet
  facet normal -0.978148 0.207911 0
    outer loop
      vertex 4.5 20 19
      vertex 4.5 20 0
      vertex 4.11095 18.1697 19
    endloop
  endfacet
  facet normal -0.978148 0.207911 0
    outer loop
      vertex 4.11095 18.1697 19
      vertex 4.5 20 0
      vertex 4.11095 18.1697 0
    endloop
  endfacet
  facet normal -0.809017 0.587785 0
    outer loop
      vertex 4.11095 18.1697 19
      vertex 4.11095 18.1697 0
      vertex 3.01109 16.6558 19
    endloop
  endfacet
  facet normal -0.809017 0.587785 0
    outer loop
      vertex 3.01109 16.6558 19
      vertex 4.11095 18.1697 0
      vertex 3.01109 16.6558 0
    endloop
  endfacet
  facet normal -0.5 0.866026 0
    outer loop
      vertex 3.01109 16.6558 19
      vertex 3.01109 16.6558 0
      vertex 1.39058 15.7202 19
    endloop
  endfacet
  facet normal -0.5 0.866026 0
    outer loop
      vertex 1.39058 15.7202 19
      vertex 3.01109 16.6558 0
      vertex 1.39058 15.7202 0
    endloop
  endfacet
  facet normal -0.104529 0.994522 0
    outer loop
      vertex 1.39058 15.7202 19
      vertex 1.39058 15.7202 0
      vertex -0.470378 15.5247 19
    endloop
  endfacet
  facet normal -0.104529 0.994522 0
    outer loop
      vertex -0.470378 15.5247 19
      vertex 1.39058 15.7202 0
      vertex -0.470378 15.5247 0
    endloop
  endfacet
  facet normal 0.309017 0.951056 0
    outer loop
      vertex -0.470378 15.5247 19
      vertex -0.470378 15.5247 0
      vertex -2.25 16.1029 19
    endloop
  endfacet
  facet normal 0.309017 0.951056 0
    outer loop
      vertex -2.25 16.1029 19
      vertex -0.470378 15.5247 0
      vertex -2.25 16.1029 0
    endloop
  endfacet
  facet normal 0.669131 0.743145 0
    outer loop
      vertex -2.25 16.1029 19
      vertex -2.25 16.1029 0
      vertex -3.64058 17.355 19
    endloop
  endfacet
  facet normal 0.669131 0.743145 0
    outer loop
      vertex -3.64058 17.355 19
      vertex -2.25 16.1029 0
      vertex -3.64058 17.355 0
    endloop
  endfacet
  facet normal 0.913545 0.406737 0
    outer loop
      vertex -4.40166 19.0644 19
      vertex -3.64058 17.355 19
      vertex -3.64058 17.355 0
    endloop
  endfacet
  facet normal 0.913545 0.406737 0
    outer loop
      vertex -4.40166 19.0644 0
      vertex -4.40166 19.0644 19
      vertex -3.64058 17.355 0
    endloop
  endfacet
  facet normal 0.92388 -0.382683 0
    outer loop
      vertex -1.76777 1.76777 0
      vertex -1.76777 1.76777 4
      vertex -2.5 0 4
    endloop
  endfacet
  facet normal 0.92388 -0.382683 0
    outer loop
      vertex -2.5 0 0
      vertex -1.76777 1.76777 0
      vertex -2.5 0 4
    endloop
  endfacet
  facet normal 0.92388 0.382683 0
    outer loop
      vertex -2.5 0 4
      vertex -1.76777 -1.76777 4
      vertex -1.76777 -1.76777 0
    endloop
  endfacet
  facet normal 0.92388 0.382683 0
    outer loop
      vertex -2.5 0 0
      vertex -2.5 0 4
      vertex -1.76777 -1.76777 0
    endloop
  endfacet
  facet normal 0.382683 -0.92388 0
    outer loop
      vertex 0 2.5 0
      vertex 0 2.5 4
      vertex -1.76777 1.76777 4
    endloop
  endfacet
  facet normal 0.382683 -0.92388 0
    outer loop
      vertex -1.76777 1.76777 0
      vertex 0 2.5 0
      vertex -1.76777 1.76777 4
    endloop
  endfacet
  facet normal -0.382683 -0.92388 0
    outer loop
      vertex 1.76777 1.76777 0
      vertex 1.76777 1.76777 4
      vertex 0 2.5 4
    endloop
  endfacet
  facet normal -0.382683 -0.92388 0
    outer loop
      vertex 0 2.5 0
      vertex 1.76777 1.76777 0
      vertex 0 2.5 4
    endloop
  endfacet
  facet normal -0.92388 -0.382683 0
    outer loop
      vertex 2.5 0 4
      vertex 1.76777 1.76777 4
      vertex 2.5 0 0
    endloop
  endfacet
  facet normal -0.92388 -0.382683 0
    outer loop
      vertex 2.5 0 0
      vertex 1.76777 1.76777 4
      vertex 1.76777 1.76777 0
    endloop
  endfacet
  facet normal -0.92388 0.382683 0
    outer loop
      vertex 2.5 0 4
      vertex 2.5 0 0
      vertex 1.76777 -1.76777 4
    endloop
  endfacet
  facet normal -0.92388 0.382683 0
    outer loop
      vertex 1.76777 -1.76777 4
      vertex 2.5 0 0
      vertex 1.76777 -1.76777 0
    endloop
  endfacet
  facet normal -0.382683 0.92388 0
    outer loop
      vertex 1.76777 -1.76777 4
      vertex 1.76777 -1.76777 0
      vertex 0 -2.5 4
    endloop
  endfacet
  facet normal -0.382683 0.92388 0
    outer loop
      vertex 0 -2.5 4
      vertex 1.76777 -1.76777 0
      vertex 0 -2.5 0
    endloop
  endfacet
  facet normal 0.382683 0.92388 0
    outer loop
      vertex 0 -2.5 4
      vertex 0 -2.5 0
      vertex -1.76777 -1.76777 4
    endloop
  endfacet
  facet normal 0.382683 0.92388 0
    outer loop
      vertex -1.76777 -1.76777 4
      vertex 0 -2.5 0
      vertex -1.76777 -1.76777 0
    endloop
  endfacet
  facet normal 0.992709 -0.120536 0
    outer loop
      vertex 7.76753 -1.91452 19
      vertex 7.76753 -1.91452 15
      vertex 8 0 15
    endloop
  endfacet
  facet normal 0.992709 -0.120536 0
    outer loop
      vertex 8 0 19
      vertex 7.76753 -1.91452 19
      vertex 8 0 15
    endloop
  endfacet
  facet normal 0.935016 -0.354605 0
    outer loop
      vertex 7.08365 -3.71778 19
      vertex 7.08365 -3.71778 15
      vertex 7.76753 -1.91452 15
    endloop
  endfacet
  facet normal 0.935016 -0.354605 0
    outer loop
      vertex 7.76753 -1.91452 19
      vertex 7.08365 -3.71778 19
      vertex 7.76753 -1.91452 15
    endloop
  endfacet
  facet normal 0.822984 -0.568065 0
    outer loop
      vertex 5.98809 -5.30498 19
      vertex 5.98809 -5.30498 15
      vertex 7.08365 -3.71778 15
    endloop
  endfacet
  facet normal 0.822984 -0.568065 0
    outer loop
      vertex 7.08365 -3.71778 19
      vertex 5.98809 -5.30498 19
      vertex 7.08365 -3.71778 15
    endloop
  endfacet
  facet normal 0.663123 -0.748511 0
    outer loop
      vertex 4.54452 -6.58387 19
      vertex 4.54452 -6.58387 15
      vertex 5.98809 -5.30498 15
    endloop
  endfacet
  facet normal 0.663123 -0.748511 0
    outer loop
      vertex 5.98809 -5.30498 19
      vertex 4.54452 -6.58387 19
      vertex 5.98809 -5.30498 15
    endloop
  endfacet
  facet normal 0.464723 -0.885456 0
    outer loop
      vertex 2.83684 -7.48013 19
      vertex 2.83684 -7.48013 15
      vertex 4.54452 -6.58387 15
    endloop
  endfacet
  facet normal 0.464723 -0.885456 0
    outer loop
      vertex 4.54452 -6.58387 19
      vertex 2.83684 -7.48013 19
      vertex 4.54452 -6.58387 15
    endloop
  endfacet
  facet normal 0.239316 -0.970942 0
    outer loop
      vertex 0.964293 -7.94167 19
      vertex 0.964293 -7.94167 15
      vertex 2.83684 -7.48013 15
    endloop
  endfacet
  facet normal 0.239316 -0.970942 0
    outer loop
      vertex 2.83684 -7.48013 19
      vertex 0.964293 -7.94167 19
      vertex 2.83684 -7.48013 15
    endloop
  endfacet
  facet normal 0 -1 0
    outer loop
      vertex 0 -7.94167 19
      vertex 0 -7.94167 15
      vertex 0.964293 -7.94167 15
    endloop
  endfacet
  facet normal 0 -1 0
    outer loop
      vertex 0.964293 -7.94167 19
      vertex 0 -7.94167 19
      vertex 0.964293 -7.94167 15
    endloop
  endfacet
  facet normal 1 0 0
    outer loop
      vertex 0 -8 19
      vertex 0 -8 15
      vertex 0 -7.94167 15
    endloop
  endfacet
  facet normal 1 0 0
    outer loop
      vertex 0 -7.94167 19
      vertex 0 -8 19
      vertex 0 -7.94167 15
    endloop
  endfacet
  facet normal 0.92388 0.382683 0
    outer loop
      vertex -2.5 0 19
      vertex -1.76777 -1.76777 19
      vertex -1.76777 -1.76777 15
    endloop
  endfacet
  facet normal 0.92388 0.382683 0
    outer loop
      vertex -2.5 0 15
      vertex -2.5 0 19
      vertex -1.76777 -1.76777 15
    endloop
  endfacet
  facet normal 0.382683 0.92388 0
    outer loop
      vertex 0 -2.5 19
      vertex 0 -2.5 15
      vertex -1.76777 -1.76777 19
    endloop
  endfacet
  facet normal 0.382683 0.92388 0
    outer loop
      vertex -1.76777 -1.76777 19
      vertex 0 -2.5 15
      vertex -1.76777 -1.76777 15
    endloop
  endfacet
  facet normal -0.382683 0.92388 0
    outer loop
      vertex 1.76777 -1.76777 19
      vertex 1.76777 -1.76777 15
      vertex 0 -2.5 19
    endloop
  endfacet
  facet normal -0.382683 0.92388 0
    outer loop
      vertex 0 -2.5 19
      vertex 1.76777 -1.76777 15
      vertex 0 -2.5 15
    endloop
  endfacet
  facet normal -0.92388 0.382683 0
    outer loop
      vertex 2.5 0 19
      vertex 2.5 0 15
      vertex 1.76777 -1.76777 19
    endloop
  endfacet
  facet normal -0.92388 0.382683 0
    outer loop
      vertex 1.76777 -1.76777 19
      vertex 2.5 0 15
      vertex 1.76777 -1.76777 15
    endloop
  endfacet
  facet normal -0.92388 -0.382683 0
    outer loop
      vertex 2.5 0 19
      vertex 1.76777 1.76777 19
      vertex 2.5 0 15
    endloop
  endfacet
  facet normal -0.92388 -0.382683 0
    outer loop
      vertex 2.5 0 15
      vertex 1.76777 1.76777 19
      vertex 1.76777 1.76777 15
    endloop
  endfacet
  facet normal -0.382683 -0.92388 0
    outer loop
      vertex 1.76777 1.76777 15
      vertex 1.76777 1.76777 19
      vertex 0 2.5 19
    endloop
  endfacet
  facet normal -0.382683 -0.92388 0
    outer loop
      vertex 0 2.5 15
      vertex 1.76777 1.76777 15
      vertex 0 2.5 19
    endloop
  endfacet
  facet normal 0.382683 -0.92388 0
    outer loop
      vertex 0 2.5 15
      vertex 0 2.5 19
      vertex -1.76777 1.76777 19
    endloop
  endfacet
  facet normal 0.382683 -0.92388 0
    outer loop
      vertex -1.76777 1.76777 15
      vertex 0 2.5 15
      vertex -1.76777 1.76777 19
    endloop
  endfacet
  facet normal 0.92388 -0.382683 0
    outer loop
      vertex -1.76777 1.76777 15
      vertex -1.76777 1.76777 19
      vertex -2.5 0 19
    endloop
  endfacet
  facet normal 0.92388 -0.382683 0
    outer loop
      vertex -2.5 0 15
      vertex -1.76777 1.76777 15
      vertex -2.5 0 19
    endloop
  endfacet
  facet normal -0.587785 -0.809017 0
    outer loop
      vertex 8 8.93922 4
      vertex 8 8.93922 15
      vertex 6 10.3923 15
    endloop
  endfacet
  facet normal -0.587785 -0.809017 0
    outer loop
      vertex 6 10.3923 4
      vertex 8 8.93922 4
      vertex 6 10.3923 15
    endloop
  endfacet
  facet normal -0.406737 -0.913546 0
    outer loop
      vertex 6 10.3923 4
      vertex 6 10.3923 15
      vertex 3.7082 11.4127 15
    endloop
  endfacet
  facet normal -0.406737 -0.913546 0
    outer loop
      vertex 3.7082 11.4127 4
      vertex 6 10.3923 4
      vertex 3.7082 11.4127 15
    endloop
  endfacet
  facet normal -0.207912 -0.978148 0
    outer loop
      vertex 3.7082 11.4127 4
      vertex 3.7082 11.4127 15
      vertex 1.25434 11.9343 15
    endloop
  endfacet
  facet normal -0.207912 -0.978148 0
    outer loop
      vertex 1.25434 11.9343 4
      vertex 3.7082 11.4127 4
      vertex 1.25434 11.9343 15
    endloop
  endfacet
  facet normal 0 -1 0
    outer loop
      vertex 1.25434 11.9343 4
      vertex 1.25434 11.9343 15
      vertex -1.25434 11.9343 15
    endloop
  endfacet
  facet normal 0 -1 0
    outer loop
      vertex -1.25434 11.9343 4
      vertex 1.25434 11.9343 4
      vertex -1.25434 11.9343 15
    endloop
  endfacet
  facet normal 0.207912 -0.978148 0
    outer loop
      vertex -1.25434 11.9343 4
      vertex -1.25434 11.9343 15
      vertex -3.7082 11.4127 15
    endloop
  endfacet
  facet normal 0.207912 -0.978148 0
    outer loop
      vertex -3.7082 11.4127 4
      vertex -1.25434 11.9343 4
      vertex -3.7082 11.4127 15
    endloop
  endfacet
  facet normal 0.406737 -0.913546 0
    outer loop
      vertex -3.7082 11.4127 4
      vertex -3.7082 11.4127 15
      vertex -6 10.3923 15
    endloop
  endfacet
  facet normal 0.406737 -0.913546 0
    outer loop
      vertex -6 10.3923 4
      vertex -3.7082 11.4127 4
      vertex -6 10.3923 15
    endloop
  endfacet
endsolid OpenSCAD_Model
