solid 3D_02
facet normal -5.55111512312579e-17 -1.0 4.44089209850063e-16
outer loop
vertex -488.086966843344 -729.034721876348 31.6740000994877
vertex -484.086974806525 -729.034721876348 15.6740319522098
vertex -484.086974806525 -729.034721876348 31.6740000994877
endloop
endfacet
facet normal -5.55111512312579e-17 -1.0 4.44089209850063e-16
outer loop
vertex -484.086974806525 -729.034721876348 15.6740319522098
vertex -488.086966843344 -729.034721876348 31.6740000994877
vertex -488.086966843344 -729.034721876348 15.6740319522098
endloop
endfacet
facet normal 1.0 -2.54071818078112e-33 0.0
outer loop
vertex -484.086974806525 -720.534738041128 15.6740319522099
vertex -484.086974806525 -723.159432483877 23.1747868688778
vertex -484.086974806525 -724.009432078565 22.5572184296326
endloop
endfacet
facet normal 1.0 -2.54071818078112e-33 0.0
outer loop
vertex -484.086974806525 -723.159432483877 23.1747868688778
vertex -484.086974806525 -720.534738041128 15.6740319522099
vertex -484.086974806525 -722.834733916486 24.1740150304512
endloop
endfacet
facet normal 1.0 -2.54071818078112e-33 0.0
outer loop
vertex -484.086974806525 -722.834733916486 24.1740150304512
vertex -484.086974806525 -720.534738041128 15.6740319522099
vertex -484.086974806525 -720.534738041128 31.6740000994877
endloop
endfacet
facet normal 1.0 -2.54071818078112e-33 0.0
outer loop
vertex -484.086974806525 -722.834733916486 24.1740150304512
vertex -484.086974806525 -720.534738041128 31.6740000994877
vertex -484.086974806525 -723.159432483877 25.1732530327515
endloop
endfacet
facet normal 1.0 -2.54071818078112e-33 0.0
outer loop
vertex -484.086974806525 -723.159432483877 25.1732530327515
vertex -484.086974806525 -720.534738041128 31.6740000994877
vertex -484.086974806525 -724.009432078565 25.7908123882488
endloop
endfacet
facet normal 1.0 -2.54071818078112e-33 0.0
outer loop
vertex -484.086974806525 -724.009432078565 25.7908123882488
vertex -484.086974806525 -720.534738041128 31.6740000994877
vertex -484.086974806525 -725.060028077329 25.7908123882488
endloop
endfacet
facet normal 1.0 -2.54071818078112e-33 0.0
outer loop
vertex -484.086974806525 -729.034721876348 15.6740319522098
vertex -484.086974806525 -725.910030699933 23.1747868688778
vertex -484.086974806525 -729.034721876348 31.6740000994877
endloop
endfacet
facet normal 1.0 -2.54071818078112e-33 0.0
outer loop
vertex -484.086974806525 -725.910030699933 23.1747868688778
vertex -484.086974806525 -729.034721876348 15.6740319522098
vertex -484.086974806525 -720.534738041128 15.6740319522099
endloop
endfacet
facet normal 1.0 -2.54071818078112e-33 0.0
outer loop
vertex -484.086974806525 -725.910030699933 23.1747868688778
vertex -484.086974806525 -720.534738041128 15.6740319522099
vertex -484.086974806525 -725.060028077329 22.5572184296326
endloop
endfacet
facet normal 1.0 -2.54071818078112e-33 0.0
outer loop
vertex -484.086974806525 -725.060028077329 22.5572184296326
vertex -484.086974806525 -720.534738041128 15.6740319522099
vertex -484.086974806525 -724.009432078565 22.5572184296326
endloop
endfacet
facet normal 1.0 -2.54071818078112e-33 0.0
outer loop
vertex -484.086974806525 -729.034721876348 31.6740000994877
vertex -484.086974806525 -725.910030699933 23.1747868688778
vertex -484.086974806525 -726.234729267324 24.1740150304512
endloop
endfacet
facet normal 1.0 -2.54071818078112e-33 0.0
outer loop
vertex -484.086974806525 -729.034721876348 31.6740000994877
vertex -484.086974806525 -726.234729267324 24.1740150304512
vertex -484.086974806525 -725.910030699933 25.1732530327515
endloop
endfacet
facet normal 1.0 -2.54071818078112e-33 0.0
outer loop
vertex -484.086974806525 -729.034721876348 31.6740000994877
vertex -484.086974806525 -725.910030699933 25.1732530327515
vertex -484.086974806525 -725.060028077329 25.7908123882488
endloop
endfacet
facet normal 1.0 -2.54071818078112e-33 0.0
outer loop
vertex -484.086974806525 -729.034721876348 31.6740000994877
vertex -484.086974806525 -725.060028077329 25.7908123882488
vertex -484.086974806525 -720.534738041128 31.6740000994877
endloop
endfacet
facet normal 4.77565974191801e-16 -4.44089209850063e-16 -1.0
outer loop
vertex -488.086966843344 -679.034821416105 15.6740319522099
vertex -484.086974806525 -729.034721876348 15.6740319522098
vertex -488.086966843344 -729.034721876348 15.6740319522098
endloop
endfacet
facet normal 4.77565974191801e-16 -4.44089209850063e-16 -1.0
outer loop
vertex -484.086974806525 -729.034721876348 15.6740319522098
vertex -488.086966843344 -679.034821416105 15.6740319522099
vertex -484.086974806525 -720.534738041128 15.6740319522099
endloop
endfacet
facet normal 4.77565974191801e-16 -4.44089209850063e-16 -1.0
outer loop
vertex -484.086974806525 -720.534738041128 15.6740319522099
vertex -488.086966843344 -679.034821416105 15.6740319522099
vertex -483.560593218854 -716.008364416637 15.6740319522098
endloop
endfacet
facet normal 4.77565974191801e-16 -4.44089209850063e-16 -1.0
outer loop
vertex -484.086974806525 -720.534738041128 15.6740319522099
vertex -483.560593218854 -716.008364416637 15.6740319522098
vertex -464.987018604018 -720.534738041128 15.6740319522099
endloop
endfacet
facet normal 4.77565974191801e-16 -4.44089209850063e-16 -1.0
outer loop
vertex -483.560593218854 -716.008364416637 15.6740319522098
vertex -488.086966843344 -679.034821416105 15.6740319522099
vertex -483.560593218854 -692.061178118837 15.6740319522099
endloop
endfacet
facet normal 4.77565974191801e-16 -4.44089209850063e-16 -1.0
outer loop
vertex -483.560593218854 -692.061178118837 15.6740319522099
vertex -488.086966843344 -679.034821416105 15.6740319522099
vertex -484.086974806525 -687.534804494346 15.6740319522099
endloop
endfacet
facet normal 4.77565974191801e-16 -4.44089209850063e-16 -1.0
outer loop
vertex -483.560593218854 -692.061178118837 15.6740319522099
vertex -484.086974806525 -687.534804494346 15.6740319522099
vertex -477.086997700669 -692.061178118837 15.6740319522099
endloop
endfacet
facet normal 4.77565974191801e-16 -4.44089209850063e-16 -1.0
outer loop
vertex -484.086974806525 -687.534804494346 15.6740319522099
vertex -488.086966843344 -679.034821416105 15.6740319522099
vertex -484.086974806525 -679.034821416105 15.6740319522099
endloop
endfacet
facet normal 4.77565974191801e-16 -4.44089209850063e-16 -1.0
outer loop
vertex -464.987018604018 -720.534738041128 15.6740319522099
vertex -477.086997700669 -716.008364416637 15.6740319522099
vertex -464.987018604018 -687.534804494346 15.6740319522099
endloop
endfacet
facet normal 4.77565974191801e-16 -4.44089209850063e-16 -1.0
outer loop
vertex -477.086997700669 -716.008364416637 15.6740319522099
vertex -464.987018604018 -720.534738041128 15.6740319522099
vertex -483.560593218854 -716.008364416637 15.6740319522098
endloop
endfacet
facet normal 4.77565974191801e-16 -4.44089209850063e-16 -1.0
outer loop
vertex -464.987018604018 -687.534804494346 15.6740319522099
vertex -477.086997700669 -716.008364416637 15.6740319522099
vertex -477.086997700669 -692.061178118837 15.6740319522099
endloop
endfacet
facet normal 4.77565974191801e-16 -4.44089209850063e-16 -1.0
outer loop
vertex -464.987018604018 -687.534804494346 15.6740319522099
vertex -477.086997700669 -692.061178118837 15.6740319522099
vertex -484.086974806525 -687.534804494346 15.6740319522099
endloop
endfacet
facet normal -1.0 2.54071818078112e-33 0.0
outer loop
vertex -488.086966843344 -729.034721876348 15.6740319522098
vertex -488.086966843344 -725.060028077329 22.5572184296326
vertex -488.086966843344 -679.034821416105 15.6740319522099
endloop
endfacet
facet normal -1.0 2.54071818078112e-33 0.0
outer loop
vertex -488.086966843344 -725.060028077329 22.5572184296326
vertex -488.086966843344 -729.034721876348 15.6740319522098
vertex -488.086966843344 -725.910030699933 23.1747868688778
endloop
endfacet
facet normal -1.0 2.54071818078112e-33 0.0
outer loop
vertex -488.086966843344 -725.910030699933 23.1747868688778
vertex -488.086966843344 -729.034721876348 15.6740319522098
vertex -488.086966843344 -729.034721876348 31.6740000994877
endloop
endfacet
facet normal -1.0 2.54071818078112e-33 0.0
outer loop
vertex -488.086966843344 -725.910030699933 23.1747868688778
vertex -488.086966843344 -729.034721876348 31.6740000994877
vertex -488.086966843344 -726.234729267324 24.1740150304512
endloop
endfacet
facet normal -1.0 2.54071818078112e-33 0.0
outer loop
vertex -488.086966843344 -726.234729267324 24.1740150304512
vertex -488.086966843344 -729.034721876348 31.6740000994877
vertex -488.086966843344 -725.910030699933 25.1732530327515
endloop
endfacet
facet normal -1.0 2.54071818078112e-33 0.0
outer loop
vertex -488.086966843344 -725.910030699933 25.1732530327515
vertex -488.086966843344 -729.034721876348 31.6740000994877
vertex -488.086966843344 -725.060028077329 25.7908123882488
endloop
endfacet
facet normal -1.0 2.54071818078112e-33 0.0
outer loop
vertex -488.086966843344 -725.060028077329 25.7908123882488
vertex -488.086966843344 -729.034721876348 31.6740000994877
vertex -488.086966843344 -684.060141493047 25.7908123882489
endloop
endfacet
facet normal -1.0 2.54071818078112e-33 0.0
outer loop
vertex -488.086966843344 -684.060141493047 25.7908123882489
vertex -488.086966843344 -729.034721876348 31.6740000994877
vertex -488.086966843344 -683.009483422006 25.7908123882489
endloop
endfacet
facet normal -1.0 2.54071818078112e-33 0.0
outer loop
vertex -488.086966843344 -679.034821416105 15.6740319522099
vertex -488.086966843344 -682.159485152031 23.1747868688778
vertex -488.086966843344 -679.034821416105 31.6740000994877
endloop
endfacet
facet normal -1.0 2.54071818078112e-33 0.0
outer loop
vertex -488.086966843344 -682.159485152031 23.1747868688778
vertex -488.086966843344 -679.034821416105 15.6740319522099
vertex -488.086966843344 -683.009483422006 22.5572184296326
endloop
endfacet
facet normal -1.0 2.54071818078112e-33 0.0
outer loop
vertex -488.086966843344 -683.009483422006 22.5572184296326
vertex -488.086966843344 -679.034821416105 15.6740319522099
vertex -488.086966843344 -725.060028077329 22.5572184296326
endloop
endfacet
facet normal -1.0 2.54071818078112e-33 0.0
outer loop
vertex -488.086966843344 -683.009483422006 22.5572184296326
vertex -488.086966843344 -725.060028077329 22.5572184296326
vertex -488.086966843344 -724.009432078565 22.5572184296326
endloop
endfacet
facet normal -1.0 2.54071818078112e-33 0.0
outer loop
vertex -488.086966843344 -683.009483422006 22.5572184296326
vertex -488.086966843344 -724.009432078565 22.5572184296326
vertex -488.086966843344 -684.060141493047 22.5572184296326
endloop
endfacet
facet normal -1.0 2.54071818078112e-33 0.0
outer loop
vertex -488.086966843344 -679.034821416105 31.6740000994877
vertex -488.086966843344 -682.159485152031 23.1747868688778
vertex -488.086966843344 -681.834815728331 24.1740150304513
endloop
endfacet
facet normal -1.0 2.54071818078112e-33 0.0
outer loop
vertex -488.086966843344 -679.034821416105 31.6740000994877
vertex -488.086966843344 -681.834815728331 24.1740150304513
vertex -488.086966843344 -682.159485152031 25.1732530327515
endloop
endfacet
facet normal -1.0 2.54071818078112e-33 0.0
outer loop
vertex -488.086966843344 -679.034821416105 31.6740000994877
vertex -488.086966843344 -682.159485152031 25.1732530327515
vertex -488.086966843344 -683.009483422006 25.7908123882489
endloop
endfacet
facet normal -1.0 2.54071818078112e-33 0.0
outer loop
vertex -488.086966843344 -679.034821416105 31.6740000994877
vertex -488.086966843344 -683.009483422006 25.7908123882489
vertex -488.086966843344 -729.034721876348 31.6740000994877
endloop
endfacet
facet normal -1.0 2.54071818078112e-33 0.0
outer loop
vertex -488.086966843344 -723.159432483877 23.1747868688778
vertex -488.086966843344 -684.060141493047 22.5572184296326
vertex -488.086966843344 -724.009432078565 22.5572184296326
endloop
endfacet
facet normal -1.0 2.54071818078112e-33 0.0
outer loop
vertex -488.086966843344 -684.060141493047 22.5572184296326
vertex -488.086966843344 -723.159432483877 23.1747868688778
vertex -488.086966843344 -684.910139573778 23.1747868688778
endloop
endfacet
facet normal -1.0 2.54071818078112e-33 0.0
outer loop
vertex -488.086966843344 -684.910139573778 23.1747868688778
vertex -488.086966843344 -723.159432483877 23.1747868688778
vertex -488.086966843344 -722.834733916486 24.1740150304512
endloop
endfacet
facet normal -1.0 2.54071818078112e-33 0.0
outer loop
vertex -488.086966843344 -684.910139573778 23.1747868688778
vertex -488.086966843344 -722.834733916486 24.1740150304512
vertex -488.086966843344 -685.234808997477 24.1740150304513
endloop
endfacet
facet normal -1.0 2.54071818078112e-33 0.0
outer loop
vertex -488.086966843344 -685.234808997477 24.1740150304513
vertex -488.086966843344 -722.834733916486 24.1740150304512
vertex -488.086966843344 -723.159432483877 25.1732530327515
endloop
endfacet
facet normal -1.0 2.54071818078112e-33 0.0
outer loop
vertex -488.086966843344 -685.234808997477 24.1740150304513
vertex -488.086966843344 -723.159432483877 25.1732530327515
vertex -488.086966843344 -684.910139573778 25.1732530327515
endloop
endfacet
facet normal -1.0 2.54071818078112e-33 0.0
outer loop
vertex -488.086966843344 -684.910139573778 25.1732530327515
vertex -488.086966843344 -723.159432483877 25.1732530327515
vertex -488.086966843344 -724.009432078565 25.7908123882488
endloop
endfacet
facet normal -1.0 2.54071818078112e-33 0.0
outer loop
vertex -488.086966843344 -684.910139573778 25.1732530327515
vertex -488.086966843344 -724.009432078565 25.7908123882488
vertex -488.086966843344 -684.060141493047 25.7908123882489
endloop
endfacet
facet normal -1.0 2.54071818078112e-33 0.0
outer loop
vertex -488.086966843344 -684.060141493047 25.7908123882489
vertex -488.086966843344 -724.009432078565 25.7908123882488
vertex -488.086966843344 -725.060028077329 25.7908123882488
endloop
endfacet
facet normal -3.53729002861554e-16 0.587788606863428 0.809014557125859
outer loop
vertex -484.086974806525 -725.060028077329 22.5572184296326
vertex -488.086966843344 -725.910030699933 23.1747868688778
vertex -484.086974806525 -725.910030699933 23.1747868688778
endloop
endfacet
facet normal -3.53729002861554e-16 0.587788606863428 0.809014557125859
outer loop
vertex -488.086966843344 -725.910030699933 23.1747868688778
vertex -484.086974806525 -725.060028077329 22.5572184296326
vertex -488.086966843344 -725.060028077329 22.5572184296326
endloop
endfacet
facet normal -9.4794413197604e-17 0.951048220332119 0.309042525557744
outer loop
vertex -488.086966843344 -725.910030699933 23.1747868688778
vertex -484.086974806525 -726.234729267324 24.1740150304512
vertex -484.086974806525 -725.910030699933 23.1747868688778
endloop
endfacet
facet normal -9.4794413197604e-17 0.951048220332119 0.309042525557744
outer loop
vertex -484.086974806525 -726.234729267324 24.1740150304512
vertex -488.086966843344 -725.910030699933 23.1747868688778
vertex -488.086966843344 -726.234729267324 24.1740150304512
endloop
endfacet
facet normal -4.77565974191801e-16 4.44089209850063e-16 1.0
outer loop
vertex -484.086974806525 -724.009432078565 22.5572184296326
vertex -488.086966843344 -725.060028077329 22.5572184296326
vertex -484.086974806525 -725.060028077329 22.5572184296326
endloop
endfacet
facet normal -4.77565974191801e-16 4.44089209850063e-16 1.0
outer loop
vertex -488.086966843344 -725.060028077329 22.5572184296326
vertex -484.086974806525 -724.009432078565 22.5572184296326
vertex -488.086966843344 -724.009432078565 22.5572184296326
endloop
endfacet
facet normal -4.18986247923923e-16 -0.587789977297452 0.809013561436804
outer loop
vertex -484.086974806525 -723.159432483877 23.1747868688778
vertex -488.086966843344 -724.009432078565 22.5572184296326
vertex -484.086974806525 -724.009432078565 22.5572184296326
endloop
endfacet
facet normal -4.18986247923923e-16 -0.587789977297452 0.809013561436804
outer loop
vertex -488.086966843344 -724.009432078565 22.5572184296326
vertex -484.086974806525 -723.159432483877 23.1747868688778
vertex -488.086966843344 -723.159432483877 23.1747868688778
endloop
endfacet
facet normal -2.00381976371754e-16 -0.951048220332119 0.309042525557745
outer loop
vertex -488.086966843344 -722.834733916486 24.1740150304512
vertex -484.086974806525 -723.159432483877 23.1747868688778
vertex -484.086974806525 -722.834733916486 24.1740150304512
endloop
endfacet
facet normal -2.00381976371754e-16 -0.951048220332119 0.309042525557745
outer loop
vertex -484.086974806525 -723.159432483877 23.1747868688778
vertex -488.086966843344 -722.834733916486 24.1740150304512
vertex -488.086966843344 -723.159432483877 23.1747868688778
endloop
endfacet
facet normal 9.47930488747823e-17 -0.951049114863818 -0.309039772710162
outer loop
vertex -488.086966843344 -723.159432483877 25.1732530327515
vertex -484.086974806525 -722.834733916486 24.1740150304512
vertex -484.086974806525 -723.159432483877 25.1732530327515
endloop
endfacet
facet normal 9.47930488747823e-17 -0.951049114863818 -0.309039772710162
outer loop
vertex -484.086974806525 -722.834733916486 24.1740150304512
vertex -488.086966843344 -723.159432483877 25.1732530327515
vertex -488.086966843344 -722.834733916486 24.1740150304512
endloop
endfacet
facet normal 3.53730728823084e-16 -0.587784318592266 -0.809017672747033
outer loop
vertex -488.086966843344 -723.159432483877 25.1732530327515
vertex -484.086974806525 -724.009432078565 25.7908123882488
vertex -488.086966843344 -724.009432078565 25.7908123882488
endloop
endfacet
facet normal 3.53730728823084e-16 -0.587784318592266 -0.809017672747033
outer loop
vertex -484.086974806525 -724.009432078565 25.7908123882488
vertex -488.086966843344 -723.159432483877 25.1732530327515
vertex -484.086974806525 -723.159432483877 25.1732530327515
endloop
endfacet
facet normal 4.77565974191801e-16 -4.44089209850063e-16 -1.0
outer loop
vertex -488.086966843344 -724.009432078565 25.7908123882488
vertex -484.086974806525 -725.060028077329 25.7908123882488
vertex -488.086966843344 -725.060028077329 25.7908123882488
endloop
endfacet
facet normal 4.77565974191801e-16 -4.44089209850063e-16 -1.0
outer loop
vertex -484.086974806525 -725.060028077329 25.7908123882488
vertex -488.086966843344 -724.009432078565 25.7908123882488
vertex -484.086974806525 -724.009432078565 25.7908123882488
endloop
endfacet
facet normal 4.18988296650622e-16 0.587782948157506 -0.809018668421978
outer loop
vertex -488.086966843344 -725.060028077329 25.7908123882488
vertex -484.086974806525 -725.910030699933 25.1732530327515
vertex -488.086966843344 -725.910030699933 25.1732530327515
endloop
endfacet
facet normal 4.18988296650622e-16 0.587782948157506 -0.809018668421978
outer loop
vertex -484.086974806525 -725.910030699933 25.1732530327515
vertex -488.086966843344 -725.060028077329 25.7908123882488
vertex -484.086974806525 -725.060028077329 25.7908123882488
endloop
endfacet
facet normal 2.00380711361901e-16 0.951049114863818 -0.309039772710162
outer loop
vertex -488.086966843344 -726.234729267324 24.1740150304512
vertex -484.086974806525 -725.910030699933 25.1732530327515
vertex -484.086974806525 -726.234729267324 24.1740150304512
endloop
endfacet
facet normal 2.00380711361901e-16 0.951049114863818 -0.309039772710162
outer loop
vertex -484.086974806525 -725.910030699933 25.1732530327515
vertex -488.086966843344 -726.234729267324 24.1740150304512
vertex -488.086966843344 -725.910030699933 25.1732530327515
endloop
endfacet
facet normal 1.0 -5.55111512312577e-17 4.77565974191801e-16
outer loop
vertex -464.987018604018 -687.534804494346 31.6740000994878
vertex -464.987018604018 -702.034775627817 19.6740239890294
vertex -464.987018604018 -687.534804494346 15.6740319522099
endloop
endfacet
facet normal 1.0 -5.55111512312577e-17 4.77565974191801e-16
outer loop
vertex -464.987018604018 -702.034775627817 19.6740239890294
vertex -464.987018604018 -687.534804494346 31.6740000994878
vertex -464.987018604018 -702.034775627817 31.6740000994878
endloop
endfacet
facet normal 1.0 -5.55111512312577e-17 4.77565974191801e-16
outer loop
vertex -464.987018604018 -720.534738041128 15.6740319522099
vertex -464.987018604018 -706.034766150678 19.6740239890294
vertex -464.987018604018 -720.534738041128 31.6740000994877
endloop
endfacet
facet normal 1.0 -5.55111512312577e-17 4.77565974191801e-16
outer loop
vertex -464.987018604018 -706.034766150678 19.6740239890294
vertex -464.987018604018 -720.534738041128 15.6740319522099
vertex -464.987018604018 -687.534804494346 15.6740319522099
endloop
endfacet
facet normal 1.0 -5.55111512312577e-17 4.77565974191801e-16
outer loop
vertex -464.987018604018 -706.034766150678 19.6740239890294
vertex -464.987018604018 -687.534804494346 15.6740319522099
vertex -464.987018604018 -702.034775627817 19.6740239890294
endloop
endfacet
facet normal 1.0 -5.55111512312577e-17 4.77565974191801e-16
outer loop
vertex -464.987018604018 -720.534738041128 31.6740000994877
vertex -464.987018604018 -706.034766150678 19.6740239890294
vertex -464.987018604018 -706.034766150678 31.6740000994878
endloop
endfacet
facet normal 1.0 -2.54071818078112e-33 0.0
outer loop
vertex -484.086974806525 -679.034821416105 15.6740319522099
vertex -484.086974806525 -682.159485152031 23.1747868688779
vertex -484.086974806525 -687.534804494346 15.6740319522099
endloop
endfacet
facet normal 1.0 -2.54071818078112e-33 0.0
outer loop
vertex -484.086974806525 -682.159485152031 23.1747868688779
vertex -484.086974806525 -679.034821416105 15.6740319522099
vertex -484.086974806525 -679.034821416105 31.6740000994877
endloop
endfacet
facet normal 1.0 -2.54071818078112e-33 0.0
outer loop
vertex -484.086974806525 -687.534804494346 15.6740319522099
vertex -484.086974806525 -682.159485152031 23.1747868688779
vertex -484.086974806525 -683.009483422006 22.5572184296326
endloop
endfacet
facet normal 1.0 -2.54071818078112e-33 0.0
outer loop
vertex -484.086974806525 -682.159485152031 23.1747868688779
vertex -484.086974806525 -679.034821416105 31.6740000994877
vertex -484.086974806525 -681.834815728331 24.1740150304513
endloop
endfacet
facet normal 1.0 -2.54071818078112e-33 0.0
outer loop
vertex -484.086974806525 -681.834815728331 24.1740150304513
vertex -484.086974806525 -679.034821416105 31.6740000994877
vertex -484.086974806525 -682.159485152031 25.1732530327515
endloop
endfacet
facet normal 1.0 -2.54071818078112e-33 0.0
outer loop
vertex -484.086974806525 -682.159485152031 25.1732530327515
vertex -484.086974806525 -679.034821416105 31.6740000994877
vertex -484.086974806525 -683.009483422006 25.7908123882489
endloop
endfacet
facet normal 1.0 -2.54071818078112e-33 0.0
outer loop
vertex -484.086974806525 -683.009483422006 25.7908123882489
vertex -484.086974806525 -679.034821416105 31.6740000994877
vertex -484.086974806525 -684.060141493047 25.7908123882489
endloop
endfacet
facet normal 1.0 -2.54071818078112e-33 0.0
outer loop
vertex -484.086974806525 -687.534804494346 15.6740319522099
vertex -484.086974806525 -685.234808997477 24.1740150304513
vertex -484.086974806525 -687.534804494346 31.6740000994878
endloop
endfacet
facet normal 1.0 -2.54071818078112e-33 0.0
outer loop
vertex -484.086974806525 -685.234808997477 24.1740150304513
vertex -484.086974806525 -687.534804494346 15.6740319522099
vertex -484.086974806525 -684.910139573778 23.1747868688779
endloop
endfacet
facet normal 1.0 -2.54071818078112e-33 0.0
outer loop
vertex -484.086974806525 -684.910139573778 23.1747868688779
vertex -484.086974806525 -687.534804494346 15.6740319522099
vertex -484.086974806525 -684.060141493047 22.5572184296326
endloop
endfacet
facet normal 1.0 -2.54071818078112e-33 0.0
outer loop
vertex -484.086974806525 -684.060141493047 22.5572184296326
vertex -484.086974806525 -687.534804494346 15.6740319522099
vertex -484.086974806525 -683.009483422006 22.5572184296326
endloop
endfacet
facet normal 1.0 -2.54071818078112e-33 0.0
outer loop
vertex -484.086974806525 -687.534804494346 31.6740000994878
vertex -484.086974806525 -685.234808997477 24.1740150304513
vertex -484.086974806525 -684.910139573778 25.1732530327515
endloop
endfacet
facet normal 1.0 -2.54071818078112e-33 0.0
outer loop
vertex -484.086974806525 -687.534804494346 31.6740000994878
vertex -484.086974806525 -684.910139573778 25.1732530327515
vertex -484.086974806525 -684.060141493047 25.7908123882489
endloop
endfacet
facet normal 1.0 -2.54071818078112e-33 0.0
outer loop
vertex -484.086974806525 -687.534804494346 31.6740000994878
vertex -484.086974806525 -684.060141493047 25.7908123882489
vertex -484.086974806525 -679.034821416105 31.6740000994877
endloop
endfacet
facet normal 5.55111512312579e-17 1.0 -4.44089209850063e-16
outer loop
vertex -488.086966843344 -679.034821416105 15.6740319522099
vertex -484.086974806525 -679.034821416105 31.6740000994877
vertex -484.086974806525 -679.034821416105 15.6740319522099
endloop
endfacet
facet normal 5.55111512312579e-17 1.0 -4.44089209850063e-16
outer loop
vertex -484.086974806525 -679.034821416105 31.6740000994877
vertex -488.086966843344 -679.034821416105 15.6740319522099
vertex -488.086966843344 -679.034821416105 31.6740000994877
endloop
endfacet
facet normal 2.00369182070282e-16 0.951057267197972 -0.309014683324151
outer loop
vertex -488.086966843344 -685.234808997477 24.1740150304513
vertex -484.086974806525 -684.910139573778 25.1732530327515
vertex -484.086974806525 -685.234808997477 24.1740150304513
endloop
endfacet
facet normal 2.00369182070282e-16 0.951057267197972 -0.309014683324151
outer loop
vertex -484.086974806525 -684.910139573778 25.1732530327515
vertex -488.086966843344 -685.234808997477 24.1740150304513
vertex -488.086966843344 -684.910139573778 25.1732530327515
endloop
endfacet
facet normal -9.47819787232461e-17 0.951056372803846 0.309017435995434
outer loop
vertex -488.086966843344 -684.910139573778 23.1747868688778
vertex -484.086974806525 -685.234808997477 24.1740150304513
vertex -484.086974806525 -684.910139573778 23.1747868688779
endloop
endfacet
facet normal -9.47819787232461e-17 0.951056372803846 0.309017435995434
outer loop
vertex -484.086974806525 -685.234808997477 24.1740150304513
vertex -488.086966843344 -684.910139573778 23.1747868688778
vertex -488.086966843344 -685.234808997477 24.1740150304513
endloop
endfacet
facet normal 4.18987697510377e-16 0.587785003811409 -0.80901717490695
outer loop
vertex -488.086966843344 -684.060141493047 25.7908123882489
vertex -484.086974806525 -684.910139573778 25.1732530327515
vertex -488.086966843344 -684.910139573778 25.1732530327515
endloop
endfacet
facet normal 4.18987697510377e-16 0.587785003811409 -0.80901717490695
outer loop
vertex -484.086974806525 -684.910139573778 25.1732530327515
vertex -488.086966843344 -684.060141493047 25.7908123882489
vertex -484.086974806525 -684.060141493047 25.7908123882489
endloop
endfacet
facet normal 4.77565974191801e-16 -4.44089209850063e-16 -1.0
outer loop
vertex -488.086966843344 -683.009483422006 25.7908123882489
vertex -484.086974806525 -684.060141493047 25.7908123882489
vertex -488.086966843344 -684.060141493047 25.7908123882489
endloop
endfacet
facet normal 4.77565974191801e-16 -4.44089209850063e-16 -1.0
outer loop
vertex -484.086974806525 -684.060141493047 25.7908123882489
vertex -488.086966843344 -683.009483422006 25.7908123882489
vertex -484.086974806525 -683.009483422006 25.7908123882489
endloop
endfacet
facet normal 3.53730487507943e-16 -0.587784918158952 -0.809017237137055
outer loop
vertex -488.086966843344 -682.159485152031 25.1732530327515
vertex -484.086974806525 -683.009483422006 25.7908123882489
vertex -488.086966843344 -683.009483422006 25.7908123882489
endloop
endfacet
facet normal 3.53730487507943e-16 -0.587784918158952 -0.809017237137055
outer loop
vertex -484.086974806525 -683.009483422006 25.7908123882489
vertex -488.086966843344 -682.159485152031 25.1732530327515
vertex -484.086974806525 -682.159485152031 25.1732530327515
endloop
endfacet
facet normal 9.47806144922555e-17 -0.951057267197972 -0.30901468332415
outer loop
vertex -488.086966843344 -682.159485152031 25.1732530327515
vertex -484.086974806525 -681.834815728331 24.1740150304513
vertex -484.086974806525 -682.159485152031 25.1732530327515
endloop
endfacet
facet normal 9.47806144922555e-17 -0.951057267197972 -0.30901468332415
outer loop
vertex -484.086974806525 -681.834815728331 24.1740150304513
vertex -488.086966843344 -682.159485152031 25.1732530327515
vertex -488.086966843344 -681.834815728331 24.1740150304513
endloop
endfacet
facet normal -2.00370447003578e-16 -0.951056372803846 0.309017435995434
outer loop
vertex -488.086966843344 -681.834815728331 24.1740150304513
vertex -484.086974806525 -682.159485152031 23.1747868688779
vertex -484.086974806525 -681.834815728331 24.1740150304513
endloop
endfacet
facet normal -2.00370447003578e-16 -0.951056372803846 0.309017435995434
outer loop
vertex -484.086974806525 -682.159485152031 23.1747868688779
vertex -488.086966843344 -681.834815728331 24.1740150304513
vertex -488.086966843344 -682.159485152031 23.1747868688778
endloop
endfacet
facet normal -4.1898607317109e-16 -0.587790576863816 0.809013125820652
outer loop
vertex -484.086974806525 -682.159485152031 23.1747868688779
vertex -488.086966843344 -683.009483422006 22.5572184296326
vertex -484.086974806525 -683.009483422006 22.5572184296326
endloop
endfacet
facet normal -4.1898607317109e-16 -0.587790576863816 0.809013125820652
outer loop
vertex -488.086966843344 -683.009483422006 22.5572184296326
vertex -484.086974806525 -682.159485152031 23.1747868688779
vertex -488.086966843344 -682.159485152031 23.1747868688778
endloop
endfacet
facet normal -4.77565974191801e-16 4.44089209850063e-16 1.0
outer loop
vertex -484.086974806525 -683.009483422006 22.5572184296326
vertex -488.086966843344 -684.060141493047 22.5572184296326
vertex -484.086974806525 -684.060141493047 22.5572184296326
endloop
endfacet
facet normal -4.77565974191801e-16 4.44089209850063e-16 1.0
outer loop
vertex -488.086966843344 -684.060141493047 22.5572184296326
vertex -484.086974806525 -683.009483422006 22.5572184296326
vertex -488.086966843344 -683.009483422006 22.5572184296326
endloop
endfacet
facet normal -3.53728175487832e-16 0.587790662516228 0.809013063589664
outer loop
vertex -484.086974806525 -684.060141493047 22.5572184296326
vertex -488.086966843344 -684.910139573778 23.1747868688778
vertex -484.086974806525 -684.910139573778 23.1747868688779
endloop
endfacet
facet normal -3.53728175487832e-16 0.587790662516228 0.809013063589664
outer loop
vertex -488.086966843344 -684.910139573778 23.1747868688778
vertex -484.086974806525 -684.060141493047 22.5572184296326
vertex -488.086966843344 -684.060141493047 22.5572184296326
endloop
endfacet
facet normal 0.707106781186547 2.74766180269661e-16 0.707106781186548
outer loop
vertex -472.586997700669 -687.534804494346 29.674004081078
vertex -474.586993719079 -720.534738041128 31.6740000994877
vertex -472.586997700669 -720.534738041128 29.6740040810779
endloop
endfacet
facet normal 0.707106781186547 2.74766180269661e-16 0.707106781186548
outer loop
vertex -474.586993719079 -720.534738041128 31.6740000994877
vertex -472.586997700669 -687.534804494346 29.674004081078
vertex -474.586993719079 -687.534804494346 31.6740000994878
endloop
endfacet
facet normal 1.0 -5.55111512312577e-17 4.77565974191801e-16
outer loop
vertex -472.586997700669 -687.534804494346 19.1740249844269
vertex -472.586997700669 -720.534738041128 29.6740040810779
vertex -472.586997700669 -720.534738041128 19.1740249844269
endloop
endfacet
facet normal 1.0 -5.55111512312577e-17 4.77565974191801e-16
outer loop
vertex -472.586997700669 -720.534738041128 29.6740040810779
vertex -472.586997700669 -687.534804494346 19.1740249844269
vertex -472.586997700669 -687.534804494346 29.674004081078
endloop
endfacet
facet normal -1.0 5.55111512312577e-17 -4.77565974191801e-16
outer loop
vertex -469.587003673054 -720.534738041128 30.6740020902828
vertex -469.587003673054 -720.034741307462 19.6740239890293
vertex -469.587003673054 -720.534738041128 19.6740239890293
endloop
endfacet
facet normal -1.0 5.55111512312577e-17 -4.77565974191801e-16
outer loop
vertex -469.587003673054 -720.034741307462 19.6740239890293
vertex -469.587003673054 -720.534738041128 30.6740020902828
vertex -469.587003673054 -720.034741307462 30.6740020902828
endloop
endfacet
facet normal 5.55111512312579e-17 1.0 -4.44089209850063e-16
outer loop
vertex -469.587003673054 -706.034766150678 19.6740239890294
vertex -464.987018604018 -706.034766150678 31.6740000994878
vertex -464.987018604018 -706.034766150678 19.6740239890294
endloop
endfacet
facet normal 5.55111512312579e-17 1.0 -4.44089209850063e-16
outer loop
vertex -464.987018604018 -706.034766150678 31.6740000994878
vertex -469.587003673054 -706.034766150678 19.6740239890294
vertex -468.587005663849 -706.034766150678 31.6740000994878
endloop
endfacet
facet normal 5.55111512312579e-17 1.0 -4.44089209850063e-16
outer loop
vertex -468.587005663849 -706.034766150678 31.6740000994878
vertex -469.587003673054 -706.034766150678 19.6740239890294
vertex -469.587003673054 -706.034766150678 30.6740020902829
endloop
endfacet
facet normal -4.77565974191801e-16 4.44089209850063e-16 1.0
outer loop
vertex -464.987018604018 -687.534804494346 31.6740000994878
vertex -468.587005663849 -702.034775627817 31.6740000994878
vertex -464.987018604018 -702.034775627817 31.6740000994878
endloop
endfacet
facet normal -4.77565974191801e-16 4.44089209850063e-16 1.0
outer loop
vertex -468.587005663849 -702.034775627817 31.6740000994878
vertex -464.987018604018 -687.534804494346 31.6740000994878
vertex -468.587005663849 -687.534804494346 31.6740000994878
endloop
endfacet
facet normal -1.0 5.55111512312577e-17 -4.77565974191801e-16
outer loop
vertex -469.587003673054 -688.934800655807 30.6740020902829
vertex -469.587003673054 -687.534804494346 19.6740239890294
vertex -469.587003673054 -688.934800655807 19.6740239890294
endloop
endfacet
facet normal -1.0 5.55111512312577e-17 -4.77565974191801e-16
outer loop
vertex -469.587003673054 -687.534804494346 19.6740239890294
vertex -469.587003673054 -688.934800655807 30.6740020902829
vertex -469.587003673054 -687.534804494346 30.6740020902829
endloop
endfacet
facet normal -1.0 5.55111512312577e-17 -4.77565974191801e-16
outer loop
vertex -469.587003673054 -718.934741688932 30.6740020902828
vertex -469.587003673054 -717.534745527471 19.6740239890293
vertex -469.587003673054 -718.934741688932 19.6740239890293
endloop
endfacet
facet normal -1.0 5.55111512312577e-17 -4.77565974191801e-16
outer loop
vertex -469.587003673054 -717.534745527471 19.6740239890293
vertex -469.587003673054 -718.934741688932 30.6740020902828
vertex -469.587003673054 -717.534745527471 30.6740020902828
endloop
endfacet
facet normal -1.0 5.55111512312577e-17 -4.77565974191801e-16
outer loop
vertex -469.587003673054 -716.434745908941 19.6740239890293
vertex -469.587003673054 -715.03474974748 30.6740020902828
vertex -469.587003673054 -715.03474974748 19.6740239890293
endloop
endfacet
facet normal -1.0 5.55111512312577e-17 -4.77565974191801e-16
outer loop
vertex -469.587003673054 -715.03474974748 30.6740020902828
vertex -469.587003673054 -716.434745908941 19.6740239890293
vertex -469.587003673054 -716.434745908941 30.6740020902828
endloop
endfacet
facet normal -1.0 5.55111512312577e-17 -4.77565974191801e-16
outer loop
vertex -469.587003673054 -713.934753156865 30.6740020902828
vertex -469.587003673054 -712.534753967489 19.6740239890293
vertex -469.587003673054 -713.934753156865 19.6740239890293
endloop
endfacet
facet normal -1.0 5.55111512312577e-17 -4.77565974191801e-16
outer loop
vertex -469.587003673054 -712.534753967489 19.6740239890293
vertex -469.587003673054 -713.934753156865 30.6740020902828
vertex -469.587003673054 -712.534753967489 30.6740020902828
endloop
endfacet
facet normal -1.0 5.55111512312577e-17 -4.77565974191801e-16
outer loop
vertex -469.587003673054 -711.434757376874 30.6740020902828
vertex -469.587003673054 -710.034758187498 19.6740239890294
vertex -469.587003673054 -711.434757376874 19.6740239890293
endloop
endfacet
facet normal -1.0 5.55111512312577e-17 -4.77565974191801e-16
outer loop
vertex -469.587003673054 -710.034758187498 19.6740239890294
vertex -469.587003673054 -711.434757376874 30.6740020902828
vertex -469.587003673054 -710.034758187498 30.6740020902829
endloop
endfacet
facet normal -1.0 5.55111512312577e-17 -4.77565974191801e-16
outer loop
vertex -469.587003673054 -708.934761596883 19.6740239890294
vertex -469.587003673054 -707.534765435422 30.6740020902829
vertex -469.587003673054 -707.534765435422 19.6740239890294
endloop
endfacet
facet normal -1.0 5.55111512312577e-17 -4.77565974191801e-16
outer loop
vertex -469.587003673054 -707.534765435422 30.6740020902829
vertex -469.587003673054 -708.934761596883 19.6740239890294
vertex -469.587003673054 -708.934761596883 30.6740020902829
endloop
endfacet
facet normal -1.0 5.55111512312577e-17 -4.77565974191801e-16
outer loop
vertex -469.587003673054 -706.434765816892 30.6740020902829
vertex -469.587003673054 -706.034766150678 19.6740239890294
vertex -469.587003673054 -706.434765816892 19.6740239890294
endloop
endfacet
facet normal -1.0 5.55111512312577e-17 -4.77565974191801e-16
outer loop
vertex -469.587003673054 -706.034766150678 19.6740239890294
vertex -469.587003673054 -706.434765816892 30.6740020902829
vertex -469.587003673054 -706.034766150678 30.6740020902829
endloop
endfacet
facet normal -1.0 5.55111512312577e-17 -4.77565974191801e-16
outer loop
vertex -469.587003673054 -701.434777284826 30.6740020902829
vertex -469.587003673054 -700.034779609407 19.6740239890294
vertex -469.587003673054 -701.434777284826 19.6740239890294
endloop
endfacet
facet normal -1.0 5.55111512312577e-17 -4.77565974191801e-16
outer loop
vertex -469.587003673054 -700.034779609407 19.6740239890294
vertex -469.587003673054 -701.434777284826 30.6740020902829
vertex -469.587003673054 -700.034779609407 30.6740020902829
endloop
endfacet
facet normal -1.0 5.55111512312577e-17 -4.77565974191801e-16
outer loop
vertex -469.587003673054 -698.934781504835 30.6740020902829
vertex -469.587003673054 -697.534785343374 19.6740239890294
vertex -469.587003673054 -698.934781504835 19.6740239890294
endloop
endfacet
facet normal -1.0 5.55111512312577e-17 -4.77565974191801e-16
outer loop
vertex -469.587003673054 -697.534785343374 19.6740239890294
vertex -469.587003673054 -698.934781504835 30.6740020902829
vertex -469.587003673054 -697.534785343374 30.6740020902829
endloop
endfacet
facet normal -1.0 5.55111512312577e-17 -4.77565974191801e-16
outer loop
vertex -469.587003673054 -696.434787238801 19.6740239890294
vertex -469.587003673054 -695.034789563383 30.6740020902829
vertex -469.587003673054 -695.034789563383 19.6740239890294
endloop
endfacet
facet normal -1.0 5.55111512312577e-17 -4.77565974191801e-16
outer loop
vertex -469.587003673054 -695.034789563383 30.6740020902829
vertex -469.587003673054 -696.434787238801 19.6740239890294
vertex -469.587003673054 -696.434787238801 30.6740020902829
endloop
endfacet
facet normal -1.0 5.55111512312577e-17 -4.77565974191801e-16
outer loop
vertex -469.587003673054 -693.93479145881 30.6740020902829
vertex -469.587003673054 -692.534793783391 19.6740239890294
vertex -469.587003673054 -693.93479145881 19.6740239890294
endloop
endfacet
facet normal -1.0 5.55111512312577e-17 -4.77565974191801e-16
outer loop
vertex -469.587003673054 -692.534793783391 19.6740239890294
vertex -469.587003673054 -693.93479145881 30.6740020902829
vertex -469.587003673054 -692.534793783391 30.6740020902829
endloop
endfacet
facet normal -1.0 5.55111512312577e-17 -4.77565974191801e-16
outer loop
vertex -469.587003673054 -691.434795678819 19.6740239890294
vertex -469.587003673054 -690.034799517358 30.6740020902829
vertex -469.587003673054 -690.034799517358 19.6740239890294
endloop
endfacet
facet normal -1.0 5.55111512312577e-17 -4.77565974191801e-16
outer loop
vertex -469.587003673054 -690.034799517358 30.6740020902829
vertex -469.587003673054 -691.434795678819 19.6740239890294
vertex -469.587003673054 -691.434795678819 30.6740020902829
endloop
endfacet
facet normal -4.77565974191801e-16 4.44089209850063e-16 1.0
outer loop
vertex -464.987018604018 -706.034766150678 31.6740000994878
vertex -468.587005663849 -720.534738041128 31.6740000994877
vertex -464.987018604018 -720.534738041128 31.6740000994877
endloop
endfacet
facet normal -4.77565974191801e-16 4.44089209850063e-16 1.0
outer loop
vertex -468.587005663849 -720.534738041128 31.6740000994877
vertex -464.987018604018 -706.034766150678 31.6740000994878
vertex -468.587005663849 -706.034766150678 31.6740000994878
endloop
endfacet
facet normal 2.54071818078112e-33 -1.0 0.0
outer loop
vertex -471.986999691464 -720.034741307462 28.6740060718731
vertex -469.587003673054 -720.034741307462 19.6740239890293
vertex -469.587003673054 -720.034741307462 30.6740020902828
endloop
endfacet
facet normal 2.54071818078112e-33 -1.0 0.0
outer loop
vertex -469.587003673054 -720.034741307462 19.6740239890293
vertex -471.986999691464 -720.034741307462 28.6740060718731
vertex -471.986999691464 -720.034741307462 19.6740239890293
endloop
endfacet
facet normal -2.54071818078112e-33 1.0 0.0
outer loop
vertex -471.986999691464 -718.934741688932 19.6740239890293
vertex -469.587003673054 -718.934741688932 30.6740020902828
vertex -469.587003673054 -718.934741688932 19.6740239890293
endloop
endfacet
facet normal -2.54071818078112e-33 1.0 0.0
outer loop
vertex -469.587003673054 -718.934741688932 30.6740020902828
vertex -471.986999691464 -718.934741688932 19.6740239890293
vertex -471.986999691464 -718.934741688932 28.6740060718731
endloop
endfacet
facet normal -5.87493991847608e-16 1.00713364799706e-15 1.0
outer loop
vertex -469.587003673054 -717.534745527471 19.6740239890293
vertex -471.986999691464 -718.934741688932 19.6740239890293
vertex -469.587003673054 -718.934741688932 19.6740239890293
endloop
endfacet
facet normal -5.87493991847608e-16 1.00713364799706e-15 1.0
outer loop
vertex -471.986999691464 -718.934741688932 19.6740239890293
vertex -469.587003673054 -717.534745527471 19.6740239890293
vertex -471.986999691464 -717.534745527471 19.6740239890293
endloop
endfacet
facet normal 2.54071818078112e-33 -1.0 0.0
outer loop
vertex -471.986999691464 -717.534745527471 28.6740060718731
vertex -469.587003673054 -717.534745527471 19.6740239890293
vertex -469.587003673054 -717.534745527471 30.6740020902828
endloop
endfacet
facet normal 2.54071818078112e-33 -1.0 0.0
outer loop
vertex -469.587003673054 -717.534745527471 19.6740239890293
vertex -471.986999691464 -717.534745527471 28.6740060718731
vertex -471.986999691464 -717.534745527471 19.6740239890293
endloop
endfacet
facet normal -2.54071818078112e-33 1.0 0.0
outer loop
vertex -471.986999691464 -716.434745908941 19.6740239890293
vertex -469.587003673054 -716.434745908941 30.6740020902828
vertex -469.587003673054 -716.434745908941 19.6740239890293
endloop
endfacet
facet normal -2.54071818078112e-33 1.0 0.0
outer loop
vertex -469.587003673054 -716.434745908941 30.6740020902828
vertex -471.986999691464 -716.434745908941 19.6740239890293
vertex -471.986999691464 -716.434745908941 28.6740060718731
endloop
endfacet
facet normal -2.93746995923804e-15 5.03566823998529e-15 1.0
outer loop
vertex -469.587003673054 -715.03474974748 19.6740239890293
vertex -471.986999691464 -716.434745908941 19.6740239890293
vertex -469.587003673054 -716.434745908941 19.6740239890293
endloop
endfacet
facet normal -2.93746995923804e-15 5.03566823998529e-15 1.0
outer loop
vertex -471.986999691464 -716.434745908941 19.6740239890293
vertex -469.587003673054 -715.03474974748 19.6740239890293
vertex -471.986999691464 -715.03474974748 19.6740239890293
endloop
endfacet
facet normal 2.54071818078112e-33 -1.0 0.0
outer loop
vertex -471.986999691464 -715.03474974748 28.6740060718731
vertex -469.587003673054 -715.03474974748 19.6740239890293
vertex -469.587003673054 -715.03474974748 30.6740020902828
endloop
endfacet
facet normal 2.54071818078112e-33 -1.0 0.0
outer loop
vertex -469.587003673054 -715.03474974748 19.6740239890293
vertex -471.986999691464 -715.03474974748 28.6740060718731
vertex -471.986999691464 -715.03474974748 19.6740239890293
endloop
endfacet
facet normal -2.54071818078112e-33 1.0 0.0
outer loop
vertex -471.986999691464 -713.934753156865 19.6740239890293
vertex -469.587003673054 -713.934753156865 30.6740020902828
vertex -469.587003673054 -713.934753156865 19.6740239890293
endloop
endfacet
facet normal -2.54071818078112e-33 1.0 0.0
outer loop
vertex -469.587003673054 -713.934753156865 30.6740020902828
vertex -471.986999691464 -713.934753156865 19.6740239890293
vertex -471.986999691464 -713.934753156865 28.6740060718731
endloop
endfacet
facet normal 2.34997596739043e-15 -4.02852587908021e-15 1.0
outer loop
vertex -469.587003673054 -712.534753967489 19.6740239890293
vertex -471.986999691464 -713.934753156865 19.6740239890293
vertex -469.587003673054 -713.934753156865 19.6740239890293
endloop
endfacet
facet normal 2.34997596739043e-15 -4.02852587908021e-15 1.0
outer loop
vertex -471.986999691464 -713.934753156865 19.6740239890293
vertex -469.587003673054 -712.534753967489 19.6740239890293
vertex -471.986999691464 -712.534753967489 19.6740239890293
endloop
endfacet
facet normal 2.54071818078112e-33 -1.0 0.0
outer loop
vertex -471.986999691464 -712.534753967489 28.6740060718731
vertex -469.587003673054 -712.534753967489 19.6740239890293
vertex -469.587003673054 -712.534753967489 30.6740020902828
endloop
endfacet
facet normal 2.54071818078112e-33 -1.0 0.0
outer loop
vertex -469.587003673054 -712.534753967489 19.6740239890293
vertex -471.986999691464 -712.534753967489 28.6740060718731
vertex -471.986999691464 -712.534753967489 19.6740239890293
endloop
endfacet
facet normal -2.54071818078112e-33 1.0 0.0
outer loop
vertex -471.986999691464 -711.434757376874 19.6740239890293
vertex -469.587003673054 -711.434757376874 30.6740020902828
vertex -469.587003673054 -711.434757376874 19.6740239890293
endloop
endfacet
facet normal -2.54071818078112e-33 1.0 0.0
outer loop
vertex -469.587003673054 -711.434757376874 30.6740020902828
vertex -471.986999691464 -711.434757376874 19.6740239890293
vertex -471.986999691464 -711.434757376874 28.6740060718731
endloop
endfacet
facet normal -2.93746995923804e-15 -6.74778084745936e-14 1.0
outer loop
vertex -469.587003673054 -710.034758187498 19.6740239890294
vertex -471.986999691464 -711.434757376874 19.6740239890293
vertex -469.587003673054 -711.434757376874 19.6740239890293
endloop
endfacet
facet normal -2.93746995923804e-15 -6.74778084745936e-14 1.0
outer loop
vertex -471.986999691464 -711.434757376874 19.6740239890293
vertex -469.587003673054 -710.034758187498 19.6740239890294
vertex -471.986999691464 -710.034758187498 19.6740239890294
endloop
endfacet
facet normal 2.54071818078112e-33 -1.0 0.0
outer loop
vertex -471.986999691464 -710.034758187498 28.6740060718732
vertex -469.587003673054 -710.034758187498 19.6740239890294
vertex -469.587003673054 -710.034758187498 30.6740020902829
endloop
endfacet
facet normal 2.54071818078112e-33 -1.0 0.0
outer loop
vertex -469.587003673054 -710.034758187498 19.6740239890294
vertex -471.986999691464 -710.034758187498 28.6740060718732
vertex -471.986999691464 -710.034758187498 19.6740239890294
endloop
endfacet
facet normal -2.54071818078112e-33 1.0 0.0
outer loop
vertex -471.986999691464 -708.934761596883 19.6740239890294
vertex -469.587003673054 -708.934761596883 30.6740020902829
vertex -469.587003673054 -708.934761596883 19.6740239890294
endloop
endfacet
facet normal -2.54071818078112e-33 1.0 0.0
outer loop
vertex -469.587003673054 -708.934761596883 30.6740020902829
vertex -471.986999691464 -708.934761596883 19.6740239890294
vertex -471.986999691464 -708.934761596883 28.6740060718732
endloop
endfacet
facet normal -5.87493991847608e-16 1.00713364799706e-15 1.0
outer loop
vertex -469.587003673054 -707.534765435422 19.6740239890294
vertex -471.986999691464 -708.934761596883 19.6740239890294
vertex -469.587003673054 -708.934761596883 19.6740239890294
endloop
endfacet
facet normal -5.87493991847608e-16 1.00713364799706e-15 1.0
outer loop
vertex -471.986999691464 -708.934761596883 19.6740239890294
vertex -469.587003673054 -707.534765435422 19.6740239890294
vertex -471.986999691464 -707.534765435422 19.6740239890294
endloop
endfacet
facet normal 2.54071818078112e-33 -1.0 0.0
outer loop
vertex -471.986999691464 -707.534765435422 28.6740060718732
vertex -469.587003673054 -707.534765435422 19.6740239890294
vertex -469.587003673054 -707.534765435422 30.6740020902829
endloop
endfacet
facet normal 2.54071818078112e-33 -1.0 0.0
outer loop
vertex -469.587003673054 -707.534765435422 19.6740239890294
vertex -471.986999691464 -707.534765435422 28.6740060718732
vertex -471.986999691464 -707.534765435422 19.6740239890294
endloop
endfacet
facet normal -2.54071818078112e-33 1.0 0.0
outer loop
vertex -471.986999691464 -706.434765816892 19.6740239890294
vertex -469.587003673054 -706.434765816892 30.6740020902829
vertex -469.587003673054 -706.434765816892 19.6740239890294
endloop
endfacet
facet normal -2.54071818078112e-33 1.0 0.0
outer loop
vertex -469.587003673054 -706.434765816892 30.6740020902829
vertex -471.986999691464 -706.434765816892 19.6740239890294
vertex -471.986999691464 -706.434765816892 28.6740060718732
endloop
endfacet
facet normal -2.54071818078112e-33 1.0 0.0
outer loop
vertex -471.986999691464 -701.434777284826 19.6740239890294
vertex -469.587003673054 -701.434777284826 30.6740020902829
vertex -469.587003673054 -701.434777284826 19.6740239890294
endloop
endfacet
facet normal -2.54071818078112e-33 1.0 0.0
outer loop
vertex -469.587003673054 -701.434777284826 30.6740020902829
vertex -471.986999691464 -701.434777284826 19.6740239890294
vertex -471.986999691464 -701.434777284826 28.6740060718732
endloop
endfacet
facet normal 2.34997596739043e-15 -4.02853023552951e-15 1.0
outer loop
vertex -469.587003673054 -700.034779609407 19.6740239890294
vertex -471.986999691464 -701.434777284826 19.6740239890294
vertex -469.587003673054 -701.434777284826 19.6740239890294
endloop
endfacet
facet normal 2.34997596739043e-15 -4.02853023552951e-15 1.0
outer loop
vertex -471.986999691464 -701.434777284826 19.6740239890294
vertex -469.587003673054 -700.034779609407 19.6740239890294
vertex -471.986999691464 -700.034779609407 19.6740239890294
endloop
endfacet
facet normal 2.54071818078112e-33 -1.0 0.0
outer loop
vertex -471.986999691464 -700.034779609407 28.6740060718732
vertex -469.587003673054 -700.034779609407 19.6740239890294
vertex -469.587003673054 -700.034779609407 30.6740020902829
endloop
endfacet
facet normal 2.54071818078112e-33 -1.0 0.0
outer loop
vertex -469.587003673054 -700.034779609407 19.6740239890294
vertex -471.986999691464 -700.034779609407 28.6740060718732
vertex -471.986999691464 -700.034779609407 19.6740239890294
endloop
endfacet
facet normal -2.54071818078112e-33 1.0 0.0
outer loop
vertex -471.986999691464 -698.934781504835 19.6740239890294
vertex -469.587003673054 -698.934781504835 30.6740020902829
vertex -469.587003673054 -698.934781504835 19.6740239890294
endloop
endfacet
facet normal -2.54071818078112e-33 1.0 0.0
outer loop
vertex -469.587003673054 -698.934781504835 30.6740020902829
vertex -471.986999691464 -698.934781504835 19.6740239890294
vertex -471.986999691464 -698.934781504835 28.6740060718732
endloop
endfacet
facet normal -2.93746995923804e-15 -3.02140094399117e-15 1.0
outer loop
vertex -469.587003673054 -697.534785343374 19.6740239890294
vertex -471.986999691464 -698.934781504835 19.6740239890294
vertex -469.587003673054 -698.934781504835 19.6740239890294
endloop
endfacet
facet normal -2.93746995923804e-15 -3.02140094399117e-15 1.0
outer loop
vertex -471.986999691464 -698.934781504835 19.6740239890294
vertex -469.587003673054 -697.534785343374 19.6740239890294
vertex -471.986999691464 -697.534785343374 19.6740239890294
endloop
endfacet
facet normal 2.54071818078112e-33 -1.0 0.0
outer loop
vertex -471.986999691464 -697.534785343374 28.6740060718732
vertex -469.587003673054 -697.534785343374 19.6740239890294
vertex -469.587003673054 -697.534785343374 30.6740020902829
endloop
endfacet
facet normal 2.54071818078112e-33 -1.0 0.0
outer loop
vertex -469.587003673054 -697.534785343374 19.6740239890294
vertex -471.986999691464 -697.534785343374 28.6740060718732
vertex -471.986999691464 -697.534785343374 19.6740239890294
endloop
endfacet
facet normal -2.54071818078112e-33 1.0 0.0
outer loop
vertex -471.986999691464 -696.434787238801 19.6740239890294
vertex -469.587003673054 -696.434787238801 30.6740020902829
vertex -469.587003673054 -696.434787238801 19.6740239890294
endloop
endfacet
facet normal -2.54071818078112e-33 1.0 0.0
outer loop
vertex -469.587003673054 -696.434787238801 30.6740020902829
vertex -471.986999691464 -696.434787238801 19.6740239890294
vertex -471.986999691464 -696.434787238801 28.6740060718732
endloop
endfacet
facet normal -5.87493991847608e-16 1.00713255888238e-15 1.0
outer loop
vertex -469.587003673054 -695.034789563383 19.6740239890294
vertex -471.986999691464 -696.434787238801 19.6740239890294
vertex -469.587003673054 -696.434787238801 19.6740239890294
endloop
endfacet
facet normal -5.87493991847608e-16 1.00713255888238e-15 1.0
outer loop
vertex -471.986999691464 -696.434787238801 19.6740239890294
vertex -469.587003673054 -695.034789563383 19.6740239890294
vertex -471.986999691464 -695.034789563383 19.6740239890294
endloop
endfacet
facet normal 2.54071818078112e-33 -1.0 0.0
outer loop
vertex -471.986999691464 -695.034789563383 28.6740060718732
vertex -469.587003673054 -695.034789563383 19.6740239890294
vertex -469.587003673054 -695.034789563383 30.6740020902829
endloop
endfacet
facet normal 2.54071818078112e-33 -1.0 0.0
outer loop
vertex -469.587003673054 -695.034789563383 19.6740239890294
vertex -471.986999691464 -695.034789563383 28.6740060718732
vertex -471.986999691464 -695.034789563383 19.6740239890294
endloop
endfacet
facet normal -2.54071818078112e-33 1.0 0.0
outer loop
vertex -471.986999691464 -693.93479145881 19.6740239890294
vertex -469.587003673054 -693.93479145881 30.6740020902829
vertex -469.587003673054 -693.93479145881 19.6740239890294
endloop
endfacet
facet normal -2.54071818078112e-33 1.0 0.0
outer loop
vertex -469.587003673054 -693.93479145881 30.6740020902829
vertex -471.986999691464 -693.93479145881 19.6740239890294
vertex -471.986999691464 -693.93479145881 28.6740060718732
endloop
endfacet
facet normal 1.76248197554282e-15 5.03566279441189e-15 1.0
outer loop
vertex -469.587003673054 -692.534793783391 19.6740239890294
vertex -471.986999691464 -693.93479145881 19.6740239890294
vertex -469.587003673054 -693.93479145881 19.6740239890294
endloop
endfacet
facet normal 1.76248197554282e-15 5.03566279441189e-15 1.0
outer loop
vertex -471.986999691464 -693.93479145881 19.6740239890294
vertex -469.587003673054 -692.534793783391 19.6740239890294
vertex -471.986999691464 -692.534793783391 19.6740239890294
endloop
endfacet
facet normal 2.54071818078112e-33 -1.0 0.0
outer loop
vertex -471.986999691464 -692.534793783391 28.6740060718732
vertex -469.587003673054 -692.534793783391 19.6740239890294
vertex -469.587003673054 -692.534793783391 30.6740020902829
endloop
endfacet
facet normal 2.54071818078112e-33 -1.0 0.0
outer loop
vertex -469.587003673054 -692.534793783391 19.6740239890294
vertex -471.986999691464 -692.534793783391 28.6740060718732
vertex -471.986999691464 -692.534793783391 19.6740239890294
endloop
endfacet
facet normal -2.54071818078112e-33 1.0 0.0
outer loop
vertex -471.986999691464 -691.434795678819 19.6740239890294
vertex -469.587003673054 -691.434795678819 30.6740020902829
vertex -469.587003673054 -691.434795678819 19.6740239890294
endloop
endfacet
facet normal -2.54071818078112e-33 1.0 0.0
outer loop
vertex -469.587003673054 -691.434795678819 30.6740020902829
vertex -471.986999691464 -691.434795678819 19.6740239890294
vertex -471.986999691464 -691.434795678819 28.6740060718732
endloop
endfacet
facet normal -2.93746995923804e-15 5.03566823998529e-15 1.0
outer loop
vertex -469.587003673054 -690.034799517358 19.6740239890294
vertex -471.986999691464 -691.434795678819 19.6740239890294
vertex -469.587003673054 -691.434795678819 19.6740239890294
endloop
endfacet
facet normal -2.93746995923804e-15 5.03566823998529e-15 1.0
outer loop
vertex -471.986999691464 -691.434795678819 19.6740239890294
vertex -469.587003673054 -690.034799517358 19.6740239890294
vertex -471.986999691464 -690.034799517358 19.6740239890294
endloop
endfacet
facet normal 2.54071818078112e-33 -1.0 0.0
outer loop
vertex -471.986999691464 -690.034799517358 28.6740060718732
vertex -469.587003673054 -690.034799517358 19.6740239890294
vertex -469.587003673054 -690.034799517358 30.6740020902829
endloop
endfacet
facet normal 2.54071818078112e-33 -1.0 0.0
outer loop
vertex -469.587003673054 -690.034799517358 19.6740239890294
vertex -471.986999691464 -690.034799517358 28.6740060718732
vertex -471.986999691464 -690.034799517358 19.6740239890294
endloop
endfacet
facet normal -2.54071818078112e-33 1.0 0.0
outer loop
vertex -471.986999691464 -688.934800655807 19.6740239890294
vertex -469.587003673054 -688.934800655807 30.6740020902829
vertex -469.587003673054 -688.934800655807 19.6740239890294
endloop
endfacet
facet normal -2.54071818078112e-33 1.0 0.0
outer loop
vertex -469.587003673054 -688.934800655807 30.6740020902829
vertex -471.986999691464 -688.934800655807 19.6740239890294
vertex -471.986999691464 -688.934800655807 28.6740060718732
endloop
endfacet
facet normal 2.34997596739043e-15 -4.02853459198823e-15 1.0
outer loop
vertex -469.587003673054 -687.534804494346 19.6740239890294
vertex -471.986999691464 -688.934800655807 19.6740239890294
vertex -469.587003673054 -688.934800655807 19.6740239890294
endloop
endfacet
facet normal 2.34997596739043e-15 -4.02853459198823e-15 1.0
outer loop
vertex -471.986999691464 -688.934800655807 19.6740239890294
vertex -469.587003673054 -687.534804494346 19.6740239890294
vertex -471.986999691464 -687.534804494346 19.6740239890294
endloop
endfacet
facet normal -0.640184274305938 4.93038065763132e-32 0.76822138406281
outer loop
vertex -469.587003673054 -688.934800655807 30.6740020902829
vertex -471.986999691464 -690.034799517358 28.6740060718732
vertex -469.587003673054 -690.034799517358 30.6740020902829
endloop
endfacet
facet normal -0.640184274305938 4.93038065763132e-32 0.76822138406281
outer loop
vertex -471.986999691464 -690.034799517358 28.6740060718732
vertex -469.587003673054 -688.934800655807 30.6740020902829
vertex -471.986999691464 -688.934800655807 28.6740060718732
endloop
endfacet
facet normal -0.640184274305936 -7.86056007299161e-15 0.768221384062812
outer loop
vertex -469.587003673054 -691.434795678819 30.6740020902829
vertex -471.986999691464 -692.534793783391 28.6740060718732
vertex -469.587003673054 -692.534793783391 30.6740020902829
endloop
endfacet
facet normal -0.640184274305936 -7.86056007299161e-15 0.768221384062812
outer loop
vertex -471.986999691464 -692.534793783391 28.6740060718732
vertex -469.587003673054 -691.434795678819 30.6740020902829
vertex -471.986999691464 -691.434795678819 28.6740060718732
endloop
endfacet
facet normal -0.640184274305938 4.93038065763132e-32 0.76822138406281
outer loop
vertex -469.587003673054 -693.93479145881 30.6740020902829
vertex -471.986999691464 -695.034789563383 28.6740060718732
vertex -469.587003673054 -695.034789563383 30.6740020902829
endloop
endfacet
facet normal -0.640184274305938 4.93038065763132e-32 0.76822138406281
outer loop
vertex -471.986999691464 -695.034789563383 28.6740060718732
vertex -469.587003673054 -693.93479145881 30.6740020902829
vertex -471.986999691464 -693.93479145881 28.6740060718732
endloop
endfacet
facet normal -0.640184274305939 5.90652254072201e-15 0.768221384062809
outer loop
vertex -469.587003673054 -696.434787238801 30.6740020902829
vertex -471.986999691464 -697.534785343374 28.6740060718732
vertex -469.587003673054 -697.534785343374 30.6740020902829
endloop
endfacet
facet normal -0.640184274305939 5.90652254072201e-15 0.768221384062809
outer loop
vertex -471.986999691464 -697.534785343374 28.6740060718732
vertex -469.587003673054 -696.434787238801 30.6740020902829
vertex -471.986999691464 -696.434787238801 28.6740060718732
endloop
endfacet
facet normal -0.640184274305939 3.23137148301157e-28 0.768221384062809
outer loop
vertex -469.587003673054 -698.934781504835 30.6740020902829
vertex -471.986999691464 -700.034779609407 28.6740060718732
vertex -469.587003673054 -700.034779609407 30.6740020902829
endloop
endfacet
facet normal -0.640184274305939 3.23137148301157e-28 0.768221384062809
outer loop
vertex -471.986999691464 -700.034779609407 28.6740060718732
vertex -469.587003673054 -698.934781504835 30.6740020902829
vertex -471.986999691464 -698.934781504835 28.6740060718732
endloop
endfacet
facet normal -0.707106781186548 -2.20505282409876e-19 0.707106781186547
outer loop
vertex -468.587005663849 -687.534804494346 31.6740000994878
vertex -469.587003673054 -701.434777284826 30.6740020902829
vertex -468.587005663849 -702.034775627817 31.6740000994878
endloop
endfacet
facet normal -0.707106781186548 -2.20505282409876e-19 0.707106781186547
outer loop
vertex -469.587003673054 -701.434777284826 30.6740020902829
vertex -468.587005663849 -687.534804494346 31.6740000994878
vertex -469.587003673054 -700.034779609407 30.6740020902829
endloop
endfacet
facet normal -0.707106781186548 -2.20505282409876e-19 0.707106781186547
outer loop
vertex -469.587003673054 -700.034779609407 30.6740020902829
vertex -468.587005663849 -687.534804494346 31.6740000994878
vertex -469.587003673054 -698.934781504835 30.6740020902829
endloop
endfacet
facet normal -0.707106781186548 -2.20505282409876e-19 0.707106781186547
outer loop
vertex -469.587003673054 -698.934781504835 30.6740020902829
vertex -468.587005663849 -687.534804494346 31.6740000994878
vertex -469.587003673054 -697.534785343374 30.6740020902829
endloop
endfacet
facet normal -0.707106781186548 -2.20505282409876e-19 0.707106781186547
outer loop
vertex -469.587003673054 -697.534785343374 30.6740020902829
vertex -468.587005663849 -687.534804494346 31.6740000994878
vertex -469.587003673054 -696.434787238801 30.6740020902829
endloop
endfacet
facet normal -0.707106781186548 -2.20505282409876e-19 0.707106781186547
outer loop
vertex -469.587003673054 -696.434787238801 30.6740020902829
vertex -468.587005663849 -687.534804494346 31.6740000994878
vertex -469.587003673054 -695.034789563383 30.6740020902829
endloop
endfacet
facet normal -0.707106781186548 -2.20505282409876e-19 0.707106781186547
outer loop
vertex -469.587003673054 -695.034789563383 30.6740020902829
vertex -468.587005663849 -687.534804494346 31.6740000994878
vertex -469.587003673054 -693.93479145881 30.6740020902829
endloop
endfacet
facet normal -0.707106781186548 -2.20505282409876e-19 0.707106781186547
outer loop
vertex -469.587003673054 -693.93479145881 30.6740020902829
vertex -468.587005663849 -687.534804494346 31.6740000994878
vertex -469.587003673054 -692.534793783391 30.6740020902829
endloop
endfacet
facet normal -0.707106781186548 -2.20505282409876e-19 0.707106781186547
outer loop
vertex -469.587003673054 -692.534793783391 30.6740020902829
vertex -468.587005663849 -687.534804494346 31.6740000994878
vertex -469.587003673054 -691.434795678819 30.6740020902829
endloop
endfacet
facet normal -0.707106781186548 -2.20505282409876e-19 0.707106781186547
outer loop
vertex -469.587003673054 -691.434795678819 30.6740020902829
vertex -468.587005663849 -687.534804494346 31.6740000994878
vertex -469.587003673054 -690.034799517358 30.6740020902829
endloop
endfacet
facet normal -0.707106781186548 -2.20505282409876e-19 0.707106781186547
outer loop
vertex -469.587003673054 -690.034799517358 30.6740020902829
vertex -468.587005663849 -687.534804494346 31.6740000994878
vertex -469.587003673054 -688.934800655807 30.6740020902829
endloop
endfacet
facet normal -0.707106781186548 -2.20505282409876e-19 0.707106781186547
outer loop
vertex -469.587003673054 -688.934800655807 30.6740020902829
vertex -468.587005663849 -687.534804494346 31.6740000994878
vertex -469.587003673054 -687.534804494346 30.6740020902829
endloop
endfacet
facet normal -0.654584283553688 0.14546357584719 0.741862361780306
outer loop
vertex -469.587003673054 -701.434777284826 30.6740020902829
vertex -471.986999691464 -702.034775627817 28.6740060718732
vertex -468.587005663849 -702.034775627817 31.6740000994878
endloop
endfacet
facet normal -0.640184274305938 4.93038065763132e-32 0.76822138406281
outer loop
vertex -471.986999691464 -701.434777284826 28.6740060718732
vertex -471.986999691464 -702.034775627817 28.6740060718732
vertex -469.587003673054 -701.434777284826 30.6740020902829
endloop
endfacet
facet normal 2.54071818078112e-33 -1.0 0.0
outer loop
vertex -468.587005663849 -702.034775627817 31.6740000994878
vertex -464.987018604018 -702.034775627817 19.6740239890294
vertex -464.987018604018 -702.034775627817 31.6740000994878
endloop
endfacet
facet normal 2.54071818078112e-33 -1.0 0.0
outer loop
vertex -464.987018604018 -702.034775627817 19.6740239890294
vertex -468.587005663849 -702.034775627817 31.6740000994878
vertex -471.986999691464 -702.034775627817 19.6740239890294
endloop
endfacet
facet normal 2.54071818078112e-33 -1.0 0.0
outer loop
vertex -471.986999691464 -702.034775627817 19.6740239890294
vertex -468.587005663849 -702.034775627817 31.6740000994878
vertex -471.986999691464 -702.034775627817 28.6740060718732
endloop
endfacet
facet normal -9.14908570380692e-16 1.64976550988161e-15 1.0
outer loop
vertex -464.987018604018 -702.034775627817 19.6740239890294
vertex -469.587003673054 -706.034766150678 19.6740239890294
vertex -464.987018604018 -706.034766150678 19.6740239890294
endloop
endfacet
facet normal -9.14908570380692e-16 1.64976550988161e-15 1.0
outer loop
vertex -469.587003673054 -706.034766150678 19.6740239890294
vertex -471.986999691464 -706.434765816892 19.6740239890294
vertex -469.587003673054 -706.434765816892 19.6740239890294
endloop
endfacet
facet normal -9.14908570380692e-16 1.64976550988161e-15 1.0
outer loop
vertex -471.986999691464 -706.434765816892 19.6740239890294
vertex -469.587003673054 -706.034766150678 19.6740239890294
vertex -471.986999691464 -702.034775627817 19.6740239890294
endloop
endfacet
facet normal -9.14908570380692e-16 1.64976550988161e-15 1.0
outer loop
vertex -471.986999691464 -702.034775627817 19.6740239890294
vertex -469.587003673054 -706.034766150678 19.6740239890294
vertex -464.987018604018 -702.034775627817 19.6740239890294
endloop
endfacet
facet normal -0.640184274305939 1.95403215348798e-15 0.768221384062809
outer loop
vertex -469.587003673054 -706.434765816892 30.6740020902829
vertex -471.986999691464 -707.534765435422 28.6740060718732
vertex -469.587003673054 -707.534765435422 30.6740020902829
endloop
endfacet
facet normal -0.640184274305939 1.95403215348798e-15 0.768221384062809
outer loop
vertex -471.986999691464 -707.534765435422 28.6740060718732
vertex -469.587003673054 -706.434765816892 30.6740020902829
vertex -471.986999691464 -706.434765816892 28.6740060718732
endloop
endfacet
facet normal -0.640184274305938 4.93038065763132e-32 0.76822138406281
outer loop
vertex -469.587003673054 -708.934761596883 30.6740020902829
vertex -471.986999691464 -710.034758187498 28.6740060718732
vertex -469.587003673054 -710.034758187498 30.6740020902829
endloop
endfacet
facet normal -0.640184274305938 4.93038065763132e-32 0.76822138406281
outer loop
vertex -471.986999691464 -710.034758187498 28.6740060718732
vertex -469.587003673054 -708.934761596883 30.6740020902829
vertex -471.986999691464 -708.934761596883 28.6740060718732
endloop
endfacet
facet normal -0.640184274305938 4.93038065763132e-32 0.76822138406281
outer loop
vertex -469.587003673054 -711.434757376874 30.6740020902828
vertex -471.986999691464 -712.534753967489 28.6740060718731
vertex -469.587003673054 -712.534753967489 30.6740020902828
endloop
endfacet
facet normal -0.640184274305938 4.93038065763132e-32 0.76822138406281
outer loop
vertex -471.986999691464 -712.534753967489 28.6740060718731
vertex -469.587003673054 -711.434757376874 30.6740020902828
vertex -471.986999691464 -711.434757376874 28.6740060718731
endloop
endfacet
facet normal -0.640184274305938 4.93038065763132e-32 0.76822138406281
outer loop
vertex -469.587003673054 -713.934753156865 30.6740020902828
vertex -471.986999691464 -715.03474974748 28.6740060718731
vertex -469.587003673054 -715.03474974748 30.6740020902828
endloop
endfacet
facet normal -0.640184274305938 4.93038065763132e-32 0.76822138406281
outer loop
vertex -471.986999691464 -715.03474974748 28.6740060718731
vertex -469.587003673054 -713.934753156865 30.6740020902828
vertex -471.986999691464 -713.934753156865 28.6740060718731
endloop
endfacet
facet normal -0.640184274305938 4.93038065763132e-32 0.76822138406281
outer loop
vertex -469.587003673054 -716.434745908941 30.6740020902828
vertex -471.986999691464 -717.534745527471 28.6740060718731
vertex -469.587003673054 -717.534745527471 30.6740020902828
endloop
endfacet
facet normal -0.640184274305938 4.93038065763132e-32 0.76822138406281
outer loop
vertex -471.986999691464 -717.534745527471 28.6740060718731
vertex -469.587003673054 -716.434745908941 30.6740020902828
vertex -471.986999691464 -716.434745908941 28.6740060718731
endloop
endfacet
facet normal -0.640184274305938 4.93038065763132e-32 0.76822138406281
outer loop
vertex -469.587003673054 -718.934741688932 30.6740020902828
vertex -471.986999691464 -720.034741307462 28.6740060718731
vertex -469.587003673054 -720.034741307462 30.6740020902828
endloop
endfacet
facet normal -0.640184274305938 4.93038065763132e-32 0.76822138406281
outer loop
vertex -471.986999691464 -720.034741307462 28.6740060718731
vertex -469.587003673054 -718.934741688932 30.6740020902828
vertex -471.986999691464 -718.934741688932 28.6740060718731
endloop
endfacet
facet normal -0.707106781186548 2.88057753938115e-16 0.707106781186547
outer loop
vertex -468.587005663849 -720.534738041128 31.6740000994877
vertex -469.587003673054 -720.034741307462 30.6740020902828
vertex -469.587003673054 -720.534738041128 30.6740020902828
endloop
endfacet
facet normal -0.707106781186548 2.88057753938115e-16 0.707106781186547
outer loop
vertex -469.587003673054 -720.034741307462 30.6740020902828
vertex -468.587005663849 -720.534738041128 31.6740000994877
vertex -469.587003673054 -718.934741688932 30.6740020902828
endloop
endfacet
facet normal -0.707106781186548 2.88057753938115e-16 0.707106781186547
outer loop
vertex -469.587003673054 -718.934741688932 30.6740020902828
vertex -468.587005663849 -720.534738041128 31.6740000994877
vertex -469.587003673054 -717.534745527471 30.6740020902828
endloop
endfacet
facet normal -0.707106781186548 2.88057753938115e-16 0.707106781186547
outer loop
vertex -469.587003673054 -717.534745527471 30.6740020902828
vertex -468.587005663849 -720.534738041128 31.6740000994877
vertex -469.587003673054 -716.434745908941 30.6740020902828
endloop
endfacet
facet normal -0.707106781186548 2.88057753938115e-16 0.707106781186547
outer loop
vertex -469.587003673054 -716.434745908941 30.6740020902828
vertex -468.587005663849 -720.534738041128 31.6740000994877
vertex -469.587003673054 -715.03474974748 30.6740020902828
endloop
endfacet
facet normal -0.707106781186548 2.88057753938115e-16 0.707106781186547
outer loop
vertex -469.587003673054 -715.03474974748 30.6740020902828
vertex -468.587005663849 -720.534738041128 31.6740000994877
vertex -469.587003673054 -713.934753156865 30.6740020902828
endloop
endfacet
facet normal -0.707106781186548 2.88057753938115e-16 0.707106781186547
outer loop
vertex -469.587003673054 -713.934753156865 30.6740020902828
vertex -468.587005663849 -720.534738041128 31.6740000994877
vertex -469.587003673054 -712.534753967489 30.6740020902828
endloop
endfacet
facet normal -0.707106781186548 2.88057753938115e-16 0.707106781186547
outer loop
vertex -469.587003673054 -712.534753967489 30.6740020902828
vertex -468.587005663849 -720.534738041128 31.6740000994877
vertex -469.587003673054 -711.434757376874 30.6740020902828
endloop
endfacet
facet normal -0.707106781186548 2.88057753938115e-16 0.707106781186547
outer loop
vertex -469.587003673054 -711.434757376874 30.6740020902828
vertex -468.587005663849 -720.534738041128 31.6740000994877
vertex -469.587003673054 -710.034758187498 30.6740020902829
endloop
endfacet
facet normal -0.707106781186548 2.88057753938115e-16 0.707106781186547
outer loop
vertex -469.587003673054 -710.034758187498 30.6740020902829
vertex -468.587005663849 -720.534738041128 31.6740000994877
vertex -469.587003673054 -708.934761596883 30.6740020902829
endloop
endfacet
facet normal -0.707106781186548 2.88057753938115e-16 0.707106781186547
outer loop
vertex -469.587003673054 -708.934761596883 30.6740020902829
vertex -468.587005663849 -720.534738041128 31.6740000994877
vertex -469.587003673054 -707.534765435422 30.6740020902829
endloop
endfacet
facet normal -0.707106781186548 2.88057753938115e-16 0.707106781186547
outer loop
vertex -469.587003673054 -707.534765435422 30.6740020902829
vertex -468.587005663849 -720.534738041128 31.6740000994877
vertex -469.587003673054 -706.434765816892 30.6740020902829
endloop
endfacet
facet normal -0.707106781186548 2.88057753938115e-16 0.707106781186547
outer loop
vertex -469.587003673054 -706.434765816892 30.6740020902829
vertex -468.587005663849 -720.534738041128 31.6740000994877
vertex -469.587003673054 -706.034766150678 30.6740020902829
endloop
endfacet
facet normal -0.707106781186548 2.88057753938115e-16 0.707106781186547
outer loop
vertex -469.587003673054 -706.034766150678 30.6740020902829
vertex -468.587005663849 -720.534738041128 31.6740000994877
vertex -468.587005663849 -706.034766150678 31.6740000994878
endloop
endfacet
facet normal 2.34997596739043e-15 -1.12799396183042e-14 1.0
outer loop
vertex -469.587003673054 -720.034741307462 19.6740239890293
vertex -471.986999691464 -720.534738041128 19.6740239890293
vertex -469.587003673054 -720.534738041128 19.6740239890293
endloop
endfacet
facet normal 2.34997596739043e-15 -1.12799396183042e-14 1.0
outer loop
vertex -471.986999691464 -720.534738041128 19.6740239890293
vertex -469.587003673054 -720.034741307462 19.6740239890293
vertex -471.986999691464 -720.034741307462 19.6740239890293
endloop
endfacet
facet normal -9.86076131526265e-32 -2.30724995009025e-15 1.0
outer loop
vertex -471.986999691464 -687.534804494346 19.174024984427
vertex -472.586997700669 -720.534738041128 19.1740249844269
vertex -471.986999691464 -720.534738041128 19.1740249844269
endloop
endfacet
facet normal -9.86076131526265e-32 -2.30724995009025e-15 1.0
outer loop
vertex -472.586997700669 -720.534738041128 19.1740249844269
vertex -471.986999691464 -687.534804494346 19.174024984427
vertex -472.586997700669 -687.534804494346 19.1740249844269
endloop
endfacet
facet normal -2.54071818078112e-33 1.0 0.0
outer loop
vertex -464.987018604018 -687.534804494346 15.6740319522099
vertex -469.587003673054 -687.534804494346 19.6740239890294
vertex -464.987018604018 -687.534804494346 31.6740000994878
endloop
endfacet
facet normal -2.54071818078112e-33 1.0 0.0
outer loop
vertex -469.587003673054 -687.534804494346 19.6740239890294
vertex -464.987018604018 -687.534804494346 15.6740319522099
vertex -484.086974806525 -687.534804494346 15.6740319522099
endloop
endfacet
facet normal -2.54071818078112e-33 1.0 0.0
outer loop
vertex -464.987018604018 -687.534804494346 31.6740000994878
vertex -469.587003673054 -687.534804494346 19.6740239890294
vertex -468.587005663849 -687.534804494346 31.6740000994878
endloop
endfacet
facet normal -2.54071818078112e-33 1.0 0.0
outer loop
vertex -469.587003673054 -687.534804494346 19.6740239890294
vertex -484.086974806525 -687.534804494346 15.6740319522099
vertex -471.986999691464 -687.534804494346 19.174024984427
endloop
endfacet
facet normal -2.54071818078112e-33 1.0 0.0
outer loop
vertex -471.986999691464 -687.534804494346 19.174024984427
vertex -484.086974806525 -687.534804494346 15.6740319522099
vertex -472.586997700669 -687.534804494346 19.1740249844269
endloop
endfacet
facet normal -2.54071818078112e-33 1.0 0.0
outer loop
vertex -472.586997700669 -687.534804494346 19.1740249844269
vertex -484.086974806525 -687.534804494346 15.6740319522099
vertex -472.586997700669 -687.534804494346 29.674004081078
endloop
endfacet
facet normal -2.54071818078112e-33 1.0 0.0
outer loop
vertex -472.586997700669 -687.534804494346 29.674004081078
vertex -484.086974806525 -687.534804494346 15.6740319522099
vertex -474.586993719079 -687.534804494346 31.6740000994878
endloop
endfacet
facet normal -2.54071818078112e-33 1.0 0.0
outer loop
vertex -474.586993719079 -687.534804494346 31.6740000994878
vertex -484.086974806525 -687.534804494346 15.6740319522099
vertex -484.086974806525 -687.534804494346 31.6740000994878
endloop
endfacet
facet normal -2.54071818078112e-33 1.0 0.0
outer loop
vertex -471.986999691464 -687.534804494346 19.6740239890294
vertex -469.587003673054 -687.534804494346 19.6740239890294
vertex -471.986999691464 -687.534804494346 19.174024984427
endloop
endfacet
facet normal -2.54071818078112e-33 1.0 0.0
outer loop
vertex -469.587003673054 -687.534804494346 30.6740020902829
vertex -468.587005663849 -687.534804494346 31.6740000994878
vertex -469.587003673054 -687.534804494346 19.6740239890294
endloop
endfacet
facet normal 2.54071818078112e-33 -1.0 0.0
outer loop
vertex -474.586993719079 -720.534738041128 31.6740000994877
vertex -472.586997700669 -720.534738041128 19.1740249844269
vertex -472.586997700669 -720.534738041128 29.6740040810779
endloop
endfacet
facet normal 2.54071818078112e-33 -1.0 0.0
outer loop
vertex -468.587005663849 -720.534738041128 31.6740000994877
vertex -464.987018604018 -720.534738041128 15.6740319522099
vertex -464.987018604018 -720.534738041128 31.6740000994877
endloop
endfacet
facet normal 2.54071818078112e-33 -1.0 0.0
outer loop
vertex -464.987018604018 -720.534738041128 15.6740319522099
vertex -468.587005663849 -720.534738041128 31.6740000994877
vertex -469.587003673054 -720.534738041128 19.6740239890293
endloop
endfacet
facet normal 2.54071818078112e-33 -1.0 0.0
outer loop
vertex -464.987018604018 -720.534738041128 15.6740319522099
vertex -469.587003673054 -720.534738041128 19.6740239890293
vertex -484.086974806525 -720.534738041128 15.6740319522099
endloop
endfacet
facet normal 2.54071818078112e-33 -1.0 0.0
outer loop
vertex -469.587003673054 -720.534738041128 19.6740239890293
vertex -468.587005663849 -720.534738041128 31.6740000994877
vertex -469.587003673054 -720.534738041128 30.6740020902828
endloop
endfacet
facet normal 2.54071818078112e-33 -1.0 0.0
outer loop
vertex -484.086974806525 -720.534738041128 15.6740319522099
vertex -469.587003673054 -720.534738041128 19.6740239890293
vertex -471.986999691464 -720.534738041128 19.1740249844269
endloop
endfacet
facet normal 2.54071818078112e-33 -1.0 0.0
outer loop
vertex -471.986999691464 -720.534738041128 19.1740249844269
vertex -469.587003673054 -720.534738041128 19.6740239890293
vertex -471.986999691464 -720.534738041128 19.6740239890293
endloop
endfacet
facet normal 2.54071818078112e-33 -1.0 0.0
outer loop
vertex -484.086974806525 -720.534738041128 15.6740319522099
vertex -471.986999691464 -720.534738041128 19.1740249844269
vertex -472.586997700669 -720.534738041128 19.1740249844269
endloop
endfacet
facet normal 2.54071818078112e-33 -1.0 0.0
outer loop
vertex -484.086974806525 -720.534738041128 15.6740319522099
vertex -472.586997700669 -720.534738041128 19.1740249844269
vertex -474.586993719079 -720.534738041128 31.6740000994877
endloop
endfacet
facet normal 2.54071818078112e-33 -1.0 0.0
outer loop
vertex -484.086974806525 -720.534738041128 15.6740319522099
vertex -474.586993719079 -720.534738041128 31.6740000994877
vertex -484.086974806525 -720.534738041128 31.6740000994877
endloop
endfacet
facet normal -4.46388271762324e-16 -1.68100681883079e-15 1.0
outer loop
vertex -474.586993719079 -720.534738041128 31.6740000994877
vertex -477.086997700669 -716.008364416637 31.6740000994877
vertex -484.086974806525 -720.534738041128 31.6740000994877
endloop
endfacet
facet normal -4.46388271762324e-16 -1.68100681883079e-15 1.0
outer loop
vertex -477.086997700669 -716.008364416637 31.6740000994877
vertex -474.586993719079 -720.534738041128 31.6740000994877
vertex -474.586993719079 -687.534804494346 31.6740000994878
endloop
endfacet
facet normal -4.46388271762324e-16 -1.68100681883079e-15 1.0
outer loop
vertex -477.086997700669 -716.008364416637 31.6740000994877
vertex -474.586993719079 -687.534804494346 31.6740000994878
vertex -477.086997700669 -692.061178118837 31.6740000994878
endloop
endfacet
facet normal -4.46388271762324e-16 -1.68100681883079e-15 1.0
outer loop
vertex -477.086997700669 -692.061178118837 31.6740000994878
vertex -474.586993719079 -687.534804494346 31.6740000994878
vertex -483.560593218854 -692.061178118837 31.6740000994877
endloop
endfacet
facet normal -4.46388271762324e-16 -1.68100681883079e-15 1.0
outer loop
vertex -484.086974806525 -720.534738041128 31.6740000994877
vertex -488.086966843344 -729.034721876348 31.6740000994877
vertex -484.086974806525 -729.034721876348 31.6740000994877
endloop
endfacet
facet normal -4.46388271762324e-16 -1.68100681883079e-15 1.0
outer loop
vertex -488.086966843344 -729.034721876348 31.6740000994877
vertex -484.086974806525 -720.534738041128 31.6740000994877
vertex -488.086966843344 -679.034821416105 31.6740000994877
endloop
endfacet
facet normal -4.46388271762324e-16 -1.68100681883079e-15 1.0
outer loop
vertex -488.086966843344 -679.034821416105 31.6740000994877
vertex -484.086974806525 -720.534738041128 31.6740000994877
vertex -483.560593218854 -716.008364416637 31.6740000994877
endloop
endfacet
facet normal -4.46388271762324e-16 -1.68100681883079e-15 1.0
outer loop
vertex -483.560593218854 -716.008364416637 31.6740000994877
vertex -484.086974806525 -720.534738041128 31.6740000994877
vertex -477.086997700669 -716.008364416637 31.6740000994877
endloop
endfacet
facet normal -4.46388271762324e-16 -1.68100681883079e-15 1.0
outer loop
vertex -488.086966843344 -679.034821416105 31.6740000994877
vertex -483.560593218854 -716.008364416637 31.6740000994877
vertex -483.560593218854 -692.061178118837 31.6740000994877
endloop
endfacet
facet normal -4.46388271762324e-16 -1.68100681883079e-15 1.0
outer loop
vertex -488.086966843344 -679.034821416105 31.6740000994877
vertex -483.560593218854 -692.061178118837 31.6740000994877
vertex -484.086974806525 -687.534804494346 31.6740000994878
endloop
endfacet
facet normal -4.46388271762324e-16 -1.68100681883079e-15 1.0
outer loop
vertex -484.086974806525 -687.534804494346 31.6740000994878
vertex -483.560593218854 -692.061178118837 31.6740000994877
vertex -474.586993719079 -687.534804494346 31.6740000994878
endloop
endfacet
facet normal -4.46388271762324e-16 -1.68100681883079e-15 1.0
outer loop
vertex -488.086966843344 -679.034821416105 31.6740000994877
vertex -484.086974806525 -687.534804494346 31.6740000994878
vertex -484.086974806525 -679.034821416105 31.6740000994877
endloop
endfacet
facet normal 8.96658773821665e-30 -1.0 -2.35515475386515e-15
outer loop
vertex -483.560593218854 -692.061178118837 31.6740000994877
vertex -477.086997700669 -692.061178118837 15.6740319522099
vertex -477.086997700669 -692.061178118837 31.6740000994878
endloop
endfacet
facet normal 8.96658773821665e-30 -1.0 -2.35515475386515e-15
outer loop
vertex -477.086997700669 -692.061178118837 15.6740319522099
vertex -483.560593218854 -692.061178118837 31.6740000994877
vertex -483.560593218854 -692.061178118837 15.6740319522099
endloop
endfacet
facet normal 1.0 -2.3914160844609e-30 1.26819125523627e-15
outer loop
vertex -483.560593218854 -692.061178118837 15.6740319522099
vertex -483.560593218854 -716.008364416637 31.6740000994877
vertex -483.560593218854 -716.008364416637 15.6740319522098
endloop
endfacet
facet normal 1.0 -2.3914160844609e-30 1.26819125523627e-15
outer loop
vertex -483.560593218854 -716.008364416637 31.6740000994877
vertex -483.560593218854 -692.061178118837 15.6740319522099
vertex -483.560593218854 -692.061178118837 31.6740000994877
endloop
endfacet
facet normal -2.41098204378334e-32 1.0 2.35515475386515e-15
outer loop
vertex -483.560593218854 -716.008364416637 15.6740319522098
vertex -477.086997700669 -716.008364416637 31.6740000994877
vertex -477.086997700669 -716.008364416637 15.6740319522099
endloop
endfacet
facet normal -2.41098204378334e-32 1.0 2.35515475386515e-15
outer loop
vertex -477.086997700669 -716.008364416637 31.6740000994877
vertex -483.560593218854 -716.008364416637 15.6740319522098
vertex -483.560593218854 -716.008364416637 31.6740000994877
endloop
endfacet
facet normal -1.0 3.28504757865658e-30 -1.26819125523627e-15
outer loop
vertex -477.086997700669 -716.008364416637 31.6740000994877
vertex -477.086997700669 -692.061178118837 15.6740319522099
vertex -477.086997700669 -716.008364416637 15.6740319522099
endloop
endfacet
facet normal -1.0 3.28504757865658e-30 -1.26819125523627e-15
outer loop
vertex -477.086997700669 -692.061178118837 15.6740319522099
vertex -477.086997700669 -716.008364416637 31.6740000994877
vertex -477.086997700669 -692.061178118837 31.6740000994878
endloop
endfacet
facet normal -1.0 2.54071818078283e-33 3.84569691295243e-30
outer loop
vertex -471.986999691464 -720.034741307462 19.6740239890293
vertex -471.986999691464 -717.534745527471 19.6740239890293
vertex -471.986999691464 -720.534738041128 19.6740239890293
endloop
endfacet
facet normal -1.0 2.54071818078283e-33 3.84569691295243e-30
outer loop
vertex -471.986999691464 -717.534745527471 19.6740239890293
vertex -471.986999691464 -720.034741307462 19.6740239890293
vertex -471.986999691464 -718.934741688932 19.6740239890293
endloop
endfacet
facet normal -1.0 2.54071818078283e-33 3.84569691295243e-30
outer loop
vertex -471.986999691464 -718.934741688932 19.6740239890293
vertex -471.986999691464 -720.034741307462 19.6740239890293
vertex -471.986999691464 -720.034741307462 28.6740060718731
endloop
endfacet
facet normal -1.0 2.54071818078283e-33 3.84569691295243e-30
outer loop
vertex -471.986999691464 -718.934741688932 19.6740239890293
vertex -471.986999691464 -720.034741307462 28.6740060718731
vertex -471.986999691464 -718.934741688932 28.6740060718731
endloop
endfacet
facet normal -1.0 2.54071818078283e-33 3.84569691295243e-30
outer loop
vertex -471.986999691464 -717.534745527471 28.6740060718731
vertex -471.986999691464 -716.434745908941 19.6740239890293
vertex -471.986999691464 -717.534745527471 19.6740239890293
endloop
endfacet
facet normal -1.0 2.54071818078283e-33 3.84569691295243e-30
outer loop
vertex -471.986999691464 -716.434745908941 19.6740239890293
vertex -471.986999691464 -717.534745527471 28.6740060718731
vertex -471.986999691464 -716.434745908941 28.6740060718731
endloop
endfacet
facet normal -1.0 2.54071818078283e-33 3.84569691295243e-30
outer loop
vertex -471.986999691464 -715.03474974748 28.6740060718731
vertex -471.986999691464 -713.934753156865 19.6740239890293
vertex -471.986999691464 -715.03474974748 19.6740239890293
endloop
endfacet
facet normal -1.0 2.54071818078283e-33 3.84569691295243e-30
outer loop
vertex -471.986999691464 -713.934753156865 19.6740239890293
vertex -471.986999691464 -715.03474974748 28.6740060718731
vertex -471.986999691464 -713.934753156865 28.6740060718731
endloop
endfacet
facet normal -1.0 2.54071818078283e-33 3.84569691295243e-30
outer loop
vertex -471.986999691464 -712.534753967489 19.6740239890293
vertex -471.986999691464 -711.434757376874 19.6740239890293
vertex -471.986999691464 -713.934753156865 19.6740239890293
endloop
endfacet
facet normal -1.0 2.54071818078283e-33 3.84569691295243e-30
outer loop
vertex -471.986999691464 -711.434757376874 19.6740239890293
vertex -471.986999691464 -712.534753967489 19.6740239890293
vertex -471.986999691464 -711.434757376874 28.6740060718731
endloop
endfacet
facet normal -1.0 2.54071818078283e-33 3.84569691295243e-30
outer loop
vertex -471.986999691464 -711.434757376874 28.6740060718731
vertex -471.986999691464 -712.534753967489 19.6740239890293
vertex -471.986999691464 -712.534753967489 28.6740060718731
endloop
endfacet
facet normal -1.0 2.54071818078283e-33 3.84569691295243e-30
outer loop
vertex -471.986999691464 -710.034758187498 28.6740060718732
vertex -471.986999691464 -708.934761596883 19.6740239890294
vertex -471.986999691464 -710.034758187498 19.6740239890294
endloop
endfacet
facet normal -1.0 2.54071818078283e-33 3.84569691295243e-30
outer loop
vertex -471.986999691464 -708.934761596883 19.6740239890294
vertex -471.986999691464 -710.034758187498 28.6740060718732
vertex -471.986999691464 -708.934761596883 28.6740060718732
endloop
endfacet
facet normal -1.0 2.54071818078283e-33 3.84569691295243e-30
outer loop
vertex -471.986999691464 -707.534765435422 19.6740239890294
vertex -471.986999691464 -702.034775627817 19.6740239890294
vertex -471.986999691464 -708.934761596883 19.6740239890294
endloop
endfacet
facet normal -1.0 2.54071818078283e-33 3.84569691295243e-30
outer loop
vertex -471.986999691464 -702.034775627817 19.6740239890294
vertex -471.986999691464 -707.534765435422 19.6740239890294
vertex -471.986999691464 -706.434765816892 19.6740239890294
endloop
endfacet
facet normal -1.0 2.54071818078283e-33 3.84569691295243e-30
outer loop
vertex -471.986999691464 -706.434765816892 19.6740239890294
vertex -471.986999691464 -707.534765435422 19.6740239890294
vertex -471.986999691464 -707.534765435422 28.6740060718732
endloop
endfacet
facet normal -1.0 2.54071818078283e-33 3.84569691295243e-30
outer loop
vertex -471.986999691464 -706.434765816892 19.6740239890294
vertex -471.986999691464 -707.534765435422 28.6740060718732
vertex -471.986999691464 -706.434765816892 28.6740060718732
endloop
endfacet
facet normal -1.0 2.54071818078283e-33 3.84569691295243e-30
outer loop
vertex -471.986999691464 -702.034775627817 28.6740060718732
vertex -471.986999691464 -701.434777284826 19.6740239890294
vertex -471.986999691464 -702.034775627817 19.6740239890294
endloop
endfacet
facet normal -1.0 2.54071818078283e-33 3.84569691295243e-30
outer loop
vertex -471.986999691464 -701.434777284826 19.6740239890294
vertex -471.986999691464 -702.034775627817 28.6740060718732
vertex -471.986999691464 -701.434777284826 28.6740060718732
endloop
endfacet
facet normal -1.0 2.54071818078283e-33 3.84569691295243e-30
outer loop
vertex -471.986999691464 -701.434777284826 19.6740239890294
vertex -471.986999691464 -698.934781504835 19.6740239890294
vertex -471.986999691464 -697.534785343374 19.6740239890294
endloop
endfacet
facet normal -1.0 2.54071818078283e-33 3.84569691295243e-30
outer loop
vertex -471.986999691464 -698.934781504835 19.6740239890294
vertex -471.986999691464 -701.434777284826 19.6740239890294
vertex -471.986999691464 -700.034779609407 19.6740239890294
endloop
endfacet
facet normal -1.0 2.54071818078283e-33 3.84569691295243e-30
outer loop
vertex -471.986999691464 -698.934781504835 19.6740239890294
vertex -471.986999691464 -700.034779609407 19.6740239890294
vertex -471.986999691464 -698.934781504835 28.6740060718732
endloop
endfacet
facet normal -1.0 2.54071818078283e-33 3.84569691295243e-30
outer loop
vertex -471.986999691464 -698.934781504835 28.6740060718732
vertex -471.986999691464 -700.034779609407 19.6740239890294
vertex -471.986999691464 -700.034779609407 28.6740060718732
endloop
endfacet
facet normal -1.0 2.54071818078283e-33 3.84569691295243e-30
outer loop
vertex -471.986999691464 -697.534785343374 28.6740060718732
vertex -471.986999691464 -696.434787238801 19.6740239890294
vertex -471.986999691464 -697.534785343374 19.6740239890294
endloop
endfacet
facet normal -1.0 2.54071818078283e-33 3.84569691295243e-30
outer loop
vertex -471.986999691464 -696.434787238801 19.6740239890294
vertex -471.986999691464 -697.534785343374 28.6740060718732
vertex -471.986999691464 -696.434787238801 28.6740060718732
endloop
endfacet
facet normal -1.0 2.54071818078283e-33 3.84569691295243e-30
outer loop
vertex -471.986999691464 -695.034789563383 19.6740239890294
vertex -471.986999691464 -693.93479145881 19.6740239890294
vertex -471.986999691464 -692.534793783391 19.6740239890294
endloop
endfacet
facet normal -1.0 2.54071818078283e-33 3.84569691295243e-30
outer loop
vertex -471.986999691464 -693.93479145881 19.6740239890294
vertex -471.986999691464 -695.034789563383 19.6740239890294
vertex -471.986999691464 -695.034789563383 28.6740060718732
endloop
endfacet
facet normal -1.0 2.54071818078283e-33 3.84569691295243e-30
outer loop
vertex -471.986999691464 -693.93479145881 19.6740239890294
vertex -471.986999691464 -695.034789563383 28.6740060718732
vertex -471.986999691464 -693.93479145881 28.6740060718732
endloop
endfacet
facet normal -1.0 2.54071818078283e-33 3.84569691295243e-30
outer loop
vertex -471.986999691464 -692.534793783391 28.6740060718732
vertex -471.986999691464 -691.434795678819 19.6740239890294
vertex -471.986999691464 -692.534793783391 19.6740239890294
endloop
endfacet
facet normal -1.0 2.54071818078283e-33 3.84569691295243e-30
outer loop
vertex -471.986999691464 -691.434795678819 19.6740239890294
vertex -471.986999691464 -692.534793783391 28.6740060718732
vertex -471.986999691464 -691.434795678819 28.6740060718732
endloop
endfacet
facet normal -1.0 2.54071818078283e-33 3.84569691295243e-30
outer loop
vertex -471.986999691464 -690.034799517358 28.6740060718732
vertex -471.986999691464 -688.934800655807 19.6740239890294
vertex -471.986999691464 -690.034799517358 19.6740239890294
endloop
endfacet
facet normal -1.0 2.54071818078283e-33 3.84569691295243e-30
outer loop
vertex -471.986999691464 -688.934800655807 19.6740239890294
vertex -471.986999691464 -690.034799517358 28.6740060718732
vertex -471.986999691464 -688.934800655807 28.6740060718732
endloop
endfacet
facet normal -1.0 2.54071818078283e-33 3.84569691295243e-30
outer loop
vertex -471.986999691464 -720.534738041128 19.6740239890293
vertex -471.986999691464 -687.534804494346 19.174024984427
vertex -471.986999691464 -720.534738041128 19.1740249844269
endloop
endfacet
facet normal -1.0 2.54071818078283e-33 3.84569691295243e-30
outer loop
vertex -471.986999691464 -687.534804494346 19.174024984427
vertex -471.986999691464 -720.534738041128 19.6740239890293
vertex -471.986999691464 -715.03474974748 19.6740239890293
endloop
endfacet
facet normal -1.0 2.54071818078283e-33 3.84569691295243e-30
outer loop
vertex -471.986999691464 -687.534804494346 19.174024984427
vertex -471.986999691464 -715.03474974748 19.6740239890293
vertex -471.986999691464 -711.434757376874 19.6740239890293
endloop
endfacet
facet normal -1.0 2.54071818078283e-33 3.84569691295243e-30
outer loop
vertex -471.986999691464 -687.534804494346 19.174024984427
vertex -471.986999691464 -711.434757376874 19.6740239890293
vertex -471.986999691464 -688.934800655807 19.6740239890294
endloop
endfacet
facet normal -1.0 2.54071818078283e-33 3.84569691295243e-30
outer loop
vertex -471.986999691464 -687.534804494346 19.174024984427
vertex -471.986999691464 -688.934800655807 19.6740239890294
vertex -471.986999691464 -687.534804494346 19.6740239890294
endloop
endfacet
facet normal -1.0 2.54071818078283e-33 3.84569691295243e-30
outer loop
vertex -471.986999691464 -715.03474974748 19.6740239890293
vertex -471.986999691464 -720.534738041128 19.6740239890293
vertex -471.986999691464 -717.534745527471 19.6740239890293
endloop
endfacet
facet normal -1.0 2.54071818078283e-33 3.84569691295243e-30
outer loop
vertex -471.986999691464 -715.03474974748 19.6740239890293
vertex -471.986999691464 -717.534745527471 19.6740239890293
vertex -471.986999691464 -716.434745908941 19.6740239890293
endloop
endfacet
facet normal -1.0 2.54071818078283e-33 3.84569691295243e-30
outer loop
vertex -471.986999691464 -711.434757376874 19.6740239890293
vertex -471.986999691464 -715.03474974748 19.6740239890293
vertex -471.986999691464 -713.934753156865 19.6740239890293
endloop
endfacet
facet normal -1.0 2.54071818078283e-33 3.84569691295243e-30
outer loop
vertex -471.986999691464 -688.934800655807 19.6740239890294
vertex -471.986999691464 -711.434757376874 19.6740239890293
vertex -471.986999691464 -710.034758187498 19.6740239890294
endloop
endfacet
facet normal -1.0 2.54071818078283e-33 3.84569691295243e-30
outer loop
vertex -471.986999691464 -688.934800655807 19.6740239890294
vertex -471.986999691464 -710.034758187498 19.6740239890294
vertex -471.986999691464 -708.934761596883 19.6740239890294
endloop
endfacet
facet normal -1.0 2.54071818078283e-33 3.84569691295243e-30
outer loop
vertex -471.986999691464 -688.934800655807 19.6740239890294
vertex -471.986999691464 -708.934761596883 19.6740239890294
vertex -471.986999691464 -702.034775627817 19.6740239890294
endloop
endfacet
facet normal -1.0 2.54071818078283e-33 3.84569691295243e-30
outer loop
vertex -471.986999691464 -688.934800655807 19.6740239890294
vertex -471.986999691464 -702.034775627817 19.6740239890294
vertex -471.986999691464 -701.434777284826 19.6740239890294
endloop
endfacet
facet normal -1.0 2.54071818078283e-33 3.84569691295243e-30
outer loop
vertex -471.986999691464 -688.934800655807 19.6740239890294
vertex -471.986999691464 -701.434777284826 19.6740239890294
vertex -471.986999691464 -697.534785343374 19.6740239890294
endloop
endfacet
facet normal -1.0 2.54071818078283e-33 3.84569691295243e-30
outer loop
vertex -471.986999691464 -688.934800655807 19.6740239890294
vertex -471.986999691464 -697.534785343374 19.6740239890294
vertex -471.986999691464 -696.434787238801 19.6740239890294
endloop
endfacet
facet normal -1.0 2.54071818078283e-33 3.84569691295243e-30
outer loop
vertex -471.986999691464 -688.934800655807 19.6740239890294
vertex -471.986999691464 -696.434787238801 19.6740239890294
vertex -471.986999691464 -695.034789563383 19.6740239890294
endloop
endfacet
facet normal -1.0 2.54071818078283e-33 3.84569691295243e-30
outer loop
vertex -471.986999691464 -688.934800655807 19.6740239890294
vertex -471.986999691464 -695.034789563383 19.6740239890294
vertex -471.986999691464 -692.534793783391 19.6740239890294
endloop
endfacet
facet normal -1.0 2.54071818078283e-33 3.84569691295243e-30
outer loop
vertex -471.986999691464 -688.934800655807 19.6740239890294
vertex -471.986999691464 -692.534793783391 19.6740239890294
vertex -471.986999691464 -691.434795678819 19.6740239890294
endloop
endfacet
facet normal -1.0 2.54071818078283e-33 3.84569691295243e-30
outer loop
vertex -471.986999691464 -688.934800655807 19.6740239890294
vertex -471.986999691464 -691.434795678819 19.6740239890294
vertex -471.986999691464 -690.034799517358 19.6740239890294
endloop
endfacet
endsolid 3D_02
