  0
SECTION
  2
HEADER
  9
$ACADVER
  1
AC1024
  9
$ACADMAINTVER
 70
     6
  9
$DWGCODEPAGE
  3
ASCII
  9
$INSBASE
 10
0.0
 20
0.0
 30
0.0
  9
$EXTMIN
 10
1.000000000000000E+20
 20
1.000000000000000E+20
 30
1.000000000000000E+20
  9
$EXTMAX
 10
-1.000000000000000E+20
 20
-1.000000000000000E+20
 30
-1.000000000000000E+20
  9
$LIMMIN
 10
0.0
 20
0.0
  9
$LIMMAX
 10
12.0
 20
9.0
  9
$ORTHOMODE
 70
     0
  9
$REGENMODE
 70
     1
  9
$FILLMODE
 70
     1
  9
$QTEXTMODE
 70
     0
  9
$MIRRTEXT
 70
     1
  9
$LTSCALE
 40
1.0
  9
$ATTMODE
 70
     1
  9
$TEXTSIZE
 40
0.2
  9
$TRACEWID
 40
0.05
  9
$TEXTSTYLE
  7
Standard
  9
$CLAYER
  8
0
  9
$CELTYPE
  6
ByLayer
  9
$CECOLOR
 62
   178
  9
$CELTSCALE
 40
1.0
  9
$DISPSILH
 70
     0
  9
$DIMSCALE
 40
1.0
  9
$DIMASZ
 40
2.5
  9
$DIMEXO
 40
0.625
  9
$DIMDLI
 40
0.38
  9
$DIMRND
 40
0.0
  9
$DIMDLE
 40
0.0
  9
$DIMEXE
 40
1.25
  9
$DIMTP
 40
0.0
  9
$DIMTM
 40
0.0
  9
$DIMTXT
 40
2.5
  9
$DIMCEN
 40
0.09
  9
$DIMTSZ
 40
0.0
  9
$DIMTOL
 70
     0
  9
$DIMLIM
 70
     0
  9
$DIMTIH
 70
     1
  9
$DIMTOH
 70
     1
  9
$DIMSE1
 70
     0
  9
$DIMSE2
 70
     0
  9
$DIMTAD
 70
     0
  9
$DIMZIN
 70
     8
  9
$DIMBLK
  1

  9
$DIMASO
 70
     1
  9
$DIMSHO
 70
     1
  9
$DIMPOST
  1

  9
$DIMAPOST
  1

  9
$DIMALT
 70
     0
  9
$DIMALTD
 70
     2
  9
$DIMALTF
 40
25.4
  9
$DIMLFAC
 40
1.0
  9
$DIMTOFL
 70
     0
  9
$DIMTVP
 40
0.0
  9
$DIMTIX
 70
     0
  9
$DIMSOXD
 70
     0
  9
$DIMSAH
 70
     0
  9
$DIMBLK1
  1

  9
$DIMBLK2
  1

  9
$DIMSTYLE
  2
Standard
  9
$DIMCLRD
 70
   178
  9
$DIMCLRE
 70
   178
  9
$DIMCLRT
 70
   178
  9
$DIMTFAC
 40
1.0
  9
$DIMGAP
 40
0.625
  9
$DIMJUST
 70
     0
  9
$DIMSD1
 70
     0
  9
$DIMSD2
 70
     0
  9
$DIMTOLJ
 70
     1
  9
$DIMTZIN
 70
     0
  9
$DIMALTZ
 70
     0
  9
$DIMALTTZ
 70
     0
  9
$DIMUPT
 70
     0
  9
$DIMDEC
 70
     4
  9
$DIMTDEC
 70
     4
  9
$DIMALTU
 70
     2
  9
$DIMALTTD
 70
     2
  9
$DIMTXSTY
  7
Standard
  9
$DIMAUNIT
 70
     0
  9
$DIMADEC
 70
     0
  9
$DIMALTRND
 40
0.0
  9
$DIMAZIN
 70
     2
  9
$DIMDSEP
 70
    46
  9
$DIMATFIT
 70
     3
  9
$DIMFRAC
 70
     0
  9
$DIMLDRBLK
  1

  9
$DIMLUNIT
 70
     2
  9
$DIMLWD
 70
    -2
  9
$DIMLWE
 70
    -2
  9
$DIMTMOVE
 70
     0
  9
$DIMFXL
 40
1.0
  9
$DIMFXLON
 70
     0
  9
$DIMJOGANG
 40
0.7853981633974483
  9
$DIMTFILL
 70
     0
  9
$DIMTFILLCLR
 70
     0
  9
$DIMARCSYM
 70
     0
  9
$DIMLTYPE
  6

  9
$DIMLTEX1
  6

  9
$DIMLTEX2
  6

  9
$DIMTXTDIRECTION
 70
     0
  9
$LUNITS
 70
     2
  9
$LUPREC
 70
     4
  9
$SKETCHINC
 40
0.1
  9
$FILLETRAD
 40
0.5
  9
$AUNITS
 70
     0
  9
$AUPREC
 70
     0
  9
$MENU
  1
.
  9
$ELEVATION
 40
0.0
  9
$PELEVATION
 40
0.0
  9
$THICKNESS
 40
0.0
  9
$LIMCHECK
 70
     0
  9
$CHAMFERA
 40
0.5
  9
$CHAMFERB
 40
0.5
  9
$CHAMFERC
 40
1.0
  9
$CHAMFERD
 40
0.0
  9
$SKPOLY
 70
     0
  9
$TDCREATE
 40
2456140.587893507
  9
$TDUCREATE
 40
2456140.546226852
  9
$TDUPDATE
 40
2456140.587893507
  9
$TDUUPDATE
 40
2456140.546226852
  9
$TDINDWG
 40
0.0000000116
  9
$TDUSRTIMER
 40
0.0000000116
  9
$USRTIMER
 70
     1
  9
$ANGBASE
 50
0.0
  9
$ANGDIR
 70
     0
  9
$PDMODE
 70
     0
  9
$PDSIZE
 40
0.0
  9
$PLINEWID
 40
0.0
  9
$SPLFRAME
 70
     0
  9
$SPLINETYPE
 70
     6
  9
$SPLINESEGS
 70
     8
  9
$HANDSEED
  5
339
  9
$SURFTAB1
 70
     6
  9
$SURFTAB2
 70
     6
  9
$SURFTYPE
 70
     6
  9
$SURFU
 70
     6
  9
$SURFV
 70
     6
  9
$UCSBASE
  2

  9
$UCSNAME
  2

  9
$UCSORG
 10
0.0
 20
0.0
 30
0.0
  9
$UCSXDIR
 10
1.0
 20
0.0
 30
0.0
  9
$UCSYDIR
 10
0.0
 20
1.0
 30
0.0
  9
$UCSORTHOREF
  2

  9
$UCSORTHOVIEW
 70
     0
  9
$UCSORGTOP
 10
0.0
 20
0.0
 30
0.0
  9
$UCSORGBOTTOM
 10
0.0
 20
0.0
 30
0.0
  9
$UCSORGLEFT
 10
0.0
 20
0.0
 30
0.0
  9
$UCSORGRIGHT
 10
0.0
 20
0.0
 30
0.0
  9
$UCSORGFRONT
 10
0.0
 20
0.0
 30
0.0
  9
$UCSORGBACK
 10
0.0
 20
0.0
 30
0.0
  9
$PUCSBASE
  2

  9
$PUCSNAME
  2

  9
$PUCSORG
 10
0.0
 20
0.0
 30
0.0
  9
$PUCSXDIR
 10
1.0
 20
0.0
 30
0.0
  9
$PUCSYDIR
 10
0.0
 20
1.0
 30
0.0
  9
$PUCSORTHOREF
  2

  9
$PUCSORTHOVIEW
 70
     0
  9
$PUCSORGTOP
 10
0.0
 20
0.0
 30
0.0
  9
$PUCSORGBOTTOM
 10
0.0
 20
0.0
 30
0.0
  9
$PUCSORGLEFT
 10
0.0
 20
0.0
 30
0.0
  9
$PUCSORGRIGHT
 10
0.0
 20
0.0
 30
0.0
  9
$PUCSORGFRONT
 10
0.0
 20
0.0
 30
0.0
  9
$PUCSORGBACK
 10
0.0
 20
0.0
 30
0.0
  9
$USERI1
 70
     0
  9
$USERI2
 70
     0
  9
$USERI3
 70
     0
  9
$USERI4
 70
     0
  9
$USERI5
 70
     0
  9
$USERR1
 40
0.0
  9
$USERR2
 40
0.0
  9
$USERR3
 40
0.0
  9
$USERR4
 40
0.0
  9
$USERR5
 40
0.0
  9
$WORLDVIEW
 70
     1
  9
$SHADEDGE
 70
     3
  9
$SHADEDIF
 70
    70
  9
$TILEMODE
 70
     1
  9
$MAXACTVP
 70
    64
  9
$PINSBASE
 10
0.0
 20
0.0
 30
0.0
  9
$PLIMCHECK
 70
     0
  9
$PEXTMIN
 10
1.000000000000000E+20
 20
1.000000000000000E+20
 30
1.000000000000000E+20
  9
$PEXTMAX
 10
-1.000000000000000E+20
 20
-1.000000000000000E+20
 30
-1.000000000000000E+20
  9
$PLIMMIN
 10
0.0
 20
0.0
  9
$PLIMMAX
 10
12.0
 20
9.0
  9
$UNITMODE
 70
     0
  9
$VISRETAIN
 70
     1
  9
$PLINEGEN
 70
     0
  9
$PSLTSCALE
 70
     1
  9
$TREEDEPTH
 70
  3020
  9
$CMLSTYLE
  2
Standard
  9
$CMLJUST
 70
     0
  9
$CMLSCALE
 40
1.0
  9
$PROXYGRAPHICS
 70
     1
  9
$MEASUREMENT
 70
     1
  9
$CELWEIGHT
370
    -1
  9
$ENDCAPS
280
     0
  9
$JOINSTYLE
280
     0
  9
$LWDISPLAY
290
     0
  9
$INSUNITS
 70
     4
  9
$HYPERLINKBASE
  1

  9
$STYLESHEET
  1

  9
$XEDIT
290
     1
  9
$CEPSNTYPE
380
     0
  9
$PSTYLEMODE
290
     1
  9
$FINGERPRINTGUID
  2
{7A7B8697-B0FF-FF0C-23B7-67C29BDA6C2E}
  9
$VERSIONGUID
  2
{FAEB1C32-E019-11D5-929B-00C0DF256EC4}
  9
$EXTNAMES
290
     1
  9
$PSVPSCALE
 40
0.0
  9
$OLESTARTUP
290
     0
  9
$SORTENTS
280
   127
  9
$INDEXCTL
280
     0
  9
$HIDETEXT
280
     1
  9
$XCLIPFRAME
280
     2
  9
$HALOGAP
280
     0
  9
$OBSCOLOR
 70
   257
  9
$OBSLTYPE
280
     0
  9
$INTERSECTIONDISPLAY
280
     0
  9
$INTERSECTIONCOLOR
 70
   257
  9
$DIMASSOC
280
     2
  9
$PROJECTNAME
  1

  9
$CAMERADISPLAY
290
     0
  9
$LENSLENGTH
 40
50.0
  9
$CAMERAHEIGHT
 40
0.0
  9
$STEPSPERSEC
 40
2.0
  9
$STEPSIZE
 40
6.0
  9
$3DDWFPREC
 40
2.0
  9
$PSOLWIDTH
 40
0.25
  9
$PSOLHEIGHT
 40
4.0
  9
$LOFTANG1
 40
1.570796326794897
  9
$LOFTANG2
 40
1.570796326794897
  9
$LOFTMAG1
 40
0.0
  9
$LOFTMAG2
 40
0.0
  9
$LOFTPARAM
 70
     7
  9
$LOFTNORMALS
280
     1
  9
$LATITUDE
 40
37.795
  9
$LONGITUDE
 40
-122.394
  9
$NORTHDIRECTION
 40
0.0
  9
$TIMEZONE
 70
 -8000
  9
$LIGHTGLYPHDISPLAY
280
     1
  9
$TILEMODELIGHTSYNCH
280
     1
  9
$SOLIDHIST
280
     1
  9
$SHOWHIST
280
     1
  9
$DWFFRAME
280
     2
  9
$DGNFRAME
280
     2
  9
$REALWORLDSCALE
290
     1
  9
$INTERFERECOLOR
 62
   256
  9
$CSHADOW
280
     0
  9
$SHADOWPLANELOCATION
 40
0.0
  0
ENDSEC
  0
SECTION
  2
CLASSES
  0
CLASS
  1
ACDBDICTIONARYWDFLT
  2
AcDbDictionaryWithDefault
  3
ObjectDBX Classes
 90
        0
 91
        4
280
     0
281
     0
  0
CLASS
  1
VISUALSTYLE
  2
AcDbVisualStyle
  3
ObjectDBX Classes
 90
     4095
 91
        4
280
     0
281
     0
  0
CLASS
  1
MATERIAL
  2
AcDbMaterial
  3
ObjectDBX Classes
 90
     1153
 91
        4
280
     0
281
     0
  0
ENDSEC
  0
SECTION
  2
TABLES
  0
TABLE
  2
VPORT
  5
2D0
330
0
100
AcDbSymbolTable
 70
     1
  0
VPORT
  5
2F0
330
2D0
100
AcDbSymbolTableRecord
100
AcDbViewportTableRecord
  2
*Active
 70
     0
 10
0.0
 20
0.0
 11
1.0
 21
1.0
 12
10.42990654205607
 22
4.5
 13
0.0
 23
0.0
 14
0.5
 24
0.5
 15
0.5
 25
0.5
 16
0.0
 26
0.0
 36
1.0
 17
0.0
 27
0.0
 37
0.0
 40
9.0
 41
1.972972972850329
 42
50.0
 43
0.0
 44
0.0
 50
0.0
 51
0.0
 71
     0
 72
   100
 73
     1
 74
     3
 75
     0
 76
     0
 77
     0
 78
     0
281
     0
 65
     1
110
0.0
120
0.0
130
0.0
111
1.0
121
0.0
131
0.0
112
0.0
122
1.0
132
0.0
 79
     0
146
0.0
 60
     3
 61
     5
292
     1
282
     1
141
0.0
142
0.0
 63
   250
  0
ENDTAB
  0
TABLE
  2
LTYPE
  5
2CD
330
0
100
AcDbSymbolTable
 70
    19
  0
LTYPE
  5
2DB
330
2CD
100
AcDbSymbolTableRecord
100
AcDbLinetypeTableRecord
  2
ByBlock
 70
     0
  3

 72
    65
 73
     0
 40
0.0
  0
LTYPE
  5
2DC
330
2CD
100
AcDbSymbolTableRecord
100
AcDbLinetypeTableRecord
  2
ByLayer
 70
     0
  3

 72
    65
 73
     0
 40
0.0
  0
LTYPE
  5
2DD
330
2CD
100
AcDbSymbolTableRecord
100
AcDbLinetypeTableRecord
  2
Continuous
 70
     0
  3
Solid line
 72
    65
 73
     0
 40
0.0
  0
LTYPE
  5
31E
330
2CD
100
AcDbSymbolTableRecord
100
AcDbLinetypeTableRecord
  2
BORDER
 70
     0
  3

 72
    65
 73
     6
 40
42.00000000000001
 49
12.0
 74
     0
 49
-6.0
 74
     0
 49
12.0
 74
     0
 49
-5.95
 74
     0
 49
0.1
 74
     0
 49
-5.95
 74
     0
  0
LTYPE
  5
31F
330
2CD
100
AcDbSymbolTableRecord
100
AcDbLinetypeTableRecord
  2
BORDER2
 70
     0
  3

 72
    65
 73
     6
 40
21.0
 49
6.0
 74
     0
 49
-3.0
 74
     0
 49
6.0
 74
     0
 49
-2.95
 74
     0
 49
0.1
 74
     0
 49
-2.95
 74
     0
  0
LTYPE
  5
320
330
2CD
100
AcDbSymbolTableRecord
100
AcDbLinetypeTableRecord
  2
BORDERX2
 70
     0
  3

 72
    65
 73
     6
 40
84.0
 49
24.0
 74
     0
 49
-12.0
 74
     0
 49
24.0
 74
     0
 49
-11.95
 74
     0
 49
0.1
 74
     0
 49
-11.95
 74
     0
  0
LTYPE
  5
321
330
2CD
100
AcDbSymbolTableRecord
100
AcDbLinetypeTableRecord
  2
CENTER
 70
     0
  3

 72
    65
 73
     4
 40
50.0
 49
32.0
 74
     0
 49
-6.0
 74
     0
 49
6.0
 74
     0
 49
-6.0
 74
     0
  0
LTYPE
  5
322
330
2CD
100
AcDbSymbolTableRecord
100
AcDbLinetypeTableRecord
  2
CENTER2
 70
     0
  3

 72
    65
 73
     4
 40
25.0
 49
16.0
 74
     0
 49
-3.0
 74
     0
 49
3.0
 74
     0
 49
-3.0
 74
     0
  0
LTYPE
  5
323
330
2CD
100
AcDbSymbolTableRecord
100
AcDbLinetypeTableRecord
  2
CENTERX2
 70
     0
  3

 72
    65
 73
     4
 40
100.0
 49
64.0
 74
     0
 49
-12.0
 74
     0
 49
12.0
 74
     0
 49
-12.0
 74
     0
  0
LTYPE
  5
324
330
2CD
100
AcDbSymbolTableRecord
100
AcDbLinetypeTableRecord
  2
DASHDOT
 70
     0
  3

 72
    65
 73
     4
 40
24.0
 49
12.0
 74
     0
 49
-5.95
 74
     0
 49
0.1
 74
     0
 49
-5.95
 74
     0
  0
LTYPE
  5
325
330
2CD
100
AcDbSymbolTableRecord
100
AcDbLinetypeTableRecord
  2
DASHDOT2
 70
     0
  3

 72
    65
 73
     4
 40
12.0
 49
6.0
 74
     0
 49
-2.95
 74
     0
 49
0.1
 74
     0
 49
-2.95
 74
     0
  0
LTYPE
  5
326
330
2CD
100
AcDbSymbolTableRecord
100
AcDbLinetypeTableRecord
  2
DASHDOTX2
 70
     0
  3

 72
    65
 73
     4
 40
48.0
 49
24.0
 74
     0
 49
-11.95
 74
     0
 49
0.1
 74
     0
 49
-11.95
 74
     0
  0
LTYPE
  5
327
330
2CD
100
AcDbSymbolTableRecord
100
AcDbLinetypeTableRecord
  2
DASHED
 70
     0
  3

 72
    65
 73
     2
 40
18.0
 49
12.0
 74
     0
 49
-6.0
 74
     0
  0
LTYPE
  5
328
330
2CD
100
AcDbSymbolTableRecord
100
AcDbLinetypeTableRecord
  2
DASHED2
 70
     0
  3

 72
    65
 73
     2
 40
9.0
 49
6.0
 74
     0
 49
-3.0
 74
     0
  0
LTYPE
  5
329
330
2CD
100
AcDbSymbolTableRecord
100
AcDbLinetypeTableRecord
  2
DASHEDX2
 70
     0
  3

 72
    65
 73
     2
 40
36.0
 49
24.0
 74
     0
 49
-12.0
 74
     0
  0
LTYPE
  5
32A
330
2CD
100
AcDbSymbolTableRecord
100
AcDbLinetypeTableRecord
  2
DIVIDE
 70
     0
  3

 72
    65
 73
     6
 40
29.99999999999999
 49
12.0
 74
     0
 49
-5.9
 74
     0
 49
0.15
 74
     0
 49
-5.9
 74
     0
 49
0.15
 74
     0
 49
-5.9
 74
     0
  0
LTYPE
  5
32B
330
2CD
100
AcDbSymbolTableRecord
100
AcDbLinetypeTableRecord
  2
DIVIDE2
 70
     0
  3

 72
    65
 73
     6
 40
15.0
 49
6.0
 74
     0
 49
-2.9
 74
     0
 49
0.15
 74
     0
 49
-2.9
 74
     0
 49
0.15
 74
     0
 49
-2.9
 74
     0
  0
LTYPE
  5
32C
330
2CD
100
AcDbSymbolTableRecord
100
AcDbLinetypeTableRecord
  2
DIVIDEX2
 70
     0
  3

 72
    65
 73
     6
 40
59.99999999999999
 49
24.0
 74
     0
 49
-11.9
 74
     0
 49
0.15
 74
     0
 49
-11.9
 74
     0
 49
0.15
 74
     0
 49
-11.9
 74
     0
  0
LTYPE
  5
32D
330
2CD
100
AcDbSymbolTableRecord
100
AcDbLinetypeTableRecord
  2
DOT
 70
     0
  3

 72
    65
 73
     2
 40
6.3
 49
0.1
 74
     0
 49
-6.2
 74
     0
  0
LTYPE
  5
32E
330
2CD
100
AcDbSymbolTableRecord
100
AcDbLinetypeTableRecord
  2
DOT2
 70
     0
  3

 72
    65
 73
     2
 40
3.2
 49
0.1
 74
     0
 49
-3.1
 74
     0
  0
LTYPE
  5
32F
330
2CD
100
AcDbSymbolTableRecord
100
AcDbLinetypeTableRecord
  2
DOTX2
 70
     0
  3

 72
    65
 73
     2
 40
12.5
 49
0.1
 74
     0
 49
-12.4
 74
     0
  0
ENDTAB
  0
TABLE
  2
LAYER
  5
2CA
330
0
100
AcDbSymbolTable
 70
     8
  0
LAYER
  5
2D8
330
2CA
100
AcDbSymbolTableRecord
100
AcDbLayerTableRecord
  2
0
 70
     1
 62
     9
420
 12632256
  6
Continuous
370
    25
390
2D7
347
305
  0
LAYER
  5
330
330
2CA
100
AcDbSymbolTableRecord
100
AcDbLayerTableRecord
  2
Text
 70
     4
 62
     7
420
 16777215
  6
Continuous
370
    25
390
2D7
347
305
  0
LAYER
  5
331
330
2CA
100
AcDbSymbolTableRecord
100
AcDbLayerTableRecord
  2
Inside
 70
     4
 62
     7
420
 16777215
  6
Continuous
370
    25
390
2D7
347
305
  0
LAYER
  5
332
330
2CA
100
AcDbSymbolTableRecord
100
AcDbLayerTableRecord
  2
hot-end
 70
     4
 62
   178
420
        0
  6
Continuous
370
    25
390
2D7
347
305
  0
LAYER
  5
333
330
2CA
100
AcDbSymbolTableRecord
100
AcDbLayerTableRecord
  2
Outside
 70
     4
 62
     7
420
 16777215
  6
Continuous
370
    25
390
2D7
347
305
  0
LAYER
  5
334
330
2CA
100
AcDbSymbolTableRecord
100
AcDbLayerTableRecord
  2
Leg
 70
     4
 62
     7
420
 16777215
  6
Continuous
370
    25
390
2D7
347
305
  0
LAYER
  5
335
330
2CA
100
AcDbSymbolTableRecord
100
AcDbLayerTableRecord
  2
bed-new
 70
     4
 62
   178
420
        0
  6
Continuous
370
    25
390
2D7
347
305
  0
LAYER
  5
336
330
2CA
100
AcDbSymbolTableRecord
100
AcDbLayerTableRecord
  2
cooler
 70
     4
 62
   178
420
        0
  6
Continuous
370
    25
390
2D7
347
305
  0
ENDTAB
  0
TABLE
  2
STYLE
  5
2CB
330
0
100
AcDbSymbolTable
 70
     1
  0
STYLE
  5
2D9
330
2CB
100
AcDbSymbolTableRecord
100
AcDbTextStyleTableRecord
  2
Standard
 70
     0
 40
0.0
 41
1.0
 50
0.0
 71
     0
 42
0.2
  3
txt
  4

  0
ENDTAB
  0
TABLE
  2
VIEW
  5
2CE
330
0
100
AcDbSymbolTable
 70
     0
  0
ENDTAB
  0
TABLE
  2
UCS
  5
2CF
330
0
100
AcDbSymbolTable
 70
     0
  0
ENDTAB
  0
TABLE
  2
APPID
  5
2D1
330
0
100
AcDbSymbolTable
 70
     2
  0
APPID
  5
2DA
330
2D1
100
AcDbSymbolTableRecord
100
AcDbRegAppTableRecord
  2
ACAD
 70
     0
  0
APPID
  5
306
330
2D1
100
AcDbSymbolTableRecord
100
AcDbRegAppTableRecord
  2
QCAD
 70
     0
  0
ENDTAB
  0
TABLE
  2
DIMSTYLE
  5
2D2
330
0
100
AcDbSymbolTable
 70
     2
100
AcDbDimStyleTable
  0
DIMSTYLE
105
2EE
330
2D2
100
AcDbSymbolTableRecord
100
AcDbDimStyleTableRecord
  2
Standard
 70
     0
178
     0
340
2D9
  0
DIMSTYLE
105
31D
330
2D2
100
AcDbSymbolTableRecord
100
AcDbDimStyleTableRecord
  2
QCADDimStyle
 70
     0
 41
2.5
 42
0.625
 44
1.25
 73
     0
 77
     1
140
2.5
147
0.625
178
     0
340
2D9
  0
ENDTAB
  0
TABLE
  2
BLOCK_RECORD
  5
2C9
330
0
100
AcDbSymbolTable
 70
     1
  0
BLOCK_RECORD
  5
2E6
330
2C9
100
AcDbSymbolTableRecord
100
AcDbBlockTableRecord
  2
*Model_Space
340
2E9
 70
     0
280
     1
281
     0
  0
BLOCK_RECORD
  5
2E2
330
2C9
100
AcDbSymbolTableRecord
100
AcDbBlockTableRecord
  2
*Paper_Space
340
2E5
 70
     0
280
     1
281
     0
  0
BLOCK_RECORD
  5
2EA
330
2C9
100
AcDbSymbolTableRecord
100
AcDbBlockTableRecord
  2
*Paper_Space0
340
2ED
 70
     0
280
     1
281
     0
  0
ENDTAB
  0
ENDSEC
  0
SECTION
  2
BLOCKS
  0
BLOCK
  5
2E7
330
2E6
100
AcDbEntity
  8
0
100
AcDbBlockBegin
  2
*Model_Space
 70
     0
 10
0.0
 20
0.0
 30
0.0
  3
*Model_Space
  1

  0
ENDBLK
  5
2E8
330
2E6
100
AcDbEntity
  8
0
100
AcDbBlockEnd
  0
BLOCK
  5
2E3
330
2E2
100
AcDbEntity
 67
     1
  8
0
100
AcDbBlockBegin
  2
*Paper_Space
 70
     0
 10
0.0
 20
0.0
 30
0.0
  3
*Paper_Space
  1

  0
ENDBLK
  5
2E4
330
2E2
100
AcDbEntity
 67
     1
  8
0
100
AcDbBlockEnd
  0
BLOCK
  5
2EB
330
2EA
100
AcDbEntity
  8
0
100
AcDbBlockBegin
  2
*Paper_Space0
 70
     0
 10
0.0
 20
0.0
 30
0.0
  3
*Paper_Space0
  1

  0
ENDBLK
  5
2EC
330
2EA
100
AcDbEntity
  8
0
100
AcDbBlockEnd
  0
ENDSEC
  0
SECTION
  2
ENTITIES
  0
LINE
  5
23
330
2E6
100
AcDbEntity
  8
0
100
AcDbLine
 10
0.0
 20
0.0
 30
0.0
 11
0.0
 21
370.0
 31
0.0
  0
LINE
  5
24
330
2E6
100
AcDbEntity
  8
0
100
AcDbLine
 10
0.0
 20
370.0
 30
0.0
 11
370.0
 21
370.0
 31
0.0
  0
LINE
  5
25
330
2E6
100
AcDbEntity
  8
0
100
AcDbLine
 10
370.0
 20
370.0
 30
0.0
 11
370.0
 21
0.0
 31
0.0
  0
LINE
  5
26
330
2E6
100
AcDbEntity
  8
0
100
AcDbLine
 10
370.0
 20
0.0
 30
0.0
 11
0.0
 21
0.0
 31
0.0
  0
LINE
  5
27
330
2E6
100
AcDbEntity
  8
Outside
100
AcDbLine
 10
5.0
 20
0.0
 30
0.0
 11
0.0
 21
4.808251585182298
 31
0.0
  0
LINE
  5
28
330
2E6
100
AcDbEntity
  8
Outside
100
AcDbLine
 10
0.0
 20
4.808251585182298
 30
0.0
 11
0.0
 21
365.0
 31
0.0
  0
LINE
  5
29
330
2E6
100
AcDbEntity
  8
Outside
100
AcDbLine
 10
0.0
 20
365.0
 30
0.0
 11
5.0
 21
370.0
 31
0.0
  0
LINE
  5
2A
330
2E6
100
AcDbEntity
  8
Outside
100
AcDbLine
 10
5.0
 20
370.0
 30
0.0
 11
365.0
 21
370.0
 31
0.0
  0
LINE
  5
2B
330
2E6
100
AcDbEntity
  8
Outside
100
AcDbLine
 10
365.0
 20
370.0
 30
0.0
 11
370.0
 21
365.0
 31
0.0
  0
LINE
  5
2C
330
2E6
100
AcDbEntity
  8
Outside
100
AcDbLine
 10
370.0
 20
365.0
 30
0.0
 11
370.0
 21
5.0
 31
0.0
  0
LINE
  5
2D
330
2E6
100
AcDbEntity
  8
Outside
100
AcDbLine
 10
370.0
 20
5.0
 30
0.0
 11
365.0
 21
0.0
 31
0.0
  0
LINE
  5
2E
330
2E6
100
AcDbEntity
  8
Outside
100
AcDbLine
 10
365.0
 20
0.0
 30
0.0
 11
345.0
 21
0.0
 31
0.0
  0
LINE
  5
2F
330
2E6
100
AcDbEntity
  8
Outside
100
AcDbLine
 10
345.0
 20
0.0
 30
0.0
 11
343.0
 21
2.0
 31
0.0
  0
LINE
  5
30
330
2E6
100
AcDbEntity
  8
Outside
100
AcDbLine
 10
343.0
 20
2.0
 30
0.0
 11
27.0
 21
2.0
 31
0.0
  0
LINE
  5
31
330
2E6
100
AcDbEntity
  8
Outside
100
AcDbLine
 10
27.0
 20
2.0
 30
0.0
 11
25.0
 21
0.0
 31
0.0
  0
LINE
  5
32
330
2E6
100
AcDbEntity
  8
Outside
100
AcDbLine
 10
25.0
 20
0.0
 30
0.0
 11
5.0
 21
0.0
 31
0.0
  0
ARC
  5
3D
330
2E6
100
AcDbEntity
  8
Inside
100
AcDbCircle
 10
100.0
 20
19.99999999999998
 30
0.0
 40
3.999999999999986
100
AcDbArc
 50
180.0
 51
0.0
  0
LINE
  5
3E
330
2E6
100
AcDbEntity
  8
Inside
100
AcDbLine
 10
96.0
 20
20.0
 30
0.0
 11
96.0
 21
34.0
 31
0.0
  0
LINE
  5
3F
330
2E6
100
AcDbEntity
  8
Inside
100
AcDbLine
 10
96.0
 20
34.0
 30
0.0
 11
80.0
 21
50.0
 31
0.0
  0
LINE
  5
40
330
2E6
100
AcDbEntity
  8
Inside
100
AcDbLine
 10
80.0
 20
50.0
 30
0.0
 11
60.0
 21
50.0
 31
0.0
  0
LINE
  5
41
330
2E6
100
AcDbEntity
  8
Inside
100
AcDbLine
 10
60.0
 20
50.0
 30
0.0
 11
55.0
 21
55.0
 31
0.0
  0
LINE
  5
42
330
2E6
100
AcDbEntity
  8
Inside
100
AcDbLine
 10
55.0
 20
55.0
 30
0.0
 11
55.0
 21
325.0
 31
0.0
  0
LINE
  5
43
330
2E6
100
AcDbEntity
  8
Inside
100
AcDbLine
 10
55.0
 20
325.0
 30
0.0
 11
60.0
 21
330.0
 31
0.0
  0
LINE
  5
44
330
2E6
100
AcDbEntity
  8
Inside
100
AcDbLine
 10
60.0
 20
330.0
 30
0.0
 11
310.0
 21
330.0
 31
0.0
  0
LINE
  5
45
330
2E6
100
AcDbEntity
  8
Inside
100
AcDbLine
 10
310.0
 20
330.0
 30
0.0
 11
315.0
 21
325.0
 31
0.0
  0
LINE
  5
46
330
2E6
100
AcDbEntity
  8
Inside
100
AcDbLine
 10
315.0
 20
325.0
 30
0.0
 11
315.0
 21
55.0
 31
0.0
  0
LINE
  5
47
330
2E6
100
AcDbEntity
  8
Inside
100
AcDbLine
 10
315.0
 20
55.0
 30
0.0
 11
310.0
 21
50.0
 31
0.0
  0
LINE
  5
48
330
2E6
100
AcDbEntity
  8
Inside
100
AcDbLine
 10
104.0
 20
20.0
 30
0.0
 11
104.0
 21
34.0
 31
0.0
  0
LINE
  5
49
330
2E6
100
AcDbEntity
  8
Inside
100
AcDbLine
 10
104.0
 20
34.0
 30
0.0
 11
110.0
 21
40.0
 31
0.0
  0
ARC
  5
4A
330
2E6
100
AcDbEntity
  8
Inside
100
AcDbCircle
 10
270.0000000000001
 20
19.99999999999998
 30
0.0
 40
3.999999999999943
100
AcDbArc
 50
180.0
 51
0.0
  0
LINE
  5
4F
330
2E6
100
AcDbEntity
  8
Inside
100
AcDbLine
 10
310.0
 20
50.0
 30
0.0
 11
290.0
 21
50.0
 31
0.0
  0
LINE
  5
50
330
2E6
100
AcDbEntity
  8
Inside
100
AcDbLine
 10
290.0
 20
50.0
 30
0.0
 11
274.0
 21
34.0
 31
0.0
  0
LINE
  5
51
330
2E6
100
AcDbEntity
  8
Inside
100
AcDbLine
 10
274.0
 20
34.0
 30
0.0
 11
274.0
 21
20.0
 31
0.0
  0
LINE
  5
52
330
2E6
100
AcDbEntity
  8
Inside
100
AcDbLine
 10
266.0
 20
20.0
 30
0.0
 11
266.0
 21
34.0
 31
0.0
  0
LINE
  5
53
330
2E6
100
AcDbEntity
  8
Inside
100
AcDbLine
 10
266.0
 20
34.0
 30
0.0
 11
260.0
 21
40.0
 31
0.0
  0
LINE
  5
55
330
2E6
100
AcDbEntity
  8
Inside
100
AcDbLine
 10
180.0
 20
15.0
 30
0.0
 11
190.0
 21
15.0
 31
0.0
  0
LINE
  5
56
330
2E6
100
AcDbEntity
  8
Inside
100
AcDbLine
 10
190.0
 20
15.0
 30
0.0
 11
215.0
 21
40.0
 31
0.0
  0
LINE
  5
57
330
2E6
100
AcDbEntity
  8
Inside
100
AcDbLine
 10
180.0
 20
15.0
 30
0.0
 11
155.0
 21
40.0
 31
0.0
  0
LINE
  5
58
330
2E6
100
AcDbEntity
  8
Inside
100
AcDbLine
 10
110.0
 20
40.0
 30
0.0
 11
155.0
 21
40.0
 31
0.0
  0
LINE
  5
59
330
2E6
100
AcDbEntity
  8
Inside
100
AcDbLine
 10
215.0
 20
40.0
 30
0.0
 11
260.0
 21
40.0
 31
0.0
  0
LINE
  5
98
330
2E6
100
AcDbEntity
  8
Leg
100
AcDbLine
 10
93.02647271612642
 20
126.2815422886486
 30
0.0
 11
88.02647271612642
 21
121.2815422886486
 31
0.0
  0
LINE
  5
9C
330
2E6
100
AcDbEntity
  8
Leg
100
AcDbLine
 10
88.02647271612642
 20
91.28154228864861
 30
0.0
 11
93.02647271612642
 21
86.28154228864861
 31
0.0
  0
LINE
  5
9D
330
2E6
100
AcDbEntity
  8
Leg
100
AcDbLine
 10
103.0264727161264
 20
86.28154228864861
 30
0.0
 11
123.0264727161264
 21
86.28154228864861
 31
0.0
  0
LINE
  5
9E
330
2E6
100
AcDbEntity
  8
Leg
100
AcDbLine
 10
123.0264727161264
 20
86.28154228864861
 30
0.0
 11
125.0264727161264
 21
88.28154228864861
 31
0.0
  0
LINE
  5
A2
330
2E6
100
AcDbEntity
  8
Leg
100
AcDbLine
 10
222.0264727161264
 20
104.2815422886486
 30
0.0
 11
227.0264727161264
 21
104.2815422886486
 31
0.0
  0
LINE
  5
A4
330
2E6
100
AcDbEntity
  8
Leg
100
AcDbLine
 10
227.0264727161264
 20
111.2815422886486
 30
0.0
 11
222.0264727161264
 21
111.2815422886486
 31
0.0
  0
LINE
  5
A5
330
2E6
100
AcDbEntity
  8
Leg
100
AcDbLine
 10
220.0264727161264
 20
126.2815422886486
 30
0.0
 11
222.0264727161264
 21
124.2815422886486
 31
0.0
  0
LINE
  5
A6
330
2E6
100
AcDbEntity
  8
Leg
100
AcDbLine
 10
222.0264727161264
 20
124.2815422886486
 30
0.0
 11
222.0264727161264
 21
111.2815422886486
 31
0.0
  0
LINE
  5
A7
330
2E6
100
AcDbEntity
  8
Leg
100
AcDbLine
 10
227.0264727161264
 20
111.2815422886486
 30
0.0
 11
228.0264727161264
 21
110.2815422886486
 31
0.0
  0
LINE
  5
A8
330
2E6
100
AcDbEntity
  8
Leg
100
AcDbLine
 10
228.0264727161264
 20
110.2815422886486
 30
0.0
 11
228.0264727161264
 21
105.2815422886486
 31
0.0
  0
LINE
  5
A9
330
2E6
100
AcDbEntity
  8
Leg
100
AcDbLine
 10
228.0264727161264
 20
105.2815422886486
 30
0.0
 11
227.0264727161264
 21
104.2815422886486
 31
0.0
  0
LINE
  5
AA
330
2E6
100
AcDbEntity
  8
Leg
100
AcDbLine
 10
222.0264727161264
 20
104.2815422886486
 30
0.0
 11
222.0264727161264
 21
90.28154228864861
 31
0.0
  0
LINE
  5
AB
330
2E6
100
AcDbEntity
  8
Leg
100
AcDbLine
 10
222.0264727161264
 20
90.28154228864861
 30
0.0
 11
220.0264727161264
 21
88.28154228864861
 31
0.0
  0
LINE
  5
AC
330
2E6
100
AcDbEntity
  8
Leg
100
AcDbLine
 10
220.0264727161264
 20
88.28154228864861
 30
0.0
 11
125.0264727161264
 21
88.28154228864861
 31
0.0
  0
LINE
  5
AD
330
2E6
100
AcDbEntity
  8
Leg
100
AcDbLine
 10
103.0264727161264
 20
126.2815422886486
 30
0.0
 11
220.0264727161264
 21
126.2815422886486
 31
0.0
  0
ARC
  5
B0
330
2E6
100
AcDbEntity
  8
Leg
100
AcDbCircle
 10
143.0264727161264
 20
116.2815422886486
 30
0.0
 40
4.0
100
AcDbArc
 50
270.0
 51
90.0
  0
ARC
  5
B1
330
2E6
100
AcDbEntity
  8
Leg
100
AcDbCircle
 10
143.0264727161264
 20
96.28154228864861
 30
0.0
 40
3.999999999999986
100
AcDbArc
 50
270.0
 51
90.0
  0
LINE
  5
B2
330
2E6
100
AcDbEntity
  8
Leg
100
AcDbLine
 10
143.0264727161264
 20
120.2815422886486
 30
0.0
 11
98.02647271612642
 21
120.2815422886486
 31
0.0
  0
LINE
  5
B3
330
2E6
100
AcDbEntity
  8
Leg
100
AcDbLine
 10
143.0264727161264
 20
112.2815422886486
 30
0.0
 11
100.0264727161264
 21
112.2815422886486
 31
0.0
  0
LINE
  5
B4
330
2E6
100
AcDbEntity
  8
Leg
100
AcDbLine
 10
90.02647271612642
 20
112.2815422886486
 30
0.0
 11
88.02647271612642
 21
110.2815422886486
 31
0.0
  0
LINE
  5
B5
330
2E6
100
AcDbEntity
  8
Leg
100
AcDbLine
 10
143.0264727161264
 20
100.2815422886486
 30
0.0
 11
100.0264727161264
 21
100.2815422886486
 31
0.0
  0
LINE
  5
B6
330
2E6
100
AcDbEntity
  8
Leg
100
AcDbLine
 10
90.02647271612642
 20
100.2815422886486
 30
0.0
 11
88.02647271612642
 21
102.2815422886486
 31
0.0
  0
LINE
  5
B7
330
2E6
100
AcDbEntity
  8
Leg
100
AcDbLine
 10
143.0264727161264
 20
92.28154228864862
 30
0.0
 11
98.02647271612642
 21
92.28154228864861
 31
0.0
  0
LINE
  5
B8
330
2E6
100
AcDbEntity
  8
Leg
100
AcDbLine
 10
88.02647271612642
 20
121.2815422886486
 30
0.0
 11
88.02647271612642
 21
120.2815422886486
 31
0.0
  0
LINE
  5
B9
330
2E6
100
AcDbEntity
  8
Leg
100
AcDbLine
 10
88.02647271612642
 20
110.2815422886486
 30
0.0
 11
88.02647271612642
 21
102.2815422886486
 31
0.0
  0
LINE
  5
BA
330
2E6
100
AcDbEntity
  8
Leg
100
AcDbLine
 10
88.02647271612642
 20
92.28154228864861
 30
0.0
 11
88.02647271612642
 21
91.28154228864861
 31
0.0
  0
CIRCLE
  5
BB
330
2E6
100
AcDbEntity
  8
Leg
100
AcDbCircle
 10
212.0264727161264
 20
116.2815422886486
 30
0.0
 40
1.25
  0
CIRCLE
  5
BC
330
2E6
100
AcDbEntity
  8
Leg
100
AcDbCircle
 10
212.0264727161264
 20
96.28154228864861
 30
0.0
 40
1.25
  0
LINE
  5
BD
330
2E6
100
AcDbEntity
  8
Inside
100
AcDbLine
 10
281.0
 20
26.0
 30
0.0
 11
287.0
 21
26.0
 31
0.0
  0
LINE
  5
BE
330
2E6
100
AcDbEntity
  8
Inside
100
AcDbLine
 10
287.0
 20
26.0
 30
0.0
 11
287.0
 21
17.0
 31
0.0
  0
LINE
  5
BF
330
2E6
100
AcDbEntity
  8
Inside
100
AcDbLine
 10
287.0
 20
17.0
 30
0.0
 11
281.0
 21
17.0
 31
0.0
  0
LINE
  5
C0
330
2E6
100
AcDbEntity
  8
Inside
100
AcDbLine
 10
281.0
 20
17.0
 30
0.0
 11
281.0
 21
26.0
 31
0.0
  0
CIRCLE
  5
C1
330
2E6
100
AcDbEntity
  8
Inside
100
AcDbCircle
 10
296.0
 20
30.0
 30
0.0
 40
1.25
  0
CIRCLE
  5
C2
330
2E6
100
AcDbEntity
  8
Inside
100
AcDbCircle
 10
296.0
 20
10.0
 30
0.0
 40
1.25
  0
LINE
  5
C6
330
2E6
100
AcDbEntity
  8
Text
100
AcDbLine
 10
55.0
 20
360.0
 30
0.0
 11
55.0
 21
340.0
 31
0.0
  0
LINE
  5
C9
330
2E6
100
AcDbEntity
  8
Text
100
AcDbLine
 10
55.0
 20
340.0
 30
0.0
 11
59.0
 21
340.0
 31
0.0
  0
LINE
  5
CA
330
2E6
100
AcDbEntity
  8
Text
100
AcDbLine
 10
59.0
 20
340.0
 30
0.0
 11
58.99999999999999
 21
356.6
 31
0.0
  0
LINE
  5
CB
330
2E6
100
AcDbEntity
  8
Text
100
AcDbLine
 10
58.99999999999999
 20
356.6
 30
0.0
 11
63.3
 21
356.6
 31
0.0
  0
LINE
  5
CC
330
2E6
100
AcDbEntity
  8
Text
100
AcDbLine
 10
63.3
 20
356.6
 30
0.0
 11
64.3
 21
356.4
 31
0.0
  0
LINE
  5
CD
330
2E6
100
AcDbEntity
  8
Text
100
AcDbLine
 10
64.3
 20
356.4
 30
0.0
 11
65.1
 21
355.9999999999999
 31
0.0
  0
LINE
  5
CE
330
2E6
100
AcDbEntity
  8
Text
100
AcDbLine
 10
65.1
 20
355.9999999999999
 30
0.0
 11
65.69999999999999
 21
355.4
 31
0.0
  0
LINE
  5
CF
330
2E6
100
AcDbEntity
  8
Text
100
AcDbLine
 10
65.69999999999999
 20
355.4
 30
0.0
 11
66.0
 21
354.8
 31
0.0
  0
LINE
  5
D0
330
2E6
100
AcDbEntity
  8
Text
100
AcDbLine
 10
66.0
 20
354.8
 30
0.0
 11
66.19999999999999
 21
353.9999999999999
 31
0.0
  0
LINE
  5
D1
330
2E6
100
AcDbEntity
  8
Text
100
AcDbLine
 10
66.19999999999999
 20
353.9999999999999
 30
0.0
 11
66.1
 21
353.1
 31
0.0
  0
LINE
  5
D2
330
2E6
100
AcDbEntity
  8
Text
100
AcDbLine
 10
66.1
 20
353.1
 30
0.0
 11
65.69999999999999
 21
352.3
 31
0.0
  0
LINE
  5
D3
330
2E6
100
AcDbEntity
  8
Text
100
AcDbLine
 10
65.69999999999999
 20
352.3
 30
0.0
 11
65.19999999999999
 21
351.7
 31
0.0
  0
LINE
  5
D4
330
2E6
100
AcDbEntity
  8
Text
100
AcDbLine
 10
65.19999999999999
 20
351.7
 30
0.0
 11
64.3
 21
351.2
 31
0.0
  0
LINE
  5
D5
330
2E6
100
AcDbEntity
  8
Text
100
AcDbLine
 10
64.3
 20
351.2
 30
0.0
 11
63.39999999999999
 21
350.9999999999999
 31
0.0
  0
LINE
  5
D6
330
2E6
100
AcDbEntity
  8
Text
100
AcDbLine
 10
63.39999999999999
 20
350.9999999999999
 30
0.0
 11
62.09999999999999
 21
350.9999999999999
 31
0.0
  0
LINE
  5
D7
330
2E6
100
AcDbEntity
  8
Text
100
AcDbLine
 10
62.09999999999999
 20
350.9999999999999
 30
0.0
 11
60.49999999999999
 21
350.9999999999999
 31
0.0
  0
LINE
  5
D8
330
2E6
100
AcDbEntity
  8
Text
100
AcDbLine
 10
60.49999999999999
 20
350.9999999999999
 30
0.0
 11
60.49999999999999
 21
347.6
 31
0.0
  0
LINE
  5
D9
330
2E6
100
AcDbEntity
  8
Text
100
AcDbLine
 10
60.49999999999999
 20
347.6
 30
0.0
 11
63.39999999999999
 21
347.6
 31
0.0
  0
LINE
  5
DA
330
2E6
100
AcDbEntity
  8
Text
100
AcDbLine
 10
63.39999999999999
 20
347.6
 30
0.0
 11
65.1
 21
347.7
 31
0.0
  0
LINE
  5
DB
330
2E6
100
AcDbEntity
  8
Text
100
AcDbLine
 10
65.1
 20
347.7
 30
0.0
 11
67.1
 21
348.3
 31
0.0
  0
LINE
  5
DC
330
2E6
100
AcDbEntity
  8
Text
100
AcDbLine
 10
67.1
 20
348.3
 30
0.0
 11
68.6
 21
349.3
 31
0.0
  0
LINE
  5
DD
330
2E6
100
AcDbEntity
  8
Text
100
AcDbLine
 10
68.6
 20
349.3
 30
0.0
 11
69.5
 21
350.4
 31
0.0
  0
LINE
  5
DE
330
2E6
100
AcDbEntity
  8
Text
100
AcDbLine
 10
69.5
 20
350.4
 30
0.0
 11
70.1
 21
351.7
 31
0.0
  0
LINE
  5
DF
330
2E6
100
AcDbEntity
  8
Text
100
AcDbLine
 10
70.1
 20
351.7
 30
0.0
 11
70.3
 21
352.9999999999999
 31
0.0
  0
LINE
  5
E0
330
2E6
100
AcDbEntity
  8
Text
100
AcDbLine
 10
70.3
 20
352.9999999999999
 30
0.0
 11
70.3
 21
354.7
 31
0.0
  0
LINE
  5
E1
330
2E6
100
AcDbEntity
  8
Text
100
AcDbLine
 10
70.3
 20
354.7
 30
0.0
 11
70.0
 21
356.2
 31
0.0
  0
LINE
  5
E2
330
2E6
100
AcDbEntity
  8
Text
100
AcDbLine
 10
70.0
 20
356.2
 30
0.0
 11
69.3
 21
357.4999999999999
 31
0.0
  0
LINE
  5
E3
330
2E6
100
AcDbEntity
  8
Text
100
AcDbLine
 10
69.3
 20
357.4999999999999
 30
0.0
 11
68.5
 21
358.4999999999999
 31
0.0
  0
LINE
  5
E4
330
2E6
100
AcDbEntity
  8
Text
100
AcDbLine
 10
68.5
 20
358.4999999999999
 30
0.0
 11
67.19999999999999
 21
359.4
 31
0.0
  0
LINE
  5
E5
330
2E6
100
AcDbEntity
  8
Text
100
AcDbLine
 10
67.19999999999999
 20
359.4
 30
0.0
 11
66.3
 21
359.7
 31
0.0
  0
LINE
  5
E6
330
2E6
100
AcDbEntity
  8
Text
100
AcDbLine
 10
66.3
 20
359.7
 30
0.0
 11
64.8
 21
359.9
 31
0.0
  0
LINE
  5
E7
330
2E6
100
AcDbEntity
  8
Text
100
AcDbLine
 10
64.8
 20
359.9
 30
0.0
 11
63.39999999999999
 21
359.9999999999999
 31
0.0
  0
LINE
  5
E8
330
2E6
100
AcDbEntity
  8
Text
100
AcDbLine
 10
63.39999999999999
 20
359.9999999999999
 30
0.0
 11
55.0
 21
360.0
 31
0.0
  0
LINE
  5
E9
330
2E6
100
AcDbEntity
  8
Text
100
AcDbLine
 10
84.6
 20
354.7999999999999
 30
0.0
 11
84.79999999999998
 21
353.9999999999999
 31
0.0
  0
LINE
  5
EA
330
2E6
100
AcDbEntity
  8
Text
100
AcDbLine
 10
84.79999999999998
 20
353.9999999999999
 30
0.0
 11
84.69999999999999
 21
353.0999999999999
 31
0.0
  0
LINE
  5
EB
330
2E6
100
AcDbEntity
  8
Text
100
AcDbLine
 10
84.69999999999999
 20
353.0999999999999
 30
0.0
 11
84.29999999999998
 21
352.2999999999999
 31
0.0
  0
LINE
  5
EC
330
2E6
100
AcDbEntity
  8
Text
100
AcDbLine
 10
84.29999999999998
 20
352.2999999999999
 30
0.0
 11
83.79999999999998
 21
351.6999999999999
 31
0.0
  0
LINE
  5
ED
330
2E6
100
AcDbEntity
  8
Text
100
AcDbLine
 10
83.79999999999998
 20
351.6999999999999
 30
0.0
 11
82.89999999999999
 21
351.1999999999999
 31
0.0
  0
LINE
  5
EE
330
2E6
100
AcDbEntity
  8
Text
100
AcDbLine
 10
82.89999999999999
 20
351.1999999999999
 30
0.0
 11
81.99999999999999
 21
350.9999999999999
 31
0.0
  0
LINE
  5
EF
330
2E6
100
AcDbEntity
  8
Text
100
AcDbLine
 10
81.99999999999999
 20
350.9999999999999
 30
0.0
 11
80.69999999999999
 21
350.9999999999999
 31
0.0
  0
LINE
  5
F0
330
2E6
100
AcDbEntity
  8
Text
100
AcDbLine
 10
80.69999999999999
 20
350.9999999999999
 30
0.0
 11
79.1
 21
350.9999999999999
 31
0.0
  0
LINE
  5
F1
330
2E6
100
AcDbEntity
  8
Text
100
AcDbLine
 10
79.1
 20
350.9999999999999
 30
0.0
 11
79.1
 21
347.5999999999999
 31
0.0
  0
LINE
  5
F5
330
2E6
100
AcDbEntity
  8
Text
100
AcDbLine
 10
85.69999999999999
 20
348.2999999999999
 30
0.0
 11
87.19999999999999
 21
349.2999999999999
 31
0.0
  0
LINE
  5
F6
330
2E6
100
AcDbEntity
  8
Text
100
AcDbLine
 10
87.19999999999999
 20
349.2999999999999
 30
0.0
 11
88.1
 21
350.3999999999999
 31
0.0
  0
LINE
  5
F7
330
2E6
100
AcDbEntity
  8
Text
100
AcDbLine
 10
88.1
 20
350.3999999999999
 30
0.0
 11
88.69999999999999
 21
351.6999999999999
 31
0.0
  0
LINE
  5
F8
330
2E6
100
AcDbEntity
  8
Text
100
AcDbLine
 10
88.69999999999999
 20
351.6999999999999
 30
0.0
 11
88.89999999999999
 21
352.9999999999999
 31
0.0
  0
LINE
  5
F9
330
2E6
100
AcDbEntity
  8
Text
100
AcDbLine
 10
88.89999999999999
 20
352.9999999999999
 30
0.0
 11
88.89999999999999
 21
354.6999999999999
 31
0.0
  0
LINE
  5
FA
330
2E6
100
AcDbEntity
  8
Text
100
AcDbLine
 10
88.89999999999999
 20
354.6999999999999
 30
0.0
 11
88.6
 21
356.1999999999999
 31
0.0
  0
LINE
  5
FB
330
2E6
100
AcDbEntity
  8
Text
100
AcDbLine
 10
88.6
 20
356.1999999999999
 30
0.0
 11
87.89999999999999
 21
357.4999999999999
 31
0.0
  0
LINE
  5
FC
330
2E6
100
AcDbEntity
  8
Text
100
AcDbLine
 10
87.89999999999999
 20
357.4999999999999
 30
0.0
 11
87.1
 21
358.4999999999999
 31
0.0
  0
LINE
  5
FD
330
2E6
100
AcDbEntity
  8
Text
100
AcDbLine
 10
87.1
 20
358.4999999999999
 30
0.0
 11
85.79999999999998
 21
359.3999999999999
 31
0.0
  0
LINE
  5
FE
330
2E6
100
AcDbEntity
  8
Text
100
AcDbLine
 10
85.79999999999998
 20
359.3999999999999
 30
0.0
 11
84.89999999999999
 21
359.6999999999999
 31
0.0
  0
LINE
  5
FF
330
2E6
100
AcDbEntity
  8
Text
100
AcDbLine
 10
84.89999999999999
 20
359.6999999999999
 30
0.0
 11
83.39999999999999
 21
359.8999999999999
 31
0.0
  0
LINE
  5
100
330
2E6
100
AcDbEntity
  8
Text
100
AcDbLine
 10
83.39999999999999
 20
359.8999999999999
 30
0.0
 11
81.99999999999999
 21
359.9999999999999
 31
0.0
  0
LINE
  5
101
330
2E6
100
AcDbEntity
  8
Text
100
AcDbLine
 10
81.99999999999999
 20
359.9999999999999
 30
0.0
 11
73.6
 21
359.9999999999999
 31
0.0
  0
LINE
  5
102
330
2E6
100
AcDbEntity
  8
Text
100
AcDbLine
 10
73.6
 20
359.9999999999999
 30
0.0
 11
73.6
 21
339.9999999999999
 31
0.0
  0
LINE
  5
103
330
2E6
100
AcDbEntity
  8
Text
100
AcDbLine
 10
73.6
 20
339.9999999999999
 30
0.0
 11
77.6
 21
339.9999999999999
 31
0.0
  0
LINE
  5
104
330
2E6
100
AcDbEntity
  8
Text
100
AcDbLine
 10
77.6
 20
339.9999999999999
 30
0.0
 11
77.6
 21
356.5999999999999
 31
0.0
  0
LINE
  5
105
330
2E6
100
AcDbEntity
  8
Text
100
AcDbLine
 10
77.6
 20
356.5999999999999
 30
0.0
 11
81.89999999999999
 21
356.5999999999999
 31
0.0
  0
LINE
  5
106
330
2E6
100
AcDbEntity
  8
Text
100
AcDbLine
 10
81.89999999999999
 20
356.5999999999999
 30
0.0
 11
82.89999999999999
 21
356.3999999999999
 31
0.0
  0
LINE
  5
107
330
2E6
100
AcDbEntity
  8
Text
100
AcDbLine
 10
82.89999999999999
 20
356.3999999999999
 30
0.0
 11
83.69999999999999
 21
355.9999999999999
 31
0.0
  0
LINE
  5
108
330
2E6
100
AcDbEntity
  8
Text
100
AcDbLine
 10
83.69999999999999
 20
355.9999999999999
 30
0.0
 11
84.29999999999998
 21
355.3999999999999
 31
0.0
  0
LINE
  5
109
330
2E6
100
AcDbEntity
  8
Text
100
AcDbLine
 10
84.29999999999998
 20
355.3999999999999
 30
0.0
 11
84.6
 21
354.7999999999999
 31
0.0
  0
LINE
  5
10A
330
2E6
100
AcDbEntity
  8
Text
100
AcDbLine
 10
86.73554105044037
 20
340.0038644132723
 30
0.0
 11
81.49396295986101
 21
347.5999999999999
 31
0.0
  0
LINE
  5
10B
330
2E6
100
AcDbEntity
  8
Text
100
AcDbLine
 10
86.73554105044037
 20
340.0038644132723
 30
0.0
 11
91.61000472222429
 21
340.0038644132723
 31
0.0
  0
LINE
  5
10C
330
2E6
100
AcDbEntity
  8
Text
100
AcDbLine
 10
91.61000472222429
 20
340.0038644132723
 30
0.0
 11
87.42897939705398
 21
346.6527144425675
 31
0.0
  0
LINE
  5
10D
330
2E6
100
AcDbEntity
  8
Text
100
AcDbLine
 10
87.42897939705398
 20
346.6527144425675
 30
0.0
 11
86.47040285908811
 21
347.6112909805333
 31
0.0
  0
LINE
  5
10E
330
2E6
100
AcDbEntity
  8
Text
100
AcDbLine
 10
86.47040285908811
 20
347.6112909805333
 30
0.0
 11
85.70000000000003
 21
348.2999999999998
 31
0.0
  0
LINE
  5
10F
330
2E6
100
AcDbEntity
  8
Text
100
AcDbLine
 10
79.1
 20
347.5999999999999
 30
0.0
 11
81.49396295986101
 21
347.5999999999999
 31
0.0
  0
LINE
  5
110
330
2E6
100
AcDbEntity
  8
Text
100
AcDbLine
 10
93.8
 20
359.9999999999999
 30
0.0
 11
93.75987633007888
 21
349.0134949021798
 31
0.0
  0
LINE
  5
111
330
2E6
100
AcDbEntity
  8
Text
100
AcDbLine
 10
93.75987633007888
 20
349.0134949021798
 30
0.0
 11
93.98014498135615
 21
345.3912993033981
 31
0.0
  0
LINE
  5
112
330
2E6
100
AcDbEntity
  8
Text
100
AcDbLine
 10
93.98014498135615
 20
345.3912993033981
 30
0.0
 11
94.37173369473796
 21
343.7270472715254
 31
0.0
  0
LINE
  5
113
330
2E6
100
AcDbEntity
  8
Text
100
AcDbLine
 10
94.37173369473796
 20
343.7270472715254
 30
0.0
 11
94.95911676481066
 21
342.5278068367936
 31
0.0
  0
LINE
  5
114
330
2E6
100
AcDbEntity
  8
Text
100
AcDbLine
 10
94.95911676481066
 20
342.5278068367936
 30
0.0
 11
95.88913995909245
 21
341.4264635804073
 31
0.0
  0
LINE
  5
115
330
2E6
100
AcDbEntity
  8
Text
100
AcDbLine
 10
95.88913995909245
 20
341.4264635804073
 30
0.0
 11
97.13732898299695
 21
340.5943375644709
 31
0.0
  0
LINE
  5
116
330
2E6
100
AcDbEntity
  8
Text
100
AcDbLine
 10
97.13732898299695
 20
340.5943375644709
 30
0.0
 11
98.8750038986287
 21
339.9580059052255
 31
0.0
  0
LINE
  5
117
330
2E6
100
AcDbEntity
  8
Text
100
AcDbLine
 10
98.8750038986287
 20
339.9580059052255
 30
0.0
 11
101.4937534193695
 21
339.6153657810165
 31
0.0
  0
LINE
  5
118
330
2E6
100
AcDbEntity
  8
Text
100
AcDbLine
 10
101.4937534193695
 20
339.6153657810165
 30
0.0
 11
104.1125029401103
 21
339.8111601377074
 31
0.0
  0
LINE
  5
119
330
2E6
100
AcDbEntity
  8
Text
100
AcDbLine
 10
104.1125029401103
 20
339.8111601377074
 30
0.0
 11
106.2172922745375
 21
340.4719660915392
 31
0.0
  0
LINE
  5
11A
330
2E6
100
AcDbEntity
  8
Text
100
AcDbLine
 10
106.2172922745375
 20
340.4719660915392
 30
0.0
 11
107.5389041822011
 21
341.3285664020619
 31
0.0
  0
LINE
  5
11B
330
2E6
100
AcDbEntity
  8
Text
100
AcDbLine
 10
107.5389041822011
 20
341.3285664020619
 30
0.0
 11
108.6891960277602
 21
342.4543839530346
 31
0.0
  0
LINE
  5
11C
330
2E6
100
AcDbEntity
  8
Text
100
AcDbLine
 10
108.6891960277602
 20
342.4543839530346
 30
0.0
 11
109.4234248653511
 21
344.5001705976426
 31
0.0
  0
LINE
  5
11D
330
2E6
100
AcDbEntity
  8
Text
100
AcDbLine
 10
109.4234248653511
 20
344.5001705976426
 30
0.0
 11
109.7660649895601
 21
347.2657658859016
 31
0.0
  0
LINE
  5
11E
330
2E6
100
AcDbEntity
  8
Text
100
AcDbLine
 10
109.7660649895601
 20
347.2657658859016
 30
0.0
 11
109.7660649895601
 21
351.1816530197196
 31
0.0
  0
LINE
  5
120
330
2E6
100
AcDbEntity
  8
Text
100
AcDbLine
 10
109.7660649895601
 20
351.1816530197196
 30
0.0
 11
109.7415906949738
 21
359.9923990708102
 31
0.0
  0
LINE
  5
121
330
2E6
100
AcDbEntity
  8
Text
100
AcDbLine
 10
109.7415906949738
 20
359.9923990708102
 30
0.0
 11
105.6788577936376
 21
359.9923990708102
 31
0.0
  0
LINE
  5
122
330
2E6
100
AcDbEntity
  8
Text
100
AcDbLine
 10
105.6788577936376
 20
359.9923990708102
 30
0.0
 11
105.7033320882239
 21
348.0489433126652
 31
0.0
  0
LINE
  5
123
330
2E6
100
AcDbEntity
  8
Text
100
AcDbLine
 10
105.7033320882239
 20
348.0489433126652
 30
0.0
 11
105.5809606152921
 21
346.3357426916198
 31
0.0
  0
LINE
  5
124
330
2E6
100
AcDbEntity
  8
Text
100
AcDbLine
 10
105.5809606152921
 20
346.3357426916198
 30
0.0
 11
105.2138461964967
 21
344.598067775988
 31
0.0
  0
LINE
  5
125
330
2E6
100
AcDbEntity
  8
Text
100
AcDbLine
 10
105.2138461964967
 20
344.598067775988
 30
0.0
 11
104.3082972968012
 21
343.7169931708789
 31
0.0
  0
LINE
  5
126
330
2E6
100
AcDbEntity
  8
Text
100
AcDbLine
 10
104.3082972968012
 20
343.7169931708789
 30
0.0
 11
103.1090568620695
 21
343.2030329845653
 31
0.0
  0
LINE
  5
127
330
2E6
100
AcDbEntity
  8
Text
100
AcDbLine
 10
103.1090568620695
 20
343.2030329845653
 30
0.0
 11
101.6650734814741
 21
343.1051358062198
 31
0.0
  0
LINE
  5
128
330
2E6
100
AcDbEntity
  8
Text
100
AcDbLine
 10
101.6650734814741
 20
343.1051358062198
 30
0.0
 11
100.1721415117059
 21
343.3498787520835
 31
0.0
  0
LINE
  5
129
330
2E6
100
AcDbEntity
  8
Text
100
AcDbLine
 10
100.1721415117059
 20
343.3498787520835
 30
0.0
 11
98.9484267823878
 21
344.0841075896744
 31
0.0
  0
LINE
  5
12A
330
2E6
100
AcDbEntity
  8
Text
100
AcDbLine
 10
98.9484267823878
 20
344.0841075896744
 30
0.0
 11
98.14077506103783
 21
345.3078223189925
 31
0.0
  0
LINE
  5
12B
330
2E6
100
AcDbEntity
  8
Text
100
AcDbLine
 10
98.14077506103783
 20
345.3078223189925
 30
0.0
 11
97.8226092314151
 21
347.2168172967288
 31
0.0
  0
LINE
  5
12C
330
2E6
100
AcDbEntity
  8
Text
100
AcDbLine
 10
97.8226092314151
 20
347.2168172967288
 30
0.0
 11
97.84708352600147
 21
355.1709630372968
 31
0.0
  0
LINE
  5
12D
330
2E6
100
AcDbEntity
  8
Text
100
AcDbLine
 10
97.84708352600147
 20
355.1709630372968
 30
0.0
 11
97.84708352600147
 21
359.9923990708103
 31
0.0
  0
LINE
  5
12E
330
2E6
100
AcDbEntity
  8
Text
100
AcDbLine
 10
97.84708352600147
 20
359.9923990708103
 30
0.0
 11
93.8
 21
359.9999999999999
 31
0.0
  0
LINE
  5
12F
330
2E6
100
AcDbEntity
  8
Text
100
AcDbLine
 10
130.5411852968083
 20
339.9735617064343
 30
0.0
 11
138.407419371222
 21
359.9182713273671
 31
0.0
  0
LINE
  5
130
330
2E6
100
AcDbEntity
  8
Text
100
AcDbLine
 10
138.407419371222
 20
359.9182713273671
 30
0.0
 11
142.6704107405816
 21
359.9182713273671
 31
0.0
  0
LINE
  5
131
330
2E6
100
AcDbEntity
  8
Text
100
AcDbLine
 10
142.6704107405816
 20
359.9182713273671
 30
0.0
 11
150.5873947122496
 21
340.0243116036885
 31
0.0
  0
LINE
  5
132
330
2E6
100
AcDbEntity
  8
Text
100
AcDbLine
 10
150.5873947122496
 20
340.0243116036885
 30
0.0
 11
146.2736534456357
 21
340.0750615009428
 31
0.0
  0
LINE
  5
134
330
2E6
100
AcDbEntity
  8
Text
100
AcDbLine
 10
130.5411852968083
 20
339.9735617064343
 30
0.0
 11
134.9056764606765
 21
339.9735617064343
 31
0.0
  0
LINE
  5
135
330
2E6
100
AcDbEntity
  8
Text
100
AcDbLine
 10
134.9056764606765
 20
339.9735617064343
 30
0.0
 11
140.4374152613932
 21
355.2492807799731
 31
0.0
  0
LINE
  5
136
330
2E6
100
AcDbEntity
  8
Text
100
AcDbLine
 10
140.4374152613932
 20
355.2492807799731
 30
0.0
 11
143.2286596103787
 21
347.9412955753565
 31
0.0
  0
LINE
  5
137
330
2E6
100
AcDbEntity
  8
Text
100
AcDbLine
 10
143.2286596103787
 20
347.9412955753565
 30
0.0
 11
138.8641684465105
 21
347.8905456781022
 31
0.0
  0
LINE
  5
138
330
2E6
100
AcDbEntity
  8
Text
100
AcDbLine
 10
138.8641684465105
 20
347.8905456781022
 30
0.0
 11
137.696920809662
 21
344.5918023565739
 31
0.0
  0
LINE
  5
139
330
2E6
100
AcDbEntity
  8
Text
100
AcDbLine
 10
137.696920809662
 20
344.5918023565739
 30
0.0
 11
144.5481569389901
 21
344.5918023565739
 31
0.0
  0
LINE
  5
13A
330
2E6
100
AcDbEntity
  8
Text
100
AcDbLine
 10
144.5481569389901
 20
344.5918023565739
 30
0.0
 11
146.2736534456357
 21
340.0750615009428
 31
0.0
  0
LINE
  5
13B
330
2E6
100
AcDbEntity
  8
Text
100
AcDbLine
 10
128.7141889956541
 20
354.2850327321418
 30
0.0
 11
128.3081898176199
 21
356.2642787250587
 31
0.0
  0
LINE
  5
13C
330
2E6
100
AcDbEntity
  8
Text
100
AcDbLine
 10
128.3081898176199
 20
356.2642787250587
 30
0.0
 11
127.1916920780257
 21
358.2435247179757
 31
0.0
  0
LINE
  5
13D
330
2E6
100
AcDbEntity
  8
Text
100
AcDbLine
 10
127.1916920780257
 20
358.2435247179757
 30
0.0
 11
125.6184452631429
 21
359.3600224575699
 31
0.0
  0
LINE
  5
13E
330
2E6
100
AcDbEntity
  8
Text
100
AcDbLine
 10
125.6184452631429
 20
359.3600224575699
 30
0.0
 11
123.5884493729717
 21
360.1212709163842
 31
0.0
  0
LINE
  5
13F
330
2E6
100
AcDbEntity
  8
Text
100
AcDbLine
 10
123.5884493729717
 20
360.1212709163842
 30
0.0
 11
121.4569536882918
 21
360.273520608147
 31
0.0
  0
LINE
  5
140
330
2E6
100
AcDbEntity
  8
Text
100
AcDbLine
 10
121.4569536882918
 20
360.273520608147
 30
0.0
 11
119.7822070789005
 21
360.273520608147
 31
0.0
  0
LINE
  5
141
330
2E6
100
AcDbEntity
  8
Text
100
AcDbLine
 10
119.7822070789005
 20
360.273520608147
 30
0.0
 11
117.1432124216779
 21
359.6645218410956
 31
0.0
  0
LINE
  5
142
330
2E6
100
AcDbEntity
  8
Text
100
AcDbLine
 10
117.1432124216779
 20
359.6645218410956
 30
0.0
 11
115.2654662232694
 21
358.4972742042472
 31
0.0
  0
LINE
  5
143
330
2E6
100
AcDbEntity
  8
Text
100
AcDbLine
 10
115.2654662232694
 20
358.4972742042472
 30
0.0
 11
114.0474686891667
 21
356.670277903093
 31
0.0
  0
LINE
  5
144
330
2E6
100
AcDbEntity
  8
Text
100
AcDbLine
 10
114.0474686891667
 20
356.670277903093
 30
0.0
 11
113.6414695111324
 21
355.3507805744817
 31
0.0
  0
LINE
  5
145
330
2E6
100
AcDbEntity
  8
Text
100
AcDbLine
 10
113.6414695111324
 20
355.3507805744817
 30
0.0
 11
113.8444691001495
 21
353.3715345815647
 31
0.0
  0
LINE
  5
146
330
2E6
100
AcDbEntity
  8
Text
100
AcDbLine
 10
113.8444691001495
 20
353.3715345815647
 30
0.0
 11
114.6564674562181
 21
351.5952881776648
 31
0.0
  0
LINE
  5
147
330
2E6
100
AcDbEntity
  8
Text
100
AcDbLine
 10
114.6564674562181
 20
351.5952881776648
 30
0.0
 11
116.0774645793379
 21
350.3265407463078
 31
0.0
  0
LINE
  5
148
330
2E6
100
AcDbEntity
  8
Text
100
AcDbLine
 10
116.0774645793379
 20
350.3265407463078
 30
0.0
 11
118.9194588255777
 21
349.0577933149507
 31
0.0
  0
LINE
  5
149
330
2E6
100
AcDbEntity
  8
Text
100
AcDbLine
 10
118.9194588255777
 20
349.0577933149507
 30
0.0
 11
123.4869495784631
 21
347.9412955753565
 31
0.0
  0
LINE
  5
14A
330
2E6
100
AcDbEntity
  8
Text
100
AcDbLine
 10
123.4869495784631
 20
347.9412955753565
 30
0.0
 11
124.7556970098201
 21
347.1800471165423
 31
0.0
  0
LINE
  5
14B
330
2E6
100
AcDbEntity
  8
Text
100
AcDbLine
 10
124.7556970098201
 20
347.1800471165423
 30
0.0
 11
125.1109462906001
 21
346.1650491714566
 31
0.0
  0
LINE
  5
14C
330
2E6
100
AcDbEntity
  8
Text
100
AcDbLine
 10
125.1109462906001
 20
346.1650491714566
 30
0.0
 11
125.0601963933458
 21
344.9978015346082
 31
0.0
  0
LINE
  5
14D
330
2E6
100
AcDbEntity
  8
Text
100
AcDbLine
 10
125.0601963933458
 20
344.9978015346082
 30
0.0
 11
124.2481980372773
 21
343.9320536922683
 31
0.0
  0
LINE
  5
14E
330
2E6
100
AcDbEntity
  8
Text
100
AcDbLine
 10
124.2481980372773
 20
343.9320536922683
 30
0.0
 11
123.0302005031746
 21
343.2215551307083
 31
0.0
  0
LINE
  5
14F
330
2E6
100
AcDbEntity
  8
Text
100
AcDbLine
 10
123.0302005031746
 20
343.2215551307083
 30
0.0
 11
121.4062037910375
 21
343.0693054389454
 31
0.0
  0
LINE
  5
150
330
2E6
100
AcDbEntity
  8
Text
100
AcDbLine
 10
121.4062037910375
 20
343.0693054389454
 30
0.0
 11
119.4777076953748
 21
343.4245547197254
 31
0.0
  0
LINE
  5
151
330
2E6
100
AcDbEntity
  8
Text
100
AcDbLine
 10
119.4777076953748
 20
343.4245547197254
 30
0.0
 11
118.0059606750007
 21
344.3380528703025
 31
0.0
  0
LINE
  5
152
330
2E6
100
AcDbEntity
  8
Text
100
AcDbLine
 10
118.0059606750007
 20
344.3380528703025
 30
0.0
 11
117.0924625244236
 21
345.9112996851852
 31
0.0
  0
LINE
  5
153
330
2E6
100
AcDbEntity
  8
Text
100
AcDbLine
 10
117.0924625244236
 20
345.9112996851852
 30
0.0
 11
116.8894629354064
 21
346.774047938508
 31
0.0
  0
LINE
  5
154
330
2E6
100
AcDbEntity
  8
Text
100
AcDbLine
 10
116.8894629354064
 20
346.774047938508
 30
0.0
 11
112.9817208468267
 21
346.4187986577281
 31
0.0
  0
LINE
  5
155
330
2E6
100
AcDbEntity
  8
Text
100
AcDbLine
 10
112.9817208468267
 20
346.4187986577281
 30
0.0
 11
113.5907196138781
 21
344.1350532812854
 31
0.0
  0
LINE
  5
156
330
2E6
100
AcDbEntity
  8
Text
100
AcDbLine
 10
113.5907196138781
 20
344.1350532812854
 30
0.0
 11
115.0624666342523
 21
341.7498081103341
 31
0.0
  0
LINE
  5
157
330
2E6
100
AcDbEntity
  8
Text
100
AcDbLine
 10
115.0624666342523
 20
341.7498081103341
 30
0.0
 11
117.5492115997121
 21
340.2273111927057
 31
0.0
  0
LINE
  5
158
330
2E6
100
AcDbEntity
  8
Text
100
AcDbLine
 10
117.5492115997121
 20
340.2273111927057
 30
0.0
 11
120.1882062569348
 21
339.6690623229086
 31
0.0
  0
LINE
  5
159
330
2E6
100
AcDbEntity
  8
Text
100
AcDbLine
 10
120.1882062569348
 20
339.6690623229086
 30
0.0
 11
122.7257011196489
 21
339.7705621174171
 31
0.0
  0
LINE
  5
15A
330
2E6
100
AcDbEntity
  8
Text
100
AcDbLine
 10
122.7257011196489
 20
339.7705621174171
 30
0.0
 11
126.0244444411772
 21
340.5825604734856
 31
0.0
  0
LINE
  5
15B
330
2E6
100
AcDbEntity
  8
Text
100
AcDbLine
 10
126.0244444411772
 20
340.5825604734856
 30
0.0
 11
128.155940125857
 21
342.460306671894
 31
0.0
  0
LINE
  5
15C
330
2E6
100
AcDbEntity
  8
Text
100
AcDbLine
 10
128.155940125857
 20
342.460306671894
 30
0.0
 11
129.1709380709427
 21
344.3888027675568
 31
0.0
  0
LINE
  5
15D
330
2E6
100
AcDbEntity
  8
Text
100
AcDbLine
 10
129.1709380709427
 20
344.3888027675568
 30
0.0
 11
129.1709380709427
 21
346.9262976302709
 31
0.0
  0
LINE
  5
15E
330
2E6
100
AcDbEntity
  8
Text
100
AcDbLine
 10
129.1709380709427
 20
346.9262976302709
 30
0.0
 11
128.4604395093827
 21
348.9562935204422
 31
0.0
  0
LINE
  5
15F
330
2E6
100
AcDbEntity
  8
Text
100
AcDbLine
 10
128.4604395093827
 20
348.9562935204422
 30
0.0
 11
126.8364427972457
 21
350.732539924342
 31
0.0
  0
LINE
  5
160
330
2E6
100
AcDbEntity
  8
Text
100
AcDbLine
 10
126.8364427972457
 20
350.732539924342
 30
0.0
 11
123.8421988592431
 21
351.8997875611905
 31
0.0
  0
LINE
  5
161
330
2E6
100
AcDbEntity
  8
Text
100
AcDbLine
 10
123.8421988592431
 20
351.8997875611905
 30
0.0
 11
120.2897060514433
 21
352.8132857117675
 31
0.0
  0
LINE
  5
162
330
2E6
100
AcDbEntity
  8
Text
100
AcDbLine
 10
120.2897060514433
 20
352.8132857117675
 30
0.0
 11
117.9552107777464
 21
353.8282836568532
 31
0.0
  0
LINE
  5
163
330
2E6
100
AcDbEntity
  8
Text
100
AcDbLine
 10
117.9552107777464
 20
353.8282836568532
 30
0.0
 11
117.6507113942207
 21
354.7417818074303
 31
0.0
  0
LINE
  5
164
330
2E6
100
AcDbEntity
  8
Text
100
AcDbLine
 10
117.6507113942207
 20
354.7417818074303
 30
0.0
 11
117.6561153184653
 21
355.5030302662445
 31
0.0
  0
LINE
  5
165
330
2E6
100
AcDbEntity
  8
Text
100
AcDbLine
 10
117.6561153184653
 20
355.5030302662445
 30
0.0
 11
118.1260217745235
 21
356.2078899503318
 31
0.0
  0
LINE
  5
166
330
2E6
100
AcDbEntity
  8
Text
100
AcDbLine
 10
118.1260217745235
 20
356.2078899503318
 30
0.0
 11
118.9777272261289
 21
356.7071655598936
 31
0.0
  0
LINE
  5
167
330
2E6
100
AcDbEntity
  8
Text
100
AcDbLine
 10
118.9777272261289
 20
356.7071655598936
 30
0.0
 11
120.0056475987562
 21
356.9714879414263
 31
0.0
  0
LINE
  5
168
330
2E6
100
AcDbEntity
  8
Text
100
AcDbLine
 10
120.0056475987562
 20
356.9714879414263
 30
0.0
 11
121.385997813427
 21
357.0302262484336
 31
0.0
  0
LINE
  5
169
330
2E6
100
AcDbEntity
  8
Text
100
AcDbLine
 10
121.385997813427
 20
357.0302262484336
 30
0.0
 11
122.678240567587
 21
356.8246421739081
 31
0.0
  0
LINE
  5
16A
330
2E6
100
AcDbEntity
  8
Text
100
AcDbLine
 10
122.678240567587
 20
356.8246421739081
 30
0.0
 11
123.8236375542288
 21
356.1785207968281
 31
0.0
  0
LINE
  5
16B
330
2E6
100
AcDbEntity
  8
Text
100
AcDbLine
 10
123.8236375542288
 20
356.1785207968281
 30
0.0
 11
124.3522823172942
 21
355.3268153452227
 31
0.0
  0
LINE
  5
16C
330
2E6
100
AcDbEntity
  8
Text
100
AcDbLine
 10
124.3522823172942
 20
355.3268153452227
 30
0.0
 11
124.6459738523305
 21
354.0345725910628
 31
0.0
  0
LINE
  5
16D
330
2E6
100
AcDbEntity
  8
Text
100
AcDbLine
 10
124.6459738523305
 20
354.0345725910628
 30
0.0
 11
128.7141889956541
 21
354.2850327321418
 31
0.0
  0
CIRCLE
  5
16E
330
2E6
100
AcDbEntity
  8
Outside
100
AcDbCircle
 10
360.0
 20
360.0
 30
0.0
 40
1.25
  0
CIRCLE
  5
16F
330
2E6
100
AcDbEntity
  8
Outside
100
AcDbCircle
 10
340.0
 20
360.0
 30
0.0
 40
1.25
  0
CIRCLE
  5
170
330
2E6
100
AcDbEntity
  8
Outside
100
AcDbCircle
 10
10.0
 20
360.0
 30
0.0
 40
1.25
  0
CIRCLE
  5
171
330
2E6
100
AcDbEntity
  8
Outside
100
AcDbCircle
 10
30.0
 20
360.0
 30
0.0
 40
1.25
  0
CIRCLE
  5
172
330
2E6
100
AcDbEntity
  8
Outside
100
AcDbCircle
 10
10.0
 20
40.0
 30
0.0
 40
1.25
  0
CIRCLE
  5
173
330
2E6
100
AcDbEntity
  8
Outside
100
AcDbCircle
 10
30.0
 20
40.0
 30
0.0
 40
1.25
  0
CIRCLE
  5
174
330
2E6
100
AcDbEntity
  8
Outside
100
AcDbCircle
 10
20.0
 20
20.0
 30
0.0
 40
1.25
  0
CIRCLE
  5
175
330
2E6
100
AcDbEntity
  8
Outside
100
AcDbCircle
 10
360.0
 20
40.0
 30
0.0
 40
1.25
  0
CIRCLE
  5
176
330
2E6
100
AcDbEntity
  8
Outside
100
AcDbCircle
 10
340.0
 20
40.0
 30
0.0
 40
1.25
  0
CIRCLE
  5
177
330
2E6
100
AcDbEntity
  8
Outside
100
AcDbCircle
 10
350.0
 20
20.0
 30
0.0
 40
1.25
  0
CIRCLE
  5
1BE
330
2E6
100
AcDbEntity
  8
bed-new
100
AcDbCircle
 10
170.0
 20
235.0
 30
0.0
 40
1.25
  0
CIRCLE
  5
1BF
330
2E6
100
AcDbEntity
  8
bed-new
100
AcDbCircle
 10
170.0
 20
194.0
 30
0.0
 40
1.25
  0
CIRCLE
  5
1C0
330
2E6
100
AcDbEntity
  8
bed-new
100
AcDbCircle
 10
70.0
 20
250.0
 30
0.0
 40
1.25
  0
CIRCLE
  5
1C1
330
2E6
100
AcDbEntity
  8
bed-new
100
AcDbCircle
 10
100.0
 20
250.0
 30
0.0
 40
1.25
  0
CIRCLE
  5
1C2
330
2E6
100
AcDbEntity
  8
bed-new
100
AcDbCircle
 10
70.0
 20
180.0
 30
0.0
 40
1.25
  0
CIRCLE
  5
1C3
330
2E6
100
AcDbEntity
  8
bed-new
100
AcDbCircle
 10
100.0
 20
180.0
 30
0.0
 40
1.25
  0
CIRCLE
  5
1C4
330
2E6
100
AcDbEntity
  8
bed-new
100
AcDbCircle
 10
240.0
 20
215.0
 30
0.0
 40
1.25
  0
CIRCLE
  5
1C5
330
2E6
100
AcDbEntity
  8
bed-new
100
AcDbCircle
 10
270.0
 20
215.0
 30
0.0
 40
1.25
  0
CIRCLE
  5
1C6
330
2E6
100
AcDbEntity
  8
bed-new
100
AcDbCircle
 10
65.0
 20
320.0
 30
0.0
 40
1.25
  0
CIRCLE
  5
1C9
330
2E6
100
AcDbEntity
  8
bed-new
100
AcDbCircle
 10
275.0
 20
110.0
 30
0.0
 40
1.25
  0
CIRCLE
  5
1CA
330
2E6
100
AcDbEntity
  8
bed-new
100
AcDbCircle
 10
275.0
 20
320.0
 30
0.0
 40
1.25
  0
CIRCLE
  5
1CB
330
2E6
100
AcDbEntity
  8
bed-new
100
AcDbCircle
 10
65.0
 20
320.0
 30
0.0
 40
1.25
  0
CIRCLE
  5
1CC
330
2E6
100
AcDbEntity
  8
bed-new
100
AcDbCircle
 10
65.0
 20
110.0
 30
0.0
 40
1.25
  0
LINE
  5
1D8
330
2E6
100
AcDbEntity
  8
bed-new
100
AcDbLine
 10
65.0
 20
325.0
 30
0.0
 11
63.0
 21
325.0
 31
0.0
  0
LINE
  5
1D9
330
2E6
100
AcDbEntity
  8
bed-new
100
AcDbLine
 10
63.0
 20
325.0
 30
0.0
 11
60.0
 21
322.0
 31
0.0
  0
LINE
  5
1DA
330
2E6
100
AcDbEntity
  8
bed-new
100
AcDbLine
 10
60.0
 20
322.0
 30
0.0
 11
60.0
 21
320.0
 31
0.0
  0
LINE
  5
1DB
330
2E6
100
AcDbEntity
  8
bed-new
100
AcDbLine
 10
60.0
 20
320.0
 30
0.0
 11
60.0
 21
318.0
 31
0.0
  0
LINE
  5
1DC
330
2E6
100
AcDbEntity
  8
bed-new
100
AcDbLine
 10
60.0
 20
318.0
 30
0.0
 11
80.0
 21
298.0
 31
0.0
  0
LINE
  5
1DD
330
2E6
100
AcDbEntity
  8
bed-new
100
AcDbLine
 10
80.0
 20
298.0
 30
0.0
 11
80.0
 21
278.0
 31
0.0
  0
LINE
  5
1DE
330
2E6
100
AcDbEntity
  8
bed-new
100
AcDbLine
 10
80.0
 20
278.0
 30
0.0
 11
60.0
 21
258.0
 31
0.0
  0
LINE
  5
1E0
330
2E6
100
AcDbEntity
  8
bed-new
100
AcDbLine
 10
60.0
 20
175.0
 30
0.0
 11
60.0
 21
172.0
 31
0.0
  0
LINE
  5
1E1
330
2E6
100
AcDbEntity
  8
bed-new
100
AcDbLine
 10
60.0
 20
172.0
 30
0.0
 11
80.0
 21
152.0
 31
0.0
  0
LINE
  5
1E2
330
2E6
100
AcDbEntity
  8
bed-new
100
AcDbLine
 10
60.0
 20
112.0
 30
0.0
 11
80.0
 21
132.0
 31
0.0
  0
LINE
  5
1E3
330
2E6
100
AcDbEntity
  8
bed-new
100
AcDbLine
 10
80.0
 20
132.0
 30
0.0
 11
80.0
 21
152.0
 31
0.0
  0
LINE
  5
1E4
330
2E6
100
AcDbEntity
  8
bed-new
100
AcDbLine
 10
60.0
 20
112.0
 30
0.0
 11
60.0
 21
108.0
 31
0.0
  0
LINE
  5
1E5
330
2E6
100
AcDbEntity
  8
bed-new
100
AcDbLine
 10
60.0
 20
108.0
 30
0.0
 11
63.0
 21
105.0
 31
0.0
  0
LINE
  5
1E6
330
2E6
100
AcDbEntity
  8
bed-new
100
AcDbLine
 10
63.0
 20
105.0
 30
0.0
 11
65.0
 21
105.0
 31
0.0
  0
LINE
  5
1E8
330
2E6
100
AcDbEntity
  8
bed-new
100
AcDbLine
 10
275.0
 20
105.0
 30
0.0
 11
277.0
 21
105.0
 31
0.0
  0
LINE
  5
1E9
330
2E6
100
AcDbEntity
  8
bed-new
100
AcDbLine
 10
277.0
 20
105.0
 30
0.0
 11
280.0
 21
108.0
 31
0.0
  0
LINE
  5
1EB
330
2E6
100
AcDbEntity
  8
bed-new
100
AcDbLine
 10
280.0
 20
321.0
 30
0.0
 11
280.0
 21
322.0
 31
0.0
  0
LINE
  5
1EC
330
2E6
100
AcDbEntity
  8
bed-new
100
AcDbLine
 10
280.0
 20
322.0
 30
0.0
 11
277.0
 21
325.0
 31
0.0
  0
LINE
  5
1EE
330
2E6
100
AcDbEntity
  8
bed-new
100
AcDbLine
 10
280.0
 20
318.0
 30
0.0
 11
240.0
 21
278.0
 31
0.0
  0
LINE
  5
1EF
330
2E6
100
AcDbEntity
  8
bed-new
100
AcDbLine
 10
280.0
 20
218.0
 30
0.0
 11
260.0
 21
238.0
 31
0.0
  0
LINE
  5
1F0
330
2E6
100
AcDbEntity
  8
bed-new
100
AcDbLine
 10
260.0
 20
238.0
 30
0.0
 11
240.0
 21
258.0
 31
0.0
  0
LINE
  5
1F1
330
2E6
100
AcDbEntity
  8
bed-new
100
AcDbLine
 10
240.0
 20
258.0
 30
0.0
 11
240.0
 21
278.0
 31
0.0
  0
LINE
  5
1F2
330
2E6
100
AcDbEntity
  8
bed-new
100
AcDbLine
 10
280.0
 20
212.0
 30
0.0
 11
260.0
 21
192.0
 31
0.0
  0
LINE
  5
1F3
330
2E6
100
AcDbEntity
  8
bed-new
100
AcDbLine
 10
260.0
 20
192.0
 30
0.0
 11
240.0
 21
172.0
 31
0.0
  0
LINE
  5
1F5
330
2E6
100
AcDbEntity
  8
bed-new
100
AcDbLine
 10
280.0
 20
112.0
 30
0.0
 11
260.0
 21
132.0
 31
0.0
  0
LINE
  5
1F6
330
2E6
100
AcDbEntity
  8
bed-new
100
AcDbLine
 10
260.0
 20
132.0
 30
0.0
 11
240.0
 21
152.0
 31
0.0
  0
LINE
  5
1F7
330
2E6
100
AcDbEntity
  8
bed-new
100
AcDbLine
 10
240.0
 20
152.0
 30
0.0
 11
240.0
 21
172.0
 31
0.0
  0
LINE
  5
1F9
330
2E6
100
AcDbEntity
  8
bed-new
100
AcDbLine
 10
273.0
 20
325.0
 30
0.0
 11
250.0
 21
302.0
 31
0.0
  0
LINE
  5
1FB
330
2E6
100
AcDbEntity
  8
bed-new
100
AcDbLine
 10
210.0
 20
262.0
 30
0.0
 11
208.0
 21
260.0
 31
0.0
  0
LINE
  5
1FC
330
2E6
100
AcDbEntity
  8
bed-new
100
AcDbLine
 10
208.0
 20
260.0
 30
0.0
 11
198.0
 21
250.0
 31
0.0
  0
LINE
  5
1FD
330
2E6
100
AcDbEntity
  8
bed-new
100
AcDbLine
 10
198.0
 20
250.0
 30
0.0
 11
142.0
 21
250.0
 31
0.0
  0
LINE
  5
200
330
2E6
100
AcDbEntity
  8
bed-new
100
AcDbLine
 10
273.0
 20
105.0
 30
0.0
 11
248.0
 21
130.0
 31
0.0
  0
LINE
  5
202
330
2E6
100
AcDbEntity
  8
bed-new
100
AcDbLine
 10
198.0
 20
180.0
 30
0.0
 11
142.0
 21
180.0
 31
0.0
  0
LINE
  5
203
330
2E6
100
AcDbEntity
  8
bed-new
100
AcDbLine
 10
92.0
 20
300.0
 30
0.0
 11
248.0
 21
300.0
 31
0.0
  0
LINE
  5
205
330
2E6
100
AcDbEntity
  8
bed-new
100
AcDbLine
 10
92.0
 20
130.0
 30
0.0
 11
248.0
 21
130.0
 31
0.0
  0
LINE
  5
208
330
2E6
100
AcDbEntity
  8
bed-new
100
AcDbLine
 10
60.0
 20
240.0
 30
0.0
 11
80.0
 21
220.0
 31
0.0
  0
LINE
  5
209
330
2E6
100
AcDbEntity
  8
bed-new
100
AcDbLine
 10
80.0
 20
220.0
 30
0.0
 11
80.0
 21
210.0
 31
0.0
  0
LINE
  5
20A
330
2E6
100
AcDbEntity
  8
bed-new
100
AcDbLine
 10
80.0
 20
210.0
 30
0.0
 11
60.0
 21
190.0
 31
0.0
  0
LINE
  5
20B
330
2E6
100
AcDbEntity
  8
bed-new
100
AcDbLine
 10
90.0
 20
220.0
 30
0.0
 11
110.0
 21
240.0
 31
0.0
  0
LINE
  5
20C
330
2E6
100
AcDbEntity
  8
bed-new
100
AcDbLine
 10
110.0
 20
240.0
 30
0.0
 11
130.0
 21
240.0
 31
0.0
  0
LINE
  5
20D
330
2E6
100
AcDbEntity
  8
bed-new
100
AcDbLine
 10
130.0
 20
240.0
 30
0.0
 11
150.0
 21
220.0
 31
0.0
  0
LINE
  5
20E
330
2E6
100
AcDbEntity
  8
bed-new
100
AcDbLine
 10
150.0
 20
220.0
 30
0.0
 11
150.0
 21
210.0
 31
0.0
  0
LINE
  5
20F
330
2E6
100
AcDbEntity
  8
bed-new
100
AcDbLine
 10
150.0
 20
210.0
 30
0.0
 11
130.0
 21
190.0
 31
0.0
  0
LINE
  5
210
330
2E6
100
AcDbEntity
  8
bed-new
100
AcDbLine
 10
130.0
 20
190.0
 30
0.0
 11
110.0
 21
190.0
 31
0.0
  0
LINE
  5
211
330
2E6
100
AcDbEntity
  8
bed-new
100
AcDbLine
 10
110.0
 20
190.0
 30
0.0
 11
90.0
 21
210.0
 31
0.0
  0
LINE
  5
212
330
2E6
100
AcDbEntity
  8
bed-new
100
AcDbLine
 10
90.0
 20
210.0
 30
0.0
 11
90.0
 21
220.0
 31
0.0
  0
LINE
  5
214
330
2E6
100
AcDbEntity
  8
bed-new
100
AcDbLine
 10
220.0
 20
240.0
 30
0.0
 11
230.0
 21
230.0
 31
0.0
  0
LINE
  5
216
330
2E6
100
AcDbEntity
  8
bed-new
100
AcDbLine
 10
230.0
 20
230.0
 30
0.0
 11
230.0
 21
200.0
 31
0.0
  0
LINE
  5
217
330
2E6
100
AcDbEntity
  8
bed-new
100
AcDbLine
 10
230.0
 20
200.0
 30
0.0
 11
220.0
 21
190.0
 31
0.0
  0
LINE
  5
218
330
2E6
100
AcDbEntity
  8
bed-new
100
AcDbLine
 10
220.0
 20
190.0
 30
0.0
 11
210.0
 21
190.0
 31
0.0
  0
LINE
  5
219
330
2E6
100
AcDbEntity
  8
bed-new
100
AcDbLine
 10
210.0
 20
190.0
 30
0.0
 11
190.0
 21
210.0
 31
0.0
  0
LINE
  5
21A
330
2E6
100
AcDbEntity
  8
bed-new
100
AcDbLine
 10
190.0
 20
210.0
 30
0.0
 11
190.0
 21
220.0
 31
0.0
  0
LINE
  5
21B
330
2E6
100
AcDbEntity
  8
bed-new
100
AcDbLine
 10
190.0
 20
220.0
 30
0.0
 11
210.0
 21
240.0
 31
0.0
  0
LINE
  5
21C
330
2E6
100
AcDbEntity
  8
bed-new
100
AcDbLine
 10
210.0
 20
240.0
 30
0.0
 11
220.0
 21
240.0
 31
0.0
  0
LINE
  5
21D
330
2E6
100
AcDbEntity
  8
bed-new
100
AcDbLine
 10
65.0
 20
325.0
 30
0.0
 11
67.0
 21
325.0
 31
0.0
  0
LINE
  5
21E
330
2E6
100
AcDbEntity
  8
bed-new
100
AcDbLine
 10
277.0
 20
325.0
 30
0.0
 11
273.0
 21
325.0
 31
0.0
  0
LINE
  5
21F
330
2E6
100
AcDbEntity
  8
bed-new
100
AcDbLine
 10
280.0
 20
321.0
 30
0.0
 11
280.0
 21
318.0
 31
0.0
  0
LINE
  5
220
330
2E6
100
AcDbEntity
  8
bed-new
100
AcDbLine
 10
280.0
 20
218.0
 30
0.0
 11
280.0
 21
212.0
 31
0.0
  0
LINE
  5
221
330
2E6
100
AcDbEntity
  8
bed-new
100
AcDbLine
 10
280.0
 20
112.0
 30
0.0
 11
280.0
 21
108.0
 31
0.0
  0
LINE
  5
222
330
2E6
100
AcDbEntity
  8
bed-new
100
AcDbLine
 10
273.0
 20
105.0
 30
0.0
 11
275.0
 21
105.0
 31
0.0
  0
LINE
  5
223
330
2E6
100
AcDbEntity
  8
bed-new
100
AcDbLine
 10
67.0
 20
105.0
 30
0.0
 11
65.0
 21
105.0
 31
0.0
  0
LINE
  5
224
330
2E6
100
AcDbEntity
  8
bed-new
100
AcDbLine
 10
60.0
 20
258.0
 30
0.0
 11
60.0
 21
240.0
 31
0.0
  0
LINE
  5
225
330
2E6
100
AcDbEntity
  8
bed-new
100
AcDbLine
 10
60.0
 20
175.0
 30
0.0
 11
60.0
 21
190.0
 31
0.0
  0
LINE
  5
226
330
2E6
100
AcDbEntity
  8
bed-new
100
AcDbLine
 10
102.0
 20
290.0
 30
0.0
 11
238.0
 21
290.0
 31
0.0
  0
LINE
  5
227
330
2E6
100
AcDbEntity
  8
bed-new
100
AcDbLine
 10
250.0
 20
302.0
 30
0.0
 11
248.0
 21
300.0
 31
0.0
  0
LINE
  5
228
330
2E6
100
AcDbEntity
  8
bed-new
100
AcDbLine
 10
238.0
 20
290.0
 30
0.0
 11
210.0
 21
262.0
 31
0.0
  0
LINE
  5
229
330
2E6
100
AcDbEntity
  8
bed-new
100
AcDbLine
 10
67.0
 20
325.0
 30
0.0
 11
92.0
 21
300.0
 31
0.0
  0
LINE
  5
22A
330
2E6
100
AcDbEntity
  8
bed-new
100
AcDbLine
 10
102.0
 20
290.0
 30
0.0
 11
142.0
 21
250.0
 31
0.0
  0
LINE
  5
22D
330
2E6
100
AcDbEntity
  8
bed-new
100
AcDbLine
 10
238.0
 20
140.0
 30
0.0
 11
102.0
 21
140.0
 31
0.0
  0
LINE
  5
22E
330
2E6
100
AcDbEntity
  8
bed-new
100
AcDbLine
 10
67.0
 20
105.0
 30
0.0
 11
92.0
 21
130.0
 31
0.0
  0
LINE
  5
22F
330
2E6
100
AcDbEntity
  8
bed-new
100
AcDbLine
 10
142.0
 20
180.0
 30
0.0
 11
102.0
 21
140.0
 31
0.0
  0
LINE
  5
230
330
2E6
100
AcDbEntity
  8
bed-new
100
AcDbLine
 10
198.0
 20
180.0
 30
0.0
 11
238.0
 21
140.0
 31
0.0
  0
LINE
  5
24D
330
2E6
100
AcDbEntity
  8
Leg
100
AcDbLine
 10
103.0264727161264
 20
126.2815422886486
 30
0.0
 11
93.02647271612642
 21
126.2815422886486
 31
0.0
  0
LINE
  5
24E
330
2E6
100
AcDbEntity
  8
Leg
100
AcDbLine
 10
98.02647271612642
 20
120.2815422886486
 30
0.0
 11
88.02647271612642
 21
120.2815422886486
 31
0.0
  0
LINE
  5
24F
330
2E6
100
AcDbEntity
  8
Leg
100
AcDbLine
 10
100.0264727161264
 20
112.2815422886486
 30
0.0
 11
90.02647271612642
 21
112.2815422886486
 31
0.0
  0
LINE
  5
250
330
2E6
100
AcDbEntity
  8
Leg
100
AcDbLine
 10
100.0264727161264
 20
100.2815422886486
 30
0.0
 11
90.02647271612642
 21
100.2815422886486
 31
0.0
  0
LINE
  5
252
330
2E6
100
AcDbEntity
  8
Leg
100
AcDbLine
 10
98.02647271612642
 20
92.28154228864861
 30
0.0
 11
88.02647271612642
 21
92.28154228864861
 31
0.0
  0
LINE
  5
253
330
2E6
100
AcDbEntity
  8
Leg
100
AcDbLine
 10
103.0264727161264
 20
86.28154228864861
 30
0.0
 11
93.02647271612642
 21
86.28154228864861
 31
0.0
  0
LINE
  5
25F
330
2E6
100
AcDbEntity
  8
hot-end
100
AcDbLine
 10
138.0
 20
277.0
 30
0.0
 11
141.0
 21
280.0
 31
0.0
  0
LINE
  5
260
330
2E6
100
AcDbEntity
  8
hot-end
100
AcDbLine
 10
141.0
 20
280.0
 30
0.0
 11
190.0
 21
280.0
 31
0.0
  0
LINE
  5
261
330
2E6
100
AcDbEntity
  8
hot-end
100
AcDbLine
 10
190.0
 20
280.0
 30
0.0
 11
193.0
 21
277.0
 31
0.0
  0
LINE
  5
262
330
2E6
100
AcDbEntity
  8
hot-end
100
AcDbLine
 10
193.0
 20
277.0
 30
0.0
 11
193.0
 21
260.0
 31
0.0
  0
LINE
  5
263
330
2E6
100
AcDbEntity
  8
hot-end
100
AcDbLine
 10
193.0
 20
260.0
 30
0.0
 11
190.0
 21
257.0
 31
0.0
  0
LINE
  5
264
330
2E6
100
AcDbEntity
  8
hot-end
100
AcDbLine
 10
190.0
 20
257.0
 30
0.0
 11
141.0
 21
257.0
 31
0.0
  0
LINE
  5
265
330
2E6
100
AcDbEntity
  8
hot-end
100
AcDbLine
 10
141.0
 20
257.0
 30
0.0
 11
138.0
 21
260.0
 31
0.0
  0
LINE
  5
266
330
2E6
100
AcDbEntity
  8
hot-end
100
AcDbLine
 10
138.0
 20
260.0
 30
0.0
 11
138.0
 21
277.0
 31
0.0
  0
CIRCLE
  5
267
330
2E6
100
AcDbEntity
  8
hot-end
100
AcDbCircle
 10
145.0
 20
267.0
 30
0.0
 40
1.55
  0
CIRCLE
  5
268
330
2E6
100
AcDbEntity
  8
hot-end
100
AcDbCircle
 10
185.0
 20
267.0
 30
0.0
 40
1.55
  0
CIRCLE
  5
269
330
2E6
100
AcDbEntity
  8
hot-end
100
AcDbCircle
 10
160.0
 20
267.0
 30
0.0
 40
2.5
  0
LINE
  5
26A
330
2E6
100
AcDbEntity
  8
hot-end
100
AcDbLine
 10
141.0
 20
147.0
 30
0.0
 11
138.0
 21
150.0
 31
0.0
  0
LINE
  5
26B
330
2E6
100
AcDbEntity
  8
hot-end
100
AcDbLine
 10
138.0
 20
150.0
 30
0.0
 11
138.0
 21
167.0
 31
0.0
  0
CIRCLE
  5
26C
330
2E6
100
AcDbEntity
  8
hot-end
100
AcDbCircle
 10
145.0
 20
157.0
 30
0.0
 40
1.55
  0
CIRCLE
  5
26D
330
2E6
100
AcDbEntity
  8
hot-end
100
AcDbCircle
 10
185.0
 20
157.0
 30
0.0
 40
1.55
  0
CIRCLE
  5
26E
330
2E6
100
AcDbEntity
  8
hot-end
100
AcDbCircle
 10
160.0
 20
157.0
 30
0.0
 40
2.5
  0
LINE
  5
26F
330
2E6
100
AcDbEntity
  8
hot-end
100
AcDbLine
 10
138.0
 20
167.0
 30
0.0
 11
141.0
 21
170.0
 31
0.0
  0
LINE
  5
270
330
2E6
100
AcDbEntity
  8
hot-end
100
AcDbLine
 10
141.0
 20
170.0
 30
0.0
 11
190.0
 21
170.0
 31
0.0
  0
LINE
  5
271
330
2E6
100
AcDbEntity
  8
hot-end
100
AcDbLine
 10
190.0
 20
170.0
 30
0.0
 11
193.0
 21
167.0
 31
0.0
  0
LINE
  5
272
330
2E6
100
AcDbEntity
  8
hot-end
100
AcDbLine
 10
193.0
 20
167.0
 30
0.0
 11
193.0
 21
150.0
 31
0.0
  0
LINE
  5
273
330
2E6
100
AcDbEntity
  8
hot-end
100
AcDbLine
 10
193.0
 20
150.0
 30
0.0
 11
190.0
 21
147.0
 31
0.0
  0
LINE
  5
274
330
2E6
100
AcDbEntity
  8
hot-end
100
AcDbLine
 10
190.0
 20
147.0
 30
0.0
 11
141.0
 21
147.0
 31
0.0
  0
LINE
  5
279
330
2E6
100
AcDbEntity
  8
cooler
100
AcDbLine
 10
280.0
 20
102.0
 30
0.0
 11
240.0
 21
102.0
 31
0.0
  0
LINE
  5
27A
330
2E6
100
AcDbEntity
  8
cooler
100
AcDbLine
 10
240.0
 20
102.0
 30
0.0
 11
238.0
 21
100.0
 31
0.0
  0
LINE
  5
27C
330
2E6
100
AcDbEntity
  8
cooler
100
AcDbLine
 10
238.0
 20
60.0
 30
0.0
 11
240.0
 21
58.0
 31
0.0
  0
LINE
  5
27D
330
2E6
100
AcDbEntity
  8
cooler
100
AcDbLine
 10
240.0
 20
58.0
 30
0.0
 11
280.0
 21
58.0
 31
0.0
  0
ARC
  5
283
330
2E6
100
AcDbEntity
  8
cooler
100
AcDbCircle
 10
280.0
 20
80.0
 30
0.0
 40
22.0
100
AcDbArc
 50
270.0
 51
0.0
  0
ARC
  5
284
330
2E6
100
AcDbEntity
  8
cooler
100
AcDbCircle
 10
280.0
 20
80.0
 30
0.0
 40
17.25
100
AcDbArc
 50
90.0
 51
0.0
  0
LINE
  5
285
330
2E6
100
AcDbEntity
  8
cooler
100
AcDbLine
 10
280.0
 20
102.0
 30
0.0
 11
280.0
 21
97.25
 31
0.0
  0
LINE
  5
286
330
2E6
100
AcDbEntity
  8
cooler
100
AcDbLine
 10
297.25
 20
80.0
 30
0.0
 11
302.0
 21
80.0
 31
0.0
  0
LINE
  5
287
330
2E6
100
AcDbEntity
  8
cooler
100
AcDbLine
 10
238.0
 20
98.0
 30
0.0
 11
268.0
 21
98.0
 31
0.0
  0
LINE
  5
288
330
2E6
100
AcDbEntity
  8
cooler
100
AcDbLine
 10
268.0
 20
98.0
 30
0.0
 11
264.0
 21
95.0
 31
0.0
  0
LINE
  5
289
330
2E6
100
AcDbEntity
  8
cooler
100
AcDbLine
 10
264.0
 20
95.0
 30
0.0
 11
263.0
 21
94.0
 31
0.0
  0
LINE
  5
28A
330
2E6
100
AcDbEntity
  8
cooler
100
AcDbLine
 10
263.0
 20
94.0
 30
0.0
 11
238.0
 21
94.0
 31
0.0
  0
LINE
  5
28B
330
2E6
100
AcDbEntity
  8
cooler
100
AcDbLine
 10
238.0
 20
90.0
 30
0.0
 11
261.0
 21
90.0
 31
0.0
  0
LINE
  5
28C
330
2E6
100
AcDbEntity
  8
cooler
100
AcDbLine
 10
261.0
 20
90.0
 30
0.0
 11
260.0
 21
87.0
 31
0.0
  0
LINE
  5
28D
330
2E6
100
AcDbEntity
  8
cooler
100
AcDbLine
 10
260.0
 20
87.0
 30
0.0
 11
260.0
 21
86.0
 31
0.0
  0
LINE
  5
28E
330
2E6
100
AcDbEntity
  8
cooler
100
AcDbLine
 10
260.0
 20
86.0
 30
0.0
 11
238.0
 21
86.0
 31
0.0
  0
LINE
  5
28F
330
2E6
100
AcDbEntity
  8
cooler
100
AcDbLine
 10
238.0
 20
82.0
 30
0.0
 11
259.0
 21
82.0
 31
0.0
  0
LINE
  5
290
330
2E6
100
AcDbEntity
  8
cooler
100
AcDbLine
 10
259.0
 20
82.0
 30
0.0
 11
259.0
 21
78.0
 31
0.0
  0
LINE
  5
291
330
2E6
100
AcDbEntity
  8
cooler
100
AcDbLine
 10
259.0
 20
78.0
 30
0.0
 11
238.0
 21
78.0
 31
0.0
  0
LINE
  5
292
330
2E6
100
AcDbEntity
  8
cooler
100
AcDbLine
 10
238.0
 20
74.0
 30
0.0
 11
260.0
 21
74.0
 31
0.0
  0
LINE
  5
293
330
2E6
100
AcDbEntity
  8
cooler
100
AcDbLine
 10
260.0
 20
74.0
 30
0.0
 11
262.0
 21
70.0
 31
0.0
  0
LINE
  5
294
330
2E6
100
AcDbEntity
  8
cooler
100
AcDbLine
 10
262.0
 20
70.0
 30
0.0
 11
238.0
 21
70.0
 31
0.0
  0
LINE
  5
295
330
2E6
100
AcDbEntity
  8
cooler
100
AcDbLine
 10
238.0
 20
66.0
 30
0.0
 11
264.0
 21
66.0
 31
0.0
  0
LINE
  5
296
330
2E6
100
AcDbEntity
  8
cooler
100
AcDbLine
 10
264.0
 20
66.0
 30
0.0
 11
269.0
 21
62.0
 31
0.0
  0
LINE
  5
297
330
2E6
100
AcDbEntity
  8
cooler
100
AcDbLine
 10
269.0
 20
62.0
 30
0.0
 11
238.0
 21
62.0
 31
0.0
  0
LINE
  5
298
330
2E6
100
AcDbEntity
  8
cooler
100
AcDbLine
 10
238.0
 20
100.0
 30
0.0
 11
238.0
 21
98.0
 31
0.0
  0
LINE
  5
299
330
2E6
100
AcDbEntity
  8
cooler
100
AcDbLine
 10
238.0
 20
94.0
 30
0.0
 11
238.0
 21
90.0
 31
0.0
  0
LINE
  5
29A
330
2E6
100
AcDbEntity
  8
cooler
100
AcDbLine
 10
238.0
 20
86.0
 30
0.0
 11
238.0
 21
82.0
 31
0.0
  0
LINE
  5
29B
330
2E6
100
AcDbEntity
  8
cooler
100
AcDbLine
 10
238.0
 20
78.0
 30
0.0
 11
238.0
 21
74.0
 31
0.0
  0
LINE
  5
29C
330
2E6
100
AcDbEntity
  8
cooler
100
AcDbLine
 10
238.0
 20
70.0
 30
0.0
 11
238.0
 21
66.0
 31
0.0
  0
LINE
  5
29D
330
2E6
100
AcDbEntity
  8
cooler
100
AcDbLine
 10
238.0
 20
62.0
 30
0.0
 11
238.0
 21
60.0
 31
0.0
  0
LINE
  5
29E
330
2E6
100
AcDbEntity
  8
cooler
100
AcDbLine
 10
168.9036826261466
 20
83.43163027112004
 30
0.0
 11
168.9036826261466
 21
81.43163027112004
 31
0.0
  0
LINE
  5
29F
330
2E6
100
AcDbEntity
  8
cooler
100
AcDbLine
 10
168.9036826261466
 20
77.43163027112004
 30
0.0
 11
168.9036826261466
 21
73.43163027112004
 31
0.0
  0
LINE
  5
2A0
330
2E6
100
AcDbEntity
  8
cooler
100
AcDbLine
 10
168.9036826261466
 20
69.43163027112004
 30
0.0
 11
168.9036826261466
 21
65.43163027112004
 31
0.0
  0
LINE
  5
2A1
330
2E6
100
AcDbEntity
  8
cooler
100
AcDbLine
 10
168.9036826261466
 20
61.43163027112004
 30
0.0
 11
168.9036826261466
 21
57.43163027112004
 31
0.0
  0
LINE
  5
2A2
330
2E6
100
AcDbEntity
  8
cooler
100
AcDbLine
 10
168.9036826261466
 20
53.43163027112004
 30
0.0
 11
168.9036826261466
 21
49.43163027112004
 31
0.0
  0
LINE
  5
2A3
330
2E6
100
AcDbEntity
  8
cooler
100
AcDbLine
 10
168.9036826261466
 20
45.43163027112004
 30
0.0
 11
168.9036826261466
 21
43.43163027112004
 31
0.0
  0
LINE
  5
2A4
330
2E6
100
AcDbEntity
  8
cooler
100
AcDbLine
 10
210.9036826261466
 20
85.43163027112004
 30
0.0
 11
170.9036826261466
 21
85.43163027112004
 31
0.0
  0
LINE
  5
2A5
330
2E6
100
AcDbEntity
  8
cooler
100
AcDbLine
 10
170.9036826261466
 20
85.43163027112004
 30
0.0
 11
168.9036826261466
 21
83.43163027112004
 31
0.0
  0
LINE
  5
2A6
330
2E6
100
AcDbEntity
  8
cooler
100
AcDbLine
 10
168.9036826261466
 20
43.43163027112004
 30
0.0
 11
170.9036826261466
 21
41.43163027112004
 31
0.0
  0
LINE
  5
2A7
330
2E6
100
AcDbEntity
  8
cooler
100
AcDbLine
 10
170.9036826261466
 20
41.43163027112004
 30
0.0
 11
210.9036826261466
 21
41.43163027112004
 31
0.0
  0
ARC
  5
2A8
330
2E6
100
AcDbEntity
  8
cooler
100
AcDbCircle
 10
210.9036826261466
 20
63.43163027112004
 30
0.0
 40
22.0
100
AcDbArc
 50
270.0
 51
0.0
  0
ARC
  5
2A9
330
2E6
100
AcDbEntity
  8
cooler
100
AcDbCircle
 10
210.9036826261466
 20
63.43163027112004
 30
0.0
 40
17.25
100
AcDbArc
 50
90.0
 51
0.0
  0
LINE
  5
2AA
330
2E6
100
AcDbEntity
  8
cooler
100
AcDbLine
 10
210.9036826261466
 20
85.43163027112004
 30
0.0
 11
210.9036826261466
 21
80.68163027112004
 31
0.0
  0
LINE
  5
2AB
330
2E6
100
AcDbEntity
  8
cooler
100
AcDbLine
 10
228.1536826261466
 20
63.43163027112004
 30
0.0
 11
232.9036826261466
 21
63.43163027112004
 31
0.0
  0
LINE
  5
2AC
330
2E6
100
AcDbEntity
  8
cooler
100
AcDbLine
 10
168.9036826261466
 20
81.43163027112004
 30
0.0
 11
198.9036826261466
 21
81.43163027112004
 31
0.0
  0
LINE
  5
2AD
330
2E6
100
AcDbEntity
  8
cooler
100
AcDbLine
 10
198.9036826261466
 20
81.43163027112004
 30
0.0
 11
194.9036826261466
 21
78.43163027112004
 31
0.0
  0
LINE
  5
2AE
330
2E6
100
AcDbEntity
  8
cooler
100
AcDbLine
 10
194.9036826261466
 20
78.43163027112004
 30
0.0
 11
193.9036826261466
 21
77.43163027112004
 31
0.0
  0
LINE
  5
2AF
330
2E6
100
AcDbEntity
  8
cooler
100
AcDbLine
 10
193.9036826261466
 20
77.43163027112004
 30
0.0
 11
168.9036826261466
 21
77.43163027112004
 31
0.0
  0
LINE
  5
2B0
330
2E6
100
AcDbEntity
  8
cooler
100
AcDbLine
 10
168.9036826261466
 20
73.43163027112004
 30
0.0
 11
191.9036826261466
 21
73.43163027112004
 31
0.0
  0
LINE
  5
2B1
330
2E6
100
AcDbEntity
  8
cooler
100
AcDbLine
 10
191.9036826261466
 20
73.43163027112004
 30
0.0
 11
190.9036826261466
 21
70.43163027112004
 31
0.0
  0
LINE
  5
2B2
330
2E6
100
AcDbEntity
  8
cooler
100
AcDbLine
 10
190.9036826261466
 20
70.43163027112004
 30
0.0
 11
190.9036826261466
 21
69.43163027112004
 31
0.0
  0
LINE
  5
2B3
330
2E6
100
AcDbEntity
  8
cooler
100
AcDbLine
 10
190.9036826261466
 20
69.43163027112004
 30
0.0
 11
168.9036826261466
 21
69.43163027112004
 31
0.0
  0
LINE
  5
2B4
330
2E6
100
AcDbEntity
  8
cooler
100
AcDbLine
 10
168.9036826261466
 20
65.43163027112004
 30
0.0
 11
189.9036826261466
 21
65.43163027112004
 31
0.0
  0
LINE
  5
2B5
330
2E6
100
AcDbEntity
  8
cooler
100
AcDbLine
 10
189.9036826261466
 20
65.43163027112004
 30
0.0
 11
189.9036826261466
 21
61.43163027112004
 31
0.0
  0
LINE
  5
2B6
330
2E6
100
AcDbEntity
  8
cooler
100
AcDbLine
 10
189.9036826261466
 20
61.43163027112004
 30
0.0
 11
168.9036826261466
 21
61.43163027112004
 31
0.0
  0
LINE
  5
2B7
330
2E6
100
AcDbEntity
  8
cooler
100
AcDbLine
 10
168.9036826261466
 20
57.43163027112004
 30
0.0
 11
190.9036826261466
 21
57.43163027112004
 31
0.0
  0
LINE
  5
2B8
330
2E6
100
AcDbEntity
  8
cooler
100
AcDbLine
 10
190.9036826261466
 20
57.43163027112004
 30
0.0
 11
192.9036826261466
 21
53.43163027112004
 31
0.0
  0
LINE
  5
2B9
330
2E6
100
AcDbEntity
  8
cooler
100
AcDbLine
 10
192.9036826261466
 20
53.43163027112004
 30
0.0
 11
168.9036826261466
 21
53.43163027112004
 31
0.0
  0
LINE
  5
2BA
330
2E6
100
AcDbEntity
  8
cooler
100
AcDbLine
 10
168.9036826261466
 20
49.43163027112004
 30
0.0
 11
194.9036826261466
 21
49.43163027112004
 31
0.0
  0
LINE
  5
2BB
330
2E6
100
AcDbEntity
  8
cooler
100
AcDbLine
 10
194.9036826261466
 20
49.43163027112004
 30
0.0
 11
199.9036826261466
 21
45.43163027112004
 31
0.0
  0
LINE
  5
2BC
330
2E6
100
AcDbEntity
  8
cooler
100
AcDbLine
 10
199.9036826261466
 20
45.43163027112004
 30
0.0
 11
168.9036826261466
 21
45.43163027112004
 31
0.0
  0
CIRCLE
  5
2C2
330
2E6
100
AcDbEntity
  8
Outside
100
AcDbCircle
 10
350.0
 20
10.0
 30
0.0
 40
4.0
  0
CIRCLE
  5
2C3
330
2E6
100
AcDbEntity
  8
Outside
100
AcDbCircle
 10
20.0
 20
10.0
 30
0.0
 40
4.0
  0
CIRCLE
  5
2C4
330
2E6
100
AcDbEntity
  8
Outside
100
AcDbCircle
 10
3.739999999999966
 20
181.2799999999999
 30
0.0
 40
1.3
  0
CIRCLE
  5
2C5
330
2E6
100
AcDbEntity
  8
Outside
100
AcDbCircle
 10
52.0
 20
174.93
 30
0.0
 40
1.3
  0
CIRCLE
  5
2C6
330
2E6
100
AcDbEntity
  8
Outside
100
AcDbCircle
 10
52.0
 20
100.0
 30
0.0
 40
1.3
  0
CIRCLE
  5
2C7
330
2E6
100
AcDbEntity
  8
Outside
100
AcDbCircle
 10
3.740000000000009
 20
100.0
 30
0.0
 40
1.3
  0
ENDSEC
  0
SECTION
  2
OBJECTS
  0
DICTIONARY
  5
2D4
330
0
100
AcDbDictionary
281
     1
  3
ACAD_GROUP
350
2D5
  3
ACAD_LAYOUT
350
2E1
  3
ACAD_MATERIAL
350
302
  3
ACAD_MLEADERSTYLE
350
338
  3
ACAD_MLINESTYLE
350
2DE
  3
ACAD_PLOTSETTINGS
350
2E0
  3
ACAD_PLOTSTYLENAME
350
2D6
  3
ACAD_TABLESTYLE
350
337
  3
ACAD_VISUALSTYLE
350
2F1
  3
QCAD_OBJECTS
350
307
  0
DICTIONARY
  5
2D5
102
{ACAD_REACTORS
330
2D4
102
}
330
2D4
100
AcDbDictionary
281
     1
  0
DICTIONARY
  5
2E1
102
{ACAD_REACTORS
330
2D4
102
}
330
2D4
100
AcDbDictionary
281
     1
  3
Layout1
350
2E5
  3
Layout2
350
2ED
  3
Model
350
2E9
  0
DICTIONARY
  5
302
102
{ACAD_REACTORS
330
2D4
102
}
330
2D4
100
AcDbDictionary
281
     1
  3
ByBlock
350
304
  3
ByLayer
350
303
  3
Global
350
305
  0
DICTIONARY
  5
338
102
{ACAD_REACTORS
330
2D4
102
}
330
2D4
100
AcDbDictionary
281
     1
  0
DICTIONARY
  5
2DE
102
{ACAD_REACTORS
330
2D4
102
}
330
2D4
100
AcDbDictionary
281
     1
  3
Standard
350
2DF
  0
DICTIONARY
  5
2E0
102
{ACAD_REACTORS
330
2D4
102
}
330
2D4
100
AcDbDictionary
281
     1
  0
ACDBDICTIONARYWDFLT
  5
2D6
102
{ACAD_REACTORS
330
2D4
102
}
330
2D4
100
AcDbDictionary
281
     1
  3
Normal
350
2D7
100
AcDbDictionaryWithDefault
340
2D7
  0
DICTIONARY
  5
337
102
{ACAD_REACTORS
330
2D4
102
}
330
2D4
100
AcDbDictionary
281
     1
  0
DICTIONARY
  5
2F1
102
{ACAD_REACTORS
330
2D4
102
}
330
2D4
100
AcDbDictionary
281
     1
  3
2dWireframe
350
2F6
  3
3D Hidden
350
2F8
  3
3dWireframe
350
2F7
  3
Basic
350
2F9
  3
Brighten
350
2FD
  3
ColorChange
350
301
  3
Conceptual
350
2FB
  3
Dim
350
2FC
  3
Facepattern
350
300
  3
Flat
350
2F2
  3
FlatWithEdges
350
2F3
  3
Gouraud
350
2F4
  3
GouraudWithEdges
350
2F5
  3
Linepattern
350
2FF
  3
Realistic
350
2FA
  3
Thicken
350
2FE
  0
DICTIONARY
  5
307
102
{ACAD_REACTORS
330
2D4
102
}
330
2D4
100
AcDbDictionary
281
     1
  3
Grid/DisplayGrid
350
318
  3
Grid/GridSpacingX
350
311
  3
Grid/GridSpacingY
350
313
  3
Grid/MetaGridSpacingX
350
30B
  3
Grid/MetaGridSpacingY
350
30F
  3
MultiPageSettings/Columns
350
310
  3
MultiPageSettings/GlueMarginBottom
350
30C
  3
MultiPageSettings/GlueMarginsLeft
350
314
  3
MultiPageSettings/GlueMarginsRight
350
308
  3
MultiPageSettings/GlueMarginsTop
350
31C
  3
MultiPageSettings/PrintCropMarks
350
30A
  3
MultiPageSettings/Rows
350
315
  3
PageSettings/OffsetX
350
31A
  3
PageSettings/OffsetY
350
31B
  3
PageSettings/PageOrientation
350
309
  3
PageSettings/PaperHeight
350
30D
  3
PageSettings/PaperWidth
350
316
  3
PageSettings/Scale
350
30E
  3
PageSettings/ShowBoundingBox
350
312
  3
PageSettings/ShowPageBorders
350
319
  3
UnitSettings/PaperUnit
350
317
  0
LAYOUT
  5
2E5
102
{ACAD_REACTORS
330
2E1
102
}
330
2E1
100
AcDbPlotSettings
  1

  2
none_device
  4

  6

 40
0.0
 41
0.0
 42
0.0
 43
0.0
 44
0.0
 45
0.0
 46
0.0
 47
0.0
 48
0.0
 49
0.0
140
0.0
141
0.0
142
1.0
143
1.0
 70
   688
 72
     0
 73
     0
 74
     5
  7

 75
    16
 76
     0
 77
     2
 78
   300
147
1.0
148
0.0
149
0.0
100
AcDbLayout
  1
Layout1
 70
     1
 71
     1
 10
0.0
 20
0.0
 11
12.0
 21
9.0
 12
0.0
 22
0.0
 32
0.0
 14
1.000000000000000E+20
 24
1.000000000000000E+20
 34
1.000000000000000E+20
 15
-1.000000000000000E+20
 25
-1.000000000000000E+20
 35
-1.000000000000000E+20
146
0.0
 13
0.0
 23
0.0
 33
0.0
 16
1.0
 26
0.0
 36
0.0
 17
0.0
 27
1.0
 37
0.0
 76
     0
330
2E2
  0
LAYOUT
  5
2ED
102
{ACAD_REACTORS
330
2E1
102
}
330
2E1
100
AcDbPlotSettings
  1

  2
none_device
  4

  6

 40
0.0
 41
0.0
 42
0.0
 43
0.0
 44
0.0
 45
0.0
 46
0.0
 47
0.0
 48
0.0
 49
0.0
140
0.0
141
0.0
142
1.0
143
1.0
 70
   688
 72
     0
 73
     0
 74
     5
  7

 75
    16
 76
     0
 77
     2
 78
   300
147
1.0
148
0.0
149
0.0
100
AcDbLayout
  1
Layout2
 70
     1
 71
     2
 10
0.0
 20
0.0
 11
0.0
 21
0.0
 12
0.0
 22
0.0
 32
0.0
 14
0.0
 24
0.0
 34
0.0
 15
0.0
 25
0.0
 35
0.0
146
0.0
 13
0.0
 23
0.0
 33
0.0
 16
1.0
 26
0.0
 36
0.0
 17
0.0
 27
1.0
 37
0.0
 76
     0
330
2EA
  0
LAYOUT
  5
2E9
102
{ACAD_REACTORS
330
2E1
102
}
330
2E1
100
AcDbPlotSettings
  1

  2
none_device
  4

  6

 40
0.0
 41
0.0
 42
0.0
 43
0.0
 44
0.0
 45
0.0
 46
0.0
 47
0.0
 48
0.0
 49
0.0
140
0.0
141
0.0
142
1.0
143
1.0
 70
  1712
 72
     0
 73
     0
 74
     0
  7

 75
     0
 76
     0
 77
     2
 78
   300
147
1.0
148
0.0
149
0.0
100
AcDbLayout
  1
Model
 70
     1
 71
     0
 10
0.0
 20
0.0
 11
12.0
 21
9.0
 12
0.0
 22
0.0
 32
0.0
 14
1.000000000000000E+20
 24
1.000000000000000E+20
 34
1.000000000000000E+20
 15
-1.000000000000000E+20
 25
-1.000000000000000E+20
 35
-1.000000000000000E+20
146
0.0
 13
0.0
 23
0.0
 33
0.0
 16
1.0
 26
0.0
 36
0.0
 17
0.0
 27
1.0
 37
0.0
 76
     0
330
2E6
331
2F0
  0
MATERIAL
  5
304
102
{ACAD_REACTORS
330
302
102
}
330
302
100
AcDbMaterial
  1
ByBlock
 72
     1
 94
      127
  0
MATERIAL
  5
303
102
{ACAD_REACTORS
330
302
102
}
330
302
100
AcDbMaterial
  1
ByLayer
 72
     1
 94
      127
  0
MATERIAL
  5
305
102
{ACAD_REACTORS
330
302
102
}
330
302
100
AcDbMaterial
  1
Global
 72
     1
 94
      127
  0
MLINESTYLE
  5
2DF
102
{ACAD_REACTORS
330
2DE
102
}
330
2DE
100
AcDbMlineStyle
  2
Standard
 70
     0
  3

 62
   256
 51
90.0
 52
90.0
 71
     2
 49
0.5
 62
   256
  6
BYLAYER
 49
-0.5
 62
   256
  6
BYLAYER
  0
ACDBPLACEHOLDER
  5
2D7
102
{ACAD_REACTORS
330
2D6
102
}
330
2D6
  0
VISUALSTYLE
  5
2F6
102
{ACAD_REACTORS
330
2F1
102
}
330
2F1
100
AcDbVisualStyle
  2
2dWireframe
 70
     4
177
     2
291
     0
 71
     0
176
     1
 72
     2
176
     1
 73
     0
176
     1
 90
        0
176
     1
 40
-0.6
176
     1
 41
-30.0
176
     1
 62
     5
 63
     7
421
 16777215
176
     1
 74
     1
176
     1
 91
        4
176
     1
 64
     7
176
     1
 65
   257
176
     1
 75
     1
176
     1
175
     1
176
     1
 42
1.0
176
     1
 92
        0
176
     1
 66
   257
176
     1
 43
1.0
176
     1
 76
     1
176
     1
 77
     6
176
     1
 78
     2
176
     1
 67
     7
176
     1
 79
     5
176
     1
170
     0
176
     1
171
     0
176
     1
290
     0
176
     1
 93
        1
176
     1
 44
0.0
176
     1
173
     0
176
     1
  0
VISUALSTYLE
  5
2F8
102
{ACAD_REACTORS
330
2F1
102
}
330
2F1
100
AcDbVisualStyle
  2
3D Hidden
 70
     6
177
     2
291
     0
 71
     1
176
     1
 72
     2
176
     1
 73
     2
176
     1
 90
        0
176
     1
 40
-0.6
176
     1
 41
-30.0
176
     1
 62
     5
 63
     7
421
 16777215
176
     1
 74
     2
176
     1
 91
        2
176
     1
 64
     7
176
     1
 65
   257
176
     1
 75
     2
176
     1
175
     1
176
     1
 42
40.0
176
     1
 92
        0
176
     1
 66
   257
176
     1
 43
1.0
176
     1
 76
     1
176
     1
 77
     6
176
     1
 78
     2
176
     1
 67
     7
176
     1
 79
     3
176
     1
170
     0
176
     1
171
     0
176
     1
290
     0
176
     1
 93
        1
176
     1
 44
0.0
176
     1
173
     0
176
     1
  0
VISUALSTYLE
  5
2F7
102
{ACAD_REACTORS
330
2F1
102
}
330
2F1
100
AcDbVisualStyle
  2
3dWireframe
 70
     5
177
     2
291
     0
 71
     0
176
     1
 72
     2
176
     1
 73
     0
176
     1
 90
        0
176
     1
 40
-0.6
176
     1
 41
-30.0
176
     1
 62
     5
 63
     7
421
 16777215
176
     1
 74
     1
176
     1
 91
        4
176
     1
 64
     7
176
     1
 65
   257
176
     1
 75
     1
176
     1
175
     1
176
     1
 42
1.0
176
     1
 92
        0
176
     1
 66
   257
176
     1
 43
1.0
176
     1
 76
     1
176
     1
 77
     6
176
     1
 78
     2
176
     1
 67
     7
176
     1
 79
     5
176
     1
170
     0
176
     1
171
     0
176
     1
290
     0
176
     1
 93
        1
176
     1
 44
0.0
176
     1
173
     0
176
     1
  0
VISUALSTYLE
  5
2F9
102
{ACAD_REACTORS
330
2F1
102
}
330
2F1
100
AcDbVisualStyle
  2
Basic
 70
     7
177
     2
291
     1
 71
     1
176
     1
 72
     0
176
     1
 73
     1
176
     1
 90
        0
176
     1
 40
-0.6
176
     1
 41
-30.0
176
     1
 62
     5
 63
     7
421
 16777215
176
     1
 74
     0
176
     1
 91
        4
176
     1
 64
     7
176
     1
 65
   257
176
     1
 75
     1
176
     1
175
     1
176
     1
 42
1.0
176
     1
 92
        8
176
     1
 66
     7
176
     1
 43
1.0
176
     1
 76
     1
176
     1
 77
     6
176
     1
 78
     2
176
     1
 67
     7
176
     1
 79
     5
176
     1
170
     0
176
     1
171
     0
176
     1
290
     0
176
     1
 93
        1
176
     1
 44
0.0
176
     1
173
     0
176
     1
  0
VISUALSTYLE
  5
2FD
102
{ACAD_REACTORS
330
2F1
102
}
330
2F1
100
AcDbVisualStyle
  2
Brighten
 70
    12
177
     2
291
     1
 71
     2
176
     1
 72
     2
176
     1
 73
     0
176
     1
 90
        0
176
     1
 40
-0.6
176
     1
 41
-30.0
176
     1
 62
     5
 63
     7
421
 16777215
176
     1
 74
     1
176
     1
 91
        4
176
     1
 64
     7
176
     1
 65
   257
176
     1
 75
     1
176
     1
175
     1
176
     1
 42
1.0
176
     1
 92
        8
176
     1
 66
     7
176
     1
 43
1.0
176
     1
 76
     1
176
     1
 77
     6
176
     1
 78
     2
176
     1
 67
     7
176
     1
 79
     5
176
     1
170
     0
176
     1
171
     0
176
     1
290
     0
176
     1
 93
        1
176
     1
 44
50.0
176
     1
173
     0
176
     1
  0
VISUALSTYLE
  5
301
102
{ACAD_REACTORS
330
2F1
102
}
330
2F1
100
AcDbVisualStyle
  2
ColorChange
 70
    16
177
     2
291
     1
 71
     2
176
     1
 72
     2
176
     1
 73
     3
176
     1
 90
        0
176
     1
 40
-0.6
176
     1
 41
-30.0
176
     1
 62
     5
 63
     8
421
  8421504
176
     1
 74
     1
176
     1
 91
        4
176
     1
 64
     7
176
     1
 65
   257
176
     1
 75
     1
176
     1
175
     1
176
     1
 42
1.0
176
     1
 92
        8
176
     1
 66
     8
424
  8421504
176
     1
 43
1.0
176
     1
 76
     1
176
     1
 77
     6
176
     1
 78
     2
176
     1
 67
     7
176
     1
 79
     5
176
     1
170
     0
176
     1
171
     0
176
     1
290
     0
176
     1
 93
        1
176
     1
 44
0.0
176
     1
173
     0
176
     1
  0
VISUALSTYLE
  5
2FB
102
{ACAD_REACTORS
330
2F1
102
}
330
2F1
100
AcDbVisualStyle
  2
Conceptual
 70
     9
177
     2
291
     0
 71
     3
176
     1
 72
     2
176
     1
 73
     0
176
     1
 90
        0
176
     1
 40
-0.6
176
     1
 41
-30.0
176
     1
 62
     5
 63
     7
421
 16777215
176
     1
 74
     2
176
     1
 91
        2
176
     1
 64
     7
176
     1
 65
   257
176
     1
 75
     1
176
     1
175
     1
176
     1
 42
40.0
176
     1
 92
        8
176
     1
 66
     7
176
     1
 43
1.0
176
     1
 76
     1
176
     1
 77
     6
176
     1
 78
     2
176
     1
 67
     7
176
     1
 79
     3
176
     1
170
     0
176
     1
171
     0
176
     1
290
     0
176
     1
 93
        1
176
     1
 44
0.0
176
     1
173
     0
176
     1
  0
VISUALSTYLE
  5
2FC
102
{ACAD_REACTORS
330
2F1
102
}
330
2F1
100
AcDbVisualStyle
  2
Dim
 70
    11
177
     2
291
     1
 71
     2
176
     1
 72
     2
176
     1
 73
     0
176
     1
 90
        0
176
     1
 40
-0.6
176
     1
 41
-30.0
176
     1
 62
     5
 63
     7
421
 16777215
176
     1
 74
     1
176
     1
 91
        4
176
     1
 64
     7
176
     1
 65
   257
176
     1
 75
     1
176
     1
175
     1
176
     1
 42
1.0
176
     1
 92
        8
176
     1
 66
     7
176
     1
 43
1.0
176
     1
 76
     1
176
     1
 77
     6
176
     1
 78
     2
176
     1
 67
     7
176
     1
 79
     5
176
     1
170
     0
176
     1
171
     0
176
     1
290
     0
176
     1
 93
        1
176
     1
 44
-50.0
176
     1
173
     0
176
     1
  0
VISUALSTYLE
  5
300
102
{ACAD_REACTORS
330
2F1
102
}
330
2F1
100
AcDbVisualStyle
  2
Facepattern
 70
    15
177
     2
291
     1
 71
     2
176
     1
 72
     2
176
     1
 73
     0
176
     1
 90
        0
176
     1
 40
-0.6
176
     1
 41
-30.0
176
     1
 62
     5
 63
     7
421
 16777215
176
     1
 74
     1
176
     1
 91
        4
176
     1
 64
     7
176
     1
 65
   257
176
     1
 75
     1
176
     1
175
     1
176
     1
 42
1.0
176
     1
 92
        8
176
     1
 66
     7
176
     1
 43
1.0
176
     1
 76
     1
176
     1
 77
     6
176
     1
 78
     2
176
     1
 67
     7
176
     1
 79
     5
176
     1
170
     0
176
     1
171
     0
176
     1
290
     0
176
     1
 93
        1
176
     1
 44
0.0
176
     1
173
     0
176
     1
  0
VISUALSTYLE
  5
2F2
102
{ACAD_REACTORS
330
2F1
102
}
330
2F1
100
AcDbVisualStyle
  2
Flat
 70
     0
177
     2
291
     1
 71
     2
176
     1
 72
     1
176
     1
 73
     1
176
     1
 90
        2
176
     1
 40
-0.6
176
     1
 41
30.0
176
     1
 62
     5
 63
     7
421
 16777215
176
     1
 74
     0
176
     1
 91
        4
176
     1
 64
     7
176
     1
 65
   257
176
     1
 75
     1
176
     1
175
     1
176
     1
 42
1.0
176
     1
 92
        8
176
     1
 66
     7
176
     1
 43
1.0
176
     1
 76
     1
176
     1
 77
     6
176
     1
 78
     2
176
     1
 67
     7
176
     1
 79
     5
176
     1
170
     0
176
     1
171
     0
176
     1
290
     0
176
     1
 93
       13
176
     1
 44
0.0
176
     1
173
     0
176
     1
  0
VISUALSTYLE
  5
2F3
102
{ACAD_REACTORS
330
2F1
102
}
330
2F1
100
AcDbVisualStyle
  2
FlatWithEdges
 70
     1
177
     2
291
     1
 71
     2
176
     1
 72
     1
176
     1
 73
     1
176
     1
 90
        2
176
     1
 40
-0.6
176
     1
 41
30.0
176
     1
 62
     5
 63
     7
421
 16777215
176
     1
 74
     1
176
     1
 91
        4
176
     1
 64
     7
176
     1
 65
   257
176
     1
 75
     1
176
     1
175
     1
176
     1
 42
1.0
176
     1
 92
        0
176
     1
 66
   257
176
     1
 43
1.0
176
     1
 76
     1
176
     1
 77
     6
176
     1
 78
     2
176
     1
 67
     7
176
     1
 79
     5
176
     1
170
     0
176
     1
171
     0
176
     1
290
     0
176
     1
 93
       13
176
     1
 44
0.0
176
     1
173
     0
176
     1
  0
VISUALSTYLE
  5
2F4
102
{ACAD_REACTORS
330
2F1
102
}
330
2F1
100
AcDbVisualStyle
  2
Gouraud
 70
     2
177
     2
291
     1
 71
     2
176
     1
 72
     2
176
     1
 73
     1
176
     1
 90
        2
176
     1
 40
-0.6
176
     1
 41
30.0
176
     1
 62
     5
 63
     7
421
 16777215
176
     1
 74
     0
176
     1
 91
        4
176
     1
 64
     7
176
     1
 65
   257
176
     1
 75
     1
176
     1
175
     1
176
     1
 42
1.0
176
     1
 92
        0
176
     1
 66
     7
176
     1
 43
1.0
176
     1
 76
     1
176
     1
 77
     6
176
     1
 78
     2
176
     1
 67
     7
176
     1
 79
     5
176
     1
170
     0
176
     1
171
     0
176
     1
290
     0
176
     1
 93
       13
176
     1
 44
0.0
176
     1
173
     0
176
     1
  0
VISUALSTYLE
  5
2F5
102
{ACAD_REACTORS
330
2F1
102
}
330
2F1
100
AcDbVisualStyle
  2
GouraudWithEdges
 70
     3
177
     2
291
     1
 71
     2
176
     1
 72
     2
176
     1
 73
     1
176
     1
 90
        2
176
     1
 40
-0.6
176
     1
 41
30.0
176
     1
 62
     5
 63
     7
421
 16777215
176
     1
 74
     1
176
     1
 91
        4
176
     1
 64
     7
176
     1
 65
   257
176
     1
 75
     1
176
     1
175
     1
176
     1
 42
1.0
176
     1
 92
        0
176
     1
 66
   257
176
     1
 43
1.0
176
     1
 76
     1
176
     1
 77
     6
176
     1
 78
     2
176
     1
 67
     7
176
     1
 79
     5
176
     1
170
     0
176
     1
171
     0
176
     1
290
     0
176
     1
 93
       13
176
     1
 44
0.0
176
     1
173
     0
176
     1
  0
VISUALSTYLE
  5
2FF
102
{ACAD_REACTORS
330
2F1
102
}
330
2F1
100
AcDbVisualStyle
  2
Linepattern
 70
    14
177
     2
291
     1
 71
     2
176
     1
 72
     2
176
     1
 73
     0
176
     1
 90
        0
176
     1
 40
-0.6
176
     1
 41
-30.0
176
     1
 62
     5
 63
     7
421
 16777215
176
     1
 74
     1
176
     1
 91
        4
176
     1
 64
     7
176
     1
 65
   257
176
     1
 75
     7
176
     1
175
     7
176
     1
 42
1.0
176
     1
 92
        8
176
     1
 66
     7
176
     1
 43
1.0
176
     1
 76
     1
176
     1
 77
     6
176
     1
 78
     2
176
     1
 67
     7
176
     1
 79
     5
176
     1
170
     0
176
     1
171
     0
176
     1
290
     0
176
     1
 93
        1
176
     1
 44
0.0
176
     1
173
     0
176
     1
  0
VISUALSTYLE
  5
2FA
102
{ACAD_REACTORS
330
2F1
102
}
330
2F1
100
AcDbVisualStyle
  2
Realistic
 70
     8
177
     2
291
     0
 71
     2
176
     1
 72
     2
176
     1
 73
     0
176
     1
 90
        0
176
     1
 40
-0.6
176
     1
 41
-30.0
176
     1
 62
     5
 63
     7
421
 16777215
176
     1
 74
     1
176
     1
 91
        0
176
     1
 64
     7
176
     1
 65
   257
176
     1
 75
     1
176
     1
175
     1
176
     1
 42
1.0
176
     1
 92
        8
176
     1
 66
     8
424
  7895160
176
     1
 43
1.0
176
     1
 76
     1
176
     1
 77
     6
176
     1
 78
     2
176
     1
 67
     7
176
     1
 79
     5
176
     1
170
     0
176
     1
171
     0
176
     1
290
     0
176
     1
 93
       13
176
     1
 44
0.0
176
     1
173
     0
176
     1
  0
VISUALSTYLE
  5
2FE
102
{ACAD_REACTORS
330
2F1
102
}
330
2F1
100
AcDbVisualStyle
  2
Thicken
 70
    13
177
     2
291
     1
 71
     2
176
     1
 72
     2
176
     1
 73
     0
176
     1
 90
        0
176
     1
 40
-0.6
176
     1
 41
-30.0
176
     1
 62
     5
 63
     7
421
 16777215
176
     1
 74
     1
176
     1
 91
        4
176
     1
 64
     7
176
     1
 65
   257
176
     1
 75
     1
176
     1
175
     1
176
     1
 42
1.0
176
     1
 92
       12
176
     1
 66
     7
176
     1
 43
1.0
176
     1
 76
     1
176
     1
 77
     6
176
     1
 78
     2
176
     1
 67
     7
176
     1
 79
     5
176
     1
170
     0
176
     1
171
     0
176
     1
290
     0
176
     1
 93
        1
176
     1
 44
0.0
176
     1
173
     0
176
     1
  0
XRECORD
  5
318
102
{ACAD_REACTORS
330
307
102
}
330
307
100
AcDbXrecord
280
     1
290
     1
  0
XRECORD
  5
311
102
{ACAD_REACTORS
330
307
102
}
330
307
100
AcDbXrecord
280
     1
1000
auto
  0
XRECORD
  5
313
102
{ACAD_REACTORS
330
307
102
}
330
307
100
AcDbXrecord
280
     1
1000
auto
  0
XRECORD
  5
30B
102
{ACAD_REACTORS
330
307
102
}
330
307
100
AcDbXrecord
280
     1
1000
auto
  0
XRECORD
  5
30F
102
{ACAD_REACTORS
330
307
102
}
330
307
100
AcDbXrecord
280
     1
1000
auto
  0
XRECORD
  5
310
102
{ACAD_REACTORS
330
307
102
}
330
307
100
AcDbXrecord
280
     1
 90
        1
  0
XRECORD
  5
30C
102
{ACAD_REACTORS
330
307
102
}
330
307
100
AcDbXrecord
280
     1
 40
10.0
  0
XRECORD
  5
314
102
{ACAD_REACTORS
330
307
102
}
330
307
100
AcDbXrecord
280
     1
 40
10.0
  0
XRECORD
  5
308
102
{ACAD_REACTORS
330
307
102
}
330
307
100
AcDbXrecord
280
     1
 40
10.0
  0
XRECORD
  5
31C
102
{ACAD_REACTORS
330
307
102
}
330
307
100
AcDbXrecord
280
     1
 40
10.0
  0
XRECORD
  5
30A
102
{ACAD_REACTORS
330
307
102
}
330
307
100
AcDbXrecord
280
     1
290
     0
  0
XRECORD
  5
315
102
{ACAD_REACTORS
330
307
102
}
330
307
100
AcDbXrecord
280
     1
 90
        1
  0
XRECORD
  5
31A
102
{ACAD_REACTORS
330
307
102
}
330
307
100
AcDbXrecord
280
     1
 40
-25.40571428571424
  0
XRECORD
  5
31B
102
{ACAD_REACTORS
330
307
102
}
330
307
100
AcDbXrecord
280
     1
 40
-198.3057142857139
  0
XRECORD
  5
309
102
{ACAD_REACTORS
330
307
102
}
330
307
100
AcDbXrecord
280
     1
1000
Portrait
  0
XRECORD
  5
30D
102
{ACAD_REACTORS
330
307
102
}
330
307
100
AcDbXrecord
280
     1
 40
297.0
  0
XRECORD
  5
316
102
{ACAD_REACTORS
330
307
102
}
330
307
100
AcDbXrecord
280
     1
 40
210.0
  0
XRECORD
  5
30E
102
{ACAD_REACTORS
330
307
102
}
330
307
100
AcDbXrecord
280
     1
1000
1:2
  0
XRECORD
  5
312
102
{ACAD_REACTORS
330
307
102
}
330
307
100
AcDbXrecord
280
     1
290
     0
  0
XRECORD
  5
319
102
{ACAD_REACTORS
330
307
102
}
330
307
100
AcDbXrecord
280
     1
290
     1
  0
XRECORD
  5
317
102
{ACAD_REACTORS
330
307
102
}
330
307
100
AcDbXrecord
280
     1
 90
        4
  0
ENDSEC
  0
EOF
